<?xml version="1.0" encoding="UTF-8" standalone="no"?>
<svg
   clip-rule="evenodd"
   fill-rule="evenodd"
   height="914"
   image-rendering="optimizeQuality"
   shape-rendering="geometricPrecision"
   text-rendering="geometricPrecision"
   viewBox="0 0 94.32 34.5"
   width="2500"
   version="1.1"
   id="svg8"
   sodipodi:docname="oracle-logo-1.svg"
   inkscape:version="1.2.2 (732a01da63, 2022-12-09)"
   xmlns:inkscape="http://www.inkscape.org/namespaces/inkscape"
   xmlns:sodipodi="http://sodipodi.sourceforge.net/DTD/sodipodi-0.dtd"
   xmlns="http://www.w3.org/2000/svg"
   xmlns:svg="http://www.w3.org/2000/svg">
  <defs
     id="defs12" />
  <sodipodi:namedview
     id="namedview10"
     pagecolor="#ffffff"
     bordercolor="#000000"
     borderopacity="0.25"
     inkscape:showpageshadow="2"
     inkscape:pageopacity="0.0"
     inkscape:pagecheckerboard="0"
     inkscape:deskcolor="#d1d1d1"
     showgrid="false"
     inkscape:zoom="0.5468"
     inkscape:cx="1148.5004"
     inkscape:cy="458.11997"
     inkscape:window-width="1920"
     inkscape:window-height="991"
     inkscape:window-x="-9"
     inkscape:window-y="-9"
     inkscape:window-maximized="1"
     inkscape:current-layer="g6" />
  <g
     fill-rule="nonzero"
     id="g6">
    <path
       d="M0 34.5h94.32V0H0z"
       fill="#e32124"
       id="path2" />
    <path
       d="m 82.17,13.8 c 0.07,0 0.14,0 0.18,-0.07 0.01,-0.03 0.02,-0.06 0.02,-0.09 5.16e-4,-0.05767 -0.03005,-0.111164 -0.08,-0.14 -0.05,-0.02 -0.1,-0.02 -0.21,-0.02 h -0.05 v 0.31 h 0.14 z m -0.09,-0.49 c 0.15,0 0.22,0 0.28,0.03 0.2,0.06 0.22,0.24 0.22,0.3 0,0.01 0,0.05 -0.01,0.09 -0.01,0.04 -0.03,0.12 -0.14,0.19 -0.02,0.01 -0.02,0.01 -0.05,0.02 l 0.25,0.46 h -0.24 l -0.22,-0.42 h -0.14 v 0.42 h -0.22 v -1.09 z m 0.09,1.54 c 1.293333,0 1.293333,-1.94 0,-1.94 -0.53,0 -0.96,0.43 -0.96,0.97 0,0.53 0.43,0.97 0.96,0.97 z m -0.76,-0.97 c 0,-0.42 0.34,-0.77 0.76,-0.77 0.43,0 0.77,0.35 0.77,0.77 0,0.41 -0.35,0.76 -0.77,0.76 -0.41,0 -0.76,-0.35 -0.76,-0.76 z m -6.74,6.17 c -1.28,0 -2.35,-0.86 -2.68,-2.03 h 7.08 l 0.98,-1.52 h -8.07 c 0.336426,-1.202936 1.430912,-2.036052 2.68,-2.04 h 4.88 l 0.97,-1.52 h -5.96 c -2.39,0 -4.32,1.93 -4.32,4.31 0,2.38 1.93,4.31 4.32,4.31 h 5.12 l 0.97,-1.52 h -5.98 z m -51.79,0 c 1.54,0 2.8,-1.25 2.8,-2.79 0,-1.54 -1.25,-2.79 -2.8,-2.79 h -4.79 c -3.621724,0.09698 -3.621724,5.483023 0,5.58 z m -4.9,1.52 c -2.39,0 -4.32,-1.93 -4.32,-4.31 0,-2.38 1.93,-4.31 4.32,-4.31 h 5.01 c 5.746664,0 5.746664,8.62 0,8.62 z"
       fill="#fefefe"
       id="path4"
       sodipodi:nodetypes="ccccsccccscsscccccccccssssssssssccccccccsssccccsssccsssssss" />
  </g>
</svg>
