<?xml version="1.0" encoding="UTF-8" standalone="no"?>
<svg
   version="1.1"
   width="1024px"
   height="1024px"
   style="shape-rendering:geometricPrecision; text-rendering:geometricPrecision; image-rendering:optimizeQuality; fill-rule:evenodd; clip-rule:evenodd"
   id="svg270"
   sodipodi:docname="Kweichow-Moutai-Logo-SVG_001.svg"
   inkscape:version="1.2.2 (732a01da63, 2022-12-09)"
   xmlns:inkscape="http://www.inkscape.org/namespaces/inkscape"
   xmlns:sodipodi="http://sodipodi.sourceforge.net/DTD/sodipodi-0.dtd"
   xmlns="http://www.w3.org/2000/svg"
   xmlns:svg="http://www.w3.org/2000/svg">
  <defs
     id="defs274" />
  <sodipodi:namedview
     id="namedview272"
     pagecolor="#ffffff"
     bordercolor="#000000"
     borderopacity="0.25"
     inkscape:showpageshadow="2"
     inkscape:pageopacity="0.0"
     inkscape:pagecheckerboard="0"
     inkscape:deskcolor="#d1d1d1"
     showgrid="false"
     inkscape:zoom="0.7890625"
     inkscape:cx="442.29703"
     inkscape:cy="512.63366"
     inkscape:window-width="1920"
     inkscape:window-height="991"
     inkscape:window-x="-9"
     inkscape:window-y="-9"
     inkscape:window-maximized="1"
     inkscape:current-layer="svg270" />
  <g
     id="g4">
    <path
       style="opacity:1"
       fill="#ec1d24"
       d="M 545.5,133.5 C 550.203,133.437 554.87,133.771 559.5,134.5C 578.115,138.149 596.781,142.149 615.5,146.5C 654.001,159.5 690.334,177 724.5,199C 733.731,205.745 743.065,212.245 752.5,218.5C 753.167,218.5 753.5,218.833 753.5,219.5C 754.585,221.587 756.251,222.92 758.5,223.5C 768.48,230.815 777.48,239.148 785.5,248.5C 785.5,250.5 786.5,251.5 788.5,251.5C 789.833,253.167 791.167,254.833 792.5,256.5C 793.419,259.089 795.086,261.089 797.5,262.5C 798.757,265.427 800.757,267.761 803.5,269.5C 804.08,271.749 805.413,273.415 807.5,274.5C 828.979,303.928 847.312,335.428 862.5,369C 848.782,373.631 834.782,374.631 820.5,372C 796.763,367.294 775.096,357.96 755.5,344C 707.941,320.609 657.941,312.609 605.5,320C 569.671,326.997 538.504,342.83 512,367.5C 460.13,323.988 400.63,308.488 333.5,321C 300.169,327.991 269.502,340.991 241.5,360C 215.506,371.118 188.506,374.618 160.5,370.5C 160.878,368.079 161.545,365.746 162.5,363.5C 239.827,204.289 367.493,127.623 545.5,133.5 Z"
       id="path2" />
  </g>
  <g
     id="g8">
    <path
       style="opacity:1"
       fill="#fdbbbb"
       d="M 559.5,134.5 C 578.686,136.634 597.353,140.634 615.5,146.5C 596.781,142.149 578.115,138.149 559.5,134.5 Z"
       id="path6" />
  </g>
  <g
     id="g12">
    <path
       style="opacity:1"
       fill="#fef4f4"
       d="M 420.5,170.5 C 422.141,174.4 423.808,178.4 425.5,182.5C 429.796,183.328 434.129,183.828 438.5,184C 435.333,186.5 432.167,189 429,191.5C 429.51,195.868 430.176,200.201 431,204.5C 427.492,202.413 424.158,200.08 421,197.5C 417.414,199.709 413.914,202.043 410.5,204.5C 410.167,204.167 409.833,203.833 409.5,203.5C 410.735,199.961 412.068,196.461 413.5,193C 410.049,189.769 406.382,186.769 402.5,184C 407.155,183.501 411.821,183.334 416.5,183.5C 417.546,179.076 418.879,174.743 420.5,170.5 Z"
       id="path10" />
  </g>
  <g
     id="g16">
    <path
       style="opacity:0.751"
       fill="#fcedee"
       d="M 615.5,146.5 C 666.835,160.328 712.502,184.328 752.5,218.5C 743.065,212.245 733.731,205.745 724.5,199C 690.334,177 654.001,159.5 615.5,146.5 Z"
       id="path14" />
  </g>
  <g
     id="g20">
    <path
       style="opacity:1"
       fill="#fef7f7"
       d="M 684.5,202.5 C 685.497,202.47 686.164,202.97 686.5,204C 687.642,207.76 688.975,211.427 690.5,215C 694.5,215.333 698.5,215.667 702.5,216C 699.667,218.167 696.833,220.333 694,222.5C 694.255,227.251 694.922,231.917 696,236.5C 692.884,233.543 689.384,231.21 685.5,229.5C 681.616,231.21 678.116,233.543 675,236.5C 675.332,232.162 676.498,227.996 678.5,224C 675.167,221.333 671.833,218.667 668.5,216C 672.5,215.667 676.5,215.333 680.5,215C 682.68,211.114 684.014,206.947 684.5,202.5 Z"
       id="path18" />
  </g>
  <g
     id="g24">
    <path
       style="opacity:1"
       fill="#fff9f9"
       d="M 575.5,212.5 C 578.602,218.802 580.936,225.469 582.5,232.5C 589.175,232.334 595.842,232.5 602.5,233C 596.999,237.007 591.666,241.173 586.5,245.5C 589.129,251.694 590.962,258.027 592,264.5C 586.824,260.581 581.49,256.914 576,253.5C 570.009,256.662 564.343,260.329 559,264.5C 560.655,258.23 562.488,251.897 564.5,245.5C 559.387,241.103 554.053,236.936 548.5,233C 555.191,232.831 561.858,232.331 568.5,231.5C 570.645,225.061 572.978,218.728 575.5,212.5 Z"
       id="path22" />
  </g>
  <g
     id="g28">
    <path
       style="opacity:0.192"
       fill="#fad1d3"
       d="M 753.5,219.5 C 755.749,220.08 757.415,221.413 758.5,223.5C 756.251,222.92 754.585,221.587 753.5,219.5 Z"
       id="path26" />
  </g>
  <g
     id="g32">
    <path
       style="opacity:0.635"
       fill="#f9b1b2"
       d="M 785.5,248.5 C 786.833,249.167 787.833,250.167 788.5,251.5C 786.5,251.5 785.5,250.5 785.5,248.5 Z"
       id="path30" />
  </g>
  <g
     id="g36">
    <path
       style="opacity:1"
       fill="#fff7f7"
       d="M 312.5,253.5 C 315.12,257.343 316.787,261.676 317.5,266.5C 321.846,266.334 326.179,266.501 330.5,267C 327.167,269.667 323.833,272.333 320.5,275C 322.228,279.086 323.394,283.252 324,287.5C 320.758,284.795 317.258,282.461 313.5,280.5C 309.742,282.461 306.242,284.795 303,287.5C 303.18,283.434 304.014,279.434 305.5,275.5C 302.805,271.976 299.471,269.142 295.5,267C 299.871,266.828 304.204,266.328 308.5,265.5C 310.438,261.686 311.771,257.686 312.5,253.5 Z"
       id="path34" />
  </g>
  <g
     id="g40">
    <path
       style="opacity:0.886"
       fill="#fcf1f2"
       d="M 545.5,133.5 C 367.493,127.623 239.827,204.289 162.5,363.5C 162.167,363.5 161.833,363.5 161.5,363.5C 203.186,266.648 272.853,198.148 370.5,158C 427.04,135.851 485.373,127.684 545.5,133.5 Z"
       id="path38" />
  </g>
  <g
     id="g44">
    <path
       style="opacity:1"
       fill="#fac6c8"
       d="M 792.5,256.5 C 794.914,257.911 796.581,259.911 797.5,262.5C 795.086,261.089 793.419,259.089 792.5,256.5 Z"
       id="path42" />
  </g>
  <g
     id="g48">
    <path
       style="opacity:1"
       fill="#fcd0d1"
       d="M 797.5,262.5 C 800.243,264.239 802.243,266.573 803.5,269.5C 800.757,267.761 798.757,265.427 797.5,262.5 Z"
       id="path46" />
  </g>
  <g
     id="g52">
    <path
       style="opacity:0.98"
       fill="#f9e9ec"
       d="M 803.5,269.5 C 805.587,270.585 806.92,272.251 807.5,274.5C 805.413,273.415 804.08,271.749 803.5,269.5 Z"
       id="path50" />
  </g>
  <g
     id="g56">
    <path
       style="opacity:1"
       fill="#fff7f8"
       d="M 494.5,293.5 C 496.531,297.237 498.198,301.237 499.5,305.5C 503.796,306.328 508.129,306.828 512.5,307C 508.529,309.142 505.195,311.976 502.5,315.5C 503.501,318.839 504.501,322.172 505.5,325.5C 505.167,325.833 504.833,326.167 504.5,326.5C 501.457,324.287 498.29,322.287 495,320.5C 491.517,322.242 488.184,324.242 485,326.5C 484.879,322.678 485.713,319.011 487.5,315.5C 484.393,312.44 481.059,309.606 477.5,307C 481.821,306.501 486.154,306.334 490.5,306.5C 491.435,302.031 492.768,297.697 494.5,293.5 Z"
       id="path54" />
  </g>
  <g
     id="g60">
    <path
       style="opacity:0.999"
       fill="#fefdfd"
       d="M 807.5,274.5 C 836.372,309.553 858.038,348.886 872.5,392.5C 848.875,398.928 825.208,399.094 801.5,393C 793.463,390.48 785.796,387.147 778.5,383C 765.549,373.717 752.882,364.05 740.5,354C 713.295,334.768 682.961,325.935 649.5,327.5C 649.5,332.167 649.5,336.833 649.5,341.5C 693.731,338.96 730.064,354.46 758.5,388C 775.553,401.185 794.887,408.852 816.5,411C 837.114,413.684 857.447,412.517 877.5,407.5C 879.008,415.2 880.675,422.867 882.5,430.5C 881.883,430.389 881.383,430.056 881,429.5C 854.354,434.809 828.187,432.975 802.5,424C 797.334,421.252 792.334,418.252 787.5,415C 767.415,397.46 746.081,381.627 723.5,367.5C 722.167,372.167 722.167,376.833 723.5,381.5C 728.16,383.495 732.494,385.995 736.5,389C 751.873,402.708 767.539,416.042 783.5,429C 799.557,439.575 817.224,445.575 836.5,447C 852.951,448.109 869.285,447.276 885.5,444.5C 886.398,450.887 887.398,457.221 888.5,463.5C 853.843,467.535 821.177,461.368 790.5,445C 779.005,438.162 768.505,429.996 759,420.5C 758.333,425.833 758.333,431.167 759,436.5C 783.993,461.241 814.16,475.074 849.5,478C 862.889,478.806 876.222,478.306 889.5,476.5C 890.003,483.896 890.669,491.229 891.5,498.5C 875.693,499.075 860.026,497.908 844.5,495C 830.125,492.148 817.791,485.648 807.5,475.5C 807.44,474.957 807.107,474.624 806.5,474.5C 805.191,478.649 805.191,482.649 806.5,486.5C 826.016,502.508 848.516,510.508 874,510.5C 879.854,510.366 885.688,510.033 891.5,509.5C 891.325,529.44 889.658,549.107 886.5,568.5C 886.5,567.167 886.5,565.833 886.5,564.5C 888.105,553.521 888.439,542.521 887.5,531.5C 872.259,533.527 857.592,531.361 843.5,525C 829.14,518.295 816.14,509.628 804.5,499C 769.252,472.045 729.919,453.711 686.5,444C 617.824,432.503 559.824,452.003 512.5,502.5C 442.467,436.419 363.467,423.585 275.5,464C 249.803,475.841 226.47,491.174 205.5,510C 184.432,525.41 160.766,532.91 134.5,532.5C 137.03,575.484 145.696,617.15 160.5,657.5C 137.107,601.937 127.607,543.937 132,483.5C 132.873,469.893 134.706,456.56 137.5,443.5C 143.177,445.617 149.177,446.783 155.5,447C 185.117,450.393 212.784,444.727 238.5,430C 254.576,417.949 269.909,404.949 284.5,391C 289.393,387.055 294.727,383.888 300.5,381.5C 301.812,376.985 301.812,372.318 300.5,367.5C 299.893,367.624 299.56,367.957 299.5,368.5C 276.828,382.848 255.161,398.681 234.5,416C 219.728,425.924 203.394,431.257 185.5,432C 171.447,432.794 157.447,432.294 143.5,430.5C 142.833,430.833 142.167,431.167 141.5,431.5C 140.609,435.444 139.276,439.111 137.5,442.5C 139.427,429.793 142.427,417.46 146.5,405.5C 146.577,406.75 147.244,407.583 148.5,408C 183.665,416.284 217.665,412.95 250.5,398C 262.686,389.823 273.686,380.156 283.5,369C 304.131,352.285 327.797,343.118 354.5,341.5C 361.167,341.5 367.833,341.5 374.5,341.5C 374.5,336.833 374.5,332.167 374.5,327.5C 369.637,327.181 364.97,327.514 360.5,328.5C 332.43,328.348 307.096,336.514 284.5,353C 271.833,362.667 259.167,372.333 246.5,382C 228.412,392.901 208.745,398.068 187.5,397.5C 175.049,397.102 162.716,395.768 150.5,393.5C 150.267,396.542 149.267,399.208 147.5,401.5C 150.809,388.231 155.475,375.565 161.5,363.5C 161.833,363.5 162.167,363.5 162.5,363.5C 161.545,365.746 160.878,368.079 160.5,370.5C 188.506,374.618 215.506,371.118 241.5,360C 269.502,340.991 300.169,327.991 333.5,321C 400.63,308.488 460.13,323.988 512,367.5C 538.504,342.83 569.671,326.997 605.5,320C 657.941,312.609 707.941,320.609 755.5,344C 775.096,357.96 796.763,367.294 820.5,372C 834.782,374.631 848.782,373.631 862.5,369C 847.312,335.428 828.979,303.928 807.5,274.5 Z"
       id="path58" />
  </g>
  <g
     id="g64">
    <path
       style="opacity:1"
       fill="#ec2327"
       d="M 360.5,328.5 C 364.833,328.5 369.167,328.5 373.5,328.5C 373.5,332.5 373.5,336.5 373.5,340.5C 366.978,340.177 360.645,340.51 354.5,341.5C 327.797,343.118 304.131,352.285 283.5,369C 273.686,380.156 262.686,389.823 250.5,398C 217.665,412.95 183.665,416.284 148.5,408C 147.244,407.583 146.577,406.75 146.5,405.5C 146.232,403.901 146.566,402.568 147.5,401.5C 149.267,399.208 150.267,396.542 150.5,393.5C 162.716,395.768 175.049,397.102 187.5,397.5C 208.745,398.068 228.412,392.901 246.5,382C 259.167,372.333 271.833,362.667 284.5,353C 307.096,336.514 332.43,328.348 360.5,328.5 Z"
       id="path62" />
  </g>
  <g
     id="g68">
    <path
       style="opacity:1"
       fill="#ec2428"
       d="M 872.5,392.5 C 874.367,397.433 876.033,402.433 877.5,407.5C 857.447,412.517 837.114,413.684 816.5,411C 794.887,408.852 775.553,401.185 758.5,388C 730.064,354.46 693.731,338.96 649.5,341.5C 649.5,336.833 649.5,332.167 649.5,327.5C 682.961,325.935 713.295,334.768 740.5,354C 752.882,364.05 765.549,373.717 778.5,383C 785.796,387.147 793.463,390.48 801.5,393C 825.208,399.094 848.875,398.928 872.5,392.5 Z"
       id="path66" />
  </g>
  <g
     id="g72">
    <path
       style="opacity:1"
       fill="#f47578"
       d="M 360.5,328.5 C 364.97,327.514 369.637,327.181 374.5,327.5C 374.5,332.167 374.5,336.833 374.5,341.5C 367.833,341.5 361.167,341.5 354.5,341.5C 360.645,340.51 366.978,340.177 373.5,340.5C 373.5,336.5 373.5,332.5 373.5,328.5C 369.167,328.5 364.833,328.5 360.5,328.5 Z"
       id="path70" />
  </g>
  <g
     id="g76">
    <path
       style="opacity:1"
       fill="#f58286"
       d="M 299.5,368.5 C 299.56,367.957 299.893,367.624 300.5,367.5C 301.812,372.318 301.812,376.985 300.5,381.5C 300.818,376.968 300.485,372.634 299.5,368.5 Z"
       id="path74" />
  </g>
  <g
     id="g80">
    <path
       style="opacity:1"
       fill="#ec2328"
       d="M 299.5,368.5 C 300.485,372.634 300.818,376.968 300.5,381.5C 294.727,383.888 289.393,387.055 284.5,391C 269.909,404.949 254.576,417.949 238.5,430C 212.784,444.727 185.117,450.393 155.5,447C 149.177,446.783 143.177,445.617 137.5,443.5C 137.5,443.167 137.5,442.833 137.5,442.5C 139.276,439.111 140.609,435.444 141.5,431.5C 142.167,431.167 142.833,430.833 143.5,430.5C 157.447,432.294 171.447,432.794 185.5,432C 203.394,431.257 219.728,425.924 234.5,416C 255.161,398.681 276.828,382.848 299.5,368.5 Z"
       id="path78" />
  </g>
  <g
     id="g84">
    <path
       style="opacity:1"
       fill="#ec2428"
       d="M 882.5,430.5 C 883.533,435.099 884.867,439.599 886.5,444C 886.272,444.399 885.938,444.565 885.5,444.5C 869.285,447.276 852.951,448.109 836.5,447C 817.224,445.575 799.557,439.575 783.5,429C 767.539,416.042 751.873,402.708 736.5,389C 732.494,385.995 728.16,383.495 723.5,381.5C 722.167,376.833 722.167,372.167 723.5,367.5C 746.081,381.627 767.415,397.46 787.5,415C 792.334,418.252 797.334,421.252 802.5,424C 828.187,432.975 854.354,434.809 881,429.5C 881.383,430.056 881.883,430.389 882.5,430.5 Z"
       id="path82" />
  </g>
  <g
     id="g88">
    <path
       style="opacity:1"
       fill="#ec2428"
       d="M 264.5,420.5 C 265.651,425.65 265.817,430.984 265,436.5C 236.052,464.161 201.385,478.161 161,478.5C 152.119,478.369 143.286,477.702 134.5,476.5C 134.927,472.176 135.261,467.842 135.5,463.5C 185.503,469.27 228.503,454.937 264.5,420.5 Z"
       id="path86" />
  </g>
  <g
     id="g92">
    <path
       style="opacity:1"
       fill="#ec2328"
       d="M 888.5,463.5 C 888.739,467.842 889.073,472.176 889.5,476.5C 876.222,478.306 862.889,478.806 849.5,478C 814.16,475.074 783.993,461.241 759,436.5C 758.333,431.167 758.333,425.833 759,420.5C 768.505,429.996 779.005,438.162 790.5,445C 821.177,461.368 853.843,467.535 888.5,463.5 Z"
       id="path90" />
  </g>
  <g
     id="g96">
    <path
       style="opacity:1"
       fill="#2e3191"
       d="M 886.5,564.5 C 883.577,581.117 880.243,597.783 876.5,614.5C 876.5,615.167 876.5,615.833 876.5,616.5C 874.345,618.617 873.345,621.284 873.5,624.5C 859.23,672.726 835.897,715.726 803.5,753.5C 801.738,754.262 800.738,755.596 800.5,757.5C 799.833,758.833 798.833,759.833 797.5,760.5C 795.086,761.911 793.419,763.911 792.5,766.5C 791.5,768.167 790.167,769.5 788.5,770.5C 782.167,776.167 776.167,782.167 770.5,788.5C 768.833,790.833 766.833,792.833 764.5,794.5C 762.251,795.08 760.585,796.413 759.5,798.5C 758.833,799.833 757.833,800.833 756.5,801.5C 754.973,801.427 753.973,802.094 753.5,803.5C 752.833,804.833 751.833,805.833 750.5,806.5C 748.973,806.427 747.973,807.094 747.5,808.5C 747.167,809.5 746.5,810.167 745.5,810.5C 743.973,810.427 742.973,811.094 742.5,812.5C 696.646,849.084 644.646,872.751 586.5,883.5C 580.464,884.006 574.464,884.839 568.5,886C 567.584,886.278 566.918,886.778 566.5,887.5C 565.5,887.5 564.5,887.5 563.5,887.5C 539.225,889.725 514.892,890.725 490.5,890.5C 490.167,890.5 489.833,890.5 489.5,890.5C 482.049,889.028 474.382,888.361 466.5,888.5C 463.615,888.806 460.948,888.473 458.5,887.5C 421.311,880.909 385.311,870.243 350.5,855.5C 344.849,852.008 338.849,849.008 332.5,846.5C 330.847,846.34 329.514,845.674 328.5,844.5C 327.341,842.75 325.674,841.75 323.5,841.5C 322.508,841.672 321.842,841.338 321.5,840.5C 321.027,839.094 320.027,838.427 318.5,838.5C 316.847,838.34 315.514,837.674 314.5,836.5C 314.027,835.094 313.027,834.427 311.5,834.5C 293.4,824.115 276.733,811.782 261.5,797.5C 238.282,774.961 216.948,750.961 197.5,725.5C 197.573,723.973 196.906,722.973 195.5,722.5C 195.573,720.973 194.906,719.973 193.5,719.5C 193.573,717.973 192.906,716.973 191.5,716.5C 191.573,714.973 190.906,713.973 189.5,713.5C 189.573,711.973 188.906,710.973 187.5,710.5C 179.566,698.972 172.899,686.639 167.5,673.5C 167.771,671.62 167.104,670.287 165.5,669.5C 164.596,668.791 164.263,667.791 164.5,666.5C 163.958,663.088 162.625,660.088 160.5,657.5C 145.696,617.15 137.03,575.484 134.5,532.5C 160.766,532.91 184.432,525.41 205.5,510C 226.47,491.174 249.803,475.841 275.5,464C 363.467,423.585 442.467,436.419 512.5,502.5C 559.824,452.003 617.824,432.503 686.5,444C 729.919,453.711 769.252,472.045 804.5,499C 816.14,509.628 829.14,518.295 843.5,525C 857.592,531.361 872.259,533.527 887.5,531.5C 888.439,542.521 888.105,553.521 886.5,564.5 Z"
       id="path94" />
  </g>
  <g
     id="g100">
    <path
       style="opacity:1"
       fill="#f48386"
       d="M 807.5,475.5 C 806.518,478.962 806.185,482.629 806.5,486.5C 805.191,482.649 805.191,478.649 806.5,474.5C 807.107,474.624 807.44,474.957 807.5,475.5 Z"
       id="path98" />
  </g>
  <g
     id="g104">
    <path
       style="opacity:1"
       fill="#ec2328"
       d="M 216.5,474.5 C 217.645,478.311 217.812,482.311 217,486.5C 192.381,506.643 164.214,514.31 132.5,509.5C 132.5,505.833 132.5,502.167 132.5,498.5C 151.848,499.283 170.848,497.117 189.5,492C 199.895,488.147 208.895,482.314 216.5,474.5 Z"
       id="path102" />
  </g>
  <g
     id="g108">
    <path
       style="opacity:1"
       fill="#ec2328"
       d="M 807.5,475.5 C 817.791,485.648 830.125,492.148 844.5,495C 860.026,497.908 875.693,499.075 891.5,498.5C 891.5,502.167 891.5,505.833 891.5,509.5C 885.688,510.033 879.854,510.366 874,510.5C 848.516,510.508 826.016,502.508 806.5,486.5C 806.185,482.629 806.518,478.962 807.5,475.5 Z"
       id="path106" />
  </g>
  <g
     id="g112">
    <path
       style="opacity:0.468"
       fill="#d0cfe3"
       d="M 886.5,564.5 C 886.5,565.833 886.5,567.167 886.5,568.5C 884.807,584.306 881.474,599.639 876.5,614.5C 880.243,597.783 883.577,581.117 886.5,564.5 Z"
       id="path110" />
  </g>
  <g
     id="g116">
    <path
       style="opacity:1"
       fill="#9a98c8"
       d="M 876.5,616.5 C 875.871,619.397 874.871,622.064 873.5,624.5C 873.345,621.284 874.345,618.617 876.5,616.5 Z"
       id="path114" />
  </g>
  <g
     id="g136">
    <path
       style="opacity:1"
       fill="#fafafb"
       d="M 576.5,688.5 C 576.5,672.833 576.5,657.167 576.5,641.5C 573.167,641.5 569.833,641.5 566.5,641.5C 562.336,638.168 558.669,634.335 555.5,630C 570.818,628.762 586.151,628.429 601.5,629C 605,632.5 608.5,636 612,639.5C 612.483,640.448 612.649,641.448 612.5,642.5C 604.833,642.5 597.167,642.5 589.5,642.5C 589.5,661.5 589.5,680.5 589.5,699.5C 584.313,696.99 579.979,693.324 576.5,688.5 Z"
       id="path134" />
  </g>
  <g
     id="g140">
    <path
       style="opacity:1"
       fill="#f9f9fa"
       d="M 322.5,690.5 C 328.41,670.705 334.41,650.872 340.5,631C 340.257,630.098 339.923,629.265 339.5,628.5C 339.369,627.761 339.536,627.094 340,626.5C 344.3,629.798 348.3,633.465 352,637.5C 355.469,648.241 359.136,658.908 363,669.5C 368.581,655.761 373.581,641.761 378,627.5C 378.718,626.549 379.551,626.383 380.5,627C 383.717,630.517 387.217,633.684 391,636.5C 395.38,658.39 398.714,680.39 401,702.5C 397,699.167 393,695.833 389,692.5C 387.333,683.833 385.667,675.167 384,666.5C 379.632,677.987 374.966,689.321 370,700.5C 366.333,696.833 362.667,693.167 359,689.5C 354.936,679.307 351.269,668.974 348,658.5C 343.181,673.442 338.514,688.442 334,703.5C 330.159,699.135 326.326,694.802 322.5,690.5 Z"
       id="path138" />
  </g>
  <g
     id="g144">
    <path
       style="opacity:1"
       fill="#b4b4cc"
       d="M 339.5,628.5 C 339.923,629.265 340.257,630.098 340.5,631C 334.41,650.872 328.41,670.705 322.5,690.5C 327.255,669.47 332.922,648.804 339.5,628.5 Z"
       id="path142" />
  </g>
  <g
     id="g148">
    <path
       style="opacity:1"
       fill="#303292"
       d="M 462.5,682.5 C 451.851,689.374 440.851,690.041 429.5,684.5C 421.47,667.097 425.47,653.264 441.5,643C 450.625,639.53 459.625,639.696 468.5,643.5C 474.949,651.688 476.116,660.688 472,670.5C 469.536,675.116 466.369,679.116 462.5,682.5 Z"
       id="path146" />
  </g>
  <g
     id="g156">
    <path
       style="opacity:0.996"
       fill="#9697c4"
       d="M 566.5,641.5 C 569.833,641.5 573.167,641.5 576.5,641.5C 576.5,657.167 576.5,672.833 576.5,688.5C 575.504,673.342 575.17,658.009 575.5,642.5C 572.287,642.81 569.287,642.477 566.5,641.5 Z"
       id="path154" />
  </g>
  <g
     id="g172">
    <path
       style="opacity:0.996"
       fill="#bbb9d7"
       d="M 160.5,657.5 C 162.625,660.088 163.958,663.088 164.5,666.5C 162.375,663.912 161.042,660.912 160.5,657.5 Z"
       id="path170" />
  </g>
  <g
     id="g176">
    <path
       style="opacity:0.62"
       fill="#b8b6d7"
       d="M 165.5,669.5 C 167.104,670.287 167.771,671.62 167.5,673.5C 166.326,672.486 165.66,671.153 165.5,669.5 Z"
       id="path174" />
  </g>
  <g
     id="g188">
    <path
       style="opacity:0.086"
       fill="#e4e2ed"
       d="M 187.5,710.5 C 188.906,710.973 189.573,711.973 189.5,713.5C 188.094,713.027 187.427,712.027 187.5,710.5 Z"
       id="path186" />
  </g>
  <g
     id="g192">
    <path
       style="opacity:0.086"
       fill="#e4e2ee"
       d="M 189.5,713.5 C 190.906,713.973 191.573,714.973 191.5,716.5C 190.094,716.027 189.427,715.027 189.5,713.5 Z"
       id="path190" />
  </g>
  <g
     id="g196">
    <path
       style="opacity:0.192"
       fill="#e5e2ed"
       d="M 191.5,716.5 C 192.906,716.973 193.573,717.973 193.5,719.5C 192.094,719.027 191.427,718.027 191.5,716.5 Z"
       id="path194" />
  </g>
  <g
     id="g200">
    <path
       style="opacity:0.192"
       fill="#e5e2ed"
       d="M 193.5,719.5 C 194.906,719.973 195.573,720.973 195.5,722.5C 194.094,722.027 193.427,721.027 193.5,719.5 Z"
       id="path198" />
  </g>
  <g
     id="g204">
    <path
       style="opacity:0.192"
       fill="#e5e2ed"
       d="M 195.5,722.5 C 196.906,722.973 197.573,723.973 197.5,725.5C 196.094,725.027 195.427,724.027 195.5,722.5 Z"
       id="path202" />
  </g>
  <g
     id="g208">
    <path
       style="opacity:0.613"
       fill="#eae8f0"
       d="M 197.5,725.5 C 216.948,750.961 238.282,774.961 261.5,797.5C 236.226,776.899 214.893,752.899 197.5,725.5 Z"
       id="path206" />
  </g>
  <g
     id="g212">
    <path
       style="opacity:0.192"
       fill="#d9d5e6"
       d="M 803.5,753.5 C 803.262,755.404 802.262,756.738 800.5,757.5C 800.738,755.596 801.738,754.262 803.5,753.5 Z"
       id="path210" />
  </g>
  <g
     id="g216">
    <path
       style="opacity:0.086"
       fill="#dad8e6"
       d="M 797.5,760.5 C 796.581,763.089 794.914,765.089 792.5,766.5C 793.419,763.911 795.086,761.911 797.5,760.5 Z"
       id="path214" />
  </g>
  <g
     id="g220">
    <path
       style="opacity:0.192"
       fill="#e8e5ec"
       d="M 788.5,770.5 C 783.5,777.5 777.5,783.5 770.5,788.5C 776.167,782.167 782.167,776.167 788.5,770.5 Z"
       id="path218" />
  </g>
  <g
     id="g224">
    <path
       style="opacity:0.086"
       fill="#dbd9e6"
       d="M 764.5,794.5 C 763.415,796.587 761.749,797.92 759.5,798.5C 760.585,796.413 762.251,795.08 764.5,794.5 Z"
       id="path222" />
  </g>
  <g
     id="g228">
    <path
       style="opacity:0.086"
       fill="#cfcde1"
       d="M 756.5,801.5 C 756.027,802.906 755.027,803.573 753.5,803.5C 753.973,802.094 754.973,801.427 756.5,801.5 Z"
       id="path226" />
  </g>
  <g
     id="g232">
    <path
       style="opacity:0.086"
       fill="#cbc8e0"
       d="M 750.5,806.5 C 750.027,807.906 749.027,808.573 747.5,808.5C 747.973,807.094 748.973,806.427 750.5,806.5 Z"
       id="path230" />
  </g>
  <g
     id="g236">
    <path
       style="opacity:0.086"
       fill="#d0cee4"
       d="M 745.5,810.5 C 745.027,811.906 744.027,812.573 742.5,812.5C 742.973,811.094 743.973,810.427 745.5,810.5 Z"
       id="path234" />
  </g>
  <g
     id="g240">
    <path
       style="opacity:1"
       fill="#aba9d1"
       d="M 311.5,834.5 C 313.027,834.427 314.027,835.094 314.5,836.5C 312.973,836.573 311.973,835.906 311.5,834.5 Z"
       id="path238" />
  </g>
  <g
     id="g244">
    <path
       style="opacity:0.996"
       fill="#b0aed1"
       d="M 318.5,838.5 C 320.027,838.427 321.027,839.094 321.5,840.5C 319.973,840.573 318.973,839.906 318.5,838.5 Z"
       id="path242" />
  </g>
  <g
     id="g248">
    <path
       style="opacity:0.565"
       fill="#e3e1ed"
       d="M 323.5,841.5 C 325.674,841.75 327.341,842.75 328.5,844.5C 326.326,844.25 324.659,843.25 323.5,841.5 Z"
       id="path246" />
  </g>
  <g
     id="g252">
    <path
       style="opacity:1"
       fill="#ece9f1"
       d="M 332.5,846.5 C 338.849,849.008 344.849,852.008 350.5,855.5C 343.914,853.54 337.914,850.54 332.5,846.5 Z"
       id="path250" />
  </g>
  <g
     id="g256">
    <path
       style="opacity:0.42"
       fill="#f2eff4"
       d="M 350.5,855.5 C 385.311,870.243 421.311,880.909 458.5,887.5C 420.554,883.018 384.554,872.352 350.5,855.5 Z"
       id="path254" />
  </g>
  <g
     id="g260">
    <path
       style="opacity:0.62"
       fill="#b0afd4"
       d="M 586.5,883.5 C 580.079,885.451 573.412,886.784 566.5,887.5C 566.918,886.778 567.584,886.278 568.5,886C 574.464,884.839 580.464,884.006 586.5,883.5 Z"
       id="path258" />
  </g>
  <g
     id="g264">
    <path
       style="opacity:0.996"
       fill="#bbbad8"
       d="M 466.5,888.5 C 474.382,888.361 482.049,889.028 489.5,890.5C 481.618,890.639 473.951,889.972 466.5,888.5 Z"
       id="path262" />
  </g>
  <g
     id="g268">
    <path
       style="opacity:0.449"
       fill="#cbc9e1"
       d="M 563.5,887.5 C 539.27,891.31 514.937,892.31 490.5,890.5C 514.892,890.725 539.225,889.725 563.5,887.5 Z"
       id="path266" />
  </g>
</svg>
