<?xml version="1.0" encoding="UTF-8" standalone="no"?>
<svg
   viewBox="0 0 527.5799999999999 108.56399999999998"
   width="2500"
   height="514"
   version="1.1"
   id="svg6"
   sodipodi:docname="jp-morgan-1.svg"
   inkscape:version="1.2.2 (732a01da63, 2022-12-09)"
   xmlns:inkscape="http://www.inkscape.org/namespaces/inkscape"
   xmlns:sodipodi="http://sodipodi.sourceforge.net/DTD/sodipodi-0.dtd"
   xmlns="http://www.w3.org/2000/svg"
   xmlns:svg="http://www.w3.org/2000/svg">
  <defs
     id="defs10" />
  <sodipodi:namedview
     id="namedview8"
     pagecolor="#ffffff"
     bordercolor="#000000"
     borderopacity="0.25"
     inkscape:showpageshadow="2"
     inkscape:pageopacity="0.0"
     inkscape:pagecheckerboard="0"
     inkscape:deskcolor="#d1d1d1"
     showgrid="false"
     inkscape:zoom="0.5468"
     inkscape:cx="1344.1843"
     inkscape:cy="258.77835"
     inkscape:window-width="1920"
     inkscape:window-height="991"
     inkscape:window-x="-9"
     inkscape:window-y="-9"
     inkscape:window-maximized="1"
     inkscape:current-layer="g4" />
  <g
     fill="#513319"
     id="g4">
    <path
       d="M 53.779,0 H 22.418 v 2.685 h 9.994 v 52.076 c 0,15.652 -4.35,20.059 -14.013,20.059 -6.084,0 -7.079,-4.618 -7.079,-7.009 0,-5.683 -0.313,-9.184 -5.498,-9.184 C 0.606,58.626 0,63.882 0,65.508 0,72.67 5.549,78.162 19.778,78.162 36.756,78.162 43.46,72.435 43.46,53.39 V 2.666 L 53.78,2.685 V 0 m 2.11,66.082 c -1.741,0 -3.189,0.555 -4.369,1.754 -1.205,1.205 -1.805,2.64 -1.805,4.369 0,1.728 0.612,3.151 1.818,4.292 1.218,1.205 2.672,1.754 4.356,1.754 1.722,0 3.17,-0.549 4.413,-1.754 1.193,-1.142 1.799,-2.564 1.799,-4.292 0,-1.754 -0.606,-3.183 -1.799,-4.369 -1.198,-1.199 -2.646,-1.754 -4.413,-1.754 m 67.205,0 c -1.729,0 -3.17,0.555 -4.363,1.754 -1.199,1.205 -1.773,2.64 -1.773,4.369 0,1.728 0.574,3.151 1.773,4.292 1.256,1.205 2.685,1.754 4.363,1.754 1.741,0 3.208,-0.549 4.439,-1.754 1.205,-1.142 1.798,-2.564 1.798,-4.292 0,-1.754 -0.593,-3.183 -1.798,-4.369 -1.212,-1.199 -2.685,-1.754 -4.439,-1.754 m 103.138,2.06 c -0.434,-1.365 -0.644,-3.036 -0.644,-5.179 V 2.692 h 7.953 V 0 h -19.389 c -0.274,0.695 -23.382,58.25 -23.382,58.25 -0.0899,0.211625 -0.2991,0.347657 -0.529,0.344 -0.249,0 -0.466,-0.121 -0.555,-0.344 0,0 -24.562,-57.555 -24.849,-58.25 L 143.28,0.019 v 2.679 h 8.923 v 57.931 l -0.191,5.377 c -0.153,1.422 -0.599,2.679 -1.289,3.693 -0.733,1.097 -1.913,1.933 -3.463,2.468 -1.027,0.332 -2.545,0.574 -4.433,0.612 v 3.463 h 21.915 v -3.438 c -1.818,-0.064 -2.609,-0.255 -3.693,-0.619 -1.563,-0.517 -2.762,-1.295 -3.546,-2.424 -0.683,-1.04 -1.142,-2.277 -1.295,-3.757 l -0.255,-5.377 v -49.95 h 1.282 c 0,0 27.744,64.858 28.038,65.566 h 2.328 l 26.264,-64.858 h 0.663 v 51.579 c 0,2.251 -0.23,3.98 -0.663,5.338 -0.529,1.569 -1.645,2.755 -3.278,3.553 -1.187,0.542 -3.036,0.855 -5.453,0.95 v 3.438 h 29.964 v -3.438 c -2.392,-0.115 -4.26,-0.44 -5.511,-1.008 -1.734,-0.848 -2.869,-2.073 -3.354,-3.655 M 464.329,64.75 h -1.856 m 58.557,5.58 c 1.32,1.703 3.265,2.258 6.55,2.481 v 3.431 h -25.837 v -3.419 c 1.901,-0.14 3.361,-0.549 4.293,-1.193 1.295,-0.855 1.665,-2.207 1.99,-3.833 0.217,-1.416 0.287,-3.546 0.287,-6.525 V 43.44 c 0,-4.324 -0.287,-9.777 -1.741,-12.705 -1.314,-2.615 -3.502,-3.903 -7.584,-3.903 -4.541,0 -8.591,2.169 -10.804,6.085 -2.06,3.597 -2.022,9.408 -2.022,15.441 v 14.389 c 0,3.699 0.478,6.238 1.537,7.705 0.95,1.384 2.774,2.117 5.472,2.334 v 3.457 h -26.8 v -3.431 c 2.047,-0.096 3.642,-0.338 4.662,-0.772 1.594,-0.682 2.672,-1.824 3.125,-3.495 0.427,-1.39 0.657,-3.489 0.657,-6.391 V 24.562 l -8.444,-0.025 v -2.819 l 16.895,-0.026 1.9,9.873 0.867,-0.013 c 2.169,-4.235 6.895,-10.517 17.788,-10.517 3.017,0 5.779,0.6 8.19,1.805 2.347,1.218 4.267,3.068 5.606,5.517 1.352,2.494 1.798,5.562 1.798,9.121 v 24.715 c 0.001,2.773 0.288,6.434 1.615,8.137"
       id="path2"
       sodipodi:nodetypes="ccccssscssscccccscscscccsscscscccscccccccccccccccccccccccccccccscccccccccccccccccsscscsscccccccsccccccsccscc" />
  </g>
</svg>
