<?xml version="1.0" encoding="UTF-8" standalone="no"?>
<svg
   width="2362"
   height="2500"
   viewBox="0 0.01 700 740.988"
   version="1.1"
   id="svg50"
   sodipodi:docname="petrochina.svg"
   inkscape:version="1.2.2 (732a01da63, 2022-12-09)"
   xmlns:inkscape="http://www.inkscape.org/namespaces/inkscape"
   xmlns:sodipodi="http://sodipodi.sourceforge.net/DTD/sodipodi-0.dtd"
   xmlns="http://www.w3.org/2000/svg"
   xmlns:svg="http://www.w3.org/2000/svg">
  <defs
     id="defs54" />
  <sodipodi:namedview
     id="namedview52"
     pagecolor="#ffffff"
     bordercolor="#000000"
     borderopacity="0.25"
     inkscape:showpageshadow="2"
     inkscape:pageopacity="0.0"
     inkscape:pagecheckerboard="0"
     inkscape:deskcolor="#d1d1d1"
     showgrid="false"
     inkscape:zoom="0.22853691"
     inkscape:cx="1478.9733"
     inkscape:cy="1157.3623"
     inkscape:window-width="1920"
     inkscape:window-height="991"
     inkscape:window-x="-9"
     inkscape:window-y="-9"
     inkscape:window-maximized="1"
     inkscape:current-layer="svg50" />
  <path
     fill="#FFF"
     d="M603.258 278.991c0 138.715-112.473 251.185-251.188 251.185-138.729 0-251.184-112.47-251.184-251.185 0-138.714 112.455-251.184 251.184-251.184 138.715 0 251.188 112.469 251.188 251.184z"
     id="path2" />
  <path
     fill="#C7000D"
     d="M349.908 297.896l-253.375 71.72c7.366 28.148-4.048 65.934 12.454 88.783 17.261 23.897 59.292 24.174 83.013 41.651 23.808 17.489 36.899 57.682 65.597 67.059 27.902 9.162 62.368-15.133 93.365-15.163 30.004-.061 63.465 24.45 90.548 15.832 28.438-9.165 41.543-49.052 65.337-66.145 23.885-17.235 65.886-17.097 83.35-40.771 17.489-23.717 3.392-62.369 12.665-90.958l-252.954-72.008z"
     id="path4" />
  <linearGradient
     id="a"
     gradientUnits="userSpaceOnUse"
     x1="272.113"
     y1="461.015"
     x2="42.553"
     y2="455.036"
     gradientTransform="matrix(1.0781 0 0 -1.0781 4.925 776.988)">
    <stop
       offset="0"
       stop-color="#ffe200"
       id="stop6" />
    <stop
       offset="1"
       stop-color="#f08300"
       id="stop8" />
  </linearGradient>
  <path
     fill="url(#a)"
     d="M296.325 278.931c0-3.987-2.317-7.384-5.696-8.998L95.027 204.67c-10.672 26.582-42.156 50.968-42.096 80.64.078 29.654 33.538 53.785 42.536 80.562l194.813-77.744c3.559-1.541 6.045-5.059 6.045-9.197z"
     id="path11" />
  <linearGradient
     id="b"
     gradientUnits="userSpaceOnUse"
     x1="277.554"
     y1="491.414"
     x2="73.14"
     y2="633.921"
     gradientTransform="matrix(1.0781 0 0 -1.0781 4.925 776.988)">
    <stop
       offset="0"
       stop-color="#ffe200"
       id="stop13" />
    <stop
       offset="1"
       stop-color="#f08300"
       id="stop15" />
  </linearGradient>
  <path
     fill="url(#b)"
     d="M297.737 250.976h.104c3.802-.034 7.448-2.205 9.14-5.886 1.368-2.956 1.097-6.244-.319-8.894L190.977 70.037c-24.343 15.177-63.448 16.015-80.165 38.743-17.447 23.608-5.329 63.344-14.34 91.919l201.265 50.277z"
     id="path18" />
  <linearGradient
     id="c"
     gradientUnits="userSpaceOnUse"
     x1="302.594"
     y1="514.896"
     x2="229.159"
     y2="734.097"
     gradientTransform="matrix(1.0781 0 0 -1.0781 4.925 776.988)">
    <stop
       offset="0"
       stop-color="#ffe200"
       id="stop20" />
    <stop
       offset="1"
       stop-color="#f08300"
       id="stop22" />
  </linearGradient>
  <path
     fill="url(#c)"
     d="M334.106 226.168a9.85 9.85 0 0 0 6.028-8.026l7.569-200.564c-29.396-1.066-61.748-24.162-88.222-15.713-28.3 9.105-41.405 48.703-65.001 65.855l128.772 156.42c2.819 2.728 7.065 3.638 10.854 2.028z"
     id="path25" />
  <linearGradient
     id="d"
     gradientUnits="userSpaceOnUse"
     x1="370.88"
     y1="456.109"
     x2="595.644"
     y2="456.109"
     gradientTransform="matrix(1.0781 0 0 -1.0781 4.925 776.988)">
    <stop
       offset="0"
       stop-color="#ffe200"
       id="stop27" />
    <stop
       offset="1"
       stop-color="#f08300"
       id="stop29" />
  </linearGradient>
  <path
     fill="url(#d)"
     d="M404.76 278.737v.375a10.023 10.023 0 0 0 6.028 9.015l193.761 77.744c8.984-26.776 42.475-50.907 42.522-80.562.043-29.672-31.424-54.058-42.048-80.64l-194.555 65.264c-3.326 1.588-5.635 4.899-5.708 8.804z"
     id="path32" />
  <linearGradient
     id="e"
     gradientUnits="userSpaceOnUse"
     x1="363.219"
     y1="492.096"
     x2="567.064"
     y2="633.817"
     gradientTransform="matrix(1.0781 0 0 -1.0781 4.925 776.988)">
    <stop
       offset="0"
       stop-color="#ffe200"
       id="stop34" />
    <stop
       offset="1"
       stop-color="#f08300"
       id="stop36" />
  </linearGradient>
  <path
     fill="url(#e)"
     d="M402.676 250.079h.107l200.795-49.38c-9.045-28.576 3.029-68.311-14.357-91.92-16.761-22.729-55.853-23.565-80.182-38.742L393.873 235.285c-1.445 2.681-1.657 5.951-.302 8.89a10.093 10.093 0 0 0 9.105 5.904z"
     id="path39" />
  <linearGradient
     id="f"
     gradientUnits="userSpaceOnUse"
     x1="337.5"
     y1="514.831"
     x2="410.838"
     y2="734.119"
     gradientTransform="matrix(1.0781 0 0 -1.0781 4.925 776.988)">
    <stop
       offset="0"
       stop-color="#ffe200"
       id="stop41" />
    <stop
       offset="1"
       stop-color="#f08300"
       id="stop43" />
  </linearGradient>
  <path
     fill="url(#f)"
     d="M365.879 226.168c-3.409-1.433-5.588-4.569-6.028-8.026L351.98 17.577c29.426-1.066 62.11-24.162 88.554-15.713 28.287 9.105 41.422 48.703 64.976 65.855L376.763 224.14a10.017 10.017 0 0 1-10.884 2.028z"
     id="path46" />
  <path
     d="m 0,738.232 h 26.474 l 3.289,-23.609 h 15.591 c 19.056,0 33.016,-11.569 36.321,-30.462 3.88,-22.258 -9.166,-30.646 -33.568,-30.646 H 11.695 Z m 55.797,-55.305 c -1.571,7.781 -6.09,12.985 -14.737,12.985 h -8.389 l 3.211,-24.645 h 7.171 c 9.425,0 14.263,3.94 12.744,11.66 z m 50.161,27.707 c -70.667154,-473.74933 -35.333577,-236.87467 0,0 z m 1.976,-12.97 c -71.984487,-465.10267 -35.992244,-232.55133 0,0 z m 324.728,-42.308 c -2.102,-0.944 -5.036,-1.657 -8.872,-2.266 -3.732,-0.582 -8.479,-0.854 -14.099,-0.854 -13.321,0 -25.166,3.885 -35.104,11.526 -10.05,7.732 -16.078,18.051 -17.826,30.764 l -0.41,3.215 c -1.903,13.636 1.156,24.145 9.101,31.251 7.794,6.957 18.725,10.504 32.473,10.504 5.39,0 10.262,-0.362 14.521,-1.2 4.402,-0.824 7.444,-1.709 9.334,-2.68 l 1.175,-0.578 0.181,-1.265 1.657,-12.087 0.428,-2.938 -2.922,0.915 c -2.102,0.639 -4.95,1.385 -8.449,2.157 -3.427,0.764 -7.582,1.131 -12.363,1.131 -6.771,0 -11.63,-2.071 -14.871,-6.274 -3.288,-4.186 -4.293,-10.931 -3.029,-19.971 l 0.135,-1.145 c 1.173,-8.401 4.202,-15.068 9.027,-19.776 4.768,-4.717 10.749,-6.986 18.253,-6.986 4.156,0 7.78,0.289 10.793,0.885 2.999,0.608 5.347,1.247 7.021,1.933 l 2.724,1.14 0.444,-3.103 1.688,-12.316 0.215,-1.415 z"
     id="path48"
     sodipodi:nodetypes="cccscscccsccscccccccsccccsccccccccsccccsccccccc" />
</svg>
