<?xml version="1.0" encoding="UTF-8" standalone="no"?>
<svg
   width="2500"
   height="2500"
   viewBox="0 0 192.756 192.756"
   version="1.1"
   id="svg12"
   sodipodi:docname="the-home-depot-2.svg"
   inkscape:version="1.2.2 (732a01da63, 2022-12-09)"
   xmlns:inkscape="http://www.inkscape.org/namespaces/inkscape"
   xmlns:sodipodi="http://sodipodi.sourceforge.net/DTD/sodipodi-0.dtd"
   xmlns="http://www.w3.org/2000/svg"
   xmlns:svg="http://www.w3.org/2000/svg">
  <defs
     id="defs16" />
  <sodipodi:namedview
     id="namedview14"
     pagecolor="#ffffff"
     bordercolor="#000000"
     borderopacity="0.25"
     inkscape:showpageshadow="2"
     inkscape:pageopacity="0.0"
     inkscape:pagecheckerboard="0"
     inkscape:deskcolor="#d1d1d1"
     showgrid="false"
     inkscape:zoom="0.3232"
     inkscape:cx="1079.8267"
     inkscape:cy="1251.547"
     inkscape:window-width="1920"
     inkscape:window-height="991"
     inkscape:window-x="-9"
     inkscape:window-y="-9"
     inkscape:window-maximized="1"
     inkscape:current-layer="g10" />
  <g
     fill-rule="evenodd"
     clip-rule="evenodd"
     id="g10">
    <path
       fill="#fff"
       d="M0 0h192.756v192.756H0V0z"
       id="path2" />
    <path
       fill="#db812e"
       d="M8.504 8.504h175.748v175.748H8.504V8.504z"
       id="path4" />
    <path
       d="m 47.492,147.626 -4.561,4.559 -3,-3.007 4.552,-4.558 -11.784,-11.779 c -1.913,-1.916 -2.174,-2.278 -4.56,-1.04 -0.875,0.468 -1.817,0.462 -2.536,-0.265 -1.505,-1.503 0.102,-3.306 0.311,-3.52 l 14.651,-14.65 c 0.207,-0.207 2.014,-1.809 3.519,-0.314 0.728,0.731 0.734,1.663 0.266,2.541 -1.245,2.385 -0.88,2.643 1.038,4.559 l 27.188,27.193 c 1.917,1.923 2.177,2.289 4.563,1.037 0.882,-0.461 1.81,-0.457 2.539,0.267 1.5,1.506 -0.098,3.318 -0.304,3.527 L 64.72,166.823 c -0.21,0.206 -2.023,1.809 -3.526,0.312 -0.722,-0.731 -0.724,-1.662 -0.264,-2.544 1.249,-2.381 0.883,-2.642 -1.036,-4.561 z m -0.199,36.626 h -5.977 l 0.046,-0.093 c 1.238,-2.374 0.878,-2.639 -1.039,-4.558 L 13.132,152.414 c -1.925,-1.925 -2.18,-2.288 -4.562,-1.047 -0.022,0.013 -0.044,0.023 -0.067,0.035 v -5.98 l 12.491,-12.489 c 0.207,-0.201 2.017,-1.812 3.517,-0.313 0.726,0.731 0.734,1.661 0.267,2.541 -1.247,2.391 -0.883,2.645 1.042,4.569 l 27.188,27.183 c 1.92,1.926 2.176,2.289 4.562,1.045 0.88,-0.467 1.813,-0.467 2.539,0.262 1.501,1.506 -0.103,3.315 -0.308,3.521 z m 59.812,-6.408 -6.41,6.408 h -3.41 c 0.09,-0.203 0.201,-0.412 0.305,-0.634 0.385,-0.724 -0.461,-1.46 -0.898,-1.896 L 81.405,166.434 c -0.439,-0.436 -1.165,-1.281 -1.894,-0.901 -0.788,0.379 -1.429,0.846 -2.161,0.12 -0.756,-0.759 -0.115,-1.58 0.469,-2.158 l 7.467,-7.468 z M 86.596,154.711 c 4.9,-5.019 12.482,-5.718 20.361,1.464 7.176,6.529 6.303,15.513 1.461,20.356 l -1.691,-1.692 c 1.547,-2.016 -0.031,-3.767 -1.143,-4.871 l -12.423,-12.43 c -1.11,-1.105 -2.859,-2.68 -4.87,-1.135 z"
       fill="#ffffff"
       id="path6"
       sodipodi:nodetypes="ccccccccccccccccccccccccccccccccccccccccccccccccccccccccc" />
    <path
       d="m 29.564,75.051 6.717,-6.716 17.438,17.437 c 1.015,1.016 1.152,1.207 2.413,0.549 0.466,-0.248 0.959,-0.248 1.344,0.137 0.795,0.793 -0.056,1.754 -0.164,1.864 l -7.76,7.76 c -0.11,0.108 -1.069,0.959 -1.864,0.162 -0.385,-0.381 -0.385,-0.876 -0.138,-1.342 0.657,-1.261 0.466,-1.398 -0.548,-2.412 z M 47.853,69.54 c 0.11,0.109 0.711,0.876 -0.11,1.7 -0.769,0.768 -1.618,0.192 -2.303,-0.329 -1.701,-1.207 -3.894,-2.633 -6.334,-2.222 l -1.59,-1.59 3.949,-3.946 z m -23.471,10.693 3.949,-3.948 1.59,1.59 c -0.411,2.44 1.015,4.634 2.221,6.334 0.521,0.685 1.097,1.535 0.33,2.302 -0.823,0.824 -1.591,0.22 -1.701,0.108 z m 43.595,-8.718 c 1.014,1.014 1.151,1.206 2.412,0.548 0.466,-0.246 0.96,-0.246 1.344,0.136 0.794,0.795 -0.056,1.756 -0.165,1.865 l -7.759,7.759 c -0.11,0.11 -1.07,0.96 -1.865,0.166 -0.382,-0.385 -0.384,-0.878 -0.136,-1.345 0.658,-1.259 0.466,-1.397 -0.549,-2.412 L 46.893,63.865 c -1.014,-1.015 -1.152,-1.207 -2.414,-0.549 -0.467,0.248 -0.959,0.248 -1.343,-0.137 -0.795,-0.794 0.055,-1.755 0.164,-1.864 l 7.76,-7.76 c 0.11,-0.108 1.069,-0.96 1.864,-0.164 0.385,0.384 0.385,0.877 0.136,1.344 -0.656,1.26 -0.465,1.398 0.55,2.412 z m -2.906,-10.201 -2.413,2.413 -1.59,-1.591 2.413,-2.413 -6.224,-6.223 c -1.015,-1.014 -1.152,-1.207 -2.413,-0.549 -0.466,0.247 -0.959,0.247 -1.344,-0.137 -0.795,-0.795 0.056,-1.754 0.165,-1.865 l 7.759,-7.758 c 0.11,-0.11 1.07,-0.96 1.865,-0.165 0.383,0.384 0.383,0.877 0.138,1.344 -0.658,1.26 -0.466,1.398 0.548,2.413 L 78.341,61.15 c 1.015,1.015 1.151,1.206 2.413,0.548 0.466,-0.247 0.959,-0.247 1.343,0.137 0.795,0.795 -0.055,1.754 -0.164,1.864 l -7.759,7.759 c -0.11,0.11 -1.069,0.959 -1.866,0.164 -0.382,-0.383 -0.382,-0.877 -0.136,-1.343 0.658,-1.261 0.466,-1.398 -0.548,-2.412 z m -1.063,-20.707 7.239,-7.238 20.509,20.508 -7.238,7.239 c -0.109,0.11 -1.069,0.959 -1.865,0.165 -0.384,-0.384 -0.384,-0.877 -0.138,-1.343 0.659,-1.262 0.467,-1.398 -0.548,-2.413 L 67.6,43.156 c -1.014,-1.014 -1.152,-1.207 -2.413,-0.548 -0.466,0.248 -0.959,0.248 -1.343,-0.135 -0.795,-0.797 0.054,-1.756 0.164,-1.866 z m 8.473,-8.472 6.114,-6.114 5.565,5.565 c 0.137,0.137 0.63,0.685 -0.192,1.507 -0.467,0.466 -0.877,0.329 -1.425,0.055 -2.935,-1.507 -5.676,-1.454 -8.472,0.575 z m 18.918,18.919 c 1.947,-2.495 2.139,-5.703 0.686,-8.637 -0.219,-0.604 -0.495,-1.207 0,-1.7 0.876,-0.877 1.618,0.027 1.726,0.137 l 5.484,5.484 -6.305,6.306 z m -9.76,-9.763 c 0.849,-1.452 0.301,-3.042 -0.494,-4.331 -0.329,-0.604 -0.603,-1.206 -0.028,-1.782 0.851,-0.851 1.701,0.273 1.92,0.494 l 5.922,5.922 c 0.219,0.219 1.343,1.07 0.495,1.919 -0.577,0.575 -1.18,0.301 -1.784,-0.028 -1.289,-0.794 -2.879,-1.343 -4.332,-0.493 z"
       fill="#ffffff"
       id="path8"
       sodipodi:nodetypes="ccccccccccccccccccccccccccccssccccccscccccccccccccccccccscsccsccccccccccccccscccccccccccccccscccc" />
  </g>
</svg>
