<?xml version="1.0" encoding="UTF-8" standalone="no"?>
<svg
   width="2500"
   height="735"
   viewBox="217.273 298.789 187.01 55.013"
   version="1.1"
   id="svg24"
   sodipodi:docname="costco-wholesale.svg"
   inkscape:version="1.2.2 (732a01da63, 2022-12-09)"
   xmlns:inkscape="http://www.inkscape.org/namespaces/inkscape"
   xmlns:sodipodi="http://sodipodi.sourceforge.net/DTD/sodipodi-0.dtd"
   xmlns="http://www.w3.org/2000/svg"
   xmlns:svg="http://www.w3.org/2000/svg">
  <defs
     id="defs28" />
  <sodipodi:namedview
     id="namedview26"
     pagecolor="#ffffff"
     bordercolor="#000000"
     borderopacity="0.25"
     inkscape:showpageshadow="2"
     inkscape:pageopacity="0.0"
     inkscape:pagecheckerboard="0"
     inkscape:deskcolor="#d1d1d1"
     showgrid="false"
     inkscape:zoom="0.5468"
     inkscape:cx="1311.2655"
     inkscape:cy="368.50768"
     inkscape:window-width="1920"
     inkscape:window-height="991"
     inkscape:window-x="-9"
     inkscape:window-y="-9"
     inkscape:window-maximized="1"
     inkscape:current-layer="g20" />
  <path
     d="M401.434 311.283c-3.193-3.873-8.83-6.095-15.459-6.095-7.014 0-13.328 2.386-17.701 6.257l.713-4.47-1.895-.563c-2.686-.8-5.664-1.224-8.619-1.224-5.078 0-9.935 1.57-13.857 4.157l1.129-3.72H315.38l-.36 1.188c-2.697-1.084-5.666-1.625-9.01-1.625-6.25 0-13.017 2.427-16.529 7.098-.23-.342-.471-.679-.74-1.003-3.194-3.873-8.829-6.095-15.459-6.095-6.807 0-12.961 2.244-17.314 5.916l1.694-10.305-1.927-.557c-3.289-.951-6.943-1.454-10.57-1.454-13.307 0-25.417 8.458-27.57 19.254-.918 4.593.153 9.042 3.012 12.529 2.438 2.971 6.037 5.089 10.312 6.171h-13.184v16.861h67.152l.104-.205.013.205h8.083l1.096-1.786-.338 1.786h18.274l.269-1.408c1.605 1.04 3.69 1.604 6.092 1.604 2.146 0 4.137-.444 5.853-1.235l-.196 1.039H349.76l.043-.229c1.188.268 2.436.426 3.629.426.723 0 1.469-.064 2.211-.195h9.77l.725-1.539h.651l.198 1.539h30.131l1.498-7.891h-.551l.207-1.084h.394l1.5-7.889h-.834c.681-.615 1.175-1.405 1.347-2.305a3.607 3.607 0 0 0-.761-2.98 3.746 3.746 0 0 0-.603-.571c2.391-2.455 4.047-5.426 4.691-8.766.785-4.095-.102-7.843-2.572-10.836zm-17.432 33.843h-.925l1.396-7.336c.318-.041.635-.087.949-.137l-1.42 7.473zm-21.564-23.864c-.096.49-.162.975-.211 1.451-2.033 1.36-3.938 2.003-5.976 2.003-1.379 0-2.573-.45-3.194-1.204-.354-.428-.473-.907-.363-1.464.363-1.879 2.912-3.527 5.453-3.527 1.59 0 3.084.562 4.549 1.713-.091.34-.192.679-.258 1.028zm2.058 15.48l-.992 1.635-.824-.462a10.219 10.219 0 0 0-1.728-.744c.44-.104.851-.223 1.209-.353l1.157-.421 1.137-4.984c.154.214.3.433.471.639 1.715 2.079 4.188 3.669 7.172 4.689l-7.602.001zm10.063.69l-.395 2.075-.549-2.305c.311.081.623.16.944.23zm9.668-18.693c1.238 0 2.191.329 2.686.926.453.55.438 1.251.34 1.744-.395 2.033-2.48 3.453-5.082 3.453-1.266 0-2.266-.334-2.744-.916-.332-.403-.432-.969-.294-1.682.336-1.751 2.195-3.525 5.094-3.525zm-57.183 19.518a8.73 8.73 0 0 0-1.147-.646h1.271l-.124.646zm-6.991 6.867c-.164.146-.431.244-.74.262.158-.136.406-.248.74-.262zm-1.987-26.195l-1.508 4.964a7.31 7.31 0 0 0-1.234-3.603 7.917 7.917 0 0 0-1.047-1.219l3.789-.142zm-43.509 2.479c-.393 2.034-2.482 3.454-5.082 3.454-1.264 0-2.265-.334-2.744-.916-.334-.403-.432-.969-.293-1.682.338-1.753 2.197-3.525 5.096-3.525 1.238 0 2.191.329 2.686.926.45.55.432 1.252.337 1.743zm17.427 16.141l-.049.104-.01-.113c.02.002.039.006.059.009zm22.437-6.609l-1.761 5.802h-6.764c3.458-1.141 6.558-3.054 8.525-5.802zm.733 6.671h.377c-.139.059-.275.118-.41.182l.033-.182zm-72.759-15.219c-1.93 0-3.602-.634-4.473-1.694-.504-.614-.673-1.294-.518-2.078.504-2.525 3.871-4.658 7.353-4.658 2.351 0 4.526.882 6.653 2.683a16.463 16.463 0 0 0-1.334 3.298c-2.597 1.66-5.051 2.449-7.681 2.449zm39.781 11.955l2.196.989c1.214.546 2.563 1.013 3.976 1.407h-4.088l-.438.877-.057-.877h-7.066a25.48 25.48 0 0 0 5.477-2.396zm53.545 10.779l1.594-8.384h-7.735l5.42-17.865 1.652.063a15.82 15.82 0 0 0-.729 2.504c-.771 3.986.166 7.835 2.643 10.834 1.631 1.977 3.871 3.479 6.492 4.463h-6.818l-1.594 8.384-.925.001zm-86.166-9.011l1.164-.41 1.018-4.326c.164.228.316.457.496.674 1.715 2.079 4.187 3.669 7.17 4.689h-12.338c.933-.175 1.79-.382 2.49-.627zm139.84.627a27.258 27.258 0 0 0 2.895-1.074c.137.326.301.641.529.918.05.058.113.103.164.156h-3.588z"
     fill="#fff"
     id="path2" />
  <path
     d="M281.646 339l.467 7.369h.117c.242-.753.51-1.539.885-2.276l2.541-5.093h4.127l.623 7.369h.119c.215-.722.457-1.476.787-2.179l2.479-5.19h5.601l-7.574 12.347h-4.696l-.414-6.714h-.177c-.18.64-.338 1.261-.631 1.867l-2.414 4.847h-4.58L276.064 339h5.582z"
     fill="#005daa"
     id="path4" />
  <path
     d="M299 339h5.188l-.789 4.159h3.301l.79-4.159h5.188l-2.346 12.347h-5.188l.814-4.29h-3.303l-.814 4.29h-5.188L299 339z"
     fill="#005daa"
     id="path6" />
  <path
     d="M327.873 345.206c-.753 3.963-4.881 6.337-9.398 6.337-4.521 0-7.746-2.375-6.992-6.337.738-3.881 4.912-6.403 9.412-6.403s7.714 2.522 6.978 6.403zm-10.978.065c-.269 1.408.688 2.375 2.319 2.375 1.632 0 2.955-.967 3.224-2.375.248-1.311-.604-2.406-2.313-2.406-1.713 0-2.982 1.096-3.23 2.406zM329.053 339h5.385l-1.594 8.384h4.521l-.754 3.962h-9.905L329.053 339zM350.104 346.925l.24.182c.844.621 1.907 1.13 3.146 1.13.531 0 1.41-.182 1.516-.737s-.592-.605-1.066-.688l-1.051-.164c-2.045-.312-3.615-1.344-3.25-3.274.559-2.931 4.072-4.569 7.295-4.569 1.69 0 3.18.346 4.492 1.081l-2.055 3.161c-.824-.523-1.788-.934-2.948-.934-.471 0-1.188.146-1.282.653-.088.458.567.524.965.606l1.176.229c2.197.428 3.656 1.441 3.26 3.537-.562 2.948-4.062 4.405-7.266 4.405-1.865 0-3.947-.426-5.483-1.13l2.311-3.488z"
     fill="#005daa"
     id="path8" />
  <path
     d="M368.604 346.876l-.215-2.178c-.058-.524-.054-1.064-.051-1.589h-.197l-1.697 3.767h2.16zm-4.688 4.471h-5.699L365.713 339h5.954l2.94 12.347h-5.699l-.198-1.539h-4.067l-.727 1.539z"
     fill="#005daa"
     id="path10" />
  <path
     d="M376.504 339h5.385l-1.594 8.384h4.521l-.754 3.962h-9.904L376.504 339zM387.408 339h9.966l-.642 3.374h-4.541l-.225 1.179h4.146l-.609 3.21h-4.146l-.229 1.211h4.698l-.643 3.373h-10.121L387.408 339z"
     fill="#005daa"
     id="path12" />
  <g
     fill="#e31837"
     id="g20">
    <path
       d="m 255.105,302.411 c -3.045,-0.881 -6.5,-1.365 -9.943,-1.365 -12.271,0 -23.424,7.75 -25.357,17.438 -1.889,9.468 5.971,16.82 17.908,16.82 2.721,0 8.465,-0.396 11.092,-1.319 l 2.922,-12.42 c -2.82,1.895 -5.834,3.084 -9.332,3.084 -4.553,0 -7.933,-2.819 -7.203,-6.476 0.721,-3.61 5.013,-6.474 9.564,-6.474 3.441,0 6.188,1.542 8.271,3.347 z"
       id="path16"
       sodipodi:nodetypes="cscsccscscc" />
    <path
       d="M394.277 334.019c.183-.96 1.252-1.732 2.416-1.732 1.154 0 1.938.773 1.756 1.732-.186.965-1.26 1.737-2.416 1.737-1.163 0-1.937-.775-1.756-1.737zm3.627 0c.146-.772-.407-1.279-1.299-1.279-.906 0-1.639.507-1.783 1.279-.146.772.391 1.284 1.298 1.284.892 0 1.638-.511 1.784-1.284zm-.742.906h-.539l-.34-.769h-.352l-.146.769h-.458l.345-1.815h1.057c.467 0 .719.129.639.556-.061.311-.305.471-.586.493l.38.766zm-.668-1.116c.229 0 .426 0 .464-.193.03-.16-.168-.16-.397-.16h-.496l-.065.353h.494z"
       id="path18" />
  </g>
  <path
     fill="#005daa"
     d="M220.658 351.367h57.093l-.004-.02h-.048l-.72-3.14h-56.321zM220.658 346.879h56.014l-.729-3.159h-55.285zM220.658 342.372h54.957l-.246-1.151-.506-2.197h-54.205zM339.959 339h9.964l-.642 3.374h-4.539l-.225 1.179h4.146l-.608 3.21h-4.146l-.23 1.211h4.697l-.641 3.373h-10.123L339.959 339z"
     id="path22" />
</svg>
