<?xml version="1.0" encoding="UTF-8" standalone="no"?>
<svg
   width="2600"
   height="1100"
   viewBox="8.032 220.337 622.75616 263.43409"
   version="1.1"
   id="svg8"
   sodipodi:docname="ping-an-2.svg"
   inkscape:version="1.2.2 (732a01da63, 2022-12-09)"
   xmlns:inkscape="http://www.inkscape.org/namespaces/inkscape"
   xmlns:sodipodi="http://sodipodi.sourceforge.net/DTD/sodipodi-0.dtd"
   xmlns="http://www.w3.org/2000/svg"
   xmlns:svg="http://www.w3.org/2000/svg">
  <defs
     id="defs12" />
  <sodipodi:namedview
     id="namedview10"
     pagecolor="#ffffff"
     bordercolor="#000000"
     borderopacity="0.25"
     inkscape:showpageshadow="2"
     inkscape:pageopacity="0.0"
     inkscape:pagecheckerboard="0"
     inkscape:deskcolor="#d1d1d1"
     showgrid="false"
     inkscape:zoom="0.3842248"
     inkscape:cx="1353.3744"
     inkscape:cy="672.78322"
     inkscape:window-width="1920"
     inkscape:window-height="991"
     inkscape:window-x="-9"
     inkscape:window-y="-9"
     inkscape:window-maximized="1"
     inkscape:current-layer="svg8" />
  <path
     fill="#ea5504"
     d="m 90.542006,430.59445 c 0.0017,1.24167 -1.005329,2.24866 -2.247,2.247 h -48.338 v -32.465 h 48.386 c 1.243,0 2.247,1.052 2.247,2.295 v 27.923 z m -10.71,-46.857 h -58.284 c -1.243,0 -2.295,1.004 -2.295,2.247 v 90.127 c 0,1.243 1.004,2.247 2.295,2.247 h 16.113 c 1.241671,0.002 2.248661,-1.00533 2.247,-2.247 v -26.632 h 39.875 c 17.834,0 32.321004,-10.519 32.321004,-26.44 v -10.566 c 0.049,-15.874 -14.438004,-28.736 -32.272004,-28.736 m 535.882004,0 h -14.296 c -1.24167,-0.002 -2.24866,1.00533 -2.247,2.247 v 65.265 c -7.459,-8.463 -56.897,-64.5 -58.141,-65.839 -1.339,-1.434 -3.107,-1.673 -4.303,-1.673 h -14.152 c -1.243,0 -2.295,1.004 -2.295,2.247 v 90.127 c 0,1.243 1.052,2.247 2.295,2.247 h 14.296 c 1.243,0 2.295,-1.004 2.295,-2.247 v -65.79 c 5.354,6.119 57.327,65.024 58.618,66.363 1.339,1.435 3.107,1.674 4.303,1.674 h 13.675 c 1.243,0 2.295,-1.004 2.295,-2.247 v -90.127 c -0.048,-1.243 -1.099,-2.247 -2.343,-2.247 m -149.605,2.487 c -0.86,-1.578 -2.295,-2.63 -4.112,-2.63 h -14.104 c -1.769,0 -3.203,1.052 -4.111,2.63 l -44.514,87.641 c -1.482,2.868 -0.191,4.542 2.438,4.542 h 14.104 c 2.104,0 2.821,-0.526 3.873,-2.486 l 35.237,-70.571 35.286,70.523 c 1.052,1.96 1.816,2.486 3.873,2.486 h 14.057 c 2.677,0 3.92,-1.674 2.438,-4.542 z m -327.707,-80.325 h -37.819 v -44.609 h 37.819 z m -60.578004,0 h -37.867 v -44.609 h 37.867 z m 66.602004,-60.818 h -43.891 v -13.053 c 0,-1.435 -1.100004,-2.534 -2.486004,-2.534 h -17.787 c -1.387,0 -2.486,1.1 -2.486,2.534 v 13.053 h -43.892 c -8.032,0 -14.631,6.55 -14.631,14.631 v 47.765 c 0,8.08 6.599,14.63 14.631,14.63 h 43.892 v 20.56 c 0,1.387 1.1,2.486 2.486,2.486 h 17.786 c 1.387,0 2.486004,-1.1 2.486004,-2.486 v -20.56 h 43.892 c 8.081,0 14.631,-6.55 14.631,-14.63 v -47.765 c 0,-8.081 -6.55,-14.631 -14.631,-14.631"
     id="path2"
     sodipodi:nodetypes="ccccsscccsssscccsscccccccsssssssccssscccssccsscccssccccccccccccccsssscsssscsssscsssc" />
  <path
     fill="#005e3c"
     d="m 455.892,441.327 h -24.337 c -1.242,0 -2.247,1.052 -2.247,2.295 v 23.763 c 0,1.243 1.004,2.295 2.247,2.295 h 24.337 c 1.243,0 2.247,-1.004 2.247,-2.295 v -23.763 c 0,-1.243 -1.052,-2.295 -2.247,-2.295"
     id="path4" />
</svg>
