<?xml version="1.0" encoding="UTF-8" standalone="no"?>
<svg
   width="2500"
   height="1424"
   viewBox="11.752 12.764 797.655 454.437"
   version="1.1"
   id="svg20"
   sodipodi:docname="cisco-2.svg"
   inkscape:version="1.2.2 (732a01da63, 2022-12-09)"
   xmlns:inkscape="http://www.inkscape.org/namespaces/inkscape"
   xmlns:sodipodi="http://sodipodi.sourceforge.net/DTD/sodipodi-0.dtd"
   xmlns:xlink="http://www.w3.org/1999/xlink"
   xmlns="http://www.w3.org/2000/svg"
   xmlns:svg="http://www.w3.org/2000/svg">
  <defs
     id="defs24" />
  <sodipodi:namedview
     id="namedview22"
     pagecolor="#ffffff"
     bordercolor="#000000"
     borderopacity="0.25"
     inkscape:showpageshadow="2"
     inkscape:pageopacity="0.0"
     inkscape:pagecheckerboard="0"
     inkscape:deskcolor="#d1d1d1"
     showgrid="false"
     inkscape:zoom="0.5468"
     inkscape:cx="1186.9056"
     inkscape:cy="712.32626"
     inkscape:window-width="1920"
     inkscape:window-height="991"
     inkscape:window-x="-9"
     inkscape:window-y="-9"
     inkscape:window-maximized="1"
     inkscape:current-layer="g16" />
  <g
     transform="matrix(10.33728 0 0 -10.33728 -861.345 7843.84)"
     id="g18">
    <defs
       id="defs5">
      <path
         id="a"
         d="M84.461 713.596h77.163v43.961H84.461v-43.961z" />
    </defs>
    <clipPath
       id="b">
      <use
         xlink:href="#a"
         overflow="visible"
         id="use7" />
    </clipPath>
    <g
       clip-path="url(#b)"
       id="g16">
      <path
         d="m 102.043,727.2 c -0.127,0.066 -1.142,0.668 -2.652,0.668 -2.045,0 -3.46,-1.42 -3.46,-3.337 0,-1.859 1.356,-3.34 3.46,-3.34 1.484,0 2.516,0.59 2.652,0.664 v -3.358 c -0.392,-0.11 -1.47,-0.445 -2.88,-0.445 -3.548,0 -6.661,2.448 -6.661,6.48 0,3.735 2.82,6.475 6.662,6.475 1.486,0 2.582,-0.36 2.879,-0.449 V 727.2 Z"
         fill="#c4122e"
         id="path10"
         sodipodi:nodetypes="ssssccsssccs" />
      <path
         d="M89.154 744.23c0 .862-.704 1.561-1.567 1.561s-1.568-.699-1.568-1.56v-3.285a1.568 1.568 0 0 1 3.135 0v3.284zM97.763 748.54a1.567 1.567 0 0 1-3.135 0v-7.594a1.567 1.567 0 0 1 3.135 0v7.595zM106.373 754.438c0 .862-.704 1.562-1.567 1.562-.864 0-1.568-.7-1.568-1.562v-16.613a1.568 1.568 0 0 1 3.135 0v16.613zM114.982 748.54a1.567 1.567 0 0 1-3.135 0v-7.594a1.567 1.567 0 0 1 3.135 0v7.595zM123.582 744.23a1.56 1.56 0 0 1-1.558 1.561 1.566 1.566 0 0 1-1.567-1.56v-3.285a1.562 1.562 0 1 1 3.125 0v3.284zM132.195 748.54a1.563 1.563 0 0 1-3.125 0v-7.594a1.562 1.562 0 1 1 3.125 0v7.595zM140.81 754.438a1.562 1.562 0 0 1-3.125 0v-16.613a1.564 1.564 0 1 1 3.125 0v16.613zM149.423 748.54c0 .863-.699 1.564-1.582 1.564a1.563 1.563 0 0 1-1.562-1.563v-7.595c0-.867.7-1.566 1.562-1.566.883 0 1.582.699 1.582 1.566v7.595zM158.02 744.23a1.563 1.563 0 0 1-3.128 0v-3.284c0-.867.701-1.567 1.564-1.567.862 0 1.563.7 1.563 1.567v3.284z"
         fill="#15495d"
         id="path12" />
    </g>
  </g>
</svg>
