<?xml version="1.0" encoding="UTF-8" standalone="no"?>
<svg
   width="2500"
   height="2500"
   viewBox="0 0 192.756 192.756"
   version="1.1"
   id="svg8"
   sodipodi:docname="american-express-1.svg"
   inkscape:version="1.2.2 (732a01da63, 2022-12-09)"
   xmlns:inkscape="http://www.inkscape.org/namespaces/inkscape"
   xmlns:sodipodi="http://sodipodi.sourceforge.net/DTD/sodipodi-0.dtd"
   xmlns="http://www.w3.org/2000/svg"
   xmlns:svg="http://www.w3.org/2000/svg">
  <defs
     id="defs12" />
  <sodipodi:namedview
     id="namedview10"
     pagecolor="#ffffff"
     bordercolor="#000000"
     borderopacity="0.25"
     inkscape:showpageshadow="2"
     inkscape:pageopacity="0.0"
     inkscape:pagecheckerboard="0"
     inkscape:deskcolor="#d1d1d1"
     showgrid="false"
     inkscape:zoom="0.45707382"
     inkscape:cx="1102.6665"
     inkscape:cy="1134.3901"
     inkscape:window-width="1920"
     inkscape:window-height="991"
     inkscape:window-x="-9"
     inkscape:window-y="-9"
     inkscape:window-maximized="1"
     inkscape:current-layer="g6" />
  <g
     fill-rule="evenodd"
     clip-rule="evenodd"
     id="g6">
    <path
       fill="#fff"
       d="M0 0h192.756v192.756H0V0z"
       id="path2" />
    <path
       d="M 8.484,177.699 H 7.933 c 0,-0.275 -0.138,-0.689 -0.138,-0.828 0,-0.137 0,-0.412 -0.414,-0.412 H 6.553 v 1.24 H 6.139 v -2.896 h 1.242 c 0.552,0 0.965,0.139 0.965,0.689 0,0.414 -0.138,0.553 -0.275,0.689 0.138,0.139 0.275,0.277 0.275,0.553 v 0.551 c 0,0.139 0,0.139 0.138,0.139 z m -0.551,-2.068 c 0,-0.414 -0.276,-0.414 -0.414,-0.414 H 6.553 v 0.828 h 0.828 c 0.276,0 0.552,-0.139 0.552,-0.414 z m 2.345,0.551 c 0,-1.654 -1.379,-3.035 -3.173,-3.035 -1.655,0 -3.035,1.381 -3.035,3.035 0,1.793 1.38,3.174 3.035,3.174 1.793,-0.001 3.173,-1.381 3.173,-3.174 z m -0.414,0 c 0,1.518 -1.241,2.621 -2.759,2.621 -1.518,0 -2.621,-1.104 -2.621,-2.621 0,-1.379 1.104,-2.621 2.621,-2.621 1.517,0 2.759,1.242 2.759,2.621 z M 75.39,113.553 69.734,107.207 H 51.111 v 19.312 h 18.348 l 5.932,-6.346 c -0.03066,-23.099646 -0.06369,13.07873 -0.001,-6.62 z m -8.277,8.967 h -11.45 v -3.863 h 10.208 v -3.861 H 55.663 v -3.588 h 11.588 l 5.104,5.656 z M 37.316,92.17 29.453,73.961 h -6.897 l -8.277,19.313 h 4.966 l 1.793,-4.277 h 9.656 l 1.793,4.277 c 10.797232,-2.763036 -8.912793,2.745742 4.829,-1.104 z m -14.623,-7.311 3.173,-7.587 3.173,7.587 z M 178.715,13.401 H 14.14 v 69.527 l 5.656,-12.829 h 12.001 l 1.656,3.173 v -3.173 h 14.071 c 3.274975,7.774061 2.95103,7.401423 6.208,0 h 44.834 c 2.068,0 3.861,0.414 5.242,1.517 v -1.517 h 12.277 v 1.517 c 2.068,-1.104 4.689,-1.517 7.725,-1.517 h 17.795 c 1.65445,3.118214 1.656,3.903791 1.656,0 h 13.105 c 1.88607,3.006196 1.932,4.011102 1.932,0 h 12.828 V 97.137 H 158.16 c -2.42908,-3.935882 -2.482,-5.216258 -2.482,0 h -16.141 c -1.94063,-6.400311 -5.38884,-5.413872 -7.588,0 h -8.414 c -3.311,0 -5.795,-0.828 -7.449,-1.655 v 1.655 H 96.083 c 0.115266,-8.609969 -1.379,-9.370332 -1.379,-0.001 H 56.077 c 0.113684,-4.150019 0.0093,-3.472154 -1.379,0 H 46.559 L 45.18,93.825 v 3.311 H 29.591 l -1.655,-4.414 h -4.001 l -1.793,4.414 H 14.14 v 81.529 H 178.715 V 129.14 c -1.793,0.828 -4.277,1.242 -6.76,1.242 h -12.002 v -1.656 c -1.379,1.105 -3.863,1.656 -6.207,1.656 h -37.799 c 0.10895,-8.54931 -1.517,-9.19477 -1.517,0 h -12.416 v -7.311 c -2.068,0.965 -4.414,0.965 -6.483,0.965 h -1.38 v 6.346 H 78.977 l -3.586,-4.139 -4,4.139 H 46.972 v -27.037 h 24.831 l 3.587,4.137 3.863,-4.137 h 16.692 c 1.93,0 5.104,0.275 6.483,1.654 v -1.654 h 14.898 c 1.518,0 4.416,0.275 6.346,1.654 v -1.654 h 22.486 V 105 c 1.242,-1.104 3.588,-1.654 5.656,-1.654 h 12.553 V 105 c 1.381,-0.965 3.311,-1.654 5.795,-1.654 h 8.553 z"
       fill="#0077a6"
       id="path4"
       sodipodi:nodetypes="ccssccccsscssccssccssssscsssssscccccccccccccccccccccccccccccccccccccccsccccsccccccccccscccccccccccccccccsccsccccsccccccccccsccsccccsccscc" />
  </g>
</svg>
