<?xml version="1.0" encoding="UTF-8" standalone="no"?>
<svg
   height="543"
   viewBox="17.086 17.192 885.828 165.617"
   width="2500"
   version="1.1"
   id="svg6"
   sodipodi:docname="deloitte-1.svg"
   inkscape:version="1.2.2 (732a01da63, 2022-12-09)"
   xmlns:inkscape="http://www.inkscape.org/namespaces/inkscape"
   xmlns:sodipodi="http://sodipodi.sourceforge.net/DTD/sodipodi-0.dtd"
   xmlns="http://www.w3.org/2000/svg"
   xmlns:svg="http://www.w3.org/2000/svg">
  <defs
     id="defs10" />
  <sodipodi:namedview
     id="namedview8"
     pagecolor="#ffffff"
     bordercolor="#000000"
     borderopacity="0.25"
     inkscape:showpageshadow="2"
     inkscape:pageopacity="0.0"
     inkscape:pagecheckerboard="0"
     inkscape:deskcolor="#d1d1d1"
     showgrid="false"
     inkscape:zoom="0.5468"
     inkscape:cx="1148.5004"
     inkscape:cy="271.5801"
     inkscape:window-width="1920"
     inkscape:window-height="991"
     inkscape:window-x="-9"
     inkscape:window-y="-9"
     inkscape:window-maximized="1"
     inkscape:current-layer="svg6" />
  <path
     d="m855.963 159.337c0-12.962 10.524-23.478 23.479-23.478 12.962 0 23.472 10.516 23.472 23.478s-10.51 23.472-23.472 23.472c-12.955 0-23.479-10.51-23.479-23.472"
     fill="#86bc24"
     id="path2" />
  <path
     d="m 107.195,97.16 c 0,-14.871 -2.873,-25.904 -8.62,-33.092 C 92.82,56.888 84.105,53.301 72.385,53.301 H 59.92 v 90.938 h 9.538 c 13.016,0 22.554,-3.86 28.628,-11.604 6.066,-7.73 9.11,-19.558 9.11,-35.475 m 44.456,-1.55 c 0,27.093 -7.282,47.97 -21.848,62.623 -14.565,14.66 -35.04,21.99 -61.434,21.99 H 17.086 V 17.88 h 54.865 c 25.448,0 45.095,6.665 58.94,19.987 13.839,13.329 20.761,32.568 20.761,57.745 m 622.192,9.049 c 0.557,-6.63 2.453,-11.488 5.686,-14.592 3.248,-3.098 7.256,-4.647 12.052,-4.647 5.231,0 9.389,1.739 12.473,5.244 3.104,3.485 4.721,8.153 4.85,13.995 z m 57.555,-33.397 c -9.702,-9.51 -23.465,-14.273 -41.27,-14.273 -18.717,0 -33.12,5.469 -43.215,16.406 -10.088,10.938 -15.135,26.63 -15.135,47.08 0,19.802 5.455,35.074 16.338,45.794 10.89,10.72 26.182,16.087 45.876,16.087 9.457,0 17.596,-0.645 24.416,-1.929 6.78,-1.27 13.343,-3.567 19.709,-6.882 l -6.271,-27.29 c -4.626,1.89 -9.028,3.343 -13.186,4.3 -6.005,1.394 -12.595,2.093 -19.77,2.093 -7.866,0 -14.075,-1.922 -18.627,-5.767 -4.552,-3.852 -6.977,-9.165 -7.255,-15.931 h 72.948 v -18.594 c 0,-17.887 -4.85,-31.59 -14.558,-41.094"
     fill="#0f0b0b"
     id="path4"
     sodipodi:nodetypes="ccsccsccccsccsccccsccccscscsccccscccsc" />
</svg>
