<?xml version="1.0" encoding="UTF-8" standalone="no"?>
<svg
   width="2500"
   height="2500"
   viewBox="0 0 70.751 70.751"
   version="1.1"
   id="svg6"
   sodipodi:docname="wells-fargo.svg"
   inkscape:version="1.2.2 (732a01da63, 2022-12-09)"
   xmlns:inkscape="http://www.inkscape.org/namespaces/inkscape"
   xmlns:sodipodi="http://sodipodi.sourceforge.net/DTD/sodipodi-0.dtd"
   xmlns="http://www.w3.org/2000/svg"
   xmlns:svg="http://www.w3.org/2000/svg">
  <defs
     id="defs10" />
  <sodipodi:namedview
     id="namedview8"
     pagecolor="#ffffff"
     bordercolor="#000000"
     borderopacity="0.25"
     inkscape:showpageshadow="2"
     inkscape:pageopacity="0.0"
     inkscape:pagecheckerboard="0"
     inkscape:deskcolor="#d1d1d1"
     showgrid="false"
     inkscape:zoom="0.3232"
     inkscape:cx="0"
     inkscape:cy="1582.6114"
     inkscape:window-width="1920"
     inkscape:window-height="991"
     inkscape:window-x="-9"
     inkscape:window-y="-9"
     inkscape:window-maximized="1"
     inkscape:current-layer="svg6" />
  <path
     d="M0 0h70.751v70.751H0V0z"
     fill="#cd1309"
     id="path2" />
  <path
     d="m 16.172,41.744 c 0,-0.809 -0.101,-1.516 -0.404,-2.123 -0.404,-0.506 -1.112,-0.605 -2.224,-0.605 h -2.527 v 3.031 h 0.809 c 1.213,0 1.415,-0.303 1.415,-1.818 h 1.011 v 5.054 h -1.011 c 0,-1.72 -0.202,-2.123 -1.415,-2.123 h -0.809 v 2.629 c 0,0.91 0.101,0.91 1.011,0.91 H 13.14 V 47.91 H 6.974 V 46.699 H 7.58 c 0.809,0 1.112,-0.103 1.112,-0.91 v -5.965 c 0,-0.808 -0.304,-0.908 -1.112,-0.908 H 6.974 v -1.111 h 10.31 v 3.941 z M 16.88,22.64 v 1.213 h 0.708 c 0.606,0 0.809,0.102 0.809,0.404 0,0.203 0,0.405 -0.101,0.809 l -1.92,5.054 h -0.101 c -0.91,-2.527 -2.123,-5.458 -2.123,-5.458 -0.101,-0.202 -0.101,-0.304 -0.101,-0.405 0,-0.303 0.202,-0.404 0.708,-0.404 h 0.809 V 22.64 h -5.357 v 1.213 h 0.708 c 0.809,0 1.112,0.404 1.213,1.213 L 10.111,30.12 H 10.01 C 9.1,27.391 7.887,24.561 7.887,24.561 c -0.101,-0.101 0,-0.202 0,-0.303 -0.101,-0.303 0.202,-0.404 0.809,-0.404 H 9.1 V 22.64 H 4.043 v 1.213 h 0.202 c 0.708,0 1.313,0.404 1.617,1.314 l 3.032,7.58 h 1.819 l 2.224,-5.559 2.325,5.559 h 1.819 l 2.83,-7.682 c 0.404,-0.91 0.606,-1.213 1.516,-1.213 h 0.101 c -0.05956,-1.183872 0.229047,-1.19481 -0.06089,-1.195309 -4.576488,-0.0079 0.02626,-0.0073 -4.587114,-0.01669 z"
     fill="#ffff00"
     id="path4"
     sodipodi:nodetypes="ccsccsccccscssccccsssscccccccssccccssccccscccccsccccscccccccscscc" />
</svg>
