<?xml version="1.0" encoding="UTF-8" standalone="no"?>
<svg
   height="2500"
   viewBox="-.012 -.012 256.024 256.024"
   width="2500"
   version="1.1"
   id="svg8"
   sodipodi:docname="taobao-new-flat-design.svg"
   inkscape:version="1.2.2 (732a01da63, 2022-12-09)"
   xmlns:inkscape="http://www.inkscape.org/namespaces/inkscape"
   xmlns:sodipodi="http://sodipodi.sourceforge.net/DTD/sodipodi-0.dtd"
   xmlns="http://www.w3.org/2000/svg"
   xmlns:svg="http://www.w3.org/2000/svg">
  <defs
     id="defs12" />
  <sodipodi:namedview
     id="namedview10"
     pagecolor="#ffffff"
     bordercolor="#000000"
     borderopacity="0.25"
     inkscape:showpageshadow="2"
     inkscape:pageopacity="0.0"
     inkscape:pagecheckerboard="0"
     inkscape:deskcolor="#d1d1d1"
     showgrid="false"
     inkscape:zoom="0.22853691"
     inkscape:cx="717.60837"
     inkscape:cy="986.7115"
     inkscape:window-width="1920"
     inkscape:window-height="991"
     inkscape:window-x="-9"
     inkscape:window-y="-9"
     inkscape:window-maximized="1"
     inkscape:current-layer="g6" />
  <g
     clip-rule="evenodd"
     fill-rule="evenodd"
     id="g6">
    <path
       d="m249.422 30.679c-2.721-4.985-5.816-9.536-9.793-13.521-3.992-3.998-8.709-7.587-13.703-10.314-8.381-4.576-18.788-6.856-29.002-6.856h-137.849c-10.444 0-20.542 2.345-29.265 6.949-5.022 2.649-9.588 6.146-13.502 10.126-3.932 3.998-7.491 8.488-10.046 13.572-4.289 8.533-6.274 18.477-6.274 28.65v137.429c0 10.327 1.671 20.679 6.296 29.135 2.681 4.9 6.191 9.86 10.087 13.794 3.934 3.971 8.583 7.226 13.503 9.956 8.465 4.7 18.842 6.413 29.201 6.413h137.849c10.568 0 20.399-1.523 28.982-6.401 4.739-2.692 9.879-6.113 13.687-9.966 3.923-3.969 7.2-8.851 9.886-13.799 4.566-8.415 6.533-18.874 6.533-29.132v-137.429c0-10.307-1.981-20.161-6.59-28.606z"
       fill="#fe7500"
       id="path2" />
    <path
       d="M 217.911,84.078 C 208.256,65.451 175.471,61.105 147.785,66.904 l -17.969,3.658 -11.448,3.021 h -0.159 l -0.159,-0.636 c 1.775,-3.102 5.099,-7.233 5.566,-11.131 l -23.693,-6.52 c -1.802,4.717 -3.604,9.436 -5.407,14.152 -3.904,9.055 -9,17.317 -14.629,24.647 -1.798,2.342 -3.795,5.305 -6.361,6.837 l -0.477,0.637 c 1.222,1.401 14.108,8.696 16.219,9.223 l 9.859,-10.495 3.021,-3.816 10.813,-4.611 c 16.31054,-6.339881 9.22207,-3.945065 15.426,-6.041 l 16.537,-5.247 c 15.936,-4.939 41.851,-8.156 49.135,6.679 2.891,5.885 2.068,15.99 2.067,24.647 v 44.047 c 0.001,11.958 1.2,19.847 -5.331,26.94 -5.432,5.123 -11.854,5.893 -16.383,5.816 -4.53,-0.076 -10.588,-1.846 -16.608,-3.181 h -0.159 c -0.842,2.441 -3.07,10.768 -3.311,13.517 4.711,1.105 10.059,1.84 15.236,2.703 4.893,0.815 11.561,0.734 16.2,0.149 19.124,-2.413 27.862,-8.715 33.413,-22.411 6.833,-21.827 5.176,-83.833 -1.272,-95.41 z M 68.881,88.213 C 88.336,84.015 85.905,57.41 63.156,57.841 c -1.325,0.266 -2.65,0.53 -3.976,0.795 -4.906,1.74 -8.9,5.29 -10.654,10.177 -4.192,11.685 8.773,21.899 20.355,19.4 z M 73,113.47 c -3.286,-3.172 -6.775,-6.349 -9.65,-8.561 -2.732,-2.102 -9.98,-8.969 -13.039,-9.7 l -10.336,16.379 5.724,3.498 c 4.66,3.151 9.606,5.997 14.013,8.721 3.556,2.446 6.472,5.065 7.931,8.294 2.48,5.181 -0.318,11.401 -2.544,14.788 -6.054,9.213 -14.285,16.829 -21.944,24.488 -6.202,6.203 -11.63,10.973 -11.63,10.973 0,0 3.308,1.908 4.792,2.862 9.319,5.759 20.375,13.444 21.467,13.198 6.845,-16.373 15.538,-30.553 21.308,-48.182 2.192,-6.696 5.145,-16.685 2.704,-24.966 C 80.342,120.337 76.825,117.161 73,113.47 Z"
       fill="#ffffff"
       id="path4"
       sodipodi:nodetypes="ccccccccccccccccccccccccccccccccccccsccccccccccccc" />
  </g>
</svg>
