<?xml version="1.0" encoding="UTF-8" standalone="no"?>
<svg
   height="1600"
   viewBox="14.616 22.504 422.084 257.4669"
   width="2500"
   version="1.1"
   id="svg12"
   sodipodi:docname="tata-logo.svg"
   inkscape:version="1.2.2 (732a01da63, 2022-12-09)"
   xmlns:inkscape="http://www.inkscape.org/namespaces/inkscape"
   xmlns:sodipodi="http://sodipodi.sourceforge.net/DTD/sodipodi-0.dtd"
   xmlns="http://www.w3.org/2000/svg"
   xmlns:svg="http://www.w3.org/2000/svg">
  <defs
     id="defs16" />
  <sodipodi:namedview
     id="namedview14"
     pagecolor="#ffffff"
     bordercolor="#000000"
     borderopacity="0.25"
     inkscape:showpageshadow="2"
     inkscape:pageopacity="0.0"
     inkscape:pagecheckerboard="0"
     inkscape:deskcolor="#d1d1d1"
     showgrid="false"
     inkscape:zoom="0.35191638"
     inkscape:cx="1094.0099"
     inkscape:cy="922.09406"
     inkscape:window-width="1920"
     inkscape:window-height="991"
     inkscape:window-x="-9"
     inkscape:window-y="-9"
     inkscape:window-maximized="1"
     inkscape:current-layer="g10" />
  <g
     fill="#486aae"
     id="g10">
    <g
       clip-rule="evenodd"
       fill-rule="evenodd"
       id="g8"
       transform="translate(0.47975488,22.068725)">
      <path
         d="M 375.394,93.432 C 371.6,85.971 366.603,78.82 360.387,72.114 346.418,57.037 326.709,44.491 303.385,35.838 279.869,27.118 253.047,22.504 225.79,22.504 c -27.257,0 -54.079,4.614 -77.583,13.334 -23.336,8.654 -43.046,21.2 -57.015,36.276 -6.212,6.705 -11.225,13.866 -15.018,21.331 30.365,-7.343 82.306,-17.038 130.534,-18.063 4.652,-0.1 7.855,1.39 9.964,4.063 2.569,3.255 2.376,14.858 2.313,20.049 l -1.371,134.17 c 2.716,0.09 5.445,0.148 8.176,0.148 2.754,0 5.498,-0.045 8.214,-0.135 L 232.633,99.493 c -0.071,-5.19 -0.27,-16.794 2.308,-20.049 2.114,-2.672 5.306,-4.162 9.957,-4.063 48.208,1.017 100.137,10.714 130.496,18.051"
         id="path4" />
      <path
         d="M 381.877,110.88 C 337.435,100.833 307.756,98.975 278.472,97.35 c -25.526,-1.419 -25.859,7.696 -23.311,25.115 0.167,1.063 0.372,2.403 0.615,3.931 8.562,50.712 19.224,94.352 21.056,101.759 62.23,-14.225 107.109,-53.664 107.109,-99.994 0,-5.834 -0.705,-11.614 -2.064,-17.281 m -185.434,11.585 c 2.551,-17.418 2.224,-26.534 -23.299,-25.115 -29.294,1.625 -58.98,3.482 -103.439,13.536 -1.358,5.667 -2.072,11.44 -2.072,17.274 0,20.024 8.146,39.4 23.56,56.047 13.969,15.077 33.679,27.623 57.015,36.282 8.446,3.127 17.359,5.69 26.54,7.74 1.723,-6.939 12.63,-51.487 21.285,-103.106 0.16,-0.989 0.308,-1.902 0.41,-2.658"
         id="path6" />
    </g>
  </g>
</svg>
