<?xml version="1.0" encoding="UTF-8" standalone="no"?>
<svg
   width="2500"
   height="2500"
   viewBox="0 0 192.756 192.756"
   version="1.1"
   id="svg16"
   sodipodi:docname="sap.svg"
   inkscape:version="1.2.2 (732a01da63, 2022-12-09)"
   xmlns:inkscape="http://www.inkscape.org/namespaces/inkscape"
   xmlns:sodipodi="http://sodipodi.sourceforge.net/DTD/sodipodi-0.dtd"
   xmlns="http://www.w3.org/2000/svg"
   xmlns:svg="http://www.w3.org/2000/svg">
  <defs
     id="defs20" />
  <sodipodi:namedview
     id="namedview18"
     pagecolor="#ffffff"
     bordercolor="#000000"
     borderopacity="0.25"
     inkscape:showpageshadow="2"
     inkscape:pageopacity="0.0"
     inkscape:pagecheckerboard="0"
     inkscape:deskcolor="#d1d1d1"
     showgrid="false"
     inkscape:zoom="0.3232"
     inkscape:cx="293.93564"
     inkscape:cy="1137.0668"
     inkscape:window-width="1920"
     inkscape:window-height="991"
     inkscape:window-x="-9"
     inkscape:window-y="-9"
     inkscape:window-maximized="1"
     inkscape:current-layer="g14" />
  <g
     fill-rule="evenodd"
     clip-rule="evenodd"
     id="g14">
    <path
       fill="#fff"
       d="M0 0h192.756v192.756H0V0z"
       id="path2" />
    <path
       d="M183.727 66.775c3.279 0 6.195-2.914 6.195-6.558 0-3.461-2.916-6.194-6.195-6.194-3.461 0-6.557 2.732-6.557 6.194 0 3.644 3.096 6.558 6.557 6.558zm0-.91c-3.277 0-5.646-2.368-5.646-5.647 0-2.915 2.369-5.283 5.646-5.283a5.286 5.286 0 0 1 5.283 5.283c0 3.279-2.367 5.647-5.283 5.647z"
       fill="#234b8d"
       id="path4" />
    <path
       d="M182.088 60.946h2.186c.912 0 1.094.546 1.094 1.093 0 .183 0 1.275.182 1.822h1.094v-.364c-.182-.183-.365-.183-.365-.547v-1.093c0-.911-.363-1.093-.729-1.275.547-.364.912-.729.912-1.821 0-1.275-1.094-1.822-2.188-1.822h-3.096v6.923h.91v-2.916zm0-3.096h2.186c.547 0 1.275 0 1.275 1.093 0 .911-.729 1.093-1.457 1.093h-2.004V57.85zM3.381 53.842h83.797v83.979H3.381V53.842zM174.801 53.842H90.822v83.979l83.979-83.979z"
       fill="#234b8d"
       id="path6" />
    <path
       d="m 61.493,138.549 c -40.995333,-92.366 -20.497667,-46.183 0,0 z"
       fill="#ffffff"
       id="path10"
       sodipodi:nodetypes="cc" />
    <path
       d="M2.834 129.26v1.64c0 5.829 7.104 8.015 13.845 8.015 9.108 0 14.574-3.279 14.574-9.654 0-10.202-18.217-7.105-18.217-13.116 0-2.187 1.64-2.915 4.19-2.915 1.639 0 2.186.364 2.732.729 1.093.729 1.093 1.64 1.093 3.279h9.655v-.729c0-4.372-3.826-8.016-13.48-8.016-10.566 0-13.845 4.008-13.845 8.744 0 10.384 18.217 7.104 18.217 13.48 0 1.275-1.093 3.097-4.919 3.097-3.097 0-4.19-1.457-4.19-3.644v-.91H2.834z"
       fill="#fff"
       id="path12" />
  </g>
</svg>
