<?xml version="1.0" encoding="UTF-8" standalone="no"?>
<svg
   width="2500"
   height="2500"
   viewBox="0 0 192.756 192.756"
   version="1.1"
   id="svg12"
   sodipodi:docname="fedex-express.svg"
   inkscape:version="1.2.2 (732a01da63, 2022-12-09)"
   xmlns:inkscape="http://www.inkscape.org/namespaces/inkscape"
   xmlns:sodipodi="http://sodipodi.sourceforge.net/DTD/sodipodi-0.dtd"
   xmlns="http://www.w3.org/2000/svg"
   xmlns:svg="http://www.w3.org/2000/svg">
  <defs
     id="defs16" />
  <sodipodi:namedview
     id="namedview14"
     pagecolor="#ffffff"
     bordercolor="#000000"
     borderopacity="0.25"
     inkscape:showpageshadow="2"
     inkscape:pageopacity="0.0"
     inkscape:pagecheckerboard="0"
     inkscape:deskcolor="#d1d1d1"
     showgrid="false"
     inkscape:zoom="0.3232"
     inkscape:cx="584.77723"
     inkscape:cy="1366.0272"
     inkscape:window-width="1920"
     inkscape:window-height="991"
     inkscape:window-x="-9"
     inkscape:window-y="-9"
     inkscape:window-maximized="1"
     inkscape:current-layer="g10" />
  <g
     fill-rule="evenodd"
     clip-rule="evenodd"
     id="g10">
    <path
       fill="#43338e"
       d="M0 0h192.756v192.756H0V0z"
       id="path2" />
    <path
       fill="#d9782d"
       d="m 128.74,81.174 c -85.826667,-54.116 -42.913333,-27.058 0,0 z m -22.623,25.874 V 66.29 h 22.623 v 9.085 h -13.041 v 5.799 h 13.041 v 8.74 h -13.041 v 8.024 h 13.041 l 0.0105,9.11 z"
       id="path4"
       sodipodi:nodetypes="ccccccccccccccc" />
    <path
       d="M 49.054,86.515 V 81.174 H 36.908 V 75.375 H 50.161 V 66.29 h -24.08 v 40.758 H 36.908 V 89.914 h 12.087167 c 0.07455,-5.168087 0.05883,1.76867 0.05883,-3.399 z m 86.995,39.94 v -0.708 c 0.932,-0.043 1.285,-0.443 1.285,-1.108 v -6.02 c 0,-1.505 -0.266,-1.991 -1.373,-2.036 v -0.707 l 3.053,-0.008 v 2.441 h 0.045 c 0.287,-1.149 1.086,-2.7 2.412,-2.7 0.938,0 1.672,0.749 1.672,1.935 0,0.836 -0.482,1.281 -1.055,1.281 -0.488,0 -1.035,-0.32 -1.035,-1.156 0,-0.532 0.451,-0.972 0.678,-1.066 -0.039,-0.207 -0.264,-0.285 -0.357,-0.285 -1.355,0 -2.139,3.253 -2.139,5.181 v 3.141 c 0,0.665 0.357,1.065 1.863,1.108 v 0.708 h -5.049 z m -6.848,-4.866 c 0,-3.764 1.107,-5.137 2.258,-5.137 1.131,0 1.928,1.373 1.928,4.781 0,3.365 -0.797,4.782 -1.971,4.782 -0.908,0.001 -2.215,-1.019 -2.215,-4.426 z m -2.791,-5.003 c 0.584,0.059 0.887,0.246 0.887,1.142 v 10.946 c 0,0.665 -0.352,1.061 -1.416,1.106 v 0.709 h 4.959 v -0.709 c -1.283,-0.046 -1.639,-0.441 -1.639,-1.106 v -3.389 h 0.045 c 0.443,0.82 1.174,1.438 2.324,1.438 2.414,0 3.984,-2.5 3.984,-5.556 0,-2.26 -1.26,-5.556 -3.787,-5.556 -1.414,0 -2.322,1.018 -2.654,2.081 h -0.043 v -1.823 h -2.66 z m -21.931,9.88 v -0.711 c 1.369,-0.09 1.639,-0.354 1.639,-1.505 v -10.797 c 0,-1.152 -0.27,-1.415 -1.639,-1.506 v -0.707 h 10.443 v 5.33 h -0.709 c -0.494,-2.861 -1.328,-4.623 -3.918,-4.623 -1.568,0 -2.012,0.487 -2.012,1.506 v 4.604 h 0.814 c 1.574,0 1.969,-0.82 2.215,-2.659 h 0.705 v 6.108 h -0.705 c -0.309,-1.858 -0.887,-2.608 -2.256,-2.608 h -0.773 v 5.353 c 0,0.887 0.334,1.505 1.66,1.505 2.855,0 4.189,-1.37 4.58,-4.777 h 0.709 v 5.488 h -10.753 z m 21.482,0 h -4.604 v -0.711 c 0.84,0 1.018,-0.199 1.018,-0.484 0,-0.312 -0.197,-0.558 -1.857,-3.055 -1.395,2.212 -1.637,2.631 -1.637,2.921 0,0.374 0.354,0.572 1.016,0.618 v 0.711 h -3.793 v -0.711 c 0.852,-0.131 1.428,-0.441 2.092,-1.46 l 1.836,-2.833 -2.832,-4.293 c -0.287,-0.441 -0.486,-0.529 -1.197,-0.573 v -0.711 h 4.381 v 0.711 c -0.684,0 -0.992,0.063 -0.992,0.464 0,0.308 0.242,0.509 1.791,2.896 1.371,-2.165 1.594,-2.411 1.594,-2.873 0,-0.311 -0.244,-0.487 -1.064,-0.487 v -0.711 h 3.627 v 0.711 c -0.479,0 -1.125,0.354 -1.635,1.083 l -2.035,2.988 2.723,4.161 c 0.359,0.558 0.664,0.814 1.568,0.926 z m 19.541,-6.199 c 0,-2.831 0.842,-3.935 2.104,-3.935 1.172,0 1.834,1.104 1.834,3.935 z m 6.107,0.839 c 0,-3.185 -1.551,-5.484 -4.004,-5.484 -2.498,0 -4.27,2.3 -4.27,5.552 0,2.769 1.811,5.555 4.559,5.555 2.096,0 3.246,-1.271 3.691,-3.396 l -0.709,-0.131 c -0.396,1.559 -1.131,2.686 -2.766,2.686 -1.482,0 -2.609,-1.684 -2.609,-4.781 h 6.108 z m 1.133,5.36 v -3.701 h 0.711 c 0.217,1.396 1.115,3.255 2.742,3.255 1.104,0 1.945,-0.663 1.945,-1.924 0,-2.854 -5.309,-1.591 -5.309,-5.487 0,-1.372 0.996,-2.986 2.943,-2.986 1.215,0 1.703,0.663 2.102,0.663 0.219,0 0.264,-0.243 0.354,-0.4 h 0.705 v 3.209 h -0.705 c -0.246,-1.241 -0.99,-2.762 -2.367,-2.762 -0.975,0 -1.617,0.64 -1.617,1.59 0,2.657 5.486,1.461 5.486,5.53 0,1.376 -1.082,3.276 -3.426,3.276 -1.484,0 -1.926,-0.797 -2.461,-0.797 -0.24,0 -0.352,0.334 -0.393,0.534 z m 7.738,0 v -3.701 h 0.711 c 0.217,1.396 1.113,3.255 2.742,3.255 1.104,0 1.945,-0.663 1.945,-1.924 0,-2.854 -5.309,-1.591 -5.309,-5.487 0,-1.372 0.998,-2.986 2.943,-2.986 1.215,0 1.701,0.663 2.1,0.663 0.221,0 0.266,-0.243 0.357,-0.4 h 0.705 v 3.209 h -0.705 c -0.246,-1.241 -0.992,-2.762 -2.369,-2.762 -0.975,0 -1.617,0.64 -1.617,1.59 0,2.657 5.486,1.461 5.486,5.53 0,1.376 -1.082,3.276 -3.428,3.276 -1.482,0 -1.924,-0.797 -2.459,-0.797 -0.24,0 -0.352,0.334 -0.393,0.534 z"
       fill="#ffffff"
       id="path6"
       sodipodi:nodetypes="cccccccccccccssscccccsssscsssccccscscsccsccccsccssscccccccsscccccsscsccccscssccccccccscscccccccccccscsccccccccccsccscssccsccscccsssssccccssssscccccsssssccccsssssccc" />
  </g>
</svg>
