<?xml version="1.0" encoding="UTF-8" standalone="no"?>
<svg
   width="2500"
   height="800"
   viewBox="0 0 192.756 61.68192"
   version="1.1"
   id="svg8"
   sodipodi:docname="siemens.svg"
   inkscape:version="1.2.2 (732a01da63, 2022-12-09)"
   xmlns:inkscape="http://www.inkscape.org/namespaces/inkscape"
   xmlns:sodipodi="http://sodipodi.sourceforge.net/DTD/sodipodi-0.dtd"
   xmlns="http://www.w3.org/2000/svg"
   xmlns:svg="http://www.w3.org/2000/svg">
  <defs
     id="defs12" />
  <sodipodi:namedview
     id="namedview10"
     pagecolor="#ffffff"
     bordercolor="#000000"
     borderopacity="0.25"
     inkscape:showpageshadow="2"
     inkscape:pageopacity="0.0"
     inkscape:pagecheckerboard="0"
     inkscape:deskcolor="#d1d1d1"
     showgrid="false"
     inkscape:zoom="0.45707382"
     inkscape:cx="1222.9972"
     inkscape:cy="607.12293"
     inkscape:window-width="1920"
     inkscape:window-height="991"
     inkscape:window-x="-9"
     inkscape:window-y="-9"
     inkscape:window-maximized="1"
     inkscape:current-layer="g6" />
  <g
     fill-rule="evenodd"
     clip-rule="evenodd"
     id="g6"
     transform="translate(0.71567819,-66.319514)">
    <path
       fill="#ffffff"
       d="M 0,0 H 192.756 V 192.756 H 0 Z"
       id="path2" />
    <path
       d="m 26.389,83.282 v 5.2 c -2.473,-0.865 -5.181,-1.37 -7.34,-1.37 -2.665,0 -4.148,0.812 -4.148,2.271 0,0.931 0.649,1.548 2.511,2.385 l 5.008,2.247 c 4.006,1.8 6.025,4.426 6.025,7.838 0,5.266 -4.558,8.588 -11.783,8.588 -2.635,0 -5.683,-0.377 -8.912,-1.107 v -5.375 c 3.201,0.871 6.133,1.336 8.414,1.336 2.987,0 4.587,-0.832 4.587,-2.383 0,-0.932 -0.625,-1.617 -2.056,-2.256 L 13.214,98.215 C 9.151,96.403 7.276,93.962 7.276,90.482 c 0,-4.987 4.393,-8.167 11.285,-8.167 2.413,0 5.383,0.367 7.828,0.967 z m 5.956,-0.422 h 8.099 v 27.036 h -8.099 z m 99.048,0 v 4.953 h -12.245 v 6.098 h 10.678 v 4.48 h -10.678 v 6.322 h 12.383 v 5.183 H 111.258 V 82.86 Z m 28.527,0 v 27.036 h -8.643 l -9.732,-17.34 v 17.34 h -5.412 V 82.86 h 8.871 l 9.523,17.111 V 82.86 Z"
       fill="#00a0b0"
       id="path4"
       sodipodi:nodetypes="ccssccssccssccsscccccccccccccccccccccccccccccc" />
  </g>
</svg>
