<?xml version="1.0" encoding="UTF-8" standalone="no"?>
<svg
   height="1512"
   width="2500"
   viewBox="5 5 833.387 500"
   version="1.1"
   id="svg12"
   sodipodi:docname="byd-1.svg"
   inkscape:version="1.2.2 (732a01da63, 2022-12-09)"
   xmlns:inkscape="http://www.inkscape.org/namespaces/inkscape"
   xmlns:sodipodi="http://sodipodi.sourceforge.net/DTD/sodipodi-0.dtd"
   xmlns="http://www.w3.org/2000/svg"
   xmlns:svg="http://www.w3.org/2000/svg">
  <defs
     id="defs16" />
  <sodipodi:namedview
     id="namedview14"
     pagecolor="#ffffff"
     bordercolor="#000000"
     borderopacity="0.25"
     inkscape:showpageshadow="2"
     inkscape:pageopacity="0.0"
     inkscape:pagecheckerboard="0"
     inkscape:deskcolor="#d1d1d1"
     showgrid="false"
     inkscape:zoom="0.26719577"
     inkscape:cx="565.12871"
     inkscape:cy="1083.4752"
     inkscape:window-width="1920"
     inkscape:window-height="991"
     inkscape:window-x="-9"
     inkscape:window-y="-9"
     inkscape:window-maximized="1"
     inkscape:current-layer="g10" />
  <g
     fill="#e50012"
     id="g10">
    <g
       fill-rule="evenodd"
       id="g8">
      <path
         d="M301.885 224.44q0 4.12-.696 8.134-.642 4.015-1.98 7.868-1.338 3.907-3.265 7.493-1.98 3.586-4.496 6.797c5.674 7.28 9.206 15.95 10.17 25.102.963 9.206-.643 18.412-4.71 26.707-4.015 8.296-10.277 15.254-18.09 20.178-7.761 4.87-16.807 7.493-26.012 7.547h-88.418V296.64l86.758-.428c3.426 0 6.69-1.338 9.1-3.747s3.746-5.727 3.746-9.098c0-3.426-1.338-6.69-3.747-9.153-2.408-2.408-5.673-3.746-9.099-4.12h-94.358v64.386h-37.733V175.467h133.75c6.477 0 12.9 1.284 18.894 3.746s11.4 6.048 16.003 10.651a48.321 48.321 0 0 1 10.704 16.003 49.295 49.295 0 0 1 3.747 18.84m-51.007 14.558c3.426 0 6.69-1.338 9.1-3.747s3.746-5.727 3.746-9.152c0-3.372-1.338-6.69-3.747-9.099s-5.673-3.746-9.099-4.175h-94.358v26.333h93.556z"
         id="path4" />
      <path
         d="M421.667 505C191.256 505 5 393.247 5 255S191.256 5 421.667 5c230.464 0 416.72 111.753 416.72 250S652.13 505 421.667 505zm390.28-249.679c0-117.052-174.427-211.678-390.28-211.678-215.8 0-390.227 94.626-390.227 211.678S205.867 467 421.667 467c215.853 0 390.28-94.627 390.28-211.679z"
         id="path6" />
    </g>
  </g>
</svg>
