<?xml version="1.0" encoding="UTF-8" standalone="no"?>
<svg
   height="2500"
   width="2500"
   viewBox="0 0 1024 1024"
   version="1.1"
   id="svg6"
   sodipodi:docname="cvs-pharmacy-1.svg"
   inkscape:version="1.2.2 (732a01da63, 2022-12-09)"
   xmlns:inkscape="http://www.inkscape.org/namespaces/inkscape"
   xmlns:sodipodi="http://sodipodi.sourceforge.net/DTD/sodipodi-0.dtd"
   xmlns="http://www.w3.org/2000/svg"
   xmlns:svg="http://www.w3.org/2000/svg">
  <defs
     id="defs10" />
  <sodipodi:namedview
     id="namedview8"
     pagecolor="#ffffff"
     bordercolor="#000000"
     borderopacity="0.25"
     inkscape:showpageshadow="2"
     inkscape:pageopacity="0.0"
     inkscape:pagecheckerboard="0"
     inkscape:deskcolor="#d1d1d1"
     showgrid="false"
     inkscape:zoom="0.6464"
     inkscape:cx="1285.5817"
     inkscape:cy="1408.5705"
     inkscape:window-width="1920"
     inkscape:window-height="991"
     inkscape:window-x="-9"
     inkscape:window-y="-9"
     inkscape:window-maximized="1"
     inkscape:current-layer="svg6" />
  <path
     d="M0 0h1024v1024H0z"
     fill="#c00"
     id="path2" />
  <path
     d="M 142.2,686 V 566 h 18.5 v 11.5 h 0.5 c 6,-8 14.4,-13.8 26.8,-13.8 22.8,0 37.9,18.3 37.9,46.4 0,28.3 -15,46.2 -38,46.2 -10.25156,0.52475 -20.05973,-4.22844 -26,-12.6 h -0.5 v 42.4 z m 18.3,-75.5 c 0,17.2 7.5,29.6 24,29.6 13.7,0 21.6,-11.5 21.6,-29.6 0,-17.6 -6.8,-30.8 -22.2,-30.8 -16.3,0 -23.4,13.8 -23.4,30.8 z M 295,654 v -56.6 c 0,-10.2 -6.4,-16.6 -17,-16.6 -11.7,0 -20.4,9 -20.4,21.7 V 654 H 238.4 V 532 h 19.2 v 45.7 h 0.4 c 6.4,-8.9 14,-13.8 26.4,-13.8 18.3,0 29.8,12.4 29.8,31 v 59 z M 875.3,552 c -0.28391,-10.98806 8.6089,-20.01698 19.6,-19.9 10.4,0 19.5,7.9 19.5,20 0,12.1 -9.1,19.9 -19.5,19.9 -11.5,0 -19.6,-8.5 -19.6,-20 z m 4.3,0 c 0,9.2 6,16.4 15.3,16.4 8.4,0 15.2,-6.8 15.2,-16.4 0,-9.6 -6.8,-16.3 -15.3,-16.3 -8.6,0 -15.2,6.8 -15.2,16.3 z m 20.6,11.7 -5.8,-9.3 H 891 v 9.1 h -3.6 v -21.8 h 8.3 c 5.3,0 8,1.9 8,6.3 0,4 -2.3,5.7 -5.7,6 l 6.2,9.7 z m -9.4,-12.5 h 4.3 c 2.7,0 5,-0.2 5,-3.4 0,-2.8 -2.5,-3 -4.8,-3 h -4.5 z M 359,398.8 c 0,-63 37.9,-101.8 97.8,-101.8 56,0 88.8,28.3 92.4,78.3 h -58.8 c -1.7,-19.5 -12.7,-30 -32.8,-30 -24.3,0 -36.1,17.8 -36.1,53.5 0,35 13,53.1 38.1,53.1 18.7,0 30.5,-11.3 32.5,-32 h 58 v 0.3 c -3.4,50.6 -36.8,80.3 -92.2,80.3 -61.6,0 -99,-39 -99,-101.7 z M 100.3,386.6 c -11.029294,-11.2084 -11.029294,-29.1916 0,-40.4 l 40.5,-40.4 c 5.22379,-5.4491 12.45147,-8.52087 20,-8.5 7.662,-0.003 15.00723,3.05718 20.4,8.5 l 33.3,33.3 33.1,-33.3 c 11.09363,-11.30607 29.30637,-11.30607 40.4,0 l 40.5,40.1 c 11.02929,11.2084 11.02929,29.1916 0,40.4 l -114,114.2 z"
     fill="#ffffff"
     id="path4"
     sodipodi:nodetypes="cccccsscccccssssscsssccccccssccccsscsssssccccccssccccssscccsccssscccscccccccccccccc" />
</svg>
