<?xml version="1.0" encoding="UTF-8" standalone="no"?>
<svg
   height="1968"
   viewBox="2 -13.15401237 268.725 236.69601902"
   width="2500"
   version="1.1"
   id="svg448"
   sodipodi:docname="tsmc-1.svg"
   inkscape:version="1.2.2 (732a01da63, 2022-12-09)"
   xmlns:inkscape="http://www.inkscape.org/namespaces/inkscape"
   xmlns:sodipodi="http://sodipodi.sourceforge.net/DTD/sodipodi-0.dtd"
   xmlns="http://www.w3.org/2000/svg"
   xmlns:svg="http://www.w3.org/2000/svg">
  <defs
     id="defs452" />
  <sodipodi:namedview
     id="namedview450"
     pagecolor="#ffffff"
     bordercolor="#000000"
     borderopacity="0.25"
     inkscape:showpageshadow="2"
     inkscape:pageopacity="0.0"
     inkscape:pagecheckerboard="0"
     inkscape:deskcolor="#d1d1d1"
     showgrid="false"
     inkscape:zoom="0.41056911"
     inkscape:cx="1115.5248"
     inkscape:cy="985.21782"
     inkscape:window-width="1920"
     inkscape:window-height="991"
     inkscape:window-x="-9"
     inkscape:window-y="-9"
     inkscape:window-maximized="1"
     inkscape:current-layer="g446" />
  <path
     d="m100.268 192.448 40.47.308h41.71c34.562-15.605 58.807-50.543 58.807-90.877 0-54.849-44.771-99.63-99.5-99.63-54.865 0-99.657 44.781-99.657 99.63 0 40.12 23.858 74.886 58.17 90.57z"
     fill="none"
     stroke="#221815"
     stroke-width="1.334733"
     id="path2" />
  <path
     d="m62.35 55.464v-13.645a103.549 103.549 0 0 0 -8.69 13.645z"
     fill="#fff"
     id="path4" />
  <path
     d="m62.35 55.464v-13.645a103.549 103.549 0 0 0 -8.69 13.645z"
     fill="none"
     stroke="#221815"
     stroke-width="1.34516"
     id="path6" />
  <path
     d="m210.95 30.485v9.796h8.858a100.407 100.407 0 0 0 -8.859-9.796"
     fill="#fff"
     id="path8" />
  <path
     d="m210.95 30.485v9.796h8.858a100.407 100.407 0 0 0 -8.859-9.796z"
     fill="none"
     stroke="#221815"
     stroke-width="1.34516"
     id="path10" />
  <path
     d="m161.459 4.232v5.59h9.677v-3.104a88.338 88.338 0 0 0 -9.677-2.487"
     fill="#fff"
     id="path12" />
  <g
     stroke="#221815"
     id="g242">
    <path
       d="m161.459 4.232v5.59h9.677v-3.104a88.338 88.338 0 0 0 -9.677-2.487z"
       fill="none"
       stroke-width="1.34516"
       id="path14" />
    <g
       stroke-width="1.34445"
       id="g240">
      <path
         d="m82.075 55.466h-9.655v-15.318h9.656z"
         fill="#fff"
         id="path16" />
      <path
         d="m82.075 70.748h-9.655v-15.288h9.656z"
         fill="#fff"
         id="path18" />
      <path
         d="m82.075 85.93h-9.655v-15.318h9.656zm0 15.287h-9.655v-15.287h9.656z"
         fill="#fff"
         id="path20" />
      <path
         d="m82.075 116.368h-9.655v-15.276h9.656zm0 15.319h-9.655v-15.319h9.656z"
         fill="#fff"
         id="path22" />
      <path
         d="m82.075 146.838h-9.655v-15.298h9.656z"
         fill="#fff"
         id="path24" />
      <path
         d="m82.075 162.03h-9.655v-15.333h9.656zm-9.932-91.282h-9.625v-15.288h9.625z"
         fill="#fff"
         id="path26" />
      <path
         d="m72.143 85.93h-9.625v-15.318h9.625zm0 15.287h-9.625v-15.287h9.625z"
         fill="#fff"
         id="path28" />
      <path
         d="m72.143 116.368h-9.625v-15.276h9.625zm0 15.319h-9.625v-15.319h9.625z"
         fill="#fff"
         id="path30" />
      <path
         d="m72.143 146.838h-9.625v-15.298h9.625z"
         fill="#fff"
         id="path32" />
      <path
         d="m72.143 162.03h-9.625v-15.333h9.625zm-9.792-76.1h-9.666v-15.318h9.666zm0 15.287h-9.666v-15.287h9.666z"
         fill="#fff"
         id="path34" />
      <path
         d="m62.351 116.368h-9.666v-15.276h9.666zm0 15.319h-9.666v-15.319h9.666zm29.646-91.409h-9.64v-15.287h9.64z"
         fill="#fff"
         id="path36" />
      <path
         d="m91.997 55.466h-9.64v-15.318h9.64z"
         fill="#fff"
         id="path38" />
      <path
         d="m91.997 70.748h-9.64v-15.288h9.64z"
         fill="#fff"
         id="path40" />
      <path
         d="m91.997 85.93h-9.64v-15.318h9.64zm0 15.287h-9.64v-15.287h9.64z"
         fill="#fff"
         id="path42" />
      <path
         d="m91.997 116.368h-9.64v-15.276h9.64zm0 15.319h-9.64v-15.319h9.64z"
         fill="#fff"
         id="path44" />
      <path
         d="m91.997 146.838h-9.64v-15.298h9.64z"
         fill="#fff"
         id="path46" />
      <path
         d="m91.997 162.03h-9.64v-15.333h9.64zm0 15.288h-9.64v-15.288h9.64z"
         fill="#fff"
         id="path48" />
      <path
         d="m101.93 40.278h-9.657v-15.287h9.656z"
         fill="#221815"
         id="path50" />
      <path
         d="m101.93 55.466h-9.657v-15.318h9.656z"
         fill="#fff"
         id="path52" />
      <path
         d="m101.93 70.748h-9.657v-15.288h9.656z"
         fill="#fff"
         id="path54" />
      <path
         d="m101.93 85.93h-9.657v-15.318h9.656zm0 15.287h-9.657v-15.287h9.656z"
         fill="#fff"
         id="path56" />
      <path
         d="m101.93 116.368h-9.657v-15.276h9.656zm0 15.319h-9.657v-15.319h9.656z"
         fill="#fff"
         id="path58" />
      <path
         d="m101.93 146.838h-9.657v-15.298h9.656z"
         fill="#fff"
         id="path60" />
      <path
         d="m101.93 162.03h-9.657v-15.333h9.656z"
         fill="#fff"
         id="path62" />
      <path
         d="m101.93 177.318h-9.657v-15.288h9.656z"
         fill="#221815"
         id="path64" />
      <path
         d="m111.695 40.278h-9.646v-15.287h9.646z"
         fill="#fff"
         id="path66" />
      <path
         d="m111.695 55.466h-9.646v-15.318h9.646z"
         fill="#221815"
         id="path68" />
      <path
         d="m111.695 70.748h-9.646v-15.288h9.646z"
         fill="#fff"
         id="path70" />
      <path
         d="m111.695 85.93h-9.646v-15.318h9.646zm0 15.287h-9.646v-15.287h9.646z"
         fill="#fff"
         id="path72" />
      <path
         d="m111.695 116.368h-9.646v-15.276h9.646zm0 15.319h-9.646v-15.319h9.646z"
         fill="#fff"
         id="path74" />
      <path
         d="m111.695 146.838h-9.646v-15.298h9.646z"
         fill="#fff"
         id="path76" />
      <path
         d="m111.695 162.03h-9.646v-15.333h9.646z"
         fill="#221815"
         id="path78" />
      <path
         d="m111.695 177.318h-9.646v-15.288h9.646z"
         fill="#fff"
         id="path80" />
      <path
         d="m111.695 192.448h-9.646v-15.297h9.646z"
         fill="#221815"
         id="path82" />
      <path
         d="m121.638 40.278h-9.667v-15.287h9.667z"
         fill="#fff"
         id="path84" />
      <path
         d="m121.638 24.997h-9.667v-15.298h9.667zm0 30.469h-9.667v-15.318h9.667z"
         fill="#fff"
         id="path86" />
      <path
         d="m121.638 70.748h-9.667v-15.288h9.667z"
         fill="#fff"
         id="path88" />
      <path
         d="m121.638 85.93h-9.667v-15.318h9.667zm0 15.287h-9.667v-15.287h9.667z"
         fill="#fff"
         id="path90" />
      <path
         d="m121.638 116.368h-9.667v-15.276h9.667zm0 15.319h-9.667v-15.319h9.667z"
         fill="#fff"
         id="path92" />
      <path
         d="m121.638 146.838h-9.667v-15.298h9.667z"
         fill="#fff"
         id="path94" />
      <path
         d="m121.638 162.03h-9.667v-15.333h9.667z"
         fill="#fff"
         id="path96" />
      <path
         d="m121.638 177.318h-9.667v-15.288h9.667z"
         fill="#221815"
         id="path98" />
      <path
         d="m121.638 192.448h-9.667v-15.297h9.667zm9.911-152.17h-9.646v-15.287h9.646z"
         fill="#fff"
         id="path100" />
      <path
         d="m131.549 24.997h-9.646v-15.298h9.646zm0 30.469h-9.646v-15.318h9.646z"
         fill="#fff"
         id="path102" />
      <path
         d="m131.549 70.748h-9.646v-15.288h9.646z"
         fill="#fff"
         id="path104" />
      <path
         d="m131.549 85.93h-9.646v-15.318h9.646zm0 15.287h-9.646v-15.287h9.646z"
         fill="#fff"
         id="path106" />
      <path
         d="m131.549 116.368h-9.646v-15.276h9.646zm0 15.319h-9.646v-15.319h9.646z"
         fill="#fff"
         id="path108" />
      <path
         d="m131.549 146.838h-9.646v-15.298h9.646z"
         fill="#fff"
         id="path110" />
      <path
         d="m131.549 162.03h-9.646v-15.333h9.646zm0 15.288h-9.646v-15.288h9.646z"
         fill="#fff"
         id="path112" />
      <path
         d="m131.549 192.448h-9.646v-15.297h9.646zm9.948-152.17h-9.661v-15.287h9.661z"
         fill="#fff"
         id="path114" />
      <path
         d="m141.497 24.997h-9.661v-15.298h9.661z"
         fill="#221815"
         id="path116" />
      <path
         d="m141.497 55.466h-9.661v-15.318h9.661z"
         fill="#fff"
         id="path118" />
      <path
         d="m141.497 70.748h-9.661v-15.288h9.661z"
         fill="#fff"
         id="path120" />
      <path
         d="m141.497 85.93h-9.661v-15.318h9.661zm0 15.287h-9.661v-15.287h9.661z"
         fill="#fff"
         id="path122" />
      <path
         d="m141.497 116.368h-9.661v-15.276h9.661zm0 15.319h-9.661v-15.319h9.661z"
         fill="#fff"
         id="path124" />
      <path
         d="m141.497 146.838h-9.661v-15.298h9.661z"
         fill="#fff"
         id="path126" />
      <path
         d="m141.497 162.03h-9.661v-15.333h9.661zm0 15.288h-9.661v-15.288h9.661z"
         fill="#fff"
         id="path128" />
      <path
         d="m141.497 192.448h-9.661v-15.297h9.661zm9.901-152.17h-9.646v-15.287h9.646z"
         fill="#fff"
         id="path130" />
      <path
         d="m151.398 24.997h-9.646v-15.298h9.646zm0 30.469h-9.646v-15.318h9.646z"
         fill="#fff"
         id="path132" />
      <path
         d="m151.398 70.748h-9.646v-15.288h9.646z"
         fill="#fff"
         id="path134" />
      <path
         d="m151.398 85.93h-9.646v-15.318h9.646zm0 15.287h-9.646v-15.287h9.646z"
         fill="#fff"
         id="path136" />
      <path
         d="m151.398 116.368h-9.646v-15.276h9.646zm0 15.319h-9.646v-15.319h9.646z"
         fill="#fff"
         id="path138" />
      <path
         d="m151.398 146.838h-9.646v-15.298h9.646z"
         fill="#fff"
         id="path140" />
      <path
         d="m151.398 162.03h-9.646v-15.333h9.646z"
         fill="#221815"
         id="path142" />
      <path
         d="m151.398 177.318h-9.646v-15.288h9.646z"
         fill="#fff"
         id="path144" />
      <path
         d="m151.398 192.448h-9.646v-15.297h9.646zm9.797-152.17h-9.64v-15.287h9.64z"
         fill="#fff"
         id="path146" />
      <path
         d="m161.195 24.997h-9.64v-15.298h9.64zm0 30.469h-9.64v-15.318h9.64z"
         fill="#fff"
         id="path148" />
      <path
         d="m161.195 70.748h-9.64v-15.288h9.64z"
         fill="#fff"
         id="path150" />
      <path
         d="m161.195 85.93h-9.64v-15.318h9.64zm0 15.287h-9.64v-15.287h9.64z"
         fill="#fff"
         id="path152" />
      <path
         d="m161.195 116.368h-9.64v-15.276h9.64zm0 15.319h-9.64v-15.319h9.64z"
         fill="#fff"
         id="path154" />
      <path
         d="m161.195 146.838h-9.64v-15.298h9.64z"
         fill="#fff"
         id="path156" />
      <path
         d="m161.195 162.03h-9.64v-15.333h9.64zm0 15.288h-9.64v-15.288h9.64z"
         fill="#fff"
         id="path158" />
      <path
         d="m161.195 192.448h-9.64v-15.297h9.64zm9.942-152.17h-9.676v-15.287h9.676z"
         fill="#fff"
         id="path160" />
      <path
         d="m171.137 24.997h-9.676v-15.298h9.676zm0 30.469h-9.676v-15.318h9.676z"
         fill="#fff"
         id="path162" />
      <path
         d="m171.137 70.748h-9.676v-15.288h9.676z"
         fill="#fff"
         id="path164" />
      <path
         d="m171.137 85.93h-9.676v-15.318h9.676zm0 15.287h-9.676v-15.287h9.676z"
         fill="#fff"
         id="path166" />
      <path
         d="m171.137 116.368h-9.676v-15.276h9.676zm0 15.319h-9.676v-15.319h9.676z"
         fill="#fff"
         id="path168" />
      <path
         d="m171.137 146.838h-9.676v-15.298h9.676z"
         fill="#fff"
         id="path170" />
      <path
         d="m171.137 162.03h-9.676v-15.333h9.676zm0 15.288h-9.676v-15.288h9.676z"
         fill="#fff"
         id="path172" />
      <path
         d="m171.137 192.448h-9.676v-15.297h9.676zm9.865-152.17h-9.614v-15.287h9.614z"
         fill="#fff"
         id="path174" />
      <path
         d="m181.002 55.466h-9.614v-15.318h9.614z"
         fill="#fff"
         id="path176" />
      <path
         d="m181.002 70.748h-9.614v-15.288h9.614z"
         fill="#fff"
         id="path178" />
      <path
         d="m181.002 85.93h-9.614v-15.318h9.614zm0 15.287h-9.614v-15.287h9.614z"
         fill="#fff"
         id="path180" />
      <path
         d="m181.002 116.368h-9.614v-15.276h9.614zm0 15.319h-9.614v-15.319h9.614z"
         fill="#fff"
         id="path182" />
      <path
         d="m181.002 146.838h-9.614v-15.298h9.614z"
         fill="#fff"
         id="path184" />
      <path
         d="m181.002 162.03h-9.614v-15.333h9.614zm0 15.288h-9.614v-15.288h9.614z"
         fill="#fff"
         id="path186" />
      <path
         d="m181.002 192.448h-9.614v-15.297h9.614zm9.979-152.17h-9.656v-15.287h9.656z"
         fill="#fff"
         id="path188" />
      <path
         d="m190.981 55.466h-9.656v-15.318h9.656z"
         fill="#221815"
         id="path190" />
      <path
         d="m190.981 70.748h-9.656v-15.288h9.656z"
         fill="#fff"
         id="path192" />
      <path
         d="m190.981 85.93h-9.656v-15.318h9.656zm0 15.287h-9.656v-15.287h9.656z"
         fill="#fff"
         id="path194" />
      <path
         d="m190.981 116.368h-9.656v-15.276h9.656zm0 15.319h-9.656v-15.319h9.656z"
         fill="#fff"
         id="path196" />
      <path
         d="m190.981 146.838h-9.656v-15.298h9.656z"
         fill="#fff"
         id="path198" />
      <path
         d="m190.981 162.03h-9.656v-15.333h9.656z"
         fill="#fff"
         id="path200" />
      <path
         d="m190.981 177.318h-9.656v-15.288h9.656z"
         fill="#221815"
         id="path202" />
      <path
         d="m200.762 40.278h-9.66v-15.287h9.66z"
         fill="#fff"
         id="path204" />
      <path
         d="m200.762 55.466h-9.66v-15.318h9.66z"
         fill="#fff"
         id="path206" />
      <path
         d="m200.762 70.748h-9.66v-15.288h9.66z"
         fill="#fff"
         id="path208" />
      <path
         d="m200.762 85.93h-9.66v-15.318h9.66zm0 15.287h-9.66v-15.287h9.66z"
         fill="#fff"
         id="path210" />
      <path
         d="m200.762 116.368h-9.66v-15.276h9.66zm0 15.319h-9.66v-15.319h9.66z"
         fill="#fff"
         id="path212" />
      <path
         d="m200.762 146.838h-9.66v-15.298h9.66z"
         fill="#fff"
         id="path214" />
      <path
         d="m200.762 162.03h-9.66v-15.333h9.66z"
         fill="#221815"
         id="path216" />
      <path
         d="m200.762 177.318h-9.66v-15.288h9.66zm9.912-121.852h-9.646v-15.318h9.646z"
         fill="#fff"
         id="path218" />
      <path
         d="m210.674 70.748h-9.646v-15.288h9.646z"
         fill="#fff"
         id="path220" />
      <path
         d="m210.674 85.93h-9.646v-15.318h9.646zm0 15.287h-9.646v-15.287h9.646z"
         fill="#fff"
         id="path222" />
      <path
         d="m210.674 116.368h-9.646v-15.276h9.646zm0 15.319h-9.646v-15.319h9.646z"
         fill="#fff"
         id="path224" />
      <path
         d="m210.674 146.838h-9.646v-15.298h9.646z"
         fill="#fff"
         id="path226" />
      <path
         d="m210.674 162.03h-9.646v-15.333h9.646zm9.916-91.282h-9.645v-15.288h9.645z"
         fill="#fff"
         id="path228" />
      <path
         d="m220.59 85.93h-9.645v-15.318h9.645zm0 15.287h-9.645v-15.287h9.645z"
         fill="#fff"
         id="path230" />
      <path
         d="m220.59 116.368h-9.645v-15.276h9.645zm0 15.319h-9.645v-15.319h9.645z"
         fill="#fff"
         id="path232" />
      <path
         d="m220.59 146.838h-9.645v-15.298h9.645z"
         fill="#fff"
         id="path234" />
      <path
         d="m220.59 162.03h-9.645v-15.333h9.645zm9.938-76.1h-9.646v-15.318h9.646zm0 15.287h-9.646v-15.287h9.646z"
         fill="#fff"
         id="path236" />
      <path
         d="m230.528 116.368h-9.646v-15.276h9.646zm0 15.319h-9.646v-15.319h9.646z"
         fill="#fff"
         id="path238" />
    </g>
  </g>
  <path
     d="m240.15 116.36-9.495.01v-15.276l10.58-.052z"
     fill="#fff"
     id="path244" />
  <path
     d="m240.15 116.36-9.495.01v-15.276l10.58-.052z"
     fill="none"
     stroke="#221815"
     stroke-width="1.34516"
     id="path246" />
  <path
     d="m62.519 41.656v13.806h9.624v-15.313h-8.451c-.412.48-.798.996-1.173 1.507"
     fill="#fff"
     id="path248" />
  <path
     d="m62.519 41.656v13.806h9.624v-15.313h-8.451c-.412.48-.798.996-1.173 1.507z"
     fill="none"
     stroke="#221815"
     stroke-width="1.34516"
     id="path250" />
  <path
     d="m62.35 55.464h-8.69c-.324.6-.652 1.21-.976 1.861v13.426h9.667z"
     fill="#fff"
     id="path252" />
  <path
     d="m62.35 55.464h-8.69c-.324.6-.652 1.21-.976 1.861v13.426h9.667z"
     fill="none"
     stroke="#221815"
     stroke-width="1.34516"
     id="path254" />
  <path
     d="m230.527 57.042c-.271-.542-.542-1.069-.798-1.58h-8.848v15.288h9.646z"
     fill="#fff"
     id="path256" />
  <path
     d="m230.527 57.042c-.271-.542-.542-1.069-.798-1.58h-8.848v15.288h9.646z"
     fill="none"
     stroke="#221815"
     stroke-width="1.34516"
     id="path258" />
  <path
     d="m220.593 41.299c-.287-.396-.59-.772-.897-1.152h-8.749v15.318h9.646z"
     fill="#fff"
     id="path260" />
  <path
     d="m220.593 41.299c-.287-.396-.59-.772-.897-1.152h-8.749v15.318h9.646z"
     fill="none"
     stroke="#221815"
     stroke-width="1.34516"
     id="path262" />
  <path
     d="m179.35 9.701h-7.96v15.297h9.608v-14.614c-.521-.245-1.08-.448-1.647-.683"
     fill="#fff"
     id="path264" />
  <path
     d="m179.35 9.701h-7.96v15.297h9.608v-14.614c-.521-.245-1.08-.448-1.647-.683z"
     fill="none"
     stroke="#221815"
     stroke-width="1.34516"
     id="path266" />
  <path
     d="m111.694 6.9c-2.69.866-5.344 1.846-7.962 2.925h7.962z"
     fill="#fff"
     id="path268" />
  <path
     d="m111.694 6.9c-2.69.866-5.344 1.846-7.962 2.925h7.962z"
     fill="none"
     stroke="#221815"
     stroke-width="1.34516"
     id="path270" />
  <path
     d="m111.974 6.819v3.003h9.666v-5.527c-3.269.699-6.496 1.549-9.666 2.524"
     fill="#fff"
     id="path272" />
  <path
     d="m111.974 6.819v3.003h9.666v-5.527c-3.269.699-6.496 1.549-9.666 2.524z"
     fill="none"
     stroke="#221815"
     stroke-width="1.34516"
     id="path274" />
  <path
     d="m121.908 4.242v5.58h9.645v-7.056a92.413 92.413 0 0 0 -9.645 1.475"
     fill="#fff"
     id="path276" />
  <path
     d="m121.908 4.242v5.58h9.645v-7.056a92.413 92.413 0 0 0 -9.645 1.475z"
     fill="none"
     stroke="#221815"
     stroke-width="1.34516"
     id="path278" />
  <path
     d="m141.495 2.267c-3.274.01-6.47.172-9.661.5v7.055h9.66z"
     fill="#fff"
     id="path280" />
  <path
     d="m141.495 2.267c-3.274.01-6.47.172-9.661.5v7.055h9.66z"
     fill="none"
     stroke="#221815"
     stroke-width="1.34516"
     id="path282" />
  <path
     d="m151.398 9.823v-7.086a99.716 99.716 0 0 0 -9.646-.49v7.576z"
     fill="#fff"
     id="path284" />
  <path
     d="m151.398 9.823v-7.086a99.716 99.716 0 0 0 -9.646-.49v7.576z"
     fill="none"
     stroke="#221815"
     stroke-width="1.34516"
     id="path286" />
  <path
     d="m151.556 2.746v7.074h9.64v-5.63a89.876 89.876 0 0 0 -9.64-1.444"
     fill="#fff"
     id="path288" />
  <path
     d="m151.556 2.746v7.074h9.64v-5.63a89.876 89.876 0 0 0 -9.64-1.444z"
     fill="none"
     stroke="#221815"
     stroke-width="1.34516"
     id="path290" />
  <path
     d="m171.388 6.778v3.045h8.32c-2.752-1.121-5.49-2.159-8.32-3.045"
     fill="#fff"
     id="path292" />
  <path
     d="m171.388 6.778v3.045h8.32c-2.752-1.121-5.49-2.159-8.32-3.045z"
     fill="none"
     stroke="#221815"
     stroke-width="1.34516"
     id="path294" />
  <path
     d="m190.98 15.403a102.717 102.717 0 0 0 -9.656-4.88v14.474h9.656z"
     fill="#fff"
     id="path296" />
  <path
     d="m190.98 15.403a102.717 102.717 0 0 0 -9.656-4.88v14.474h9.656z"
     fill="none"
     stroke="#221815"
     stroke-width="1.34516"
     id="path298" />
  <path
     d="m191.102 15.475v9.52h9.661v-3.227a104.04 104.04 0 0 0 -9.66-6.293"
     fill="#fff"
     id="path300" />
  <path
     d="m191.102 15.475v9.52h9.661v-3.227a104.04 104.04 0 0 0 -9.66-6.293z"
     fill="none"
     stroke="#221815"
     stroke-width="1.34516"
     id="path302" />
  <path
     d="m201.03 21.982v3.013h3.843a93.95 93.95 0 0 0 -3.842-3.013"
     fill="#fff"
     id="path304" />
  <path
     d="m201.03 21.982v3.013h3.843a93.95 93.95 0 0 0 -3.842-3.013z"
     fill="none"
     stroke="#221815"
     stroke-width="1.34516"
     id="path306" />
  <path
     d="m204.875 24.996h-3.843v15.287h9.64v-10.073c-1.86-1.794-3.785-3.566-5.797-5.214"
     fill="#fff"
     id="path308" />
  <path
     d="m204.875 24.996h-3.843v15.287h9.64v-10.073c-1.86-1.794-3.785-3.566-5.797-5.214z"
     fill="none"
     stroke="#221815"
     stroke-width="1.34516"
     id="path310" />
  <path
     d="m220.883 41.656v13.806h8.843a103.541 103.541 0 0 0 -8.843-13.806"
     fill="#fff"
     id="path312" />
  <path
     d="m220.883 41.656v13.806h8.843a103.541 103.541 0 0 0 -8.843-13.806z"
     fill="none"
     stroke="#221815"
     stroke-width="1.34516"
     id="path314" />
  <path
     d="m230.654 57.307v13.441h5.574a96.205 96.205 0 0 0 -5.574-13.441"
     fill="#fff"
     id="path316" />
  <path
     d="m230.654 57.307v13.441h5.574a96.205 96.205 0 0 0 -5.574-13.441z"
     fill="none"
     stroke="#221815"
     stroke-width="1.34516"
     id="path318" />
  <path
     d="m236.214 70.617h-5.558v15.318h9.302c-.84-5.266-2.117-10.36-3.744-15.318"
     fill="#fff"
     id="path320" />
  <path
     d="m236.214 70.617h-5.558v15.318h9.302c-.84-5.266-2.117-10.36-3.744-15.318z"
     fill="none"
     stroke="#221815"
     stroke-width="1.34516"
     id="path322" />
  <path
     d="m236.723 131.543h-6.069v14.849c2.398-4.75 4.458-9.708 6.069-14.85"
     fill="#fff"
     id="path324" />
  <path
     d="m236.723 131.543h-6.069v14.849c2.398-4.75 4.458-9.708 6.069-14.85z"
     fill="none"
     stroke="#221815"
     stroke-width="1.34516"
     id="path326" />
  <path
     d="m220.883 146.696v15.333h.089c3.624-4.796 6.788-9.948 9.547-15.333z"
     fill="#fff"
     id="path328" />
  <path
     d="m220.883 146.696v15.333h.089c3.624-4.796 6.788-9.948 9.547-15.333z"
     fill="none"
     stroke="#221815"
     stroke-width="1.34516"
     id="path330" />
  <path
     d="m210.95 173.284a101.67 101.67 0 0 0 9.645-10.772v-.48h-9.646z"
     fill="#fff"
     id="path332" />
  <path
     d="m210.95 173.284a101.67 101.67 0 0 0 9.645-10.772v-.48h-9.646z"
     fill="none"
     stroke="#221815"
     stroke-width="1.34516"
     id="path334" />
  <path
     d="m201.03 177.316h5.548c1.418-1.21 2.753-2.476 4.098-3.77v-11.516h-9.645z"
     fill="#fff"
     id="path336" />
  <path
     d="m201.03 177.316h5.548c1.418-1.21 2.753-2.476 4.098-3.77v-11.516h-9.645z"
     fill="none"
     stroke="#221815"
     stroke-width="1.34516"
     id="path338" />
  <path
     d="m201.03 177.153v4.614a90.486 90.486 0 0 0 5.71-4.614z"
     fill="#fff"
     id="path340" />
  <path
     d="m201.03 177.153v4.614a90.486 90.486 0 0 0 5.71-4.614z"
     fill="none"
     stroke="#221815"
     stroke-width="1.34516"
     id="path342" />
  <path
     d="m191.102 188.243c3.332-1.945 6.57-3.984 9.661-6.262v-4.828h-9.66z"
     fill="#fff"
     id="path344" />
  <path
     d="m191.102 188.243c3.332-1.945 6.57-3.984 9.661-6.262v-4.828h-9.66z"
     fill="none"
     stroke="#221815"
     stroke-width="1.34516"
     id="path346" />
  <path
     d="m181.326 192.448h1.658c2.732-1.23 5.402-2.659 7.998-4.134v-11.164h-9.656z"
     fill="#fff"
     id="path348" />
  <path
     d="m181.326 192.448h1.658c2.732-1.23 5.402-2.659 7.998-4.134v-11.164h-9.656z"
     fill="none"
     stroke="#221815"
     stroke-width="1.34516"
     id="path350" />
  <path
     d="m101.928 177.153h-9.656v11.152c2.602 1.486 5.255 2.91 7.998 4.145h1.658z"
     fill="#fff"
     id="path352" />
  <path
     d="m101.928 177.153h-9.656v11.152c2.602 1.486 5.255 2.91 7.998 4.145h1.658z"
     fill="none"
     stroke="#221815"
     stroke-width="1.34516"
     id="path354" />
  <path
     d="m82.361 181.848c3.07 2.288 6.309 4.369 9.64 6.293v-10.986h-9.64z"
     fill="#fff"
     id="path356" />
  <path
     d="m82.361 181.848c3.07 2.288 6.309 4.369 9.64 6.293v-10.986h-9.64z"
     fill="none"
     stroke="#221815"
     stroke-width="1.34516"
     id="path358" />
  <path
     d="m82.076 181.624v-4.468h-5.553a89.666 89.666 0 0 0 5.553 4.468"
     fill="#fff"
     id="path360" />
  <path
     d="m82.076 181.624v-4.468h-5.553a89.666 89.666 0 0 0 5.553 4.468z"
     fill="none"
     stroke="#221815"
     stroke-width="1.34516"
     id="path362" />
  <path
     d="m72.422 173.386a126.696 126.696 0 0 0 4.26 3.93h5.396v-15.286h-9.656z"
     fill="#fff"
     id="path364" />
  <path
     d="m72.422 173.386a126.696 126.696 0 0 0 4.26 3.93h5.396v-15.286h-9.656z"
     fill="none"
     stroke="#221815"
     stroke-width="1.34516"
     id="path366" />
  <path
     d="m62.519 162.255a102.719 102.719 0 0 0 9.624 10.866v-11.09h-9.623z"
     fill="#fff"
     id="path368" />
  <path
     d="m62.519 162.255a102.719 102.719 0 0 0 9.624 10.866v-11.09h-9.623z"
     fill="none"
     stroke="#221815"
     stroke-width="1.34516"
     id="path370" />
  <path
     d="m62.35 146.696h-9.546c2.717 5.385 5.892 10.537 9.51 15.333h.037z"
     fill="#fff"
     id="path372" />
  <path
     d="m62.35 146.696h-9.546c2.717 5.385 5.892 10.537 9.51 15.333h.037z"
     fill="none"
     stroke="#221815"
     stroke-width="1.34516"
     id="path374" />
  <path
     d="m52.443 116.37h-9.28c.76 5.266 1.965 10.365 3.518 15.318h5.762z"
     fill="#fff"
     id="path376" />
  <path
     d="m52.443 116.37h-9.28c.76 5.266 1.965 10.365 3.518 15.318h5.762z"
     fill="none"
     stroke="#221815"
     stroke-width="1.34516"
     id="path378" />
  <path
     d="m52.443 145.962v-14.422h-5.788c1.554 5 3.504 9.786 5.788 14.42"
     fill="#fff"
     id="path380" />
  <path
     d="m52.443 145.962v-14.422h-5.788c1.554 5 3.504 9.786 5.788 14.42z"
     fill="none"
     stroke="#221815"
     stroke-width="1.34516"
     id="path382" />
  <path
     d="m52.443 85.932h-9.015c-.266 1.476-.459 2.972-.652 4.5l-.521 10.845 10.188-.058z"
     fill="#fff"
     id="path384" />
  <path
     d="m52.443 85.932h-9.015c-.266 1.476-.459 2.972-.652 4.5l-.521 10.845 10.188-.058z"
     fill="none"
     stroke="#221815"
     stroke-width="1.34516"
     id="path386" />
  <path
     d="m52.443 85.932v-15.318h-5.261a98.662 98.662 0 0 0 -3.754 15.318z"
     fill="#fff"
     id="path388" />
  <path
     d="m52.443 85.932v-15.318h-5.261a98.662 98.662 0 0 0 -3.754 15.318z"
     fill="none"
     stroke="#221815"
     stroke-width="1.34516"
     id="path390" />
  <path
     d="m52.443 70.749v-12.93a100.832 100.832 0 0 0 -5.324 12.93z"
     fill="#fff"
     id="path392" />
  <path
     d="m52.443 70.749v-12.93a100.832 100.832 0 0 0 -5.324 12.93z"
     fill="none"
     stroke="#221815"
     stroke-width="1.34516"
     id="path394" />
  <path
     d="m72.142 40.28v-9.54a99.622 99.622 0 0 0 -8.566 9.54z"
     fill="#fff"
     id="path396" />
  <path
     d="m72.142 40.28v-9.54a99.622 99.622 0 0 0 -8.566 9.54z"
     fill="none"
     stroke="#221815"
     stroke-width="1.34516"
     id="path398" />
  <path
     d="m72.422 40.28h9.656v-15.285h-3.54c-2.138 1.731-4.145 3.587-6.116 5.511z"
     fill="#fff"
     id="path400" />
  <path
     d="m72.422 40.28h9.656v-15.285h-3.54c-2.138 1.731-4.145 3.587-6.116 5.511z"
     fill="none"
     stroke="#221815"
     stroke-width="1.34516"
     id="path402" />
  <path
     d="m82.076 22.216a105.309 105.309 0 0 0 -3.54 2.779h3.54z"
     fill="#fff"
     id="path404" />
  <path
     d="m82.076 22.216a105.309 105.309 0 0 0 -3.54 2.779h3.54z"
     fill="none"
     stroke="#221815"
     stroke-width="1.34516"
     id="path406" />
  <path
     d="m82.361 21.992v3.003h9.64v-9.338c-3.352 1.934-6.57 4.025-9.64 6.335"
     fill="#fff"
     id="path408" />
  <path
     d="m82.361 21.992v3.003h9.64v-9.338c-3.352 1.934-6.57 4.025-9.64 6.335z"
     fill="none"
     stroke="#221815"
     stroke-width="1.34516"
     id="path410" />
  <path
     d="m101.928 10.607a100.859 100.859 0 0 0 -9.656 4.885v9.505h9.656z"
     fill="#fff"
     id="path412" />
  <path
     d="m101.928 10.607a100.859 100.859 0 0 0 -9.656 4.885v9.505h9.656z"
     fill="none"
     stroke="#221815"
     stroke-width="1.34516"
     id="path414" />
  <path
     d="m102.05 24.996h9.646v-15.296h-7.618c-.662.276-1.345.563-2.028.85z"
     fill="#fff"
     id="path416" />
  <path
     d="m102.05 24.996h9.646v-15.296h-7.618c-.662.276-1.345.563-2.028.85z"
     fill="none"
     stroke="#221815"
     stroke-width="1.34516"
     id="path418" />
  <path
     d="m240.318 88.295c-.12-.814-.235-1.59-.36-2.362h-9.307v15.287l10.584.099z"
     fill="#fff"
     id="path420" />
  <path
     d="m240.318 88.295c-.12-.814-.235-1.59-.36-2.362h-9.307v15.287l10.584.099z"
     fill="none"
     stroke="#221815"
     stroke-width="1.308664"
     id="path422" />
  <path
     d="m230.654 116.37v15.318h6.022a97.9 97.9 0 0 0 3.52-15.318z"
     fill="#fff"
     id="path424" />
  <path
     d="m230.654 116.37v15.318h6.022a97.9 97.9 0 0 0 3.52-15.318z"
     fill="none"
     stroke="#221815"
     stroke-width="1.34516"
     id="path426" />
  <path
     d="m230.527 131.543h-9.646v15.297h9.547c.031-.062.068-.146.099-.203z"
     fill="#fff"
     id="path428" />
  <path
     d="m230.527 131.543h-9.646v15.297h9.547c.031-.062.068-.146.099-.203z"
     fill="none"
     stroke="#221815"
     stroke-width="1.34516"
     id="path430" />
  <path
     d="m52.886 146.838h9.463v-15.298h-9.667v14.953c.079.099.13.203.204.344"
     fill="#fff"
     id="path432" />
  <path
     d="m52.886 146.838h9.463v-15.298h-9.667v14.953c.079.099.13.203.204.344z"
     fill="none"
     stroke="#221815"
     stroke-width="1.34516"
     id="path434" />
  <path
     d="m43.16 116.37h9.281v-15.277l-10.188.021.527 11.893c.125 1.12.219 2.262.38 3.363"
     fill="#fff"
     id="path436" />
  <path
     d="m43.16 116.37h9.281v-15.277l-10.188.021.527 11.893c.125 1.12.219 2.262.38 3.363z"
     fill="none"
     stroke="#221815"
     stroke-width="1.34516"
     id="path438" />
  <g
     fill="#e60012"
     id="g446">
    <path
       d="m250.664 208.844v-4.104l-220.007.13v8.28l220.007-.161zm-7.088-132.311c-20.396 0-35.975 10.62-35.975 29.103 0 15.58 14.192 26.59 33.217 26.59 14.479 0 26.465-10.469 29.907-17.09 0-2.044-2.07-2.899-3.984-2.899-3.316 5.1-12.685 8.978-16.533 8.827-23.03-.834-26.752-10.063-27.028-19.703-.428-10.48 10.886-19.594 20.542-18.88 5.631.387 7.581 9.61 12.513 12.931 1.554.855 5.12.693 7.472.287 1.793-.287 6.595-1.377 6.595-5.522 0-3.44-4.27-7.31-8.384-9.786-4.129-1.913-13.378-3.858-18.342-3.858"
       id="path440" />
    <path
       d="m 47.198,84.405 v -7.18 l -15.015,0.141 c -1.909,0 -1.8,-0.407 -1.8,-2.888 l 0.152,-9.797 -7.586,-0.136 c -2.325,5.235 -5.224,8.687 -6.867,9.37 L 2,80.119 v 4.416 l 5.266,0.136 c 2.34,0 3.3,-0.136 3.3,2.627 v 29.073 c 0,8.827 4.813,15.313 17.248,15.6 9.337,0.255 15.01,-3.88 18.988,-7.748 l -1.095,-3.728 c -1.663,1.12 -3.018,2.085 -5.245,2.085 -10.605,0 -10.323,-8.28 -10.323,-15.579 V 87.298 c 0,-2.893 0.245,-2.893 2.195,-2.893 z"
       id="path444"
       sodipodi:nodetypes="ccccccccccsscccssssc" />
  </g>
</svg>
