<?xml version="1.0" encoding="UTF-8" standalone="no"?>
<svg
   viewBox="0 0 2165 967"
   width="2500"
   height="1117"
   version="1.1"
   id="svg20"
   sodipodi:docname="p-g-2.svg"
   inkscape:version="1.2.2 (732a01da63, 2022-12-09)"
   xmlns:inkscape="http://www.inkscape.org/namespaces/inkscape"
   xmlns:sodipodi="http://sodipodi.sourceforge.net/DTD/sodipodi-0.dtd"
   xmlns="http://www.w3.org/2000/svg"
   xmlns:svg="http://www.w3.org/2000/svg">
  <defs
     id="defs24" />
  <sodipodi:namedview
     id="namedview22"
     pagecolor="#ffffff"
     bordercolor="#000000"
     borderopacity="0.25"
     inkscape:showpageshadow="2"
     inkscape:pageopacity="0.0"
     inkscape:pagecheckerboard="0"
     inkscape:deskcolor="#d1d1d1"
     showgrid="false"
     inkscape:zoom="0.38664599"
     inkscape:cx="1342.3132"
     inkscape:cy="350.44978"
     inkscape:window-width="1920"
     inkscape:window-height="991"
     inkscape:window-x="-9"
     inkscape:window-y="-9"
     inkscape:window-maximized="1"
     inkscape:current-layer="svg20" />
  <g
     fill="none"
     stroke="#80a3d6"
     stroke-width="2"
     id="g8">
    <path
       d="M1277.43 580.76c-6.96 116.29 24.06 252.53 140.52 307.03 91.7 42.92 191.61 48.86 289.98 30.1q89.53-17.07 171.31-57.18.45-.22.6-.7 48.06-152.86 96.14-305.72 4.39-13.95 6.47-18.92c13.25-31.67 38.29-50.97 70.37-63.01q.76-.28-.01-.51c-1.2-.35-3.1.05-3.98.05q-166.76.23-333.53-.01a.17.16 56.1 0 0-.06.32c27.37 11.46 46.85 33.28 42.74 64.5q-.79 5.98-4.98 19.33-46.9 149.7-93.85 299.38-.15.47-.63.58-29.52 6.68-59.08 3.84c-121.39-11.67-127.62-142.6-115.45-233.35 7.34-54.75 20.46-106.92 36.77-160.73q29.62-97.72 83.81-182.46c58-90.69 148.78-176.13 265.74-165.44 64.9 5.93 120.75 38.87 170.11 79.59q.51.42.71-.21L2076.9 83.7q.13-.43-.29-.57c-120.87-38.95-253.47-51.35-378.03-22-113.17 26.67-211.04 87.59-287.69 174.51-32.99 37.41-59.33 80.36-79.69 125.8q-46.9 104.65-53.77 219.32m-869.08 10.49q4.97.6 9.15.95 81.22 6.91 161.83-4.98c137.63-20.3 261.67-87.35 319.39-219.48 30.5-69.8 50.41-159.14 3.18-227.41-43.75-63.23-132.16-85.46-204.47-85.44q-193.31.06-386.4.15a.29.29 0 0 0-.16.53c21.68 14.7 30.15 38.15 22.26 63.39Q218.85 484.37 104.49 849.75c-8.04 25.67-35.17 56.95-61.24 65.64a.19.18 35.6 0 0 .06.36h314.1q.03 0 .05-.02.11-.11.17-.24.1-.22-.14-.27c-9.62-1.74-19.34-10.13-24.67-17.79q-11.17-16.02-9.2-34.63.59-5.67 4.89-19.34 39.56-125.99 79.08-251.72a.71.71 0 0 1 .76-.49"
       id="path2" />
    <path
       d="M1121.06 730.89q-14.74-21.57-28.53-44.9c-24.91-42.13-42.19-87.64-49.56-136.18q-.07-.49.38-.71c48.56-23.15 98.09-44.51 140.9-77.84 22.5-17.52 42.5-38.96 55.42-64.58 21.15-41.94 15.6-90.05-19.77-121.98-45.85-41.39-115.3-42.4-169.47-20.01-23.55 9.73-46.03 22.91-63.56 40.81-55.65 56.83-71.66 146.76-66.88 222.78q.03.53-.47.73c-28.28 10.79-56.99 19.91-84.83 31.93C780.15 584.5 729 619.22 699.76 672.53c-17.91 32.65-23.2 72.96-19.38 109.79 7.02 67.72 57.2 121.4 122.39 137.9q72.55 18.35 145.95-5c45.01-14.32 87.84-36.82 126.51-63.73q.43-.3.8.06 24.54 23.28 50.69 44.73c5.41 4.44 24 19.47 30.37 19.47h209.61a.22.22 0 0 0 .08-.43c-13.45-4.56-26.5-9.64-39.56-15.79q-60.77-28.63-114.83-68.66c-18.74-13.87-37.27-29.27-52.83-46.7q-.31-.35 0-.69 5.24-5.78 19.82-22.83c36.36-42.52 54.83-91.16 59.38-146.37a.5.49 2.1 0 0-.5-.53l-108.54-.01q-1.11 0-.2.63c18.69 12.78 22.09 30.65 19.16 51.75q-4.86 34.97-26.01 64.79-.82 1.15-1.61-.02M429.24 524.55c48.83 10.59 100.59-.93 141.47-27.44 43.31-28.1 74.63-73.64 94.34-120.8q23.22-55.58 33.07-111.59c5.18-29.45 6.31-62.3-4.66-90.45-15.17-38.87-52.88-52.15-91.73-52.41q-23.01-.15-46.2-.11-.53 0-.69.51L428.81 523.82a.57.57 0 0 0 .43.73"
       id="path4" />
    <path
       d="M1153.77 317.02c-6.53-21.36-32.35-23.14-49.07-15.73q-15.14 6.72-26.18 18.51c-41.18 44.02-51.61 111.56-45.92 169.16q.06.61.61.35 5.8-2.72 8.99-4.86c38.4-25.74 75.19-61.28 97.94-101.84 10.34-18.43 19.95-44.92 13.63-65.59M814.09 780.65c15.36 47.32 65.28 65.27 110.72 60.07 36.56-4.18 73.42-18.41 105.27-36.5q.3-.17.1-.45-68.11-93.98-98.82-206.04-.15-.56-.68-.32c-68 30.52-144.12 98.36-116.59 183.24"
       id="path6" />
  </g>
  <path
     d="M 0,0 H 2165 V 967 H 0 Z m 1417.95,887.79 c -945.3,-591.96733 -472.65,-295.98367 0,0 z M 408.35,591.25 c 3.31333,0.4 6.36333,0.71667 9.15,0.95 54.14667,4.60667 108.09,2.94667 161.83,-4.98 C 716.96,566.92 841,499.87 898.72,367.74 929.22,297.94 949.13,208.6 901.9,140.33 858.15,77.1 769.74,54.87 697.43,54.89 c -128.87333,0.04 -257.67333,0.09 -386.4,0.15 -0.28431,0.0027 -0.39531,0.37042 -0.16,0.53 21.68,14.7 30.15,38.15 22.26,63.39 -76.18667,243.60667 -152.4,487.20333 -228.64,730.79 -8.04,25.67 -35.17,56.95 -61.24,65.64 -0.20128,0.0558 -0.152204,0.35031 0.06,0.36 h 314.1 c 0.02,0 0.0367,-0.007 0.05,-0.02 0.0733,-0.0733 0.13,-0.15333 0.17,-0.24 0.0667,-0.14667 0.02,-0.23667 -0.14,-0.27 -9.62,-1.74 -19.34,-10.13 -24.67,-17.79 -7.44667,-10.68 -10.51333,-22.22333 -9.2,-34.63 0.39333,-3.78 2.02333,-10.22667 4.89,-19.34 26.37333,-83.99333 52.73333,-167.9 79.08,-251.72 0.10312,-0.3244 0.42196,-0.52997 0.76,-0.49 z m 712.71,139.64 c -9.8267,-14.38 -19.3367,-29.34667 -28.53,-44.9 -24.91,-42.13 -42.19,-87.64 -49.56,-136.18 -0.047,-0.32667 0.08,-0.56333 0.38,-0.71 48.56,-23.15 98.09,-44.51 140.9,-77.84 22.5,-17.52 42.5,-38.96 55.42,-64.58 21.15,-41.94 15.6,-90.05 -19.77,-121.98 -45.85,-41.39 -115.3,-42.4 -169.47,-20.01 -23.55,9.73 -46.03,22.91 -63.56,40.81 -55.65,56.83 -71.66,146.76 -66.88,222.78 0.02,0.35333 -0.13667,0.59667 -0.47,0.73 -28.28,10.79 -56.99,19.91 -84.83,31.93 -54.54,23.56 -105.69,58.28 -134.93,111.59 -17.91,32.65 -23.2,72.96 -19.38,109.79 7.02,67.72 57.2,121.4 122.39,137.9 48.36667,12.23333 97.01667,10.56667 145.95,-5 45.01,-14.32 87.84,-36.82 126.51,-63.73 0.2867,-0.2 0.5533,-0.18 0.8,0.06 16.36,15.52 33.2567,30.43 50.69,44.73 5.41,4.44 24,19.47 30.37,19.47 h 209.61 c 0.2622,0.0196 0.3317,-0.35402 0.08,-0.43 -13.45,-4.56 -26.5,-9.64 -39.56,-15.79 -40.5133,-19.08667 -78.79,-41.97333 -114.83,-68.66 -18.74,-13.87 -37.27,-29.27 -52.83,-46.7 -0.2067,-0.23333 -0.2067,-0.46333 0,-0.69 3.4933,-3.85333 10.1,-11.46333 19.82,-22.83 36.36,-42.52 54.83,-91.16 59.38,-146.37 0.023,-0.28578 -0.2074,-0.53051 -0.5,-0.53 l -108.54,-0.01 c -0.74,0 -0.8067,0.21 -0.2,0.63 18.69,12.78 22.09,30.65 19.16,51.75 -3.24,23.31333 -11.91,44.91 -26.01,64.79 -0.5467,0.76667 -1.0833,0.76 -1.61,-0.02 z"
     fill="#0046ad"
     id="path10"
     sodipodi:nodetypes="cccccccccccccccccccssccccccccccccscccccccccccccsccccccsscccccc" />
  <path
     d="m 408.35,591.25 c -0.33804,-0.04 -0.65688,0.1656 -0.76,0.49 -26.34667,83.82 -52.70667,167.72667 -79.08,251.72 -2.86667,9.11333 -4.49667,15.56 -4.89,19.34 -1.31333,12.40667 1.75333,23.95 9.2,34.63 5.33,7.66 15.05,16.05 24.67,17.79 0.16,0.0333 0.20667,0.12333 0.14,0.27 -0.04,0.0867 -0.0967,0.16667 -0.17,0.24 -0.0133,0.0133 -0.03,0.02 -0.05,0.02 H 43.31 c -0.212204,-0.01 -0.26128,-0.30415 -0.06,-0.36 26.07,-8.69 53.2,-39.97 61.24,-65.64 76.24,-243.58667 152.45333,-487.18333 228.64,-730.79 7.89,-25.24 -0.58,-48.69 -22.26,-63.39 -0.23531,-0.15958 -0.12431,-0.527286 0.16,-0.53 128.72667,-0.06 257.52667,-0.11 386.4,-0.15 72.31,-0.02 160.72,22.21 204.47,85.44 47.23,68.27 27.32,157.61 -3.18,227.41 C 841,499.87 716.96,566.92 579.33,587.22 c -53.74,7.92667 -107.68333,9.58667 -161.83,4.98 -2.78667,-0.23333 -5.83667,-0.55 -9.15,-0.95 z m 20.89,-66.7 c 48.83,10.59 100.59,-0.93 141.47,-27.44 43.31,-28.1 74.63,-73.64 94.34,-120.8 15.48,-37.05333 26.50333,-74.25 33.07,-111.59 5.18,-29.45 6.31,-62.3 -4.66,-90.45 -15.17,-38.87 -52.88,-52.15 -91.73,-52.41 -15.34,-0.1 -30.74,-0.13667 -46.2,-0.11 -0.35333,0 -0.58333,0.17 -0.69,0.51 L 428.81,523.82 c -0.10178,0.32273 0.0984,0.66255 0.43,0.73 z"
     fill="#ffffff"
     id="path12"
     sodipodi:nodetypes="cccccccssccccsccccccccccccccccc" />
  <path
     d="M429.24 524.55a.57.57 0 0 1-.43-.73l126.03-401.56q.16-.51.69-.51 23.19-.04 46.2.11c38.85.26 76.56 13.54 91.73 52.41 10.97 28.15 9.84 61 4.66 90.45q-9.85 56.01-33.07 111.59c-19.71 47.16-51.03 92.7-94.34 120.8-40.88 26.51-92.64 38.03-141.47 27.44z"
     fill="#0046ad"
     id="path14" />
  <path
     d="M1121.06 730.89q.79 1.17 1.61.02 21.15-29.82 26.01-64.79c2.93-21.1-.47-38.97-19.16-51.75q-.91-.63.2-.63l108.54.01a.5.49 2.1 0 1 .5.53c-4.55 55.21-23.02 103.85-59.38 146.37q-14.58 17.05-19.82 22.83-.31.34 0 .69c15.56 17.43 34.09 32.83 52.83 46.7q54.06 40.03 114.83 68.66c13.06 6.15 26.11 11.23 39.56 15.79a.22.22 0 0 1-.08.43h-209.61c-6.37 0-24.96-15.03-30.37-19.47q-26.15-21.45-50.69-44.73-.37-.36-.8-.06c-38.67 26.91-81.5 49.41-126.51 63.73q-73.4 23.35-145.95 5c-65.19-16.5-115.37-70.18-122.39-137.9-3.82-36.83 1.47-77.14 19.38-109.79 29.24-53.31 80.39-88.03 134.93-111.59 27.84-12.02 56.55-21.14 84.83-31.93q.5-.2.47-.73c-4.78-76.02 11.23-165.95 66.88-222.78 17.53-17.9 40.01-31.08 63.56-40.81 54.17-22.39 123.62-21.38 169.47 20.01 35.37 31.93 40.92 80.04 19.77 121.98-12.92 25.62-32.92 47.06-55.42 64.58-42.81 33.33-92.34 54.69-140.9 77.84q-.45.22-.38.71c7.37 48.54 24.65 94.05 49.56 136.18q13.79 23.33 28.53 44.9zm32.71-413.87c-6.53-21.36-32.35-23.14-49.07-15.73q-15.14 6.72-26.18 18.51c-41.18 44.02-51.61 111.56-45.92 169.16q.06.61.61.35 5.8-2.72 8.99-4.86c38.4-25.74 75.19-61.28 97.94-101.84 10.34-18.43 19.95-44.92 13.63-65.59zM814.09 780.65c15.36 47.32 65.28 65.27 110.72 60.07 36.56-4.18 73.42-18.41 105.27-36.5q.3-.17.1-.45-68.11-93.98-98.82-206.04-.15-.56-.68-.32c-68 30.52-144.12 98.36-116.59 183.24z"
     fill="#fff"
     id="path16" />
  <path
     d="M1104.7 301.29c16.72-7.41 42.54-5.63 49.07 15.73 6.32 20.67-3.29 47.16-13.63 65.59-22.75 40.56-59.54 76.1-97.94 101.84q-3.19 2.14-8.99 4.86-.55.26-.61-.35c-5.69-57.6 4.74-125.14 45.92-169.16q11.04-11.79 26.18-18.51zM924.81 840.72c-45.44 5.2-95.36-12.75-110.72-60.07-27.53-84.88 48.59-152.72 116.59-183.24q.53-.24.68.32 30.71 112.06 98.82 206.04.2.28-.1.45c-31.85 18.09-68.71 32.32-105.27 36.5z"
     fill="#0046ad"
     id="path18" />
</svg>
