<?xml version="1.0" encoding="UTF-8" standalone="no"?>
<svg
   height="2500"
   viewBox="32.25 35.393 887.304 910.711"
   width="2432"
   version="1.1"
   id="svg6"
   sodipodi:docname="sinopec-1.svg"
   inkscape:version="1.2.2 (732a01da63, 2022-12-09)"
   xmlns:inkscape="http://www.inkscape.org/namespaces/inkscape"
   xmlns:sodipodi="http://sodipodi.sourceforge.net/DTD/sodipodi-0.dtd"
   xmlns="http://www.w3.org/2000/svg"
   xmlns:svg="http://www.w3.org/2000/svg">
  <defs
     id="defs10" />
  <sodipodi:namedview
     id="namedview8"
     pagecolor="#ffffff"
     bordercolor="#000000"
     borderopacity="0.25"
     inkscape:showpageshadow="2"
     inkscape:pageopacity="0.0"
     inkscape:pagecheckerboard="0"
     inkscape:deskcolor="#d1d1d1"
     showgrid="false"
     inkscape:zoom="0.22853691"
     inkscape:cx="-468.1957"
     inkscape:cy="1026.0925"
     inkscape:window-width="1920"
     inkscape:window-height="991"
     inkscape:window-x="-9"
     inkscape:window-y="-9"
     inkscape:window-maximized="1"
     inkscape:current-layer="svg6" />
  <path
     d="m486.804 35.393c-238.997 0-432.718 193.753-432.718 432.75 0 45.249 6.939 88.847 19.812 129.844l19.969-20.438c-9.678-34.83-14.844-71.512-14.844-109.406 0-225.226 182.568-407.812 407.781-407.812 225.227 0 407.813 182.586 407.813 407.812 0 109.339-43.049 208.617-113.094 281.844l19.188 16c73.65-77.584 118.843-182.432 118.843-297.844 0-238.997-193.752-432.75-432.75-432.75zm-360.53 622.594-12.938 28.125c28.704 49.408 66.98 92.565 112.28 127v-31.906c-40.666-34.052-74.547-75.871-99.343-123.22z"
     fill="#ed1c24"
     id="path2" />
  <path
     d="m 155.282,788.941 c 17.481,11.632 103.185,75.353 17.31,155.604 H 35.366 l 56.141,-48.338 c 0,0 27.292,9.348 52.234,-16.373 0,0 17.93,-34.316 -5.453,-52.246 0,0 -18.723,-21.839 -54.584,-40.548 0,0 -51.454,-23.384 -29.629,-96.69 0,0 15.594,-112.27 155.948,-173.099 l 8.239,-2.97 c 4.225,-0.146 -103.371,71.59 -126.755,171.395 0,0 -7.024,22.618 0,53.804 0,0 0,21.047 27.292,35.082 0,0 24.163,10.14 31.966,11.699 z m 99.95,157.162 h 31.2 V 97.774 l -31.2,28.058 z m 54.584,-849.98 v 849.98 h 32.745 l 0.066,-349.314 v -14.035 l 37.366,363.349 h 29.629 V 61.9 h -29.629 c 0,0 -0.779,396.094 0,396.094 L 337.887,79.052 Z M 471.995,442.4 470.437,426.807 v -10.92 l -0.779,-7.79 3.895,-4.674 6.246,-1.558 V 442.4 c 0,0 11.685,-3.116 21.825,-2.337 l 10.14,3.116 2.338,4.688 -1.558,4.674 -4.675,3.116 -7.024,3.116 c 0,0 -16.372,5.466 -6.245,22.617 l -3.116,3.895 -5.453,0.78 -7.011,-0.78 c 0,0 -4.688,-0.779 -4.688,6.246 v 59.257 l -0.779,7.011 v 7.025 l -3.116,3.895 -2.337,-3.895 -1.558,-5.467 V 503.23 c 0,0 3.116,-12.477 -6.232,-10.92 0,0 -3.908,-4.687 1.545,-7.024 0,0 7.024,-3.895 9.361,-9.348 0,0 0.78,-1.57 0,-8.582 0,0 1.558,-11.698 -11.698,-3.116 0,0 -15.593,9.348 -18.71,25.734 0,0 -7.01,3.895 -6.232,-14.815 0,0 2.338,-12.477 7.012,-20.28 0,0 8.582,-9.348 7.803,2.337 0,0 0.779,7.024 7.79,0.779 0,0 8.582,-8.57 13.256,-10.906 z m 3.116,19.502 c 0,0 0,-6.245 8.583,-6.245 0,0 4.674,4.687 -2.337,9.361 l -4.674,1.558 z"
     fill-rule="evenodd"
     id="path4"
     sodipodi:nodetypes="cccccccccccccccccccccccccccccccccccccccccccccccccscccccccccccccccccccccccc" />
</svg>
