<?xml version="1.0" encoding="UTF-8" standalone="no"?>
<svg
   width="2500"
   height="2500"
   viewBox="0 0 192.756 192.756"
   version="1.1"
   id="svg14"
   sodipodi:docname="exxon-1.svg"
   inkscape:version="1.2.2 (732a01da63, 2022-12-09)"
   xmlns:inkscape="http://www.inkscape.org/namespaces/inkscape"
   xmlns:sodipodi="http://sodipodi.sourceforge.net/DTD/sodipodi-0.dtd"
   xmlns="http://www.w3.org/2000/svg"
   xmlns:svg="http://www.w3.org/2000/svg">
  <defs
     id="defs18" />
  <sodipodi:namedview
     id="namedview16"
     pagecolor="#ffffff"
     bordercolor="#000000"
     borderopacity="0.25"
     inkscape:showpageshadow="2"
     inkscape:pageopacity="0.0"
     inkscape:pagecheckerboard="0"
     inkscape:deskcolor="#d1d1d1"
     showgrid="false"
     inkscape:zoom="0.3232"
     inkscape:cx="1079.8267"
     inkscape:cy="1251.547"
     inkscape:window-width="1920"
     inkscape:window-height="991"
     inkscape:window-x="-9"
     inkscape:window-y="-9"
     inkscape:window-maximized="1"
     inkscape:current-layer="g12" />
  <g
     fill-rule="evenodd"
     clip-rule="evenodd"
     id="g12">
    <path
       fill="#fff"
       d="M0 0h192.756v192.756H0V0z"
       id="path2" />
    <path
       fill="#fff"
       stroke="#236ab3"
       stroke-width="1.46"
       stroke-miterlimit="2.613"
       d="M5.507 47.264h181.741v98.228H5.507V47.264z"
       id="path4" />
    <path
       fill="#236ab3"
       d="M10.675 117.914H182.08v22.359H10.675v-22.359z"
       id="path6" />
    <path
       d="M112.668 111.08c0-.031-.016-.055-.047-.084a4.1 4.1 0 0 1-.145-.115c-2.775-2.477-3.713-3.406-5.848-5.711 0 0-19.712-20.303-19.904-20.499-.105-.109-.105-.109 0-.26.054-.079 14.48-20.907 15.033-21.711.162-.231 1.467-2.016 1.746-2.366.516-.646.9-.984.969-1.056.035-.029.041-.071.027-.112-.041-.039-.123-.06-.26-.052H93.625s-.048.005-.072.02c-.023.01-.051.047-.051.047l-13.02 18.775c-.115.165-.115.165-.278-.001l-5.392-5.554c-.068-.071-.068-.071 0-.171l11.679-16.85c.802-1.097 1.488-1.962 2.02-2.508.085-.081.157-.145.227-.216.037-.037.049-.088.021-.133-.02-.024-.05-.043-.119-.043l-10.755.009a.127.127 0 0 0-.068.017.183.183 0 0 0-.046.038c-.373.551-9.114 13.204-9.157 13.247-.078.082-.124.092-.218-.001-.158-.159-6.435-6.637-6.435-6.637s-.024-.025-.044-.033c-.018-.01-.056-.01-.056-.01H47.625c-.104 0-.101.056-.099.079.002.026.017.05.054.08.013.01.03.022.046.037.033.026.067.057.093.077.331.253.406.317.757.622 1.833 1.588 5.016 4.734 5.016 4.734l9.195 9.413s.006.006.016.023c.019.035.031.092-.021.167-.01.014-.154.224-.402.59-.742 1.089-10.26 14.806-10.26 14.806s-1.856 2.407-2.431 3.167c-1.03 1.362-1.536 1.795-1.58 1.839-.036.04-.055.081-.026.126.017.024.057.037.124.037h.175l10.714-.007c.014 0 .049.003.074-.012.025-.016.04-.037.049-.047.374-.552 9.59-13.794 9.708-13.966.147-.208.147-.208.353.004l5.276 5.426c.1.092.133.149.052.286 0 0-8.471 12.215-11.136 16.076-.37.537-1.981 2.633-3.001 3.607-.036.035-.05.104-.018.135.035.031.101.025.117.025h10.927s.046 0 .064-.008a.231.231 0 0 0 .054-.047c.363-.531 9.113-13.161 9.113-13.161.228-.328.228-.328.545 0l17.412 17.92c.014.01.029.027.049.035.02.01.037.018.062.018h13.879c.083.002.097-.095.093-.111z"
       fill="#cc2131"
       id="path10" />
  </g>
</svg>
