<?xml version="1.0" encoding="UTF-8" standalone="no"?>
<svg
   width="2500"
   height="2500"
   viewBox="0 0 192.756 192.756"
   version="1.1"
   id="svg12"
   sodipodi:docname="lowe-s-5.svg"
   inkscape:version="1.2.2 (732a01da63, 2022-12-09)"
   xmlns:inkscape="http://www.inkscape.org/namespaces/inkscape"
   xmlns:sodipodi="http://sodipodi.sourceforge.net/DTD/sodipodi-0.dtd"
   xmlns="http://www.w3.org/2000/svg"
   xmlns:svg="http://www.w3.org/2000/svg">
  <defs
     id="defs16" />
  <sodipodi:namedview
     id="namedview14"
     pagecolor="#ffffff"
     bordercolor="#000000"
     borderopacity="0.25"
     inkscape:showpageshadow="2"
     inkscape:pageopacity="0.0"
     inkscape:pagecheckerboard="0"
     inkscape:deskcolor="#d1d1d1"
     showgrid="false"
     inkscape:zoom="0.45707382"
     inkscape:cx="1492.1003"
     inkscape:cy="1051.2525"
     inkscape:window-width="1920"
     inkscape:window-height="991"
     inkscape:window-x="-9"
     inkscape:window-y="-9"
     inkscape:window-maximized="1"
     inkscape:current-layer="svg12" />
  <path
     fill-rule="evenodd"
     clip-rule="evenodd"
     fill="#fff"
     d="M0 0h192.756v192.756H0V0z"
     id="path2" />
  <path
     fill-rule="evenodd"
     clip-rule="evenodd"
     fill="#2f5693"
     d="M96.378 54.41l42.229 18.799h24.495v7.867h13.396v46.932H16.257V81.076h13.397v-7.867h24.495L96.378 54.41z"
     id="path4" />
  <path
     fill="none"
     stroke="#b52d4c"
     stroke-width="5.685"
     stroke-miterlimit="2.613"
     d="M96.378 54.41l42.229 18.799h24.497v7.867h13.394v46.932H16.258V81.076h13.396v-7.867h24.495L96.378 54.41z"
     id="path6" />
  <path
     fill-rule="evenodd"
     clip-rule="evenodd"
     fill="#2f5693"
     stroke="#fff"
     stroke-width="1.218"
     stroke-miterlimit="2.613"
     d="M96.378 54.41l42.229 18.799h24.497v7.867h13.394v46.932H16.258V81.076h13.396v-7.867h24.495L96.378 54.41z"
     id="path8" />
  <path
     d="m 45.601,83.875 v 26.134 H 56.19 v 6.266 H 38.584 v -32.4 z m 93.006,0 v 7.601 h -5.996 v -7.601 z m 16.331,8 v 5.466 c -1.148,-0.4 -2.551,-1.199 -3.699,-1.6 -2.041,-0.8 -5.232,-1.867 -6.762,-0.267 -0.512,0.4 -0.639,1.067 -0.639,1.601 0.383,1.867 2.424,2.133 3.699,3.066 3.189,1.334 7.527,3.732 7.91,7.865 0.766,3.068 -0.383,5.867 -2.551,7.734 -4.211,3.6 -15.182,-0.268 -15.182,-0.268 v -6.133 c 0,0 7.271,2.801 9.057,2.533 1.021,-0.133 1.914,-0.666 2.297,-1.6 0.129,-0.799 0.129,-1.6 -0.383,-2.268 -3.572,-2.666 -8.164,-3.066 -10.588,-7.465 -1.148,-2.4 -1.148,-5.734 0.383,-8 2.041,-3.2 5.357,-4.133 8.93,-3.733 3.828,0.536 7.528,3.069 7.528,3.069 z m 1.402,-0.266 c 0,-1.333 1.021,-2.267 2.17,-2.267 1.021,0 2.041,0.934 2.041,2.267 0,1.2 -1.02,2.134 -2.041,2.134 -1.149,0 -2.17,-0.934 -2.17,-2.134 z m 2.17,1.733 c 0.893,0 1.658,-0.667 1.658,-1.733 0,-1.066 -0.766,-1.867 -1.658,-1.867 -1.021,0 -1.787,0.8 -1.787,1.867 0,1.067 0.765,1.733 1.787,1.733 z M 158,92.809 h -0.383 v -2.533 h 0.893 c 0.639,0 0.893,0.267 0.893,0.8 0,0.4 -0.254,0.533 -0.637,0.667 l 0.766,1.066 h -0.512 l -0.637,-1.066 H 158 Z m 0.51,-1.333 c 0.256,0 0.51,-0.134 0.51,-0.534 0,-0.267 -0.254,-0.267 -0.51,-0.267 H 158 v 0.8 h 0.51 z"
     fill-rule="evenodd"
     clip-rule="evenodd"
     fill="#ffffff"
     id="path10"
     sodipodi:nodetypes="cccccccccccccccccccccccccccccsssssssssscccsscccccccsscccc" />
</svg>
