<?xml version="1.0" encoding="UTF-8" standalone="no"?>
<svg
   width="2500"
   height="2492"
   viewBox="16.548 15.478 463.846 462.454"
   version="1.1"
   id="svg8"
   sodipodi:docname="dell-2.svg"
   inkscape:version="1.2.2 (732a01da63, 2022-12-09)"
   xmlns:inkscape="http://www.inkscape.org/namespaces/inkscape"
   xmlns:sodipodi="http://sodipodi.sourceforge.net/DTD/sodipodi-0.dtd"
   xmlns="http://www.w3.org/2000/svg"
   xmlns:svg="http://www.w3.org/2000/svg">
  <defs
     id="defs12" />
  <sodipodi:namedview
     id="namedview10"
     pagecolor="#ffffff"
     bordercolor="#000000"
     borderopacity="0.25"
     inkscape:showpageshadow="2"
     inkscape:pageopacity="0.0"
     inkscape:pagecheckerboard="0"
     inkscape:deskcolor="#d1d1d1"
     showgrid="false"
     inkscape:zoom="0.16211878"
     inkscape:cx="-1468.0594"
     inkscape:cy="1181.2327"
     inkscape:window-width="1920"
     inkscape:window-height="991"
     inkscape:window-x="-9"
     inkscape:window-y="-9"
     inkscape:window-maximized="1"
     inkscape:current-layer="g6" />
  <g
     fill="#0083ca"
     id="g6">
    <path
       d="M241.281 15.478h14.379C325.601 19.422 375.469 45.98 412.44 83.2c36.972 37.22 64.301 86.31 67.953 156.548v13.915c-3.551 71.361-31.363 118.459-67.953 156.78-38.437 36.4-85.688 63.979-157.012 67.488h-14.147c-69.932-3.952-119.809-30.499-156.78-67.721C47.53 372.99 20.2 323.901 16.548 253.663v-13.915c.182-.051.271-.194.232-.464 3.497-69.97 30.976-119.57 67.722-156.316 36.915-36.917 87.3-63.665 156.779-67.49zm-45.457 33.165c-13.78 3.69-26.138 8.376-37.339 13.915-34.094 16.859-62.21 40.979-81.869 71.896-19.188 30.178-35.802 68.999-33.396 119.904 1.517 32.093 8.84 59.089 20.408 82.101 22.845 45.437 57.625 78.916 105.758 99.264 23.802 10.062 53.295 17.12 86.507 15.538 31.857-1.517 59.462-8.678 82.333-20.177 44.824-22.538 80.149-57.312 99.728-105.293 9.902-24.271 17.39-52.31 15.771-86.276-3.064-64.343-29.237-107.971-63.778-141.241-17.091-16.462-37.671-30.465-61.923-40.586-23.531-9.82-54.164-17.101-86.972-15.539-16.129.768-31.344 2.776-45.228 6.494z"
       id="path2" />
    <path
       d="m 227.135,186.637 c 7.348,4.866 14.864,9.565 21.801,14.843 -15.671,9.84 -31.034,19.989 -46.616,29.918 2.366,1.809 5.056,3.293 7.421,5.102 15.712,-9.954 31.429,-19.902 47.081,-29.918 7.02,4.345 13.931,8.798 20.41,13.684 -15.684,9.906 -30.842,20.336 -46.385,30.381 2.303,1.873 5.126,3.224 7.652,4.871 16.065,-9.833 31.73,-20.066 47.544,-30.149 35.57442,12.93958 23.46611,11.96642 0,32.467 -19.284,11.716 -39.046,24.965 -58.444,37.34 -20.201,-13.117 -39.67,-26.97 -59.836,-40.122 -27.80978,-25.09792 -25.6866,-10.46983 -0.697,-29.918 20.181,-12.675 40.038,-25.672 60.069,-38.499 z"
       id="path4"
       sodipodi:nodetypes="cccccccccccccc" />
  </g>
</svg>
