<?xml version="1.0" encoding="UTF-8" standalone="no"?>
<svg
   width="2500"
   height="1649"
   viewBox="0 0 569.579 375.614"
   version="1.1"
   id="svg6"
   sodipodi:docname="intel.svg"
   inkscape:version="1.2.2 (732a01da63, 2022-12-09)"
   xmlns:inkscape="http://www.inkscape.org/namespaces/inkscape"
   xmlns:sodipodi="http://sodipodi.sourceforge.net/DTD/sodipodi-0.dtd"
   xmlns="http://www.w3.org/2000/svg"
   xmlns:svg="http://www.w3.org/2000/svg">
  <defs
     id="defs10" />
  <sodipodi:namedview
     id="namedview8"
     pagecolor="#ffffff"
     bordercolor="#000000"
     borderopacity="0.25"
     inkscape:showpageshadow="2"
     inkscape:pageopacity="0.0"
     inkscape:pagecheckerboard="0"
     inkscape:deskcolor="#d1d1d1"
     showgrid="false"
     inkscape:zoom="0.34647803"
     inkscape:cx="1356.5073"
     inkscape:cy="1037.5838"
     inkscape:window-width="1920"
     inkscape:window-height="991"
     inkscape:window-x="-9"
     inkscape:window-y="-9"
     inkscape:window-maximized="1"
     inkscape:current-layer="svg6" />
  <path
     d="M270.558 334.834c-112.551 10.383-229.861-5.971-246.292-93.93-8.038-43.361 11.742-89.341 37.946-117.92v-15.261c-47.204 41.399-72.786 93.782-58.051 155.661 18.822 79.367 119.477 124.312 273.155 109.387 60.829-5.895 140.381-25.453 195.724-55.852v-43.152c-50.228 29.927-133.287 54.648-202.482 61.067zm296.497-228.142c-26.697-130.341-279.771-138.604-442.907-39.3V78.36C287.097-5.414 518.232-4.905 539.276 115.163c7.062 39.718-15.312 81.097-55.282 104.923v31.154c48.081-17.636 97.4-74.678 83.061-144.548z"
     fill="#0e7dc2"
     id="path2" />
  <path
     d="M 112.561,135.7 H 82.997 l -0.016,85.869 c 0,15.457 7.47,28.838 29.58,30.938 V 135.7 Z M 82.997,91.71 h 29.472 v 27.973 H 82.997 Z M 343.12,202.573 c 0,14.971 9.361,25.973 25.925,25.973 12.979,0 19.376,-3.602 26.868,-11.002 l 18.076,17.219 c -11.589,11.449 -23.731,18.41 -45.16,18.41 -79.94317,-7.24438 -61.70824,-117.79422 -0.649,-119.43 31.24,0 49.193,25.2 49.193,58.279 v 10.554 H 343.12 m 23.778,-44.639 c -10.013,0 -17.706,5.157 -20.967,12.113 -1.899,4.181 -2.595,7.439 -2.812,12.577 h 45.084 c -0.57,-12.577 -6.272,-24.69 -21.305,-24.69 z m 128.793,-46.74 c -6.505,0 -11.697,-5.246 -11.697,-11.743 0,-6.466 5.192,-11.742 11.697,-11.742 6.473,0 11.788,5.276 11.788,11.742 0,6.497 -5.316,11.743 -11.788,11.743 z m 0,-21.527 c -5.361,0 -9.673,4.431 -9.673,9.784 0,5.384 4.312,9.737 9.673,9.737 5.36,0 9.811,-4.353 9.811,-9.737 -0.001,-5.353 -4.45,-9.784 -9.811,-9.784 z m 5.206,16.822 h -2.194 c -0.19309,-0.002 -0.36721,-0.1167 -0.446,-0.293 l -2.968,-5.045 c -0.093,-0.108 -0.34,-0.231 -0.416,-0.231 h -1.359 v 5.029 c 0,0.248 -0.171,0.541 -0.494,0.541 h -1.979 c -0.295,0 -0.494,-0.293 -0.494,-0.541 V 93.267 c 0,-0.742 0.247,-1.047 0.896,-1.14 0.711,-0.077 2.565,-0.17 3.602,-0.17 3.661,0 5.81,1.078 5.81,4.473 v 0.248 c 0,2.097 -1.035,3.24 -2.642,3.75 l 3.09,5.261 c 0.0506,0.11751 0.0768,0.24407 0.077,0.372 -0.004,0.199 -0.111,0.431 -0.483,0.431 z M 498.055,96.43 c 0,-1.417 -0.881,-1.865 -2.767,-1.865 h -1.869 v 4.024 c 0.294,0 1.623,0.062 1.869,0.062 1.886,0 2.767,-0.629 2.767,-1.973 z"
     fill="#0e7dc2"
     id="path4"
     sodipodi:nodetypes="ccccccccccccsccccsccscccssssssssscsscccscssssscssscccsssccsss" />
</svg>
