<?xml version="1.0" encoding="UTF-8" standalone="no"?>
<svg
   width="2489"
   height="2500"
   viewBox="0 0 191.902 192.756"
   version="1.1"
   id="svg8"
   sodipodi:docname="orange-2.svg"
   inkscape:version="1.2.2 (732a01da63, 2022-12-09)"
   xmlns:inkscape="http://www.inkscape.org/namespaces/inkscape"
   xmlns:sodipodi="http://sodipodi.sourceforge.net/DTD/sodipodi-0.dtd"
   xmlns="http://www.w3.org/2000/svg"
   xmlns:svg="http://www.w3.org/2000/svg">
  <defs
     id="defs12" />
  <sodipodi:namedview
     id="namedview10"
     pagecolor="#ffffff"
     bordercolor="#000000"
     borderopacity="0.25"
     inkscape:showpageshadow="2"
     inkscape:pageopacity="0.0"
     inkscape:pagecheckerboard="0"
     inkscape:deskcolor="#d1d1d1"
     showgrid="false"
     inkscape:zoom="0.22853691"
     inkscape:cx="581.96288"
     inkscape:cy="1678.0659"
     inkscape:window-width="1920"
     inkscape:window-height="991"
     inkscape:window-x="-9"
     inkscape:window-y="-9"
     inkscape:window-maximized="1"
     inkscape:current-layer="g6" />
  <g
     fill-rule="evenodd"
     clip-rule="evenodd"
     id="g6">
    <path
       fill="#db812e"
       d="M0 0v192.756h191.902V0H0z"
       id="path2" />
    <path
       d="m 36.223,162.355 c 0,-4.021 -1.284,-7.359 -3.938,-10.098 -2.653,-2.652 -5.99,-4.021 -10.098,-4.021 -2.651,0 -5.047,0.598 -7.188,1.795 -2.225,1.199 -3.851,2.91 -4.964,5.135 -1.1805654,2.11948 -1.7988613,4.50591 -1.796,6.932 0,3.166 0.599,5.734 1.796,7.959 1.113,2.139 2.824,3.764 5.135,4.963 2.226,1.111 4.621,1.625 7.104,1.625 4.021,0 7.357,-1.283 10.011,-4.021 2.653,-2.653 3.938,-6.161 3.938,-10.269 z m -9.244,-6.076 c 1.285,1.453 1.884,3.424 1.884,6.16 0,2.738 -0.599,4.793 -1.884,6.246 -1.283,1.371 -2.823,2.141 -4.705,2.141 -1.882,0 -3.508,-0.77 -4.793,-2.141 -1.284,-1.453 -1.881,-3.508 -1.881,-6.16 0,-2.738 0.597,-4.793 1.881,-6.246 1.285,-1.455 2.911,-2.141 4.793,-2.141 1.882,0 3.422,0.686 4.705,2.141 z m 151.804,8.215 c 0.086,-5.477 -1.025,-9.498 -3.422,-12.236 -2.311,-2.652 -5.477,-4.021 -9.498,-4.021 -3.594,0 -6.59,1.281 -8.9,3.852 -2.395,2.564 -3.594,6.072 -3.594,10.607 0,3.768 0.941,6.932 2.738,9.328 2.227,3.082 5.734,4.621 10.439,4.621 2.996,0 5.477,-0.6 7.445,-2.055 1.969,-1.369 3.51,-3.336 4.365,-5.988 l -7.104,-1.197 c -0.428,1.369 -1.025,2.395 -1.797,2.994 -0.772,0.599 -1.627,0.855 -2.822,0.855 -1.627,0 -2.996,-0.6 -4.195,-1.711 -1.111,-1.197 -1.625,-2.824 -1.711,-5.049 z m -8.726,-9.07 c 0.941,1.111 1.541,2.652 1.541,4.707 H 160.9 c 0,-1.971 0.428,-3.51 1.455,-4.623 1.027,-1.111 2.309,-1.711 3.936,-1.711 1.455,0 2.738,0.514 3.766,1.627 z m 5.826,-8.641 c 0,-2.26 1.701,-3.963 3.885,-3.963 2.16,0 3.861,1.703 3.861,3.963 0,2.295 -1.701,3.986 -3.861,3.986 -2.184,0.001 -3.885,-1.691 -3.885,-3.986 z m 3.885,4.781 c 2.6,0 4.818,-2.02 4.818,-4.781 0,-2.738 -2.219,-4.758 -4.818,-4.758 -2.623,0 -4.844,2.02 -4.844,4.758 0,2.762 2.221,4.781 4.844,4.781 z m -1.008,-4.402 h 0.959 l 1.449,2.383 h 0.936 l -1.564,-2.422 c 0.807,-0.1 1.426,-0.531 1.426,-1.514 0,-1.086 -0.645,-1.564 -1.943,-1.564 h -2.094 v 5.5 h 0.832 v -4.793 h 1.135 c 0.58,0 1.199,0.125 1.199,0.807 0,0.846 -0.633,0.896 -1.338,0.896 h -0.996 v 0.707 z"
       fill="#ffffff"
       id="path4"
       sodipodi:nodetypes="scscccccscscscscscscccscscscccsscccccccscssscsssssscccccssccccsssccc" />
  </g>
</svg>
