<?xml version="1.0" encoding="UTF-8" standalone="no"?>
<svg
   width="2500"
   height="780"
   viewBox="10 8.214 380 118.571"
   version="1.1"
   id="svg19"
   sodipodi:docname="china-life-insurance.svg"
   inkscape:version="1.2.2 (732a01da63, 2022-12-09)"
   xmlns:inkscape="http://www.inkscape.org/namespaces/inkscape"
   xmlns:sodipodi="http://sodipodi.sourceforge.net/DTD/sodipodi-0.dtd"
   xmlns="http://www.w3.org/2000/svg"
   xmlns:svg="http://www.w3.org/2000/svg">
  <defs
     id="defs23" />
  <sodipodi:namedview
     id="namedview21"
     pagecolor="#ffffff"
     bordercolor="#000000"
     borderopacity="0.25"
     inkscape:showpageshadow="2"
     inkscape:pageopacity="0.0"
     inkscape:pagecheckerboard="0"
     inkscape:deskcolor="#d1d1d1"
     showgrid="false"
     inkscape:zoom="0.5468"
     inkscape:cx="1316.752"
     inkscape:cy="390.45355"
     inkscape:window-width="1920"
     inkscape:window-height="991"
     inkscape:window-x="-9"
     inkscape:window-y="-9"
     inkscape:window-maximized="1"
     inkscape:current-layer="svg19" />
  <path
     d="m 165.722,89.623 c -2.709,0 -4.92,0.88 -6.645,2.649 -1.723,1.77 -2.585,4.23 -2.585,7.357 0,2.824 0.733,5.238 2.199,7.248 1.466,2.01 3.793,3.005 7,3.005 1.987,0 3.706,-0.529 5.127,-1.61 1.42,-1.084 2.403,-2.725 2.974,-4.926 l -2.572,-0.666 c -0.383,1.666 -1.055,2.92 -2.012,3.748 -0.958,0.828 -2.2,1.239 -3.734,1.239 -1.87,0 -3.39,-0.656 -4.553,-1.983 -1.162,-1.327 -1.75,-3.36 -1.75,-6.086 0,-2.362 0.552,-4.25 1.657,-5.654 1.105,-1.403 2.725,-2.106 4.863,-2.106 1.31,0 2.411,0.352 3.284,1.037 0.873,0.687 1.524,1.704 1.951,3.067 l 2.54,-0.589 c -0.543,-1.87 -1.495,-3.302 -2.85,-4.274 -1.354,-0.972 -2.987,-1.456 -4.894,-1.456 z m 10.321,-7.24 c -1.15,-0.67 -1.56,-3.1 -1.624,-9.625 l -0.052,-5.384 -4.333,0.005 c -5.418,0.008 -6.503,0.31 -9.2,2.562 -2.435,2.036 -3.286,2.079 -4.606,0.237 -0.88,-1.229 -0.877,-1.412 0.102,-5.098 0.699,-2.633 1.028,-5.575 1.06,-9.447 0.04,-5.088 -0.08,-5.853 -1.25,-8.052 -1.312,-2.464 -1.338,-3.925 -0.089,-4.963 0.522,-0.433 1.48,-0.317 3.896,0.47 3.765,1.227 9.7,1.83 11.871,1.206 1.428,-0.41 1.54,-0.623 1.688,-3.203 0.202,-3.525 1.1,-4.56 3.962,-4.56 3.227,0 3.941,1.032 4.41,6.373 0.135,1.525 0.145,1.53 3.704,1.672 1.963,0.078 5.404,-0.067 7.647,-0.324 4.637,-0.53 5.723,-0.144 7.414,2.63 1.41,2.312 1.246,3.898 -0.748,7.207 -2.38,3.954 -2.801,6.603 -1.303,8.198 1.342,1.428 1.105,3.194 -0.654,4.873 -1.071,1.023 -1.452,1.066 -6.238,0.707 -2.805,-0.21 -6.131,-0.407 -7.393,-0.437 l -2.294,-0.056 -0.03,6.442 c -0.037,7.558 -0.624,9.118 -3.422,9.09 -0.905,-0.007 -2.038,-0.244 -2.518,-0.523 z m -3.497,-23.401 c 1.479,-0.792 2.285,-3.26 1.532,-4.689 -0.91,-1.727 -1.423,-1.942 -4.682,-1.95 -3.706,-0.01 -5.109,1.13 -4.872,3.96 0.117,1.397 0.48,2.033 1.431,2.512 1.514,0.763 5.3,0.858 6.591,0.167 z m 18.902,-0.278 c 0.846,-1.02 0.91,-4.639 0.098,-5.451 -0.36,-0.36 -2.265,-0.722 -4.324,-0.82 -4.576,-0.218 -5.46,0.326 -5.61,3.448 -0.094,1.949 0.066,2.348 1.166,2.917 1.833,0.948 7.86,0.882 8.67,-0.094 z m 175.908,21.325 c -1.566,-1.092 -1.44,-2.027 0.404,-2.981 2.86,-1.48 4.36,-5.417 3.02,-7.923 -0.482,-0.9 -1.128,-0.986 -7.393,-0.986 h -6.864 v -1.785 c 0,-0.981 -0.11,-1.784 -0.245,-1.784 -0.135,0 -1.912,1.687 -3.95,3.748 -5.656,5.721 -10.734,7.21 -14.778,4.33 -1.25,-0.89 -1.419,-1.336 -1.419,-3.75 0,-1.506 0.232,-2.882 0.515,-3.057 0.283,-0.175 1.117,0.156 1.853,0.735 1.756,1.381 3.051,1.328 7.095,-0.29 3.338,-1.337 6.85,-4.05 6.85,-5.29 0,-0.88 -5.974,-0.328 -9.008,0.83 -2.1,0.803 -2.277,0.8 -3.234,-0.067 -1.237,-1.119 -1.27,-2.197 -0.108,-3.629 1.574,-1.944 3.275,-2.474 8.777,-2.736 4.743,-0.227 5.369,-0.365 5.533,-1.226 0.174,-0.915 -0.085,-0.954 -4.43,-0.672 -4.122,0.267 -4.757,0.189 -5.922,-0.727 l -1.305,-1.026 1.06,-1.488 c 1.048,-1.472 1.116,-1.488 6.068,-1.488 3.718,0 5.077,-0.177 5.272,-0.684 0.64,-1.667 -0.425,-1.968 -6.332,-1.791 l -5.802,0.175 -0.164,-2.016 c -0.242,-2.964 0.56,-3.331 7.271,-3.333 l 5.638,-0.001 1.02,-1.91 c 0.749,-1.405 1.399,-1.954 2.454,-2.075 1.917,-0.22 3.918,1.145 3.918,2.671 v 1.21 l 10.143,0.18 c 9.19,0.164 10.245,0.274 11.24,1.175 0.762,0.69 1.05,1.469 0.945,2.549 l -0.152,1.555 H 374.52 c -7.887,0 -10.977,0.17 -11.437,0.63 -0.346,0.345 -0.455,0.803 -0.24,1.019 0.214,0.214 4.558,0.45 9.652,0.524 10.96,0.158 11.556,0.252 11.556,1.813 0,2.256 -0.63,2.386 -11.554,2.386 -9.567,0 -10.369,0.071 -10.84,0.953 -0.28,0.524 -0.365,1.098 -0.188,1.274 0.177,0.178 5.409,0.323 11.626,0.323 8.48,0 11.926,-0.188 13.796,-0.75 1.551,-0.467 2.672,-0.57 2.97,-0.272 0.626,0.626 -0.971,4.178 -2.545,5.655 -1.086,1.022 -1.56,1.097 -5.295,0.84 -3.728,-0.254 -4.15,-0.188 -4.643,0.731 -0.298,0.557 -0.403,1.372 -0.235,1.812 0.26,0.677 1.047,0.754 5.167,0.508 5.416,-0.323 5.931,-0.038 4.815,2.657 -0.814,1.964 -2.806,2.704 -6.723,2.497 l -3.232,-0.169 -0.283,3.824 c -0.156,2.103 -0.557,4.324 -0.891,4.935 -1.593,2.91 -6.095,4.143 -8.64,2.367 z m -1.4,-16.839 5.351,0.126 v -1.39 c 0,-1.188 -0.262,-1.437 -1.82,-1.73 -1.001,-0.187 -3.653,-0.235 -5.894,-0.105 -3.242,0.187 -4.289,0.452 -5.133,1.295 -1.46,1.461 -0.919,2.843 0.851,2.17 0.712,-0.27 3.703,-0.435 6.646,-0.366 z M 354.07,77.309 c -1.49,-0.914 -1.668,-1.258 -1.53,-2.936 0.149,-1.783 0.254,-1.89 1.688,-1.73 3.358,0.377 6.512,0.109 7.668,-0.649 1.64,-1.074 2.272,-1.004 2.272,0.256 0,1.717 -0.906,2.918 -3.195,4.234 -3.204,1.842 -4.912,2.047 -6.903,0.825 z"
     id="path2"
     sodipodi:nodetypes="scsssccccscscsccccscccccccccccccsccccccccccccccscscccscccccccscssccssccsccccccsccsccccccccsccsccscccssccscscccccccccccccsccccccccccssc" />
  <g
     transform="matrix(1.35146 0 0 1.35146 -396.267 -418.794)"
     id="g17">
    <radialGradient
       id="a"
       cx="525.752"
       cy="187.825"
       r="18.345"
       gradientTransform="matrix(1.6118 2.799 -2.4773 1.4265 -19.876 -1391.706)"
       gradientUnits="userSpaceOnUse">
      <stop
         offset="0"
         stop-color="#f7f7f8"
         id="stop4" />
      <stop
         offset=".343"
         stop-color="#b9b9ba"
         id="stop6" />
      <stop
         offset=".687"
         stop-color="#7b7b7c"
         id="stop8" />
      <stop
         offset="1"
         id="stop10" />
    </radialGradient>
    <path
       fill="url(#a)"
       d="M342.254 338.893c0-12.666 10.266-22.931 22.93-22.931 12.665 0 22.931 10.265 22.931 22.931 0 12.664-10.266 22.931-22.931 22.931-12.664 0-22.93-10.267-22.93-22.931"
       id="path13" />
    <path
       fill="#00A86D"
       d="M344.025 403.697c23.669 0 42.899-18.945 43.388-42.496h-20.562c-.481 12.193-10.514 21.932-22.826 21.932-12.617 0-22.849-10.228-22.849-22.846 0-12.235 9.619-22.224 21.705-22.819v-20.562c-23.445.61-42.267 19.79-42.267 43.382 0 23.974 19.436 43.409 43.411 43.409"
       id="path15" />
  </g>
</svg>
