<?xml version="1.0" encoding="UTF-8" standalone="no"?>
<svg
   id="Layer_1"
   viewBox="0 0 400 400"
   width="2500"
   height="2500"
   version="1.1"
   sodipodi:docname="uber-15.svg"
   inkscape:version="1.2.2 (732a01da63, 2022-12-09)"
   xmlns:inkscape="http://www.inkscape.org/namespaces/inkscape"
   xmlns:sodipodi="http://sodipodi.sourceforge.net/DTD/sodipodi-0.dtd"
   xmlns="http://www.w3.org/2000/svg"
   xmlns:svg="http://www.w3.org/2000/svg">
  <defs
     id="defs13" />
  <sodipodi:namedview
     id="namedview11"
     pagecolor="#ffffff"
     bordercolor="#000000"
     borderopacity="0.25"
     inkscape:showpageshadow="2"
     inkscape:pageopacity="0.0"
     inkscape:pagecheckerboard="0"
     inkscape:deskcolor="#d1d1d1"
     showgrid="false"
     inkscape:zoom="0.3232"
     inkscape:cx="1079.8267"
     inkscape:cy="1004.0223"
     inkscape:window-width="1920"
     inkscape:window-height="991"
     inkscape:window-x="-9"
     inkscape:window-y="-9"
     inkscape:window-maximized="1"
     inkscape:current-layer="XMLID_34_" />
  <style
     id="style2">.st0{fill:#fff}</style>
  <path
     id="XMLID_44_"
     d="M0 0h400v400H0z" />
  <g
     id="XMLID_34_">
    <path
       id="XMLID_43_"
       class="st0"
       d="M109.9 173.9v30.3c0 10.1-4.5 14.3-15 14.3s-15-4.2-15-14.3v-31.6h-10c-.9 0-1.3.4-1.3 1.3v30.7c0 16.9 10.8 22.8 26.4 22.8 15.6 0 26.4-5.9 26.4-22.8v-32.1h-10.1c-.9.1-1.4.5-1.4 1.4z" />
    <path
       id="XMLID_35_"
       class="st0"
       d="M331.3 225.6l-12.1-20.8c6-1.5 10.9-5.5 10.9-15.6 0-13.1-8.1-16.6-21.5-16.6h-23.1c-3.8 0-5.2 1.2-5.2 3.8v48.9c0 .9.4 1.3 1.3 1.3h9.9v-15.7c0-3.3 1.8-4.8 6.7-4.8h9.9l10.9 19.7c.3.6.7.9 1.5.9h10.3c.7-.2.7-.8.5-1.1zm-21.1-28h-18.8v-16.3h18.8c7 0 8.6 2.7 8.6 8.2 0 5.4-1.6 8.1-8.6 8.1z" />
  </g>
</svg>
