<?xml version="1.0" encoding="UTF-8" standalone="no"?>
<svg
   width="2500"
   height="1750"
   viewBox="0.5 0.5 999 699.242"
   version="1.1"
   id="svg8"
   sodipodi:docname="salesforce-2.svg"
   inkscape:version="1.2.2 (732a01da63, 2022-12-09)"
   xmlns:inkscape="http://www.inkscape.org/namespaces/inkscape"
   xmlns:sodipodi="http://sodipodi.sourceforge.net/DTD/sodipodi-0.dtd"
   xmlns="http://www.w3.org/2000/svg"
   xmlns:svg="http://www.w3.org/2000/svg">
  <defs
     id="defs12" />
  <sodipodi:namedview
     id="namedview10"
     pagecolor="#ffffff"
     bordercolor="#000000"
     borderopacity="0.25"
     inkscape:showpageshadow="2"
     inkscape:pageopacity="0.0"
     inkscape:pagecheckerboard="0"
     inkscape:deskcolor="#d1d1d1"
     showgrid="false"
     inkscape:zoom="0.46171429"
     inkscape:cx="1130.5693"
     inkscape:cy="876.08292"
     inkscape:window-width="1920"
     inkscape:window-height="991"
     inkscape:window-x="-9"
     inkscape:window-y="-9"
     inkscape:window-maximized="1"
     inkscape:current-layer="svg8" />
  <path
     fill="#00A1E0"
     d="M416.224 76.763c32.219-33.57 77.074-54.391 126.682-54.391 65.946 0 123.48 36.772 154.12 91.361 26.626-11.896 56.098-18.514 87.106-18.514 118.94 0 215.368 97.268 215.368 217.247 0 119.993-96.428 217.261-215.368 217.261a213.735 213.735 0 0 1-42.422-4.227c-26.981 48.128-78.397 80.646-137.412 80.646-24.705 0-48.072-5.706-68.877-15.853-27.352 64.337-91.077 109.448-165.348 109.448-77.344 0-143.261-48.939-168.563-117.574-11.057 2.348-22.513 3.572-34.268 3.572C75.155 585.74.5 510.317.5 417.262c0-62.359 33.542-116.807 83.378-145.937-10.26-23.608-15.967-49.665-15.967-77.06C67.911 87.25 154.79.5 261.948.5c62.914 0 118.827 29.913 154.276 76.263"
     id="path2" />
  <path
     fill="#ffffff"
     d="m 145.196,363.11 c -0.626,1.637 0.228,1.979 0.427,2.263 1.878,1.366 3.786,2.349 5.707,3.444 10.189,5.407 19.81,6.986 29.871,6.986 20.492,0 33.214,-10.9 33.214,-28.447 v -0.341 c 0,-16.224 -14.358,-22.115 -27.835,-26.37 l -1.75,-0.569 c -10.161,-3.302 -18.927,-6.147 -18.927,-12.836 v -0.355 c 0,-5.721 5.123,-9.934 13.064,-9.934 8.823,0 19.297,2.932 26.042,6.66 0,0 1.978,1.281 2.704,-0.64 0.398,-1.025 3.814,-10.218 4.17,-11.214 0.384,-1.082 -0.299,-1.879 -0.996,-2.306 -7.699,-4.682 -18.344,-7.884 -29.358,-7.884 l -2.049,0.014 c -18.756,0 -31.848,11.328 -31.848,27.565 v 0.342 c 0,17.119 14.444,22.669 27.978,26.54 l 2.177,0.669 c 9.862,3.031 18.358,5.635 18.358,12.58 v 0.342 c 0,6.347 -5.521,11.071 -14.43,11.071 -3.458,0 -14.487,-0.071 -26.398,-7.6 -1.438,-0.84 -2.277,-1.451 -3.387,-2.12 -0.583,-0.37 -2.049,-1.011 -2.689,0.925 z"
     id="path4"
     sodipodi:nodetypes="cccsssccsssccccccssccssscccc" />
  <path
     fill="#ffffff"
     d="m 595.874,246.603 c -1.85,-0.569 -3.529,-0.954 -5.721,-1.366 -2.221,-0.398 -4.867,-0.598 -7.869,-0.598 -10.475,0 -18.729,2.96 -24.52,8.794 -5.764,5.807 -9.678,14.644 -11.642,26.271 l -0.712,3.913 h -13.148 c 0,0 -1.594,-0.057 -1.936,1.68 l -2.148,12.053 c -0.157,1.139 0.342,1.864 1.878,1.864 h 12.794 l -12.979,72.463 c -1.011,5.835 -2.178,10.631 -3.473,14.273 -1.267,3.587 -2.504,6.276 -4.041,8.24 -1.48,1.879 -2.875,3.273 -5.295,4.084 -1.992,0.669 -4.297,0.982 -6.816,0.982 -1.395,0 -3.258,-0.229 -4.639,-0.513 -1.366,-0.271 -2.092,-0.569 -3.131,-1.011 0,0 -1.494,-0.568 -2.092,0.926 -0.47,1.238 -3.885,10.615 -4.298,11.769 -0.398,1.152 0.171,2.049 0.896,2.319 1.708,0.598 2.974,0.996 5.294,1.551 3.217,0.755 5.934,0.797 8.481,0.797 5.322,0 10.189,-0.754 14.217,-2.205 4.042,-1.466 7.57,-4.014 10.701,-7.457 3.373,-3.729 5.493,-7.628 7.515,-12.964 2.006,-5.266 3.729,-11.812 5.094,-19.439 l 13.05,-73.815 h 19.069 c 0,0 1.607,0.057 1.936,-1.693 l 2.162,-12.039 c 0.143,-1.152 -0.341,-1.864 -1.893,-1.864 h -18.514 c 0.1,-0.412 0.939,-6.931 3.06,-13.063 0.911,-2.604 2.618,-4.725 4.056,-6.177 1.424,-1.423 3.06,-2.433 4.854,-3.017 1.835,-0.598 3.928,-0.882 6.219,-0.882 1.736,0 3.457,0.199 4.752,0.469 1.793,0.385 2.49,0.584 2.961,0.727 1.893,0.569 2.148,0.014 2.519,-0.896 l 4.426,-12.153 c 0.455,-1.312 -0.669,-1.867 -1.067,-2.023"
     id="path6"
     sodipodi:nodetypes="ccsccccccscccccsccccccsccccccccsccccsccccc" />
</svg>
