<?xml version="1.0" encoding="UTF-8" standalone="no"?>
<svg
   viewBox="0 0 680.32 680.14981"
   width="2000"
   height="2000"
   version="1.1"
   id="svg10"
   sodipodi:docname="bosch-logo-simple.svg"
   inkscape:version="1.2.2 (732a01da63, 2022-12-09)"
   xmlns:inkscape="http://www.inkscape.org/namespaces/inkscape"
   xmlns:sodipodi="http://sodipodi.sourceforge.net/DTD/sodipodi-0.dtd"
   xmlns="http://www.w3.org/2000/svg"
   xmlns:svg="http://www.w3.org/2000/svg">
  <defs
     id="defs14" />
  <sodipodi:namedview
     id="namedview12"
     pagecolor="#ffffff"
     bordercolor="#000000"
     borderopacity="0.25"
     inkscape:showpageshadow="2"
     inkscape:pageopacity="0.0"
     inkscape:pagecheckerboard="0"
     inkscape:deskcolor="#d1d1d1"
     showgrid="false"
     inkscape:zoom="0.38664599"
     inkscape:cx="700.89955"
     inkscape:cy="1061.6947"
     inkscape:window-width="1920"
     inkscape:window-height="991"
     inkscape:window-x="-9"
     inkscape:window-y="-9"
     inkscape:window-maximized="1"
     inkscape:current-layer="g8" />
  <path
     d="m 338.45559,48.387418 c -97.42888,0 -176.57769,79.148802 -176.57769,176.577682 0,97.42888 79.14881,176.57769 176.57769,176.57769 97.42888,0 176.57769,-79.14881 176.57769,-176.57769 0,-97.42888 -79.14881,-176.577682 -176.57769,-176.577682 z m 0,335.458702 c -87.70545,0 -158.88104,-71.37005 -158.88104,-158.88102 0,-87.51096 71.17559,-158.881027 158.88104,-158.881027 87.70544,0 158.88102,71.370067 158.88102,158.881027 0,87.51097 -71.17558,158.88102 -158.88102,158.88102 z"
     id="path2"
     style="stroke-width:1.94468" />
  <path
     d="m 401.46348,111.78425 c -0.58341,-0.38893 -1.36128,-0.58341 -2.13916,-0.58341 -2.33362,0 -4.08384,1.75023 -4.08384,4.08384 v 55.22916 c 0,1.94468 -1.55575,3.50043 -3.50043,3.50043 H 284.78218 c -1.94468,0 -3.30596,-1.55575 -3.50043,-3.50043 v -55.22916 c 0,-0.77787 -0.19447,-1.36127 -0.58341,-2.13915 -1.16681,-1.94469 -3.6949,-2.52809 -5.63959,-1.36128 -39.47717,24.3086 -63.39684,66.50834 -63.39684,113.18085 0,46.67253 23.91967,88.87225 63.78578,113.18085 0.5834,0.38894 1.36127,0.58341 2.13915,0.58341 2.33363,0 4.08385,-1.75022 4.08385,-4.08384 v -55.22915 c 0,-1.94468 1.55574,-3.30597 3.50044,-3.50043 h 106.95785 c 1.94469,0 3.50044,1.55575 3.50044,3.50043 v 55.22915 c 0,0.77787 0.19447,1.36128 0.5834,2.13916 1.16682,1.94468 3.69491,2.52809 5.63961,1.36127 39.8661,-24.3086 63.78577,-66.50832 63.78577,-113.18085 0,-46.67251 -24.30861,-88.87225 -64.17472,-113.18085 z M 261.05699,294.196 l 0.58341,6.61195 -4.27831,-5.25066 c -32.86523,-41.42187 -32.86523,-99.95698 0,-141.37884 l 3.6949,-4.66725 0.58341,-0.58341 -0.58341,6.80641 c -0.5834,5.44513 -0.77787,11.08472 -0.77787,16.72432 v 104.8187 c 0,5.63959 0.38894,11.27919 0.77787,16.91878 z m 134.18349,-42.78313 c 0,1.94468 -1.55575,3.50043 -3.50043,3.50043 H 284.78218 c -1.94468,0 -3.30596,-1.55575 -3.50043,-3.50043 v -52.89553 c 0,-1.94468 1.55575,-3.50043 3.50043,-3.50043 h 106.95787 c 1.94468,0 3.50043,1.55575 3.50043,3.50043 z m 24.11414,44.14442 -4.27832,5.25066 0.58341,-6.61195 c 0.5834,-5.44513 0.77787,-11.08472 0.77787,-16.72431 V 172.45852 c 0,-5.6396 -0.19447,-11.27919 -0.77787,-16.72432 l -0.19447,-2.91703 -0.19447,-3.1115 v -0.77788 l 4.08385,5.25066 c 15.94644,19.83582 24.69753,45.11677 24.69753,70.59219 0,25.47541 -8.75109,50.95083 -24.69753,70.78665 z"
     id="path4"
     style="stroke-width:1.94468" />
  <g
     fill="#f80000"
     id="g8"
     transform="translate(-204.9867,409.0936)">
    <path
       d="m 318.6,89.2 c -0.5,-0.2 -1.1,-0.4 -1.1,-1 0,-0.4 0.2,-0.7 0.6,-0.9 0.7,-0.3 18,-6.5 18,-26.9 0,-22.7 -15.3,-36.2 -41.1,-36.2 h -62.5 v 133.4 h 68.2 c 19.9,0 41.3,-14.1 41.3,-36.8 0,-21.7 -16.4,-29.3 -23.4,-31.6 z M 264,51.5 c 0,-0.5 0.4,-0.9 0.9,-0.9 h 24.8 c 8.2,0 13.8,5.5 13.8,13.7 0,6.4 -5,13.3 -14.4,13.3 h -24.2 c -0.5,0 -0.9,-0.4 -0.9,-0.9 z m 25.7,79.8 h -24.8 c -0.5,0 -0.9,-0.4 -0.9,-0.9 v -26.6 c 0,-0.5 0.4,-0.9 0.9,-0.9 h 24.2 c 11.9,0 18.7,5.1 18.7,14.1 0,9.3 -6.3,14.3 -18.1,14.3 z M 816.6,24.2 V 73 c 0,0.5 -0.4,0.9 -0.9,0.9 h -41 c -0.5,0 -0.9,-0.4 -0.9,-0.9 V 24.2 h -33.6 v 133.4 h 33.6 v -52.4 c 0,-0.5 0.4,-0.9 0.9,-0.9 h 41 c 0.5,0 0.9,0.4 0.9,0.9 v 52.4 h 33.8 V 24.2 Z"
       id="path6"
       sodipodi:nodetypes="cscssccsscsssssssssssssssscssssccccsssscccc" />
  </g>
</svg>
