<?xml version="1.0" encoding="UTF-8" standalone="no"?>
<svg
   width="2500"
   height="2500"
   viewBox="0 0 192.756 192.756"
   version="1.1"
   id="svg16"
   sodipodi:docname="bp-3.svg"
   inkscape:version="1.2.2 (732a01da63, 2022-12-09)"
   xmlns:inkscape="http://www.inkscape.org/namespaces/inkscape"
   xmlns:sodipodi="http://sodipodi.sourceforge.net/DTD/sodipodi-0.dtd"
   xmlns="http://www.w3.org/2000/svg"
   xmlns:svg="http://www.w3.org/2000/svg">
  <defs
     id="defs20" />
  <sodipodi:namedview
     id="namedview18"
     pagecolor="#ffffff"
     bordercolor="#000000"
     borderopacity="0.25"
     inkscape:showpageshadow="2"
     inkscape:pageopacity="0.0"
     inkscape:pagecheckerboard="0"
     inkscape:deskcolor="#d1d1d1"
     showgrid="false"
     inkscape:zoom="0.23447661"
     inkscape:cx="904.14136"
     inkscape:cy="1061.9396"
     inkscape:window-width="1536"
     inkscape:window-height="841"
     inkscape:window-x="-8"
     inkscape:window-y="-8"
     inkscape:window-maximized="1"
     inkscape:current-layer="g14" />
  <g
     fill-rule="evenodd"
     clip-rule="evenodd"
     id="g14">
    <path
       fill="#fff"
       d="M0 0h192.756v192.756H0V0z"
       id="path2" />
    <path
       d="m 97.572421,97.954418 c 0,0.0011 0,0 0,0 v 0.0022 h 0.0022 v -0.0022 -0.0011 0.0011 z M 61.727999,35.871902 c 0.500155,-9.665781 2.366366,-18.420428 4.279102,-24.644576 5.465516,3.539855 12.524547,9.046727 19.122196,16.129022 C 88.901782,18.444029 93.64744,10.855118 97.572421,5.6597117 101.5,10.853826 106.24565,18.441445 110.02202,27.35247 c 6.59635,-7.081001 13.65279,-12.586581 19.11832,-16.126436 1.91273,6.222856 3.77894,14.978795 4.2791,24.641992 8.62024,-4.398002 17.13449,-7.159839 23.48013,-8.616361 -0.33086,6.502011 -1.57025,15.367803 -4.40446,24.620019 9.60245,-1.185121 18.54838,-0.867192 25.01032,-0.06462 -2.53696,5.996688 -6.73206,13.903527 -12.56073,21.628139 9.43056,2.171215 17.72511,5.52755 23.52278,8.492292 -4.4329,4.767625 -11.08095,10.760432 -19.19845,16.026919 8.1175,5.265206 14.76684,11.258016 19.19845,16.025636 -5.79508,2.96474 -14.09222,6.32237 -23.52278,8.49229 5.82867,7.72591 10.02635,15.63146 12.56073,21.62814 -6.46194,0.80128 -15.40787,1.11921 -25.01032,-0.0659 2.83421,9.25222 4.0736,18.11801 4.40704,24.62002 -6.34563,-1.45523 -14.8599,-4.21707 -23.48271,-8.61507 -0.50016,9.66449 -2.36507,18.41914 -4.27652,24.64199 -5.46681,-3.53728 -12.52455,-9.04543 -19.1209,-16.12643 -3.77378,8.90973 -8.52202,16.49864 -12.447012,21.69275 -3.92628,-5.19541 -8.673226,-12.78302 -12.448296,-21.69275 -6.596356,7.081 -13.652803,12.58787 -19.118319,16.12772 -1.911443,-6.22414 -3.778947,-14.97879 -4.2791,-24.64328 -8.618947,4.39929 -17.133209,7.15984 -23.480134,8.61636 0.332144,-6.50202 1.572839,-15.36781 4.408341,-24.62002 -9.603747,1.18511 -18.549667,0.86848 -25.011615,0.066 2.535669,-5.99797 6.73335,-13.90481 12.562026,-21.62814 C 20.777345,120.30114 12.481497,116.94609 6.6825453,113.98136 11.116733,109.21373 17.764785,103.22092 25.883576,97.955717 17.764785,92.690517 11.116733,86.696412 6.6825453,81.928788 12.480205,78.964046 20.778638,75.607711 30.209204,73.439081 24.380527,65.713177 20.181554,57.806338 17.645885,51.808358 c 6.461948,-0.802574 15.405283,-1.121795 25.010323,0.06333 -2.83421,-9.252217 -4.074905,-18.116717 -4.407049,-24.618728 6.344341,1.456523 14.858603,4.218359 23.47884,8.618945 z m 35.847009,62.082516 h -0.0022 z"
       fill="#33a457"
       id="path4"
       style="stroke-width:1.29239" />
    <path
       d="m 97.575008,97.953131 h -0.0022 v 0.0056 h 0.0056 l -0.0022,-0.0011 h 0.0022 v -0.0022 -0.0011 z M 44.810621,107.25833 C 37.950618,104.95658 31.557166,101.63385 25.883576,97.955706 31.557166,94.274982 37.950618,90.953541 44.810621,88.653091 39.151247,84.145235 34.280231,78.833515 30.206619,73.436496 36.797806,71.91923 43.942135,70.984834 51.176932,71.168353 47.40057,64.994607 44.63744,58.340094 42.656208,51.87427 c 6.711378,0.828421 13.745855,2.393505 20.481789,5.040318 -1.437137,-7.09134 -1.75765,-14.292536 -1.408704,-21.04527 6.023827,3.073302 12.09935,6.949178 17.523508,11.740066 1.075269,-7.155961 3.234852,-14.030181 5.872619,-20.255621 4.608662,4.948559 8.991154,10.668676 12.449588,17.024647 3.458442,-6.355971 7.839642,-12.07738 12.449592,-17.024647 2.63777,6.22544 4.79865,13.09966 5.87392,20.255621 5.42157,-4.790888 11.49709,-8.666764 17.5235,-11.740066 0.34895,6.752734 0.0298,13.952636 -1.40871,21.04527 6.73464,-2.646813 13.76912,-4.211897 20.4818,-5.040318 -1.98124,6.465824 -4.74566,13.121631 -8.52202,19.294083 7.23479,-0.184812 14.38042,0.750877 20.96902,2.268143 -4.07103,5.398311 -8.94334,10.708739 -14.60271,15.216595 6.86129,2.301749 13.25474,5.624478 18.92705,9.302615 -5.67231,3.679434 -12.06576,7.002174 -18.92705,9.302624 5.65937,4.50786 10.53039,9.81958 14.60271,15.2166 -6.5886,1.51726 -13.73423,2.45166 -20.96902,2.26814 3.77636,6.17245 6.54078,12.82826 8.52202,19.29409 -6.71138,-0.82843 -13.74716,-2.39351 -20.4818,-5.03903 1.43844,7.09134 1.75636,14.29124 1.40613,21.04398 -6.02254,-3.07331 -12.09806,-6.94918 -17.52092,-11.74007 -1.07527,7.15596 -3.23615,14.02889 -5.8765,20.25563 -4.60608,-4.94727 -8.98857,-10.66868 -12.447012,-17.02465 -3.458434,6.35597 -7.840926,12.07738 -12.449588,17.02465 -2.637767,-6.22545 -4.798643,-13.09967 -5.873911,-20.25563 -5.424159,4.79089 -11.498389,8.66676 -17.52351,11.74007 -0.350237,-6.75403 -0.02973,-13.95393 1.408706,-21.04528 -6.734642,2.64811 -13.769119,4.2132 -20.481789,5.04033 1.981232,-6.46583 4.743069,-13.12034 8.519431,-19.29409 -7.233504,0.18481 -14.377834,-0.75088 -20.96902,-2.26944 4.073612,-5.39572 8.94592,-10.70744 14.605294,-15.2153 z"
       fill="#b1cd49"
       id="path6"
       style="stroke-width:1.29239" />
    <path
       d="m 97.572421,97.955706 z m 0,0.0011 h 0.0022 v 0.0011 c 0.0022,0 0,-0.0011 0,-0.0011 l 0.0022,0.0011 v -0.0011 -0.0011 z m 0.0056,-0.0011 v -0.0022 l -0.0022,0.0011 c 0.0022,0 0.0022,-0.0011 0.0022,-0.0022 l -0.0022,0.0011 v -0.0011 0.0022 l -0.0022,-0.0011 v 0.0011 -0.0011 0.0022 z m -0.0056,0.0011 z M 91.206109,61.835829 c 1.172201,-6.224148 3.439053,-12.068333 6.368899,-17.456306 2.928562,5.387973 5.195412,11.232158 6.368902,17.456306 3.23097,-5.446129 7.35757,-10.163352 11.95202,-14.22404 0.91114,6.063892 1.04296,12.331982 0.0181,18.580685 4.89945,-4.01287 10.38951,-7.034476 16.09929,-9.279357 -1.21872,6.010903 -3.24131,11.944264 -6.34305,17.467937 5.97731,-2.096256 12.17173,-3.05521 18.30283,-3.211588 -3.20126,5.230301 -7.13141,10.11424 -11.93393,14.243424 6.33271,0.07496 12.4819,1.29239 18.29507,3.241314 -4.79606,3.820305 -10.15689,7.066784 -16.08121,9.302621 5.92432,2.235835 11.28774,5.481015 16.08379,9.301335 -5.81317,1.9502 -11.96236,3.16634 -18.29506,3.2426 4.8038,4.12659 8.73138,9.01312 11.93134,14.24342 -6.1311,-0.15637 -12.32552,-1.11533 -18.30024,-3.21158 3.09915,5.52108 5.11915,11.45445 6.33787,17.46535 -5.70719,-2.24358 -11.19725,-5.26261 -16.0967,-9.27678 1.02486,6.24871 0.89562,12.51551 -0.0156,18.5794 -4.59704,-4.06069 -8.72105,-8.77662 -11.95202,-14.22404 -1.1735,6.22414 -3.44035,12.06834 -6.371494,17.45631 -2.929846,-5.38668 -5.19541,-11.23087 -6.367599,-17.45631 -3.230972,5.44742 -7.358869,10.16335 -11.954607,14.22533 -0.909842,-6.06518 -1.041665,-12.33069 -0.01551,-18.58069 -4.900741,4.01288 -10.392104,7.03448 -16.099296,9.27937 1.218723,-6.01091 3.238727,-11.94427 6.340463,-17.46794 -5.977302,2.09625 -12.171725,3.05521 -18.302821,3.21158 3.201249,-5.2303 7.130113,-10.11424 11.932632,-14.24342 -6.332708,-0.075 -12.481898,-1.2911 -18.296358,-3.24132 4.796057,-3.8203 10.158182,-7.06678 16.082495,-9.301327 -5.925605,-2.237125 -11.28773,-5.482316 -16.086372,-9.302617 5.815753,-1.950216 11.964942,-3.167647 18.298943,-3.242606 -4.803811,-4.127891 -8.731383,-9.013123 -11.93134,-14.243424 6.129803,0.156378 12.324227,1.116624 18.300235,3.21288 -3.101734,-5.522381 -5.121739,-11.454448 -6.340462,-17.465352 5.707192,2.243589 11.198555,5.263902 16.098004,9.276772 -1.026157,-6.249995 -0.895627,-12.516793 0.01551,-18.580685 4.597029,4.059396 8.724925,8.776619 11.957184,14.222748 z m 6.368899,36.11841 z"
       fill="#f8d930"
       id="path8"
       style="stroke-width:1.29239" />
    <path
       d="m 91.129859,80.248681 a 50.239058,50.239058 0 0 1 0.07625,-18.410089 50.20804,50.20804 0 0 1 6.366312,17.274079 50.307555,50.307555 0 0 1 6.368899,-17.274079 c 1.10112,5.826092 1.24199,11.985621 0.0763,18.408797 a 50.302385,50.302385 0 0 1 11.89387,-14.052151 50.335987,50.335987 0 0 1 -6.22415,17.325773 50.241643,50.241643 0 0 1 15.98039,-9.139778 50.246812,50.246812 0 0 1 -11.77495,14.151665 50.224842,50.224842 0 0 1 18.14385,-3.12112 50.282999,50.282999 0 0 1 -15.90803,9.270308 50.279122,50.279122 0 0 1 18.11931,3.272332 50.279122,50.279122 0 0 1 -18.11931,3.271032 50.2998,50.2998 0 0 1 15.90803,9.2716 50.254566,50.254566 0 0 1 -18.14385,-3.1224 50.261029,50.261029 0 0 1 11.77495,14.15167 50.248105,50.248105 0 0 1 -15.98039,-9.1385 50.325648,50.325648 0 0 1 6.22415,17.32579 50.264905,50.264905 0 0 1 -11.89387,-14.05345 c 1.16574,6.42318 1.02487,12.58141 -0.0737,18.41008 a 50.284291,50.284291 0 0 1 -6.37149,-17.27536 50.29463,50.29463 0 0 1 -6.366312,17.27536 50.273952,50.273952 0 0 1 -0.07759,-18.41137 50.266199,50.266199 0 0 1 -11.891279,14.05474 50.2998,50.2998 0 0 1 6.224148,-17.32579 50.248105,50.248105 0 0 1 -15.981688,9.13979 50.257152,50.257152 0 0 1 11.776253,-14.15296 50.282999,50.282999 0 0 1 -18.143856,3.1224 50.254566,50.254566 0 0 1 15.90673,-9.2716 50.316602,50.316602 0 0 1 -18.119302,-3.271032 50.289461,50.289461 0 0 1 18.119302,-3.27362 50.273952,50.273952 0 0 1 -15.90673,-9.26902 c 5.929483,-0.07108 12.019222,0.858146 18.143856,3.119828 A 50.264905,50.264905 0 0 1 69.479752,74.381233 50.286877,50.286877 0 0 1 85.46144,83.518427 50.258444,50.258444 0 0 1 79.237293,66.193945 50.267491,50.267491 0 0 1 91.129859,80.248681 Z"
       fill="#ffffff"
       id="path10"
       style="stroke-width:1.29239" />
  </g>
</svg>
