<?xml version="1.0" encoding="UTF-8"?>
<!DOCTYPE svg PUBLIC "-//W3C//DTD SVG 1.1//EN" "http://www.w3.org/Graphics/SVG/1.1/DTD/svg11.dtd">
<svg xmlns="http://www.w3.org/2000/svg" version="1.1" width="1000px" height="629px" style="shape-rendering:geometricPrecision; text-rendering:geometricPrecision; image-rendering:optimizeQuality; fill-rule:evenodd; clip-rule:evenodd" xmlns:xlink="http://www.w3.org/1999/xlink">
<g><path style="opacity:1" fill="#fefefe" d="M -0.5,-0.5 C 332.833,-0.5 666.167,-0.5 999.5,-0.5C 999.5,209.167 999.5,418.833 999.5,628.5C 666.167,628.5 332.833,628.5 -0.5,628.5C -0.5,418.833 -0.5,209.167 -0.5,-0.5 Z"/></g>
<g><path style="opacity:1" fill="#207fb7" d="M 536.5,16.5 C 534.107,17.21 531.607,17.8767 529,18.5C 528,17.8333 527,17.1667 526,16.5C 509.96,16.581 493.293,16.581 476,16.5C 472.172,17.976 468.338,18.3093 464.5,17.5C 474.999,14.9983 485.833,13.9983 497,14.5C 510.211,14.4466 523.378,15.1132 536.5,16.5 Z"/></g>
<g><path style="opacity:1" fill="#0482c9" d="M 536.5,16.5 C 547.653,17.768 558.653,19.768 569.5,22.5C 572.704,24.7254 576.371,25.8921 580.5,26C 580.167,26.3333 579.833,26.6667 579.5,27C 581.676,27.1629 583.509,27.9963 585,29.5C 588.52,29.0556 591.853,30.0556 595,32.5C 597.184,31.8919 599.184,32.5586 601,34.5C 605.058,33.3504 608.558,34.3504 611.5,37.5C 617.767,38.6333 623.101,41.3 627.5,45.5C 630.477,44.7958 633.144,45.6292 635.5,48C 636.793,48.49 638.127,48.6567 639.5,48.5C 646.271,51.7196 652.937,55.2196 659.5,59C 680.627,72.8156 700.127,88.649 718,106.5C 721.374,110.37 724.541,114.37 727.5,118.5C 727.539,119.583 727.873,120.583 728.5,121.5C 727.975,122.192 727.308,122.692 726.5,123C 734.003,127.342 739.67,133.509 743.5,141.5C 743.291,142.086 742.957,142.586 742.5,143C 744.813,143.986 747.146,145.153 749.5,146.5C 774.394,183.832 790.061,224.832 796.5,269.5C 796.337,276.062 797.004,282.395 798.5,288.5C 798.5,288.833 798.5,289.167 798.5,289.5C 798.825,307.194 798.325,324.861 797,342.5C 796.667,341.833 796.333,341.167 796,340.5C 795.5,346.825 795.334,353.158 795.5,359.5C 778.135,452.366 728.802,522.866 647.5,571C 634.208,577.536 620.874,583.869 607.5,590C 587.364,597.226 566.697,601.893 545.5,604C 568.829,578.966 585.996,550.133 597,517.5C 599.86,507.378 602.693,497.378 605.5,487.5C 607.633,482.156 608.633,476.489 608.5,470.5C 621.311,411.932 604.645,363.599 558.5,325.5C 556.055,322.534 553.721,319.368 551.5,316C 548.19,316.229 546.356,314.729 546,311.5C 545.667,311.833 545.333,312.167 545,312.5C 542.376,310.561 539.543,308.894 536.5,307.5C 535.719,306.271 535.219,304.938 535,303.5C 534.692,304.308 534.192,304.975 533.5,305.5C 531.78,303.869 529.78,302.703 527.5,302C 527.619,300.719 527.119,299.552 526,298.5C 524.989,299.337 523.822,299.67 522.5,299.5C 522.5,298.167 522.5,296.833 522.5,295.5C 519.729,295.579 517.063,295.079 514.5,294C 513.167,293 513.167,292 514.5,291C 506.866,290.688 499.866,288.355 493.5,284C 490.937,282.921 488.271,282.421 485.5,282.5C 485.423,281.25 484.756,280.417 483.5,280C 477.376,277.85 471.376,275.517 465.5,273C 463.487,271.209 463.487,269.875 465.5,269C 464.584,268.626 463.75,268.126 463,267.5C 462.333,268.833 461.667,268.833 461,267.5C 460.517,268.448 460.351,269.448 460.5,270.5C 458.408,270.439 456.908,269.439 456,267.5C 453.909,268.5 452.243,267.833 451,265.5C 450.667,265.833 450.333,266.167 450,266.5C 446.079,265.773 442.412,264.44 439,262.5C 436.959,263.423 434.792,263.756 432.5,263.5C 418.573,260.012 404.573,256.845 390.5,254C 366.043,248.667 351.71,258.167 347.5,282.5C 346.306,285.891 344.806,289.225 343,292.5C 341.556,289.945 340.389,287.279 339.5,284.5C 339.76,282.813 340.427,281.313 341.5,280C 338.313,278.321 336.313,275.654 335.5,272C 335.833,270.333 336.167,268.667 336.5,267C 335.448,265.881 334.281,265.381 333,265.5C 332.817,257.588 332.317,249.754 331.5,242C 333.271,238.725 334.271,235.225 334.5,231.5C 342.902,215.953 355.902,206.787 373.5,204C 376.04,193.294 382.373,185.794 392.5,181.5C 396.396,181.388 400.063,180.388 403.5,178.5C 406.389,179.966 407.723,178.966 407.5,175.5C 409.597,175.997 411.43,176.33 413,176.5C 416.663,174.338 420.33,173.005 424,172.5C 425.15,173.424 426.15,173.424 427,172.5C 427.333,173.167 427.667,173.833 428,174.5C 428.93,172.602 429.43,170.602 429.5,168.5C 431.39,168.297 432.89,168.963 434,170.5C 435.356,169.62 436.856,169.286 438.5,169.5C 438.281,168.325 438.614,167.325 439.5,166.5C 443.247,164.595 447.081,163.929 451,164.5C 459.152,161.143 467.819,158.476 477,156.5C 477.414,156.957 477.914,157.291 478.5,157.5C 482.963,154.443 487.463,153.777 492,155.5C 494.058,154.771 495.891,153.771 497.5,152.5C 508.783,151.543 520.116,151.21 531.5,151.5C 544.97,153.463 558.303,156.463 571.5,160.5C 573.343,164.174 576.176,165.507 580,164.5C 581.995,166.177 584.161,167.677 586.5,169C 590.683,170.919 595.016,172.586 599.5,174C 601.774,176.008 601.107,177.175 597.5,177.5C 594.45,175.899 591.116,174.899 587.5,174.5C 577.998,171.933 568.332,170.267 558.5,169.5C 552.202,168.17 545.535,167.503 538.5,167.5C 525.145,166.814 512.145,168.148 499.5,171.5C 483.552,175.873 468.052,181.873 453,189.5C 454.053,195.819 456.219,201.819 459.5,207.5C 465.012,196.646 473.679,189.979 485.5,187.5C 481.417,200.181 483.25,211.848 491,222.5C 493.802,225.146 496.968,227.146 500.5,228.5C 501.347,229.966 502.68,230.8 504.5,231C 509.833,231.667 515.167,231.667 520.5,231C 521.416,230.722 522.082,230.222 522.5,229.5C 538.632,222.914 545.132,210.914 542,193.5C 540.402,188.468 537.902,183.968 534.5,180C 536.5,179.333 538.5,179.333 540.5,180C 546.501,182.277 552.501,184.444 558.5,186.5C 559.082,187.931 559.915,189.264 561,190.5C 562.77,189.724 564.603,189.89 566.5,191C 567.925,192.362 568.758,193.862 569,195.5C 571.064,194.409 573.231,194.242 575.5,195C 583.827,198.834 592.494,202.001 601.5,204.5C 602.145,205.646 602.978,206.646 604,207.5C 606.459,206.351 608.959,206.351 611.5,207.5C 630.783,213.905 649.783,221.071 668.5,229C 673.149,235.138 677.149,241.638 680.5,248.5C 681.586,252.755 683.252,256.255 685.5,259C 685.355,259.772 685.022,260.439 684.5,261C 685.729,262.529 687.229,263.696 689,264.5C 689.273,266.101 689.773,267.601 690.5,269C 689.812,271.218 690.812,272.718 693.5,273.5C 695.9,278.371 697.9,283.371 699.5,288.5C 700.5,288.5 701.5,288.5 702.5,288.5C 701.833,290.819 701.666,293.153 702,295.5C 702.667,296.833 703.333,296.833 704,295.5C 705.405,296.731 706.571,298.064 707.5,299.5C 710.027,304.415 712.36,309.415 714.5,314.5C 714.354,317.826 715.021,320.993 716.5,324C 716.245,325.326 715.578,326.326 714.5,327C 716.122,328.295 717.455,329.795 718.5,331.5C 718.096,333.764 718.096,335.93 718.5,338C 720.917,339.144 721.584,340.81 720.5,343C 723.375,347.873 724.375,353.039 723.5,358.5C 724.04,359.748 724.707,360.915 725.5,362C 724.366,363.016 724.699,363.683 726.5,364C 726.384,365.268 726.051,366.602 725.5,368C 726.103,370.071 727.436,371.238 729.5,371.5C 731.752,384.266 733.252,397.266 734,410.5C 735.751,405.326 738.251,400.659 741.5,396.5C 742.606,393.24 744.606,390.574 747.5,388.5C 747.167,387.833 746.833,387.167 746.5,386.5C 750.657,375.326 754.657,364.159 758.5,353C 758.265,352.127 757.931,351.293 757.5,350.5C 758.811,346.611 759.478,342.611 759.5,338.5C 759.539,334.267 760.205,330.267 761.5,326.5C 764.498,308.578 765.164,290.578 763.5,272.5C 763.5,271.5 763.5,270.5 763.5,269.5C 763.067,255.795 761.067,242.462 757.5,229.5C 734.773,143.592 682.439,83.0922 600.5,48C 588.524,43.8403 576.524,40.007 564.5,36.5C 562.095,35.2318 559.428,34.5651 556.5,34.5C 553.779,34.0372 551.112,33.3705 548.5,32.5C 542.48,30.909 536.313,29.5757 530,28.5C 528.883,28.6651 527.716,28.9984 526.5,29.5C 515.421,28.7359 504.921,28.0692 495,27.5C 494.283,28.0442 493.783,28.7109 493.5,29.5C 404.431,34.7712 334.931,74.1046 285,147.5C 259.446,186.664 245.613,229.664 243.5,276.5C 242.784,278.556 242.117,280.723 241.5,283C 242.245,289.96 242.245,297.294 241.5,305C 242.897,312.904 244.23,320.738 245.5,328.5C 247.63,338.371 249.797,348.371 252,358.5C 253.423,362.939 254.923,367.272 256.5,371.5C 256.988,376.694 256.988,381.528 256.5,386C 258.743,386.607 260.41,387.94 261.5,390C 264.001,394.828 265.501,399.995 266,405.5C 269.339,407.5 271.173,410.5 271.5,414.5C 272.167,414.833 272.833,415.167 273.5,415.5C 275.429,418.738 277.263,422.072 279,425.5C 279.816,426.823 280.983,427.489 282.5,427.5C 289.391,437.739 296.724,447.739 304.5,457.5C 340.065,461.766 369.898,450.766 394,424.5C 414.232,398.874 418.232,370.874 406,340.5C 400.851,326.698 394.018,313.865 385.5,302C 390.432,304.595 394.932,308.095 399,312.5C 406.119,321.082 411.953,330.415 416.5,340.5C 418.236,344.651 419.402,348.984 420,353.5C 422.597,356.096 424.097,359.263 424.5,363C 423.167,364.84 423.334,365.34 425,364.5C 425.765,369.133 427.432,373.8 430,378.5C 430.279,381.606 430.112,384.439 429.5,387C 430.167,388.333 430.833,389.667 431.5,391C 429.743,394.832 430.743,398.665 434.5,402.5C 444.258,465.826 419.592,509.659 360.5,534C 353.616,536.351 346.616,538.185 339.5,539.5C 332.008,540.083 325.175,540.083 319,539.5C 318.163,541.007 316.996,541.507 315.5,541C 314,539.5 312.5,538 311,536.5C 310.805,534.793 310.805,533.126 311,531.5C 310.163,533.007 308.996,533.507 307.5,533C 303.696,528.703 299.362,524.87 294.5,521.5C 285.441,511.729 276.608,501.729 268,491.5C 264.239,486.258 260.739,480.925 257.5,475.5C 256.675,474.614 255.675,474.281 254.5,474.5C 227.015,433.721 211.015,388.721 206.5,339.5C 205.512,324.148 205.512,308.814 206.5,293.5C 207.684,287.628 209.351,281.795 211.5,276C 209.044,274.024 208.877,271.857 211,269.5C 211.718,270.451 212.551,270.617 213.5,270C 212.782,268.013 211.782,266.179 210.5,264.5C 211.574,259.106 213.241,253.939 215.5,249C 214.919,248.107 214.585,247.107 214.5,246C 215.638,241.867 216.638,237.7 217.5,233.5C 219.539,232.723 220.205,231.557 219.5,230C 219.995,226.027 221.329,222.36 223.5,219C 223.089,217.856 222.756,216.689 222.5,215.5C 224.064,212.694 224.73,209.694 224.5,206.5C 225.044,202.534 226.377,198.867 228.5,195.5C 229.496,195.586 230.329,195.252 231,194.5C 234.977,183.88 239.977,173.88 246,164.5C 246.914,165.654 247.747,165.487 248.5,164C 247.549,163.282 247.383,162.449 248,161.5C 249.333,158.833 251.333,156.833 254,155.5C 254.333,153.5 254.667,151.5 255,149.5C 257.574,147.355 259.407,144.688 260.5,141.5C 261.651,140.269 262.817,140.269 264,141.5C 264.5,141 265,140.5 265.5,140C 263.993,139.163 263.493,137.996 264,136.5C 266.964,132.534 270.297,128.867 274,125.5C 274.471,123.754 275.138,122.087 276,120.5C 281.027,118.983 283.527,115.65 283.5,110.5C 306.317,85.594 332.65,65.2607 362.5,49.5C 365.983,48.2477 369.649,47.4144 373.5,47C 375.919,44.7311 379.085,42.8978 383,41.5C 383.333,41.8333 383.667,42.1667 384,42.5C 385.351,40.981 386.851,39.6477 388.5,38.5C 390.098,39.4847 391.765,39.6514 393.5,39C 396.142,34.3728 400.142,32.3728 405.5,33C 408.534,29.8713 412.034,29.038 416,30.5C 419.646,29.7602 422.813,28.0935 425.5,25.5C 426.086,25.7093 426.586,26.0426 427,26.5C 433.349,24.4215 439.849,22.7548 446.5,21.5C 447.442,21.6082 448.275,21.9415 449,22.5C 452.436,21.4725 455.603,20.1392 458.5,18.5C 460.265,17.5386 462.265,17.2053 464.5,17.5C 468.338,18.3093 472.172,17.976 476,16.5C 493.293,16.581 509.96,16.581 526,16.5C 527,17.1667 528,17.8333 529,18.5C 531.607,17.8767 534.107,17.21 536.5,16.5 Z"/></g>
<g><path style="opacity:1" fill="#2980b1" d="M 548.5,32.5 C 530.26,30.0189 511.927,29.0189 493.5,29.5C 493.783,28.7109 494.283,28.0442 495,27.5C 504.921,28.0692 515.421,28.7359 526.5,29.5C 527.716,28.9984 528.883,28.6651 530,28.5C 536.313,29.5757 542.48,30.909 548.5,32.5 Z"/></g>
<g><path style="opacity:1" fill="#2581b8" d="M 458.5,18.5 C 455.603,20.1392 452.436,21.4725 449,22.5C 448.275,21.9415 447.442,21.6082 446.5,21.5C 439.849,22.7548 433.349,24.4215 427,26.5C 426.586,26.0426 426.086,25.7093 425.5,25.5C 422.813,28.0935 419.646,29.7602 416,30.5C 412.034,29.038 408.534,29.8713 405.5,33C 400.142,32.3728 396.142,34.3728 393.5,39C 391.765,39.6514 390.098,39.4847 388.5,38.5C 386.851,39.6477 385.351,40.981 384,42.5C 383.667,42.1667 383.333,41.8333 383,41.5C 379.085,42.8978 375.919,44.7311 373.5,47C 369.649,47.4144 365.983,48.2477 362.5,49.5C 392.304,32.7887 424.304,22.4554 458.5,18.5 Z"/></g>
<g><path style="opacity:1" fill="#8ebfd7" d="M 556.5,34.5 C 559.428,34.5651 562.095,35.2318 564.5,36.5C 561.505,36.7062 558.838,36.0395 556.5,34.5 Z"/></g>
<g><path style="opacity:1" fill="#3587ba" d="M 569.5,22.5 C 594.397,27.4593 617.73,36.126 639.5,48.5C 638.127,48.6567 636.793,48.49 635.5,48C 633.144,45.6292 630.477,44.7958 627.5,45.5C 623.101,41.3 617.767,38.6333 611.5,37.5C 608.558,34.3504 605.058,33.3504 601,34.5C 599.184,32.5586 597.184,31.8919 595,32.5C 591.853,30.0556 588.52,29.0556 585,29.5C 583.509,27.9963 581.676,27.1629 579.5,27C 579.833,26.6667 580.167,26.3333 580.5,26C 576.371,25.8921 572.704,24.7254 569.5,22.5 Z"/></g>
<g><path style="opacity:1" fill="#2781b8" d="M 283.5,110.5 C 283.527,115.65 281.027,118.983 276,120.5C 275.138,122.087 274.471,123.754 274,125.5C 270.297,128.867 266.964,132.534 264,136.5C 263.493,137.996 263.993,139.163 265.5,140C 265,140.5 264.5,141 264,141.5C 262.817,140.269 261.651,140.269 260.5,141.5C 259.407,144.688 257.574,147.355 255,149.5C 254.667,151.5 254.333,153.5 254,155.5C 251.333,156.833 249.333,158.833 248,161.5C 247.383,162.449 247.549,163.282 248.5,164C 247.747,165.487 246.914,165.654 246,164.5C 239.977,173.88 234.977,183.88 231,194.5C 230.329,195.252 229.496,195.586 228.5,195.5C 242.078,163.99 260.412,135.656 283.5,110.5 Z"/></g>
<g><path style="opacity:1" fill="#3083b7" d="M 727.5,118.5 C 735.787,127.068 743.12,136.402 749.5,146.5C 747.146,145.153 744.813,143.986 742.5,143C 742.957,142.586 743.291,142.086 743.5,141.5C 739.67,133.509 734.003,127.342 726.5,123C 727.308,122.692 727.975,122.192 728.5,121.5C 727.873,120.583 727.539,119.583 727.5,118.5 Z"/></g>
<g><path style="opacity:1" fill="#8cbed6" d="M 531.5,151.5 C 520.116,151.21 508.783,151.543 497.5,152.5C 494.5,152.5 491.5,152.5 488.5,152.5C 496.78,150.984 505.28,150.318 514,150.5C 520.01,150.501 525.843,150.834 531.5,151.5 Z"/></g>
<g><path style="opacity:1" fill="#2381b9" d="M 488.5,152.5 C 491.5,152.5 494.5,152.5 497.5,152.5C 495.891,153.771 494.058,154.771 492,155.5C 487.463,153.777 482.963,154.443 478.5,157.5C 477.914,157.291 477.414,156.957 477,156.5C 467.819,158.476 459.152,161.143 451,164.5C 447.081,163.929 443.247,164.595 439.5,166.5C 438.614,167.325 438.281,168.325 438.5,169.5C 436.856,169.286 435.356,169.62 434,170.5C 432.89,168.963 431.39,168.297 429.5,168.5C 448.507,161.163 468.174,155.829 488.5,152.5 Z"/></g>
<g><path style="opacity:1" fill="#237db0" d="M 558.5,169.5 C 538.766,167.875 519.1,168.541 499.5,171.5C 512.145,168.148 525.145,166.814 538.5,167.5C 545.535,167.503 552.202,168.17 558.5,169.5 Z"/></g>
<g><path style="opacity:1" fill="#3789be" d="M 429.5,168.5 C 429.43,170.602 428.93,172.602 428,174.5C 427.667,173.833 427.333,173.167 427,172.5C 426.15,173.424 425.15,173.424 424,172.5C 420.33,173.005 416.663,174.338 413,176.5C 411.43,176.33 409.597,175.997 407.5,175.5C 407.723,178.966 406.389,179.966 403.5,178.5C 400.063,180.388 396.396,181.388 392.5,181.5C 395.793,178.71 399.627,176.71 404,175.5C 412.409,172.773 420.909,170.44 429.5,168.5 Z"/></g>
<g><path style="opacity:1" fill="#89bcd5" d="M 587.5,174.5 C 591.116,174.899 594.45,175.899 597.5,177.5C 593.786,177.41 590.452,176.41 587.5,174.5 Z"/></g>
<g><path style="opacity:1" fill="#3385b8" d="M 571.5,160.5 C 591.093,165.781 608.093,174.781 622.5,187.5C 614.191,183.836 605.857,180.503 597.5,177.5C 601.107,177.175 601.774,176.008 599.5,174C 595.016,172.586 590.683,170.919 586.5,169C 584.161,167.677 581.995,166.177 580,164.5C 576.176,165.507 573.343,164.174 571.5,160.5 Z"/></g>
<g><path style="opacity:1" fill="#e61f26" d="M 530.5,195.5 C 531.483,199.298 531.817,203.298 531.5,207.5C 529.632,214.698 524.965,218.698 517.5,219.5C 513.147,219.235 508.813,218.735 504.5,218C 501.904,215.494 499.237,213.327 496.5,211.5C 494.896,210.713 494.229,209.38 494.5,207.5C 494.126,201.611 494.793,195.945 496.5,190.5C 498.886,189.627 500.886,188.127 502.5,186C 503.784,185.316 504.951,185.483 506,186.5C 506.333,185.833 506.667,185.167 507,184.5C 508.907,184.421 510.907,184.754 513,185.5C 513.804,184.196 514.971,183.529 516.5,183.5C 523.072,185.413 527.738,189.413 530.5,195.5 Z"/></g>
<g><path style="opacity:1" fill="#cc3033" d="M 530.5,192.5 C 530.5,193.5 530.5,194.5 530.5,195.5C 527.738,189.413 523.072,185.413 516.5,183.5C 514.971,183.529 513.804,184.196 513,185.5C 510.907,184.754 508.907,184.421 507,184.5C 506.667,185.167 506.333,185.833 506,186.5C 504.951,185.483 503.784,185.316 502.5,186C 500.886,188.127 498.886,189.627 496.5,190.5C 503.398,181.482 512.065,179.315 522.5,184C 526.048,186.047 528.715,188.88 530.5,192.5 Z"/></g>
<g><path style="opacity:1" fill="#e39d9f" d="M 507.5,196.5 C 505.5,196.833 503.5,197.167 501.5,197.5C 502.134,196.053 503.301,195.387 505,195.5C 506.07,195.528 506.903,195.861 507.5,196.5 Z"/></g>
<g><path style="opacity:1" fill="#cd5458" d="M 496.5,190.5 C 494.793,195.945 494.126,201.611 494.5,207.5C 493.353,203.354 493.186,199.02 494,194.5C 494.608,192.934 495.442,191.6 496.5,190.5 Z"/></g>
<g><path style="opacity:1" fill="#faf9fa" d="M 507.5,196.5 C 508.5,197.167 509.5,197.833 510.5,198.5C 511.274,204.639 508.608,207.639 502.5,207.5C 502.167,207.5 501.833,207.5 501.5,207.5C 500.253,204.133 500.253,200.799 501.5,197.5C 503.5,197.167 505.5,196.833 507.5,196.5 Z"/></g>
<g><path style="opacity:1" fill="#d16266" d="M 530.5,192.5 C 531.222,192.918 531.722,193.584 532,194.5C 532.814,199.02 532.647,203.354 531.5,207.5C 531.817,203.298 531.483,199.298 530.5,195.5C 530.5,194.5 530.5,193.5 530.5,192.5 Z"/></g>
<g><path style="opacity:1" fill="#e09091" d="M 501.5,197.5 C 500.253,200.799 500.253,204.133 501.5,207.5C 498.55,205.089 497.883,202.089 499.5,198.5C 499.957,197.702 500.624,197.369 501.5,197.5 Z"/></g>
<g><path style="opacity:1" fill="#e7a9ab" d="M 510.5,198.5 C 512.727,205.937 510.061,208.937 502.5,207.5C 508.608,207.639 511.274,204.639 510.5,198.5 Z"/></g>
<g><path style="opacity:1" fill="#3588bc" d="M 558.5,186.5 C 576.607,192.758 594.274,199.758 611.5,207.5C 608.959,206.351 606.459,206.351 604,207.5C 602.978,206.646 602.145,205.646 601.5,204.5C 592.494,202.001 583.827,198.834 575.5,195C 573.231,194.242 571.064,194.409 569,195.5C 568.758,193.862 567.925,192.362 566.5,191C 564.603,189.89 562.77,189.724 561,190.5C 559.915,189.264 559.082,187.931 558.5,186.5 Z"/></g>
<g><path style="opacity:1" fill="#cc3838" d="M 496.5,211.5 C 499.237,213.327 501.904,215.494 504.5,218C 508.813,218.735 513.147,219.235 517.5,219.5C 508.487,222.035 501.487,219.368 496.5,211.5 Z"/></g>
<g><path style="opacity:1" fill="#1f80b9" d="M 224.5,206.5 C 224.73,209.694 224.064,212.694 222.5,215.5C 222.756,216.689 223.089,217.856 223.5,219C 221.329,222.36 219.995,226.027 219.5,230C 220.205,231.557 219.539,232.723 217.5,233.5C 216.638,237.7 215.638,241.867 214.5,246C 214.585,247.107 214.919,248.107 215.5,249C 213.241,253.939 211.574,259.106 210.5,264.5C 211.782,266.179 212.782,268.013 213.5,270C 212.551,270.617 211.718,270.451 211,269.5C 208.877,271.857 209.044,274.024 211.5,276C 209.351,281.795 207.684,287.628 206.5,293.5C 206.5,290.167 206.5,286.833 206.5,283.5C 208.95,256.901 214.95,231.235 224.5,206.5 Z"/></g>
<g><path style="opacity:1" fill="#9fc9de" d="M 500.5,228.5 C 507.725,230.73 515.059,231.063 522.5,229.5C 522.082,230.222 521.416,230.722 520.5,231C 515.167,231.667 509.833,231.667 504.5,231C 502.68,230.8 501.347,229.966 500.5,228.5 Z"/></g>
<g><path style="opacity:1" fill="#4693bb" d="M 757.5,229.5 C 761.067,242.462 763.067,255.795 763.5,269.5C 761.61,256.276 759.61,242.943 757.5,229.5 Z"/></g>
<g><path style="opacity:1" fill="#2782ba" d="M 680.5,248.5 C 691.824,264.141 700.824,281.141 707.5,299.5C 706.571,298.064 705.405,296.731 704,295.5C 703.333,296.833 702.667,296.833 702,295.5C 701.666,293.153 701.833,290.819 702.5,288.5C 701.5,288.5 700.5,288.5 699.5,288.5C 697.9,283.371 695.9,278.371 693.5,273.5C 690.812,272.718 689.812,271.218 690.5,269C 689.773,267.601 689.273,266.101 689,264.5C 687.229,263.696 685.729,262.529 684.5,261C 685.022,260.439 685.355,259.772 685.5,259C 683.252,256.255 681.586,252.755 680.5,248.5 Z"/></g>
<g><path style="opacity:1" fill="#2b83bb" d="M 485.5,282.5 C 468.032,275.567 450.365,269.233 432.5,263.5C 434.792,263.756 436.959,263.423 439,262.5C 442.412,264.44 446.079,265.773 450,266.5C 450.333,266.167 450.667,265.833 451,265.5C 452.243,267.833 453.909,268.5 456,267.5C 456.908,269.439 458.408,270.439 460.5,270.5C 460.351,269.448 460.517,268.448 461,267.5C 461.667,268.833 462.333,268.833 463,267.5C 463.75,268.126 464.584,268.626 465.5,269C 463.487,269.875 463.487,271.209 465.5,273C 471.376,275.517 477.376,277.85 483.5,280C 484.756,280.417 485.423,281.25 485.5,282.5 Z"/></g>
<g><path style="opacity:1" fill="#2b83b8" d="M 334.5,231.5 C 334.271,235.225 333.271,238.725 331.5,242C 332.317,249.754 332.817,257.588 333,265.5C 334.281,265.381 335.448,265.881 336.5,267C 336.167,268.667 335.833,270.333 335.5,272C 336.313,275.654 338.313,278.321 341.5,280C 340.427,281.313 339.76,282.813 339.5,284.5C 340.389,287.279 341.556,289.945 343,292.5C 344.806,289.225 346.306,285.891 347.5,282.5C 346.945,288.154 346.445,293.82 346,299.5C 333.663,281.819 328.663,262.152 331,240.5C 331.505,237.135 332.672,234.135 334.5,231.5 Z"/></g>
<g><path style="opacity:1" fill="#529ac0" d="M 763.5,272.5 C 765.164,290.578 764.498,308.578 761.5,326.5C 763.137,308.546 763.804,290.546 763.5,272.5 Z"/></g>
<g><path style="opacity:1" fill="#75b0cd" d="M 796.5,269.5 C 797.747,275.63 798.414,281.963 798.5,288.5C 797.004,282.395 796.337,276.062 796.5,269.5 Z"/></g>
<g><path style="opacity:1" fill="#2c83b8" d="M 485.5,282.5 C 488.271,282.421 490.937,282.921 493.5,284C 499.866,288.355 506.866,290.688 514.5,291C 513.167,292 513.167,293 514.5,294C 517.063,295.079 519.729,295.579 522.5,295.5C 522.5,296.833 522.5,298.167 522.5,299.5C 523.822,299.67 524.989,299.337 526,298.5C 527.119,299.552 527.619,300.719 527.5,302C 529.78,302.703 531.78,303.869 533.5,305.5C 534.192,304.975 534.692,304.308 535,303.5C 535.219,304.938 535.719,306.271 536.5,307.5C 539.543,308.894 542.376,310.561 545,312.5C 545.333,312.167 545.667,311.833 546,311.5C 546.356,314.729 548.19,316.229 551.5,316C 553.721,319.368 556.055,322.534 558.5,325.5C 536.249,307.865 511.915,293.532 485.5,282.5 Z"/></g>
<g><path style="opacity:1" fill="#3185b3" d="M 243.5,276.5 C 243.286,293.873 243.953,311.206 245.5,328.5C 244.23,320.738 242.897,312.904 241.5,305C 242.245,297.294 242.245,289.96 241.5,283C 242.117,280.723 242.784,278.556 243.5,276.5 Z"/></g>
<g><path style="opacity:1" fill="#a7cee1" d="M 206.5,283.5 C 206.5,286.833 206.5,290.167 206.5,293.5C 205.512,308.814 205.512,324.148 206.5,339.5C 203.855,320.832 203.855,302.165 206.5,283.5 Z"/></g>
<g><path style="opacity:1" fill="#6ca9cb" d="M 798.5,289.5 C 799.661,303.994 799.828,318.661 799,333.5C 798.607,342.412 797.44,351.078 795.5,359.5C 795.334,353.158 795.5,346.825 796,340.5C 796.333,341.167 796.667,341.833 797,342.5C 798.325,324.861 798.825,307.194 798.5,289.5 Z"/></g>
<g><path style="opacity:1" fill="#2d85bc" d="M 714.5,314.5 C 721.711,332.82 726.711,351.82 729.5,371.5C 727.436,371.238 726.103,370.071 725.5,368C 726.051,366.602 726.384,365.268 726.5,364C 724.699,363.683 724.366,363.016 725.5,362C 724.707,360.915 724.04,359.748 723.5,358.5C 724.375,353.039 723.375,347.873 720.5,343C 721.584,340.81 720.917,339.144 718.5,338C 718.096,335.93 718.096,333.764 718.5,331.5C 717.455,329.795 716.122,328.295 714.5,327C 715.578,326.326 716.245,325.326 716.5,324C 715.021,320.993 714.354,317.826 714.5,314.5 Z"/></g>
<g><path style="opacity:1" fill="#cc4b4c" d="M 444.5,366.5 C 442.827,365.657 441.66,364.324 441,362.5C 440.699,365.507 440.865,368.507 441.5,371.5C 439.296,366.384 437.796,361.051 437,355.5C 440.138,358.792 442.638,362.458 444.5,366.5 Z"/></g>
<g><path style="opacity:1" fill="#2983b9" d="M 416.5,340.5 C 424.841,355.017 430.341,370.683 433,387.5C 434.05,392.448 434.55,397.448 434.5,402.5C 430.743,398.665 429.743,394.832 431.5,391C 430.833,389.667 430.167,388.333 429.5,387C 430.112,384.439 430.279,381.606 430,378.5C 427.432,373.8 425.765,369.133 425,364.5C 423.334,365.34 423.167,364.84 424.5,363C 424.097,359.263 422.597,356.096 420,353.5C 419.402,348.984 418.236,344.651 416.5,340.5 Z"/></g>
<g><path style="opacity:1" fill="#e91d24" d="M 444.5,366.5 C 447.857,370.535 450.857,374.868 453.5,379.5C 453.185,381.226 453.019,382.893 453,384.5C 454.147,383.542 455.147,383.875 456,385.5C 457,388.167 458,390.833 459,393.5C 461.639,395.485 463.806,397.819 465.5,400.5C 467.218,402.223 468.551,404.223 469.5,406.5C 469.34,408.199 469.506,409.866 470,411.5C 470.671,412.252 471.504,412.586 472.5,412.5C 472.309,416.288 473.642,419.288 476.5,421.5C 478.204,424.256 479.537,427.256 480.5,430.5C 480.787,434.526 481.787,438.359 483.5,442C 483.167,442.333 482.833,442.667 482.5,443C 484.357,449.386 487.024,455.22 490.5,460.5C 492.283,464.615 493.616,468.949 494.5,473.5C 494.5,475.5 494.5,477.5 494.5,479.5C 494.739,481.467 494.406,483.301 493.5,485C 494.545,490.642 495.545,496.308 496.5,502C 496.621,505.774 495.621,509.107 493.5,512C 494.167,512.333 494.833,512.667 495.5,513C 494.921,519.988 493.921,527.155 492.5,534.5C 492.128,538.297 490.794,541.63 488.5,544.5C 484.244,548.611 480.411,553.278 477,558.5C 475.441,560.217 474.608,562.217 474.5,564.5C 463.267,575.287 450.267,583.287 435.5,588.5C 431.548,589.272 427.548,589.605 423.5,589.5C 409.603,583.31 395.603,577.31 381.5,571.5C 379.574,569.707 377.241,568.707 374.5,568.5C 370.851,567.733 367.518,566.4 364.5,564.5C 364.5,563.5 364.5,562.5 364.5,561.5C 358.323,558.994 351.989,556.66 345.5,554.5C 348.833,553.333 352.167,552.167 355.5,551C 354.944,550.617 354.611,550.117 354.5,549.5C 369.227,545.48 383.561,540.48 397.5,534.5C 400.551,532.637 403.885,531.47 407.5,531C 409.09,529.954 410.59,528.787 412,527.5C 412.333,527.833 412.667,528.167 413,528.5C 414.617,527.149 415.784,525.482 416.5,523.5C 421.168,520.78 425.502,517.613 429.5,514C 429.167,513.667 428.833,513.333 428.5,513C 430.871,511.594 432.538,509.594 433.5,507C 435.833,505.333 438.167,503.667 440.5,502C 440.043,501.586 439.709,501.086 439.5,500.5C 441.015,498.453 441.849,496.119 442,493.5C 443,492.833 444,492.167 445,491.5C 445.862,485.753 447.029,480.087 448.5,474.5C 448.5,472.833 448.5,471.167 448.5,469.5C 449.931,464.362 450.931,459.029 451.5,453.5C 452.659,442.007 452.826,430.341 452,418.5C 451.95,413.873 451.117,409.54 449.5,405.5C 449.167,404.833 448.833,404.167 448.5,403.5C 448.354,399.613 447.687,395.946 446.5,392.5C 445.593,385.211 443.927,378.211 441.5,371.5C 440.865,368.507 440.699,365.507 441,362.5C 441.66,364.324 442.827,365.657 444.5,366.5 Z"/></g>
<g><path style="opacity:1" fill="#e09294" d="M 441.5,371.5 C 443.927,378.211 445.593,385.211 446.5,392.5C 444.073,385.789 442.407,378.789 441.5,371.5 Z"/></g>
<g><path style="opacity:1" fill="#2d82b5" d="M 759.5,338.5 C 759.478,342.611 758.811,346.611 757.5,350.5C 757.931,351.293 758.265,352.127 758.5,353C 754.657,364.159 750.657,375.326 746.5,386.5C 746.833,387.167 747.167,387.833 747.5,388.5C 744.606,390.574 742.606,393.24 741.5,396.5C 744.66,387.883 747.826,379.216 751,370.5C 754.175,359.793 757.008,349.127 759.5,338.5 Z"/></g>
<g><path style="opacity:1" fill="#cf2e32" d="M 453.5,379.5 C 458.255,386.004 462.255,393.004 465.5,400.5C 463.806,397.819 461.639,395.485 459,393.5C 458,390.833 457,388.167 456,385.5C 455.147,383.875 454.147,383.542 453,384.5C 453.019,382.893 453.185,381.226 453.5,379.5 Z"/></g>
<g><path style="opacity:1" fill="#e09496" d="M 446.5,392.5 C 447.687,395.946 448.354,399.613 448.5,403.5C 446.918,400.124 446.251,396.458 446.5,392.5 Z"/></g>
<g><path style="opacity:1" fill="#2782b9" d="M 256.5,371.5 C 263.045,391.127 271.712,409.793 282.5,427.5C 280.983,427.489 279.816,426.823 279,425.5C 277.263,422.072 275.429,418.738 273.5,415.5C 272.833,415.167 272.167,414.833 271.5,414.5C 271.173,410.5 269.339,407.5 266,405.5C 265.501,399.995 264.001,394.828 261.5,390C 260.41,387.94 258.743,386.607 256.5,386C 256.988,381.528 256.988,376.694 256.5,371.5 Z"/></g>
<g><path style="opacity:1" fill="#d05653" d="M 469.5,406.5 C 471.008,408.181 472.008,410.181 472.5,412.5C 471.504,412.586 470.671,412.252 470,411.5C 469.506,409.866 469.34,408.199 469.5,406.5 Z"/></g>
<g><path style="opacity:1" fill="#ce5151" d="M 472.5,412.5 C 474.592,415.088 475.925,418.088 476.5,421.5C 473.642,419.288 472.309,416.288 472.5,412.5 Z"/></g>
<g><path style="opacity:1" fill="#c62028" d="M 449.5,405.5 C 451.117,409.54 451.95,413.873 452,418.5C 452.826,430.341 452.659,442.007 451.5,453.5C 451.828,441.988 451.495,430.654 450.5,419.5C 450.331,414.819 449.998,410.152 449.5,405.5 Z"/></g>
<g><path style="opacity:1" fill="#ebb7b8" d="M 450.5,419.5 C 451.495,430.654 451.828,441.988 451.5,453.5C 450.931,459.029 449.931,464.362 448.5,469.5C 450.213,452.887 450.88,436.22 450.5,419.5 Z"/></g>
<g><path style="opacity:1" fill="#d22e32" d="M 480.5,430.5 C 484.804,440.079 488.138,450.079 490.5,460.5C 487.024,455.22 484.357,449.386 482.5,443C 482.833,442.667 483.167,442.333 483.5,442C 481.787,438.359 480.787,434.526 480.5,430.5 Z"/></g>
<g><path style="opacity:1" fill="#7fb6d1" d="M 608.5,470.5 C 608.633,476.489 607.633,482.156 605.5,487.5C 606.141,481.642 607.141,475.975 608.5,470.5 Z"/></g>
<g><path style="opacity:1" fill="#e4a1a3" d="M 494.5,473.5 C 499.255,491.44 499.589,509.44 495.5,527.5C 498.365,511.295 498.032,495.295 494.5,479.5C 494.5,477.5 494.5,475.5 494.5,473.5 Z"/></g>
<g><path style="opacity:1" fill="#d23537" d="M 448.5,474.5 C 447.029,480.087 445.862,485.753 445,491.5C 444,492.167 443,492.833 442,493.5C 441.849,496.119 441.015,498.453 439.5,500.5C 439.709,501.086 440.043,501.586 440.5,502C 438.167,503.667 435.833,505.333 433.5,507C 432.538,509.594 430.871,511.594 428.5,513C 428.833,513.333 429.167,513.667 429.5,514C 425.502,517.613 421.168,520.78 416.5,523.5C 415.784,525.482 414.617,527.149 413,528.5C 412.667,528.167 412.333,527.833 412,527.5C 410.59,528.787 409.09,529.954 407.5,531C 403.885,531.47 400.551,532.637 397.5,534.5C 403.426,529.86 409.759,525.693 416.5,522C 432.289,509.579 442.956,493.746 448.5,474.5 Z"/></g>
<g><path style="opacity:1" fill="#ce222a" d="M 494.5,479.5 C 498.032,495.295 498.365,511.295 495.5,527.5C 494.869,529.975 493.869,532.309 492.5,534.5C 493.921,527.155 494.921,519.988 495.5,513C 494.833,512.667 494.167,512.333 493.5,512C 495.621,509.107 496.621,505.774 496.5,502C 495.545,496.308 494.545,490.642 493.5,485C 494.406,483.301 494.739,481.467 494.5,479.5 Z"/></g>
<g><path style="opacity:1" fill="#2280b8" d="M 254.5,474.5 C 255.675,474.281 256.675,474.614 257.5,475.5C 260.739,480.925 264.239,486.258 268,491.5C 276.608,501.729 285.441,511.729 294.5,521.5C 299.362,524.87 303.696,528.703 307.5,533C 308.996,533.507 310.163,533.007 311,531.5C 310.805,533.126 310.805,534.793 311,536.5C 312.5,538 314,539.5 315.5,541C 316.996,541.507 318.163,541.007 319,539.5C 325.175,540.083 332.008,540.083 339.5,539.5C 333.246,541.385 326.746,542.718 320,543.5C 318.033,543.458 316.199,542.958 314.5,542C 291.101,522.439 271.101,499.939 254.5,474.5 Z"/></g>
<g><path style="opacity:1" fill="#d03437" d="M 488.5,544.5 C 484.994,552.002 480.327,558.668 474.5,564.5C 474.608,562.217 475.441,560.217 477,558.5C 480.411,553.278 484.244,548.611 488.5,544.5 Z"/></g>
<g><path style="opacity:1" fill="#d23235" d="M 354.5,549.5 C 354.611,550.117 354.944,550.617 355.5,551C 352.167,552.167 348.833,553.333 345.5,554.5C 351.989,556.66 358.323,558.994 364.5,561.5C 364.5,562.5 364.5,563.5 364.5,564.5C 362.315,564.296 360.315,563.63 358.5,562.5C 356.68,560.552 354.346,559.552 351.5,559.5C 347.606,557.584 343.606,555.751 339.5,554C 344.325,552.042 349.325,550.542 354.5,549.5 Z"/></g>
<g><path style="opacity:1" fill="#de8a8d" d="M 351.5,559.5 C 354.346,559.552 356.68,560.552 358.5,562.5C 355.843,562.065 353.509,561.065 351.5,559.5 Z"/></g>
<g><path style="opacity:1" fill="#cf5b5f" d="M 374.5,568.5 C 377.241,568.707 379.574,569.707 381.5,571.5C 378.759,571.293 376.426,570.293 374.5,568.5 Z"/></g>
<g><path style="opacity:1" fill="#d86f6e" d="M 435.5,588.5 C 433.129,589.991 430.462,590.991 427.5,591.5C 425.974,591.006 424.641,590.339 423.5,589.5C 427.548,589.605 431.548,589.272 435.5,588.5 Z"/></g>
</svg>
