<?xml version="1.0" encoding="UTF-8" standalone="no"?>
<svg
   height="1449"
   viewBox="0 -.063 187.086 111.9045577"
   width="2500"
   version="1.1"
   id="svg18"
   sodipodi:docname="hermes-2.svg"
   inkscape:version="1.2.2 (732a01da63, 2022-12-09)"
   xmlns:inkscape="http://www.inkscape.org/namespaces/inkscape"
   xmlns:sodipodi="http://sodipodi.sourceforge.net/DTD/sodipodi-0.dtd"
   xmlns="http://www.w3.org/2000/svg"
   xmlns:svg="http://www.w3.org/2000/svg">
  <defs
     id="defs22" />
  <sodipodi:namedview
     id="namedview20"
     pagecolor="#ffffff"
     bordercolor="#000000"
     borderopacity="0.25"
     inkscape:showpageshadow="2"
     inkscape:pageopacity="0.0"
     inkscape:pagecheckerboard="0"
     inkscape:deskcolor="#d1d1d1"
     showgrid="false"
     inkscape:zoom="0.35553329"
     inkscape:cx="1234.7648"
     inkscape:cy="686.29298"
     inkscape:window-width="1536"
     inkscape:window-height="841"
     inkscape:window-x="-8"
     inkscape:window-y="-8"
     inkscape:window-maximized="1"
     inkscape:current-layer="g16" />
  <g
     clip-rule="evenodd"
     fill="#f37021"
     fill-rule="evenodd"
     id="g16">
    <path
       d="m 0,53.915 h 11.246 v 4.089 H 7.77 v 6.85 h 12.677 v -6.85 h -3.578 v -4.089 h 11.45 v 4.089 h -3.681 v 20.141 h 3.681 v 3.986 h -11.45 v -3.986 h 3.578 V 68.84 H 7.77 v 9.305 h 3.476 v 3.986 H 0 V 78.145 H 3.579 V 58.004 H 0 Z M 43.041,43.078 h -3.885 v -1.022 h 2.863 c 0.101,0.205 0.715,0.715 1.022,1.022 z m 97.632,0 c 0,-0.409 0.408,-0.817 0.92,-1.022 h 2.045 v 1.022 z m -64.202,0.716 c -1.738,0.818 -3.885,0.715 -5.623,0 H 50.503 c -1.962853,0.818 -4.171147,0.818 -6.134,0 h -5.214 v 1.942 H 143.638 V 43.794 Z M 51.73,43.078 c 0.307,-0.204 1.022,-0.92 1.125,-1.022 h 15.744 c 0.205,0.307 0.716,0.818 1.022,1.022 z m 21.98,-0.613 c 2.658,0 4.907,-2.249 4.907,-4.907 0,-2.76 -2.249,-5.009 -4.907,-5.009 -2.764568,0.0044 -5.004595,2.244432 -5.009,5.009 0,2.658 2.249,4.907 5.009,4.907 v 1.022 c -3.374,0 -6.032,-2.658 -6.032,-5.93 0,-3.374 2.658,-6.032 6.032,-6.032 3.271,0 5.929,2.658 5.929,6.032 -0.0022,3.273744 -2.655256,5.927242 -5.929,5.93 z M 54.184,36.74 c 0,-3.68 -3.067,-6.748 -6.748,-6.748 -3.783,0 -6.748,3.067 -6.748,6.748 0,3.783 2.965,6.748 6.748,6.748 3.681,-10e-4 6.748,-2.966 6.748,-6.748 h -1.125 c 0,3.169 -2.556,5.725 -5.623,5.725 -3.169,0 -5.725,-2.556 -5.725,-5.725 0,-3.169 2.556,-5.623 5.725,-5.623 3.10917,-0.0089 5.631885,2.51383 5.623,5.623 z"
       id="path2"
       sodipodi:nodetypes="ccccccccccccccccccccccccccccccccccccccccccccccccccccccsccccssccccsscccssccc" />
    <path
       d="m76.879 40.931-2.044-2.351v-.103c.102-.102.102-.204.204-.307l3.067.818c.102 0 .307.102.307.204 0-.103.103-.511.205-.716-.102.103-.307.103-.511.103l-2.863-.818c-.102 0-.102-.103-.102-.103v-.511l2.965-1.125s.307 0 .307.102c0-.102-.205-.614-.205-.716 0 .102-.205.307-.307.307l.205-.103-3.067 1.125c0 .103 0 0-.102 0a.22.22 0 0 0 -.205-.205c0-.102-.102-.204 0-.204l1.636-2.556c.102-.102.307-.204.409-.204-.102 0-.511-.307-.716-.409.103 0 .103.307 0 .409l-1.636 2.556h-.204s-.205-.102-.307-.102c0 0-.102 0-.102-.103l-.102-2.965c0-.204 0-.409.204-.409h-.817c.102 0 .204.307.204.409l.103 2.965c0 .103-.103.103-.103.103s-.204.102-.307.204c0 0-.102 0-.102-.102l-1.942-2.352c-.103-.102-.103-.307-.103-.409-.102.102-.511.409-.613.511.102 0 .307.102.409.204l1.943 2.352v.102c-.103 0-.205.205-.205.307 0 0-.102.102-.205.102l-2.862-.818c-.205-.102-.307-.205-.307-.307 0 .102-.205.613-.205.715 0 0 .307-.102.409 0l2.863.716c.102 0 .102.102.102.102v.512l-2.862 1.226c-.103 0-.307.103-.307 0 0 .103.102.512.204.716 0-.102.205-.307.307-.307l2.76-1.227c.102 0 .102.102.102.102a.22.22 0 0 1 .205.205c.102 0 .102.102.102.102l-1.738 2.556c-.103.102-.205.204-.307.204.103.103.511.409.614.409-.103 0 0-.307 0-.409l1.738-2.453c0-.103.103-.103.103-.103.102.103.204.103.307.103.102 0 .102 0 .102.102l.205 3.067c0 .103-.103.307-.205.307h.818c-.205 0-.205-.204-.205-.409l-.205-2.965c0-.102.103-.102.103-.102.102 0 .307-.103.409-.205 0 0 .103 0 .103.103l2.044 2.249c0 .103.103.307.103.409l.511-.511c-.104.106-.309-.099-.309-.099zm-29.647-8.076c2.862 0 5.725.307 7.361.818.204 0 .204.205 0 .307-1.738.409-4.601.716-7.258.716-2.658.102-5.521 0-7.361-.409-.204 0-.204-.205 0-.205 1.635-.614 4.396-1.125 7.258-1.227v-.511c-3.067.103-6.134.818-8.69 1.738-.307.103-.307.307 0 .307 2.863.716 5.828.818 8.792.716 2.862-.102 5.929-.307 8.689-1.125.409-.102.307-.307.102-.307a30.61 30.61 0 0 0 -8.894-1.329v.511z"
       id="path4" />
    <path
       d="m77.595 31.015c-.716.205-1.942.614-2.556.614-.511 0-3.066-.103-4.805 0-2.352.102-2.556.409-2.658.204-.511-.818-.92-2.044-1.738-2.76-4.805.818-9.508.103-13.801-1.431v-.613c.307.102.511.102.715.102-.715-1.022-1.942-1.329-2.658-2.454-.409-.307-.511-.92-.92-1.227.102 1.125-.818 1.942-.92 2.862.613.205 1.431.205 1.738.102.409-.102.92 0 1.125.307.307.103.511.307.92.307v.613c-.512-.103-.614-.205-1.022-.409-.511.205-.92.103-1.125-.102-.103-.102-1.125-.102-1.534-.102-1.329 0-2.76.511-3.476 1.636-.307.613-.204 1.329.103 1.84.205.307 1.125 1.636 1.738 2.045l-.818.205c-1.227-1.125-2.146-2.147-1.942-3.476.613-2.863 3.271-2.454 3.987-3.68.511-1.125.715-4.396.102-5.316-1.738-.716-3.885-1.636-4.293-3.681-.103-.511.102-1.124.613-1.227.92-.205 1.533.307 2.249.613.307-.204-.307-.92.409-.92.92 0 1.533 1.84 1.84 1.942l-.102.716c-.614-.205-2.863-1.432-3.067-1.534-.409-.205-.92-.511-1.227-.102-.409.511.102 1.125.409 1.636 4.805 5.009 12.779-.307 17.993 3.271.103-.307 0-.409-.205-.511-3.578-3.374-9.303-1.636-13.903-2.76l.102-.716c5.725 1.431 13.291-.92 16.255 5.623 1.942 2.76 3.987 7.156 8.178 7.258 3.374.102 5.623-1.227 7.259-3.68 2.249-4.089 3.578-8.792 7.565-11.552.409-.205.614 0 .409.102-1.942 1.942-3.681 4.498-4.601 6.645 1.534 5.827 4.907 4.601 5.725 4.499-.205-2.147 0-8.486 4.601-10.019a9.334 9.334 0 0 1 9.508-1.125c-3.578 3.374-5.726 8.179-6.441 11.552l-3.986 1.125c.307-.613.307-1.636.204-2.76-.409.205-.818.511-1.738 1.022-.409.103-.103-.511-.103-.511 0-.205 1.022-.613 1.84-1.125-.307-2.352-.511-5.418 1.432-7.361-3.987 1.329-2.863 9.712-2.454 10.734-1.125.511-2.658.511-2.658.511l-.204-1.431c-1.738.613-4.703.204-6.032-4.396-1.431 2.965-2.658 7.668-6.032 8.895zm62.363-12.473c-.205-.205-.307-.307-.512-.307-.102-.103 0-.205.103-.205.103-.102.307 0 .409.205.101.103.101.307 0 .307z"
       id="path6" />
    <path
       d="m48.459 38.273 2.147 2.454c.204.204.204.511.102.613.307-.102.715-.613.92-.818-.103.102-.511.102-.613-.102l-2.249-2.454v-.205l.102-.103c0-.102.102-.102.102-.102l3.169 1.125c.307.205.409.409.409.511.103-.204.307-.818.409-1.022-.102.103-.409.205-.613.103l-3.169-1.125c-.102 0-.102 0-.102-.103v-.204c0-.103.102-.103.102-.103l3.271-.511c.409-.102.613.103.613.205 0-.205-.102-.92-.102-1.125 0 .102-.205.409-.613.511l-3.169.511c-.102 0-.102-.103-.102-.103-.103-.102-.103-.204-.205-.307v-.099l2.556-2.147c.307-.205.614-.205.716-.102-.205-.205-.614-.716-.818-.92.102.103 0 .409-.205.716l-2.454 2.044c-.102.102-.102.102-.102 0-.102 0-.205 0-.307-.102 0 0-.103-.103 0-.103l1.125-3.169a.616.616 0 0 1 .511-.409c-.205-.103-.92-.409-1.125-.409.102 0 .307.409.204.715l-1.125 3.067c0 .102-.102.102-.102.102h-.307l-.102-.102-.614-3.271c0-.409.205-.613.205-.613-.205 0-.818.102-1.125.205.102 0 .409.204.511.511l.613 3.169c0 .102 0 .102-.103.204-.102 0-.204.103-.307.103h-.102l-2.249-2.454c-.205-.307-.205-.614-.102-.614-.205.103-.716.512-.818.716.103 0 .409 0 .613.205l2.25 2.454v.103l-.205.204h-.102l-3.067-1.125c-.307-.102-.511-.409-.409-.511-.205.307-.307.92-.409 1.125.102-.102.409-.205.715-.102l3.067 1.022v.512l-3.271.613c-.307 0-.613-.205-.613-.307 0 .307.103 1.022.205 1.227 0-.102.102-.409.511-.511l3.169-.614s.103 0 .103.102c0 .103 0 .103.102.205v.102l-2.556 2.045c-.307.307-.613.205-.613.102 0 .307.511.818.613.92 0-.103 0-.409.204-.614l2.658-2.044c0-.102 0-.102.103 0l.204.205c.103 0 .103 0 .103.102l-1.125 3.067c-.103.307-.409.511-.511.409.205.102.818.409 1.125.409-.205 0-.307-.307-.205-.614l1.125-3.169s0-.102.102-.102c.103.102.205.102.307.102 0 0 .102 0 .102.103l.613 3.169a.934.934 0 0 1 -.307.716c.307 0 .92-.204 1.125-.307-.102.103-.409-.205-.409-.409l-.613-3.271v-.102c.102 0 .204-.102.307-.102.103-.105.103-.105.206-.003zm90.067-19.322c-.102-.102 0-.204 0-.307.103-.307.205-.307.205-.613-.512-.409-.614-1.227-.307-1.432.307-.307 1.328.103 1.328.103.921-.716 1.228-1.227 1.738-1.534.716 0 2.147 1.329 2.147 2.147-.205.307-.716.818-1.534 1.84.307.715.307 1.227-.204 1.636-.103 0-.307 0-.511-.205.102 1.022 1.227 1.636 1.635 2.454 0 1.636 1.738 3.68-.204 5.01-.409.204-.817.511-1.022.919.307 1.636.92 3.374 1.227 5.112l-1.942.103c-.204.613-.817 1.738-.613 2.351 0 0-.102-.102.103 0 .307.409.409 3.783.307 4.089 0 .409.307.409.103 1.125-.205.103-1.022.613-1.125.92-.511.511-1.942.613-1.942.409 0-.511 1.022-1.125 1.227-1.738.205-2.454 0-4.907-1.329-6.85-.511-.307-.92.511-1.227.92.512 1.534 1.432 3.169 1.329 4.907 0 .511.613 1.227.307 1.943l-1.636.817h-5.93c-.204-.307-.613-.613-.511-1.022h5.316c0-.204.511-.102 1.021-.92 0-2.454-2.556-6.032-2.146-7.258.512-1.534 1.228-2.76 2.045-4.805l.408-.103c-.92 3.067-2.249 4.601-2.044 5.521.103.511.307.92.613 1.534l.205.613c.102.307.408 1.022.612 1.227.307 0 .512-.205.716-.307 0-.409-.307-.92-.511-1.227l-.817.307-.205-.613c.613 0 1.022-.409.511-.716 1.432-.715-.306-.511.205-.818.817-.409 1.227-1.942 1.329-2.862 0-.205.102-.307.307-.307.613 1.635.613 3.782 1.636 5.316v.511c-.103.409 0 .92.204 1.227.92.102.818-.102.613-1.227-.204 0-.613-.103-.817 0v-.511c.102-.103.511 0 .613-.103-.307-.511-.307-.92-.307-1.431 0-.307.204-.92.408.409.308.103.818-2.351.921-3.169-1.942.409 0-1.84-1.432-1.942l.716-1.227c0-.409-.307-.716-.818-.511l-.408-.511c-.307-.102-.613-.614-1.022-.92-.307.307-.818.92-.92 1.329-.103.103.204.205.307.103.307-.307.511.306 1.022.204.204-.204.817-.307.613-.715l.408.511c-.408.204-.408.92-.408 1.431-.716 1.329-.409-.716-1.228-.716-.511.307-.715-.511-1.022-.409l-.408.103c0-.715.102-1.534 0-2.352.613-3.476 1.329-3.374 1.431-4.396 0-.409 1.534-1.227 1.432-1.636.103 0 .307.307.307.409-.103.511-1.124.511-1.022 1.636.613-1.125 2.352-1.022 2.454-2.352-.307-.818.409-.307.409-1.125-.205-.204-.818-.818-.921-1.125-.102-.102.307-.716-1.124-.716-.103.103-.205.716-.409 1.022-.103.103-.307.307-.204.409 0 .102.204.205.204.613-.103.409 0 .613.204.818.818.409 1.432 0 .512.511 0 .102 0 .204-.103.307 0-.103-.307-.511-.409-.613-.102 0-.613-.307-.511-.716.1-.407.1-.611-.105-.816zm-27.501-3.885c.103.716-.307 1.227-.307 1.942.716 1.738 0 3.067.205 4.703-.818-.511-1.022-1.84-1.329-3.271-.204-1.227.103-1.636.204-2.964zm-2.147.512c-.103 2.147-.409 3.169 1.125 6.543-3.885 1.636-7.055 2.76-11.655 4.089.512-3.271 3.681-9.508 6.339-11.246 2.249.614 4.191.614 4.191.614z"
       id="path8" />
    <path
       d="m98.86 39.603c-1.022.307-1.022.92-.409 1.533.409.307.818.818.818.92h-6.543c0 .307.307.512.511 1.022h36.19c.204-.511-.408-1.125-.613-1.738-2.556-.92-2.556-3.271-2.658-5.93 0-.102-.204-.409-.204-.92-.307-.409-2.045-4.601-1.227-7.974l.613-1.125c.511-.716-.103-1.125.307-1.942l7.564-1.432c.103-.102.103-.409-.102-.511 0-.103.102 0 0 0l-7.36 1.329c.408-1.84-1.228-2.454-.512-3.987 1.022 1.125 3.783 3.067 5.214 3.374l.716-.102c-1.84-.818-5.111-2.76-6.952-5.316-.204 0-.409-.205-.613-.307 0 .205.511.818.409.92 0 0-1.227.818-3.477-.204-.715 1.431-8.689 5.009-8.689 5.009.307 2.249 1.329 3.681 2.453 4.907.103.205-.307-.205 0 0 1.637 1.329 3.579 1.942 5.726 2.352.409 1.227 1.942 5.214 2.045 5.827.204.613.511.613.511.613.205.205.92 1.534.92 2.045l.205 2.146c.102.511.715.103.817.614l-.307 1.329h1.534c-.818-.715-.308-1.942-1.33-2.453-.102-1.227-.204-2.147-.715-2.658-.409-1.227-1.738-4.498-2.557-7.463l.512-.716c-2.249.613-3.987-.205-6.031-1.329-1.534-.716-.614-.102-.103-.409 2.453 1.125 3.681.818 5.521.613.204.307.613.613.613 1.125l-.512.716c.512-.512.921-.205 1.228 1.227.409 1.227.817 2.147 1.124 3.169.409 1.022.716 2.351 1.022 3.067 0 0 .307 0 .512.409.716 2.25.92 2.556.817 3.578.205.818 1.329.103 1.227 1.125h-26.887c.408-1.635-.512-3.066 0-4.6-1.022-1.636-3.578-2.862-3.17-5.112 1.228-1.738 5.215-3.476 4.294-5.521 3.681-1.84 5.521 1.227 8.895.92 1.227 0 2.556-.205 3.681-.511-1.432-1.125-2.658-2.862-3.374-4.396-7.156 2.965-14.108 5.316-21.775 6.85l-.614-.204c-.715.102-12.37 2.76-11.961 3.271-4.396.307-9.508 2.147-10.632 2.76-.511.307-.614.512 0 .716 4.703 1.227 8.587.307 15.846-2.454l-.511-.409c-.409.307-6.338 2.352-8.69 2.658-2.454.307-4.601.204-5.623-.103-.307-.102-.307-.102-.103-.204 4.601-1.84 13.495-3.477 14.722-1.943.716.205 1.227.613 1.636 1.125.409.511 1.227.306 1.84.204.818-.204.92-.92.92-1.636l-.92-.102c-.409 0-2.045.205-2.249.409-.614-.511-1.227-1.022-2.045-1.227 1.636-.716 4.294-1.329 5.725-1.431-1.329.92-.715 2.044-1.431 2.249l.92.102c0-.409 0-.715.205-.92.92-2.249 4.805-2.556 6.747-3.067 0 0-1.022 1.329-1.738 1.636-.205 3.169-1.329 5.929-1.534 9.099.92 0 .92 1.022 1.125 1.636-.307.511-.716 0-1.125.102-1.431-.715.307-1.942-.818-2.964.614-2.556 1.534-5.112 1.534-7.77-.409 0-.511.409-.716.715-.307 2.556-1.022 4.908-1.635 7.259.204.205.715.409.715.818-.818.511 0 1.431-.307 2.044h-9.302l-.92 1.022h14.108l.103-.511c-2.045-2.25-1.329-5.521-.307-7.974l2.454-3.271c2.045-.818 3.271-3.271 5.419-4.09 0 1.125-1.329 1.534-2.045 2.147-.818 1.738-3.169 1.943-3.477 3.885.921 1.022 2.25 1.738 3.374 2.658 1.125.716.818 2.249 1.636 2.965.204.205-.001.614-.205.717z"
       id="path10" />
    <path
       d="m114.501 2.696c-.409.613-1.227 1.022-.716 2.147-1.022.613-.716 1.533-.409 2.044-.511.511-.817 1.534-.102 2.147-.818.92.204 1.738.511 2.045-.409.92 0 1.635 0 1.635-.103.614-1.227 1.636-1.636 1.943-.613 1.533-.409 4.703-.307 6.85 2.862-1.432 5.725-2.76 7.975-4.703-1.942-1.329-3.477-4.498-5.623-4.293-.205-2.25-1.125-6.236 2.045-10.326.408-.205 1.021-.307 1.328-.511-1.328-.205-3.066.613-4.293-.102.001 0 .614 1.022 1.227 1.124z"
       id="path12" />
    <path
       d="m 121.351,1.674 c 0,0.102 0.409,0.307 0.409,0.307 0,0 0.409,-0.102 0.409,-0.205 0,-0.102 0.102,-0.409 0,-0.511 -0.103,0 -0.409,-0.103 -0.614,-0.103 0,0.001 -0.204,0.41 -0.204,0.512 l -0.205,0.205 -1.431,-1.022 0.204,-0.205 c 0,0 0.613,-0.613 0.92,-0.613 0.307,-0.102 1.943,0 2.352,0.307 0.307,0.307 0.512,0.511 0.92,1.227 1.125,0.818 2.965,0.818 4.09,1.738 -0.204,0.307 0.307,0.818 -0.103,1.022 -0.307,0.102 -1.022,-0.103 -1.124,0.102 l -0.103,0.613 -0.409,-0.102 c 0,0 0.204,-0.716 0,-0.716 -0.204,-0.102 -0.613,-0.307 -0.817,-0.205 -0.103,0.103 0,0.205 0.103,0.409 0,0.205 0.511,0.307 0.817,0.205 l 0.409,0.102 0.511,0.103 c -0.204,0.511 -0.307,0.715 -1.022,0.511 -0.204,0.511 0.92,0.92 1.022,1.125 -0.103,0.205 -0.307,0.409 -1.022,0 0,0 -2.965,2.863 -4.702,3.681 -1.841,0.818 -0.103,-0.409 -0.103,-0.409 0.818,-0.307 4.396,-3.374 4.396,-3.68 -0.103,-0.205 -0.307,-0.613 -0.307,-0.92 -0.512,-0.205 -1.534,0.102 -1.943,0.409 0.205,0.92 1.841,5.521 0.613,12.473 l -0.204,-0.205 c 1.125,-6.747 -0.716,-12.166 -0.716,-12.166 -1.021,0.409 -1.737,0.102 -2.249,0.204 -0.204,4.192 3.169,4.805 1.942,10.326 -3.578,-0.613 -6.134,-5.009 -8.179,-4.601 -0.102,-0.715 -0.817,-1.942 -0.102,-2.351 -0.205,-0.613 -0.409,-1.431 0.511,-1.943 -0.307,-0.818 -0.409,-1.533 0.512,-2.146 -0.205,-0.511 -0.103,-1.636 1.021,-1.84 0.103,-0.92 0.512,-1.636 1.329,-1.942 -0.92,-0.409 -1.124,-1.329 -1.124,-1.329 0.817,0.511 1.533,0.818 2.76,0.613 z M 61.646,92.151 c 3.681,0 5.316,2.045 5.316,4.6 0,2.557 -1.738,4.498 -5.623,4.498 h -2.658 v 7.055 H 56.329 V 92.151 Z m -2.964,7.053 h 2.862 c 1.738,0 2.965,-0.92 2.965,-2.555 0,-1.227 -0.716,-2.453 -2.863,-2.453 h -2.964 z m 26.581,9.099 h -2.556 l -2.044,-4.805 h -7.054 l -1.942,4.805 H 69.11 l 7.156,-16.256 h 1.636 z m -10.735,-6.951 h 5.213 l -2.76,-6.34 z m 37.622,6.951 h -2.352 V 92.151 h 2.352 z m 16.869,-12.678 c -1.534,-1.227 -2.965,-1.635 -4.192,-1.635 -1.533,0 -2.76,0.715 -2.76,1.84 0,3.17 7.564,3.066 7.564,8.281 0,2.453 -2.044,4.293 -4.906,4.293 -1.841,0 -3.477,-0.408 -4.907,-1.432 v -2.965 c 1.328,1.535 2.965,2.352 4.702,2.352 1.942,0 2.862,-1.123 2.862,-2.043 0,-3.271 -7.667,-3.682 -7.667,-8.078 0,-2.658 2.146,-4.293 5.316,-4.293 1.431,0 2.657,0.307 3.987,1.125 v 2.555 z m -26.785,10.735 c -0.33149,-0.42517 -0.63897,-0.86853 -0.921,-1.328 -1.227,-2.045 -2.249,-3.477 -3.782,-4.396 1.84,-0.715 2.862,-2.146 2.862,-3.986 0,-2.762 -2.146,-4.498 -5.623,-4.498 h -4.191 v 16.152 h 2.454 v -7.055 h 1.021 c 1.228,0 2.25,0.41 4.396,3.682 l 2.249,3.373 h 2.761 z m -7.668,-7.156 h -1.533 v -5.111 h 1.533 c 2.352,0 3.271,0.92 3.271,2.453 0.103,1.329 -0.613,2.658 -3.271,2.658 z"
       id="path14"
       sodipodi:nodetypes="ccsccccccccccccccccccccccccccccccccccccccccccsssccccscssscccccccccccccccccccccssssccssssccccccssccccsccccsccscs" />
  </g>
</svg>
