<?xml version="1.0" encoding="UTF-8" standalone="no"?>
<svg
   width="2500"
   height="1200"
   viewBox="0 0 192.756 92.52288"
   version="1.1"
   id="svg10"
   sodipodi:docname="dior.svg"
   inkscape:version="1.2.2 (732a01da63, 2022-12-09)"
   xmlns:inkscape="http://www.inkscape.org/namespaces/inkscape"
   xmlns:sodipodi="http://sodipodi.sourceforge.net/DTD/sodipodi-0.dtd"
   xmlns="http://www.w3.org/2000/svg"
   xmlns:svg="http://www.w3.org/2000/svg">
  <defs
     id="defs14" />
  <sodipodi:namedview
     id="namedview12"
     pagecolor="#ffffff"
     bordercolor="#000000"
     borderopacity="0.25"
     inkscape:showpageshadow="2"
     inkscape:pageopacity="0.0"
     inkscape:pagecheckerboard="0"
     inkscape:deskcolor="#d1d1d1"
     showgrid="false"
     inkscape:zoom="0.23447661"
     inkscape:cx="1104.5878"
     inkscape:cy="1262.3861"
     inkscape:window-width="1536"
     inkscape:window-height="841"
     inkscape:window-x="-8"
     inkscape:window-y="-8"
     inkscape:window-maximized="1"
     inkscape:current-layer="g8" />
  <g
     fill-rule="evenodd"
     clip-rule="evenodd"
     id="g8">
    <path
       d="m 11.087655,11.217192 -3.5419996,-0.183 -1.46,-0.292 -0.292,-0.548 c 0,-0.5109998 0.365,-0.7299998 1.096,-0.7299998 H 43.516655 c 17.163,0 29.213,5.2219998 36.225,15.7019998 4.017,6.062 6.025,13.256 6.025,21.582 0,4.346 -0.657,8.545 -2.009,12.598 -1.533,4.273 -3.651,8.035 -6.39,11.395 -2.995,3.541 -6.646,6.281 -10.846,8.289 -4.492,2.045 -9.531,3.104 -15.191,3.104 H 4.6246554 c -0.767,0 -1.132,-0.256 -1.132,-0.693 0,-0.475 0.548,-0.73 1.57,-0.73 l 8.9469996,-0.547 c 1.388,-0.184 2.374,-0.586 2.849,-1.133 l 0.913,-1.279 c 0.329,-0.875 0.512,-2.189 0.548,-3.979 v -57.918 c 0,-2.264 -1.278,-3.652 -3.761,-4.2 z m 19.72,0.986 -0.256,1.461 v 64.307 c 0,0.73 0.146,1.24 0.438,1.424 l 1.461,0.219 h 4.82 l 11.174,-0.402 c 2.994,-0.328 5.55,-0.803 7.559,-1.461 1.997508,-0.72865 3.8698,-1.76297 5.55,-3.066 1.461,-1.205 2.958,-2.922 4.602,-5.113 2.738,-3.578 4.71,-8.143 5.915,-13.73 0.73,-3.65 1.096,-7.193 1.096,-10.589 0,-2.994 -0.438,-6.208 -1.351,-9.677 -1.278,-5.003 -3.214,-9.385 -5.953,-13.11 -5.295,-7.23 -13.986,-10.809 -26,-10.809 h -7.413 c -0.839,-0.075 -1.387,0.108 -1.642,0.546 z m 148.332005,43.09 c -1.789,1.863 -2.994,4.053 -3.652,6.682 v 15.521 c 0,1.387 0.475,2.373 1.461,2.994 l 2.229,0.4 2.336,0.256 c 0.549,0.074 0.768,0.184 0.768,0.475 l -0.109,0.256 -0.621,0.184 h -19.537 c -0.584,0 -0.912,-0.184 -0.912,-0.475 l 0.547,-0.439 3.287,-0.256 c 1.277,-0.219 2.082,-0.656 2.52,-1.314 l 0.549,-1.643 v -21.91 l -0.367,-1.607 -0.619,-0.365 c -0.184,-0.182 -0.475,-0.291 -0.914,-0.365 -0.547,-0.035 -1.205,0.074 -1.898,0.365 l -1.861,0.512 -1.061,-0.256 c -0.182,-0.256 -0.109,-0.438 0.146,-0.547 l 1.57,-0.658 c 3.578,-1.059 6.463,-2.154 8.473,-3.285 l 2.482,-1.352 1.096,0.072 0.438,0.914 v 8.033 c 2.74,-4.455 4.93,-7.193 6.428,-8.107 0.912,-0.547 1.789,-0.986 2.447,-1.168 l 1.277,-0.109 c 0.803,-0.074 1.717,0.182 2.738,0.84 1.389,0.803 2.119,2.008 2.191,3.541 0.074,1.279 -0.293,2.266 -1.096,3.031 -0.73,0.621 -1.461,0.805 -2.117,0.621 -0.621,-0.109 -1.096,-0.365 -1.424,-0.73 l -1.023,-1.277 c -0.803,-1.17 -1.57,-1.535 -2.482,-1.205 -1.063,0.289 -2.157,1.094 -3.29,2.371 z"
       id="path4"
       sodipodi:nodetypes="ccccsscscccssscccccsccccsccccccccsccsccccsccccccscccccccccccccccccccccccccccccc" />
  </g>
</svg>
