<?xml version="1.0" encoding="UTF-8" standalone="no"?>
<svg
   width="2500"
   height="500"
   viewBox="0 0 192.744 38.5488"
   version="1.1"
   id="svg10"
   sodipodi:docname="sony-2.svg"
   inkscape:version="1.2.2 (732a01da63, 2022-12-09)"
   xmlns:inkscape="http://www.inkscape.org/namespaces/inkscape"
   xmlns:sodipodi="http://sodipodi.sourceforge.net/DTD/sodipodi-0.dtd"
   xmlns="http://www.w3.org/2000/svg"
   xmlns:svg="http://www.w3.org/2000/svg">
  <defs
     id="defs14" />
  <sodipodi:namedview
     id="namedview12"
     pagecolor="#ffffff"
     bordercolor="#000000"
     borderopacity="0.25"
     inkscape:showpageshadow="2"
     inkscape:pageopacity="0.0"
     inkscape:pagecheckerboard="0"
     inkscape:deskcolor="#d1d1d1"
     showgrid="false"
     inkscape:zoom="0.3316"
     inkscape:cx="1082.6297"
     inkscape:cy="765.98311"
     inkscape:window-width="1536"
     inkscape:window-height="841"
     inkscape:window-x="-8"
     inkscape:window-y="-8"
     inkscape:window-maximized="1"
     inkscape:current-layer="g8" />
  <g
     fill-rule="evenodd"
     clip-rule="evenodd"
     id="g8">
    <path
       d="m 171.48252,16.638905 5.83,-6.225 c 0.338,-0.4570002 0.506,-0.7770002 0.506,-1.0510002 0,-0.457 -0.393,-0.64 -1.629,-0.64 h -1.471 v -3.93 h 15.922 v 3.93 h -2.092 c -2.416,0 -2.865,0.365 -6.236,4.6150002 l -9.223,9.96 v 6.078 c 0,1.555 0.785,2.102 3.033,2.102 h 3.482 v 3.792 h -22.301 v -3.792 h 3.482 c 2.246,0 3.033,-0.547 3.033,-2.102 v -6.078 l -10.863,-12.017 c -1.795,-2.1010002 -1.547,-2.5580002 -6.545,-2.5580002 v -3.93 h 20.168 v 3.93 h -1.436 c -1.461,0 -2.08,0.274 -2.08,0.822 0,0.4580002 0.449,0.8230002 0.73,1.1880002 l 5.496,5.99 c 0.653,0.679 1.45,0.767 2.194,-0.084 z M 36.165508,4.7919048 h 4.865 V 15.757905 h -4.493 c -0.398,-2.192 -1.77,-3.045 -3.021,-4.195 -2.257,-2.0740002 -7.145,-3.8010002 -11.256,-3.8010002 -5.306,0 -9.784,1.646 -9.784,4.0660002 0,6.718 30.345,1.372 30.345,14.074 0,6.625 -6.5,10.326 -18.173,10.326 -4.041,0 -10.156,-1.254 -13.763999,-3.17 -1.131,-0.653 -1.611,0.618 -1.823,2.211 h -4.988 v -11.332 h 4.512 c 0.995,2.879 2.366,3.472 3.626999,4.615 2.188,2.011 7.396,3.474 12.172,3.427 7.201,-0.071 9.677,-1.645 9.677,-3.93 0,-2.284 -2.449,-2.833 -10.34,-4.066 l -6.7,-1.097 c -7.560999,-1.143 -13.065999,-2.833 -13.065999,-8.864 0,-6.2600002 6.964,-10.1900002 17.974999,-10.1900002 4.64,0 8.522,0.62 12.248,2.726 1.032,0.671 2,0.751 1.987,-1.766 z"
       id="path6"
       sodipodi:nodetypes="ccssccccsccssccccssccccccssccccccccsssscccccccsccsscc" />
  </g>
</svg>
