<?xml version="1.0" encoding="UTF-8" standalone="no"?>
<svg
   width="2500"
   height="686"
   viewBox="-38.331 -38.266 1007.422 276.291"
   version="1.1"
   id="svg12"
   sodipodi:docname="china-telecom.svg"
   inkscape:version="1.2.2 (732a01da63, 2022-12-09)"
   xmlns:inkscape="http://www.inkscape.org/namespaces/inkscape"
   xmlns:sodipodi="http://sodipodi.sourceforge.net/DTD/sodipodi-0.dtd"
   xmlns="http://www.w3.org/2000/svg"
   xmlns:svg="http://www.w3.org/2000/svg">
  <defs
     id="defs16" />
  <sodipodi:namedview
     id="namedview14"
     pagecolor="#ffffff"
     bordercolor="#000000"
     borderopacity="0.25"
     inkscape:showpageshadow="2"
     inkscape:pageopacity="0.0"
     inkscape:pagecheckerboard="0"
     inkscape:deskcolor="#d1d1d1"
     showgrid="false"
     inkscape:zoom="0.5028"
     inkscape:cx="1422.0366"
     inkscape:cy="342.08433"
     inkscape:window-width="1536"
     inkscape:window-height="841"
     inkscape:window-x="-8"
     inkscape:window-y="-8"
     inkscape:window-maximized="1"
     inkscape:current-layer="svg12" />
  <path
     d="M141.992 8.139s-4.978-5.512-11.557-5.512c0 0-14.401 0-24.18 31.114 0 0-8.356 27.203-8.356 67.562 0 0 0 38.048 7.823 64.895 0 0 7.823 27.202 19.201 27.202 0 0 8.001 0 14.757-14.935 0 0 6.757-14.935 9.602-39.292l21.335-5.334s-5.512 45.337-22.58 74.673c0 0-17.602 29.514-39.825 29.514 0 0-26.669 0-45.516-40.004 0 0-18.846-40.003-18.846-96.719 0 0 0-56.716 18.846-97.075 0 0 18.847-40.181 45.516-40.181 0 0 26.669 0 45.692 40.892l-11.912 3.2"
     fill="#02489d"
     id="path2" />
  <path
     d="m 217.021,62.721 c 0,0 -36.804,30.403 -95.476,45.16 0,0 -58.85,14.579 -105.609,4.978 0,0 -46.76,-9.957 -53.693,-38.581 0,0 -5.867,-23.824 19.913,-50.138 0,0 25.424,-26.136 71.117,-43.56 l 3.022,11.734 c 0,0 -26.669,11.379 -41.426,25.78 0,0 -15.112,15.112 -11.734,28.091 0,0 4.444,16.535 35.736,21.513 0,0 31.114,4.8 71.473,-5.156 0,0 40.004,-9.957 65.606,-28.98 0,0 25.246,-19.202 20.979,-35.914 0,0 -3.556,-14.401 -29.158,-20.625 l -3.911,-15.29 c 0,0 33.247,1.245 55.294,12.268 0,0 22.579,11.023 27.202,29.692 0.001,10e-4 7.29,28.448 -29.335,59.028"
     fill="#02489d"
     id="path4"
     sodipodi:nodetypes="cccccccccccccccccc" />
  <path
     d="m 331.343,194.467 c 0,0 -4.268,4.267 -4.268,12.623 v 0.533 c 0,0 0,8.712 3.912,12.979 0,0 4.622,4.09 11.379,4.09 l 8.355,-0.889 5.334,-1.245 v 7.112 l -5.334,1.6 -9.245,0.533 c 0,0 -13.156,0 -21.513,-5.867 0,0 -8.001,-5.867 -8.001,-17.424 v -2.133 c 0,0 0,-10.846 8.356,-17.246 0,0 8.356,-6.756 20.979,-6.756 l 9.067,0.533 5.689,1.422 v 7.467 l -5.156,-1.244 -7.289,-0.533 c 0.002,-0.001 -7.821,-0.001 -12.265,4.445"
     fill="#02489d"
     id="path8"
     sodipodi:nodetypes="cscccccccccsccccccccc" />
  <path
     d="m 590.21,183.266 h 43.026 V 190.2 H 619.19 v 40.893 H 604.611 V 190.2 H 590.21 v -6.934 m 126.055,-191.129 -0.533,5.867 c 0,0 -3.022,4.8 -3.733,7.29 0,0 -2.489,19.024 -4.089,20.979 l -3.023,2.667 -3.378,1.6 -3.733,2.489 -9.245,6.578 -0.178,0.355 3.733,0.534 2.134,2.311 4.267,-1.244 4.623,-0.534 0.178,3.556 0.889,1.244 -3.022,4.801 c 0,0 0,4.089 -14.401,13.69 0,0 -0.533,-1.6 0,-7.112 l 1.066,-7.29 -0.355,-3.022 -2.133,-3.734 c 0,0 -2.489,-3.2 -2.667,-4.623 0,0 -3.022,-0.533 -3.2,-3.2 l -1.601,-3.2 c 0,0 -0.533,0 -1.422,3.2 l -1.601,3.734 -0.533,1.956 -0.533,0.178 c 0,0 0,1.6 -2.134,4.445 l -2.134,3.734 c 0,0 -0.533,2.311 0,12.801 l -0.889,10.49 -1.6,10.312 -2.134,6.934 c 0,0 -1.601,3.556 0,7.468 0,0 0.889,1.6 4.267,3.556 0,0 3.378,1.6 5.156,1.956 l 2.134,2.312 c 0,0 1.066,2.667 1.955,3.022 l 5.334,3.734 5.156,0.889 4.267,1.6 3.023,12.268 c 0,0 2.666,10.49 6.045,11.557 h 0.355 c 0,0 0.178,1.066 2.133,2.489 l 2.667,1.6 c 0,0 4.801,3.2 8.534,4.267 l 9.424,1.423 8.178,0.178 9.424,0.889 c 0,0 8,-0.889 8.889,-2.489 l 8.179,-1.067 c 0,0 8.89,-2.133 8.356,-3.022 l 1.066,-0.178 16.002,-4.089 3.911,-1.601 h -0.711 l 0.711,-1.6 h 0.534 l -0.179,-1.067 h 0.534 l 0.533,0.534 0.178,-0.534 -0.178,-0.533 0.711,-1.066 -0.711,0.178 1.244,-2.312 1.956,-1.956 h 0.178 v 1.066 l 1.422,-1.778 h 0.356 v 0.178 l -0.712,0.534 0.355,0.533 c 0,0 -0.355,0.533 0.356,0.355 l 0.178,-1.067 0.889,-0.533 0.178,0.178 0.889,-1.066 0.533,-0.178 v -1.601 l -1.066,-0.533 -0.533,0.711 v -1.244 l -0.533,-0.356 v 0.534 l -0.533,-0.178 v -0.889 l -0.712,-0.711 1.245,-0.889 -0.355,-0.533 -1.423,1.422 0.533,-1.778 h 0.89 l 0.355,-0.533 -2.312,-0.178 -0.712,0.533 -0.355,-0.355 0.355,-1.245 -1.6,-0.355 1.066,-0.533 -0.533,-0.534 v -0.533 l 0.711,0.355 v -0.355 l -1.066,-1.067 -0.178,0.355 -0.889,-1.066 -0.178,-0.356 -1.067,0.356 -0.355,-0.534 v 0.711 h 0.89 v 1.6 h -0.355 l -1.067,-2.134 -0.533,-0.178 -0.533,0.178 1.066,-0.711 h 0.355 l -1.956,-0.356 c 0,0 -1.066,0 -1.244,0.889 l -1.955,1.067 -3.023,2.133 -3.2,0.711 -3.2,1.422 -10.49,1.956 -8.889,2.667 -3.201,0.533 -17.246,1.778 -4.444,-1.601 c 0,0 -0.889,0 -1.423,-0.711 l -0.533,-1.956 c 0,0 -3.556,-7.29 -3.021,-9.068 l 4.978,-6.578 2.667,-2.312 c 0,0 1.777,-1.422 4.801,-1.066 l 3.022,-0.534 3.733,-0.533 2.312,-1.422 3.022,-0.533 3.022,-0.711 2.845,-0.711 12.09,-1.6 1.6,-1.245 1.423,-2.134 2.489,-3.556 c 0,0 2.667,-2.134 2.845,-4.267 v -2.667 l 0.889,-3.2 -2.667,-6.223 -2.845,-5.867 5.156,-13.157 0.889,-3.378 c 0,0 0.712,-2.667 1.601,-2.667 l 0.711,-3.733 0.889,-4.089 c 0,0 1.067,-2.311 0.711,-3.733 l -0.533,-3.378 0.533,-2.311 -0.711,-2.667 c 0,0 -1.066,-1.6 -1.066,-2.667 l -2.667,-3.912 -2.134,-6.045 c 0,0 -1.066,-2.667 -5.512,-4.445 l -0.711,0.534 -4.089,-1.6 c 0,0 -2.667,-1.778 -5.156,-1.067 l -5.512,-0.889 -9.778,4.623 -10.668,5.867 h -3.2 l 2.134,-13.69 c 0,0 0.533,-7.29 -7.111,-10.845 l -4.268,-2.134 z m 33.071,32.536 8,1.778 -0.178,1.067 1.601,2.133 v 1.6 c 0,0 0,1.422 -2.134,3.556 h -3.022 c 0,0 -8.356,5.867 -13.335,6.934 l -4.089,0.533 h -1.956 c 0,0 -2.133,0.533 -4.444,0 0,0 -3.378,-0.533 -3.911,-2.312 l 0.533,-3.733 c 0,0 0.889,-2.667 1.6,-3.022 0,0 0,-1.422 2.489,-2.489 l 2.489,-1.067 c 0,0 2.134,-1.066 6.045,-2.133 l 3.022,-1.6 4.089,-1.067 z m 1.599,30.581 0.533,0.533 c 0,0 0.889,0.889 0.355,1.956 l -1.777,8.534 -1.244,2.134 c 0,0 -1.423,1.956 -8.535,5.156 0,0 -7.289,4.8 -11.379,1.778 l -1.422,-3.733 0.889,-2.845 c 0,0 -0.355,-2.489 0.355,-3.912 l 2.312,-2.667 5.867,-3.201 7.646,-2.667 z m -57.783,18.49 3.557,1.422 c 0,0 1.6,1.601 0.533,6.401 l -2.134,6.578 -0.355,1.245 -1.601,2.489 -3.733,0.711 c 0,0 -1.066,0 -4.622,1.956 0,0 -1.601,1.066 -3.557,1.778 l -1.244,1.422 -0.355,-0.355 1.422,-4.445 -0.533,-2.667 0.711,-2.489 0.355,-2.489 2.134,-5.867 0.89,-2.667 h 0.178 c 0,0 1.955,0 4.622,-1.601 l 3.733,-1.066 v -0.356 z"
     fill="#02489d"
     id="path10"
     sodipodi:nodetypes="cccccccccccccccccccccccccccccccccccccccccccccccccccccccccccccccccccccccccccccccccccccccccccccccccccccccccccccccccccccccccccccccccccccccccccccccccccccccccccccccccccccccccccccccccccccccccccccccccccccccccsccccccccccccccccccccccccccccccccccccccccc" />
</svg>
