<?xml version="1.0" encoding="UTF-8" standalone="no"?>
<svg
   width="2000"
   height="2500"
   viewBox="58.14 109.89 457.80083 572.22"
   version="1.1"
   id="svg14"
   sodipodi:docname="rbc-4.svg"
   inkscape:version="1.2.2 (732a01da63, 2022-12-09)"
   xmlns:inkscape="http://www.inkscape.org/namespaces/inkscape"
   xmlns:sodipodi="http://sodipodi.sourceforge.net/DTD/sodipodi-0.dtd"
   xmlns="http://www.w3.org/2000/svg"
   xmlns:svg="http://www.w3.org/2000/svg">
  <defs
     id="defs18" />
  <sodipodi:namedview
     id="namedview16"
     pagecolor="#ffffff"
     bordercolor="#000000"
     borderopacity="0.25"
     inkscape:showpageshadow="2"
     inkscape:pageopacity="0.0"
     inkscape:pagecheckerboard="0"
     inkscape:deskcolor="#d1d1d1"
     showgrid="false"
     inkscape:zoom="0.3316"
     inkscape:cx="919.78287"
     inkscape:cy="765.98311"
     inkscape:window-width="1536"
     inkscape:window-height="841"
     inkscape:window-x="-8"
     inkscape:window-y="-8"
     inkscape:window-maximized="1"
     inkscape:current-layer="svg14" />
  <path
     fill="#3c55a4"
     d="m 492.659,611.73 c 0,19.125 -7.649,29.835 -22.949,35.955 -58.905,22.95 -128.52,34.425 -194.31,34.425 -66.555,0 -136.17,-11.475 -194.31,-34.425 -15.3,-6.12 -22.95,-16.83 -22.95,-35.955 V 109.89 h 435.285 v 501.84 z"
     id="path2" />
  <g
     fill="#fddf00"
     id="g6">
    <path
       d="M 173.655,415.89 C 113.22,378.405 93.33,361.575 91.8,337.095 c 0,-5.355 0.765,-13.771 3.06,-19.125 l -5.354,-3.825 c -4.59,6.885 -7.65,16.83 -7.65,25.245 0,14.534 4.59,25.244 9.945,33.659 8.415,13.006 17.595,21.421 39.015,37.485 23.715,17.596 39.78,38.25 48.96,60.436 h 3.825 v -24.48 c 32.13,18.36 60.436,35.19 74.205,65.79 h 3.061 c -5.357,-32.13 -22.952,-56.609 -87.212,-96.39 z m 277.695,95.625 h -3.825 c 0,-22.186 -20.655,-28.305 -42.075,-28.305 h -67.32 c 2.295,10.71 3.06,23.715 1.529,35.954 h -3.06 c -6.12,-50.489 -34.425,-75.734 -74.97,-102.51 v 22.95 h -3.061 c -10.71,-23.715 -33.659,-45.9 -55.845,-61.965 -6.12,-3.825 -12.24,-8.415 -17.595,-13.006 v 24.48 h -3.061 c -9.18,-24.48 -26.01,-42.84 -50.489,-65.025 -26.011,-23.715 -36.721,-37.484 -42.84,-53.55 -3.825,-9.944 -4.591,-17.595 -4.591,-28.305 0,-19.125 9.181,-36.72 21.42,-42.84 v 9.18 c -6.119,7.65 -9.18,18.36 -9.18,28.305 0,9.181 2.295,19.891 6.885,29.07 14.535,28.305 64.261,62.73 95.625,83.385 97.92,65.79 117.811,77.266 133.875,111.69 1.53,3.825 3.825,9.18 5.355,15.3 13.77,-2.295 65.79,-9.944 74.97,-11.475 1.53,0 5.354,-0.765 7.65,-0.765 9.18,-5.355 16.064,-13.006 22.185,-21.421 l -37.485,-3.06 -5.354,10.71 h -3.061 c 0.766,-3.825 2.295,-7.65 2.295,-11.475 l -9.944,-0.766 v -2.295 l 10.71,-1.53 c 2.295,-10.71 3.06,-20.654 3.06,-29.835 l -47.43,-2.295 v 13.771 h -3.061 c -0.765,-4.591 -1.529,-9.181 -2.295,-13.771 l -10.71,-0.765 v -3.061 l 9.945,-0.765 c -1.53,-12.24 -1.53,-24.48 -0.765,-34.425 l -27.54,-1.53 c 1.529,2.295 2.295,4.59 3.825,7.65 6.119,16.83 4.59,35.955 2.295,45.135 h -3.061 c -0.765,-10.71 -3.825,-22.95 -7.649,-30.601 -7.65,-18.359 -24.48,-33.659 -53.55,-52.784 v 22.949 H 260.1 c -9.945,-30.6 -33.66,-47.43 -68.85,-65.024 -29.07,-15.3 -38.25,-32.896 -36.721,-61.2 l 9.945,6.12 c 2.295,26.01 22.95,41.31 43.605,41.31 12.239,0 23.715,-1.529 35.189,-3.824 16.065,-3.061 31.365,-6.12 43.605,-1.53 v -15.3 h -9.945 c -3.825,3.06 -10.71,6.885 -21.42,6.885 -11.475,0 -33.66,-6.12 -33.66,-30.6 0,-21.421 17.595,-24.48 32.13,-24.48 7.65,0 20.655,0 25.245,-0.765 3.061,0 5.355,-0.766 7.65,-2.295 1.529,-1.53 2.295,-3.061 2.295,-5.355 0.765,-2.295 0.765,-5.354 0.765,-9.945 v -15.3 h -67.32 v 26.775 l -25.244,-9.945 v -6.12 h 12.239 v -10.71 H 163.71 v -22.185 h -15.3 c -8.415,0 -17.596,6.12 -18.36,16.83 -0.764,10.71 4.59,19.89 15.3,19.89 v 13.005 h -2.295 c -19.89,0 -34.425,-14.535 -34.425,-34.425 0,-19.89 17.595,-35.955 38.25,-35.955 h 32.895 v 22.185 h 128.521 v 32.896 c 0,5.354 0,13.005 -0.766,17.595 0,3.061 -1.529,9.945 -8.415,14.535 -3.824,3.06 -9.944,3.825 -19.124,4.59 -3.061,0 -12.24,0 -22.95,-0.765 -14.535,-0.766 -19.125,4.59 -19.125,9.945 v 3.06 c 6.885,-5.355 16.83,-9.18 27.54,-5.355 19.125,6.12 24.479,6.886 35.189,-1.529 l 0.765,2.295 c -0.765,1.53 -3.06,3.825 -6.119,6.12 h 9.18 v 50.489 l 29.069,-17.595 h 81.855 c 0,0 34.425,18.36 40.545,20.655 5.355,2.295 6.885,6.12 7.65,10.71 0.765,3.825 0,9.18 -2.295,12.24 -1.53,2.295 -10.71,17.595 -15.301,25.245 13.771,15.3 22.95,35.954 22.95,59.67 0,21.42 -7.649,48.195 -33.66,68.85 11.476,3.825 18.36,9.945 23.715,17.596 z M 269.28,239.175 c -11.475,-2.295 -17.595,-0.765 -24.479,5.355 3.06,1.53 6.885,2.295 11.475,2.295 6.884,-0.765 10.709,-4.59 13.004,-7.65 z m -6.885,72.675 32.13,-19.125 c -6.12,-3.061 -13.005,-5.355 -21.42,-5.355 -11.475,0 -29.835,4.59 -39.015,6.12 4.59,3.06 19.125,12.24 28.305,18.36 z m 144.585,2.295 4.59,-6.12 -6.885,-9.18 0.765,-2.296 19.125,10.711 -3.824,13.005 c 3.06,1.529 6.119,3.06 9.944,6.12 L 442.935,305.73 410.039,288.9 H 338.13 l -58.14,35.19 c 10.711,7.65 21.42,16.065 28.306,24.48 15.3,-22.95 43.604,-37.485 70.38,-37.485 9.179,-0.765 19.889,0 28.304,3.06 z M 400.86,396 c 0,-10.71 -1.53,-20.654 -3.825,-29.069 l -38.25,-1.53 c -2.295,11.475 -4.59,22.95 -5.354,33.66 z m 13.005,-28.305 c 1.53,9.945 1.53,19.125 0.766,27.54 l 37.484,-2.295 c -0.765,-8.415 -3.06,-16.83 -6.885,-24.48 z m -19.125,-12.24 c -3.825,-13.77 -8.415,-22.95 -11.475,-27.54 h -4.59 c -2.295,0 -5.355,0 -7.65,0.766 -3.825,9.18 -6.885,19.125 -9.18,29.069 z m 10.709,-22.95 c 3.061,7.65 4.59,14.535 6.12,22.186 l 22.95,-1.53 c -7.65,-9.181 -17.594,-16.831 -29.07,-20.656 z m 42.076,97.155 c 3.061,-6.885 4.59,-13.005 4.59,-20.655 L 413.1,406.71 c -1.53,10.71 -4.59,20.655 -7.65,28.306 z m -97.156,-95.625 c -13.005,6.12 -22.185,13.771 -30.6,25.245 l 26.775,-1.53 c 1.53,-12.24 3.061,-19.89 3.825,-23.715 z"
       id="path4" />
  </g>
  <g
     fill="#ffffff"
     id="g10">
    <path
       d="M 182.835,630.855 H 214.2 L 173.655,579.6 c 16.065,-4.59 28.306,-13.005 28.306,-29.07 0,-18.359 -11.476,-28.305 -40.545,-28.305 H 100.98 v 0.765 c 2.295,0.766 4.59,2.295 6.12,3.825 4.59,3.825 5.355,10.71 5.355,19.125 v 84.15 H 137.7 v -48.195 h 9.18 z m -44.37,-98.684 h 16.83 c 13.77,0 21.42,3.824 21.42,19.125 0,13.005 -9.945,21.42 -25.245,21.42 h -13.005 z"
       id="path8"
       sodipodi:nodetypes="cccsscccsccccccssscc" />
  </g>
</svg>
