<?xml version="1.0" encoding="UTF-8" standalone="no"?>
<!-- Generator: Adobe Illustrator 19.2.1, SVG Export Plug-In . SVG Version: 6.00 Build 0)  -->

<svg
   version="1.1"
   id="Layer_1"
   x="0px"
   y="0px"
   viewBox="0 0 2500 600"
   xml:space="preserve"
   sodipodi:docname="zara.svg"
   width="2500"
   height="600"
   inkscape:version="1.2.2 (732a01da63, 2022-12-09)"
   xmlns:inkscape="http://www.inkscape.org/namespaces/inkscape"
   xmlns:sodipodi="http://sodipodi.sourceforge.net/DTD/sodipodi-0.dtd"
   xmlns="http://www.w3.org/2000/svg"
   xmlns:svg="http://www.w3.org/2000/svg"><defs
   id="defs17" /><sodipodi:namedview
   id="namedview15"
   pagecolor="#ffffff"
   bordercolor="#000000"
   borderopacity="0.25"
   inkscape:showpageshadow="2"
   inkscape:pageopacity="0.0"
   inkscape:pagecheckerboard="0"
   inkscape:deskcolor="#d1d1d1"
   showgrid="false"
   inkscape:zoom="0.5028"
   inkscape:cx="896.97693"
   inkscape:cy="292.36277"
   inkscape:window-width="1536"
   inkscape:window-height="841"
   inkscape:window-x="-8"
   inkscape:window-y="-8"
   inkscape:window-maximized="1"
   inkscape:current-layer="Layer_1" />
<path
   d="m 508.9,501.4 c 0,39.3 -32.8,71.2 -57.5,71.2 H 172.1 L 523.4,11.4 H 53.7 v 93 H 77.8 C 77.8,65.1 103.2,33.3 128,33.3 H 369.3 L 15.9,594.4 h 509.6 v -93 h -16.6"
   id="path2" />

<path
   d="m 1226,33.9 c 40.4,0 73.8,10.4 73.8,23 0,100 -0.2,491.5 0,491.5 0,13.4 -32.9,28.3 -73.4,28.3 l -0.1,17.6 h 270.2 v -16.4 c -40.1,0 -72.6,-16 -72.6,-29.4 V 29 h 77.9 c 75,0 135.8,62.3 135.8,133 0,70.7 -60.8,128.1 -135.9,128.1 h -53.9 c 0,0 182.6,276.5 182.9,276.5 7.2,10.5 10.8,27.8 10.8,27.8 h 196.9 V 578 c -37.9,0 -57.7,-15.7 -68.7,-29.5 L 1593.9,319.1 c 84.4,-5.6 149.7,-73.8 149.7,-154.8 0,-84.6 -72.7,-152.9 -162.4,-152.9 H 1226 v 22.5"
   id="path10" />

</svg>
