<?xml version="1.0" encoding="UTF-8" standalone="no"?>
<svg
   height="2500"
   width="2083"
   viewBox="0 0 82.4 98.89999999999999"
   version="1.1"
   id="svg127"
   sodipodi:docname="aldi-sued-2017-logo.svg"
   inkscape:version="1.2.2 (732a01da63, 2022-12-09)"
   xmlns:inkscape="http://www.inkscape.org/namespaces/inkscape"
   xmlns:sodipodi="http://sodipodi.sourceforge.net/DTD/sodipodi-0.dtd"
   xmlns:xlink="http://www.w3.org/1999/xlink"
   xmlns="http://www.w3.org/2000/svg"
   xmlns:svg="http://www.w3.org/2000/svg">
  <defs
     id="defs131" />
  <sodipodi:namedview
     id="namedview129"
     pagecolor="#ffffff"
     bordercolor="#000000"
     borderopacity="0.25"
     inkscape:showpageshadow="2"
     inkscape:pageopacity="0.0"
     inkscape:pagecheckerboard="0"
     inkscape:deskcolor="#d1d1d1"
     showgrid="false"
     inkscape:zoom="0.3316"
     inkscape:cx="874.54765"
     inkscape:cy="1248.4922"
     inkscape:window-width="1536"
     inkscape:window-height="841"
     inkscape:window-x="-8"
     inkscape:window-y="-8"
     inkscape:window-maximized="1"
     inkscape:current-layer="svg127" />
  <linearGradient
     id="g"
     gradientTransform="matrix(1 0 0 -1 0 102)"
     gradientUnits="userSpaceOnUse"
     x1="43.802"
     x2="65.716"
     y1="50.357"
     y2="59.434">
    <stop
       offset="0"
       stop-color="#73cdf3"
       id="stop2" />
    <stop
       offset=".115"
       stop-color="#62c8f1"
       id="stop4" />
    <stop
       offset=".242"
       stop-color="#58c4f0"
       id="stop6" />
    <stop
       offset=".4"
       stop-color="#55c3f0"
       id="stop8" />
    <stop
       offset=".497"
       stop-color="#67caf2"
       id="stop10" />
    <stop
       offset=".692"
       stop-color="#97daf6"
       id="stop12" />
    <stop
       offset=".81"
       stop-color="#b7e5f9"
       id="stop14" />
    <stop
       offset=".832"
       stop-color="#aee0f5"
       id="stop16" />
    <stop
       offset=".869"
       stop-color="#95d1ea"
       id="stop18" />
    <stop
       offset=".915"
       stop-color="#6eb9d8"
       id="stop20" />
    <stop
       offset=".969"
       stop-color="#3798bf"
       id="stop22" />
    <stop
       offset="1"
       stop-color="#1482af"
       id="stop24" />
  </linearGradient>
  <linearGradient
     id="f"
     gradientTransform="matrix(1 0 0 -1 0 102)"
     gradientUnits="userSpaceOnUse"
     x1="46.29"
     x2="62.799"
     y1="59.992"
     y2="66.83">
    <stop
       offset=".3"
       stop-color="#55c3f0"
       id="stop27" />
    <stop
       offset=".409"
       stop-color="#67caf2"
       id="stop29" />
    <stop
       offset=".628"
       stop-color="#97daf6"
       id="stop31" />
    <stop
       offset=".76"
       stop-color="#b7e5f9"
       id="stop33" />
    <stop
       offset=".788"
       stop-color="#aee0f5"
       id="stop35" />
    <stop
       offset=".835"
       stop-color="#95d1ea"
       id="stop37" />
    <stop
       offset=".893"
       stop-color="#6eb9d8"
       id="stop39" />
    <stop
       offset=".961"
       stop-color="#3798bf"
       id="stop41" />
    <stop
       offset="1"
       stop-color="#1482af"
       id="stop43" />
  </linearGradient>
  <linearGradient
     id="e"
     gradientTransform="matrix(1 0 0 -1 0 102)"
     gradientUnits="userSpaceOnUse"
     x1="48.677"
     x2="59.743"
     y1="69.646"
     y2="74.23">
    <stop
       offset=".2"
       stop-color="#55c3f0"
       id="stop46" />
    <stop
       offset=".316"
       stop-color="#67caf2"
       id="stop48" />
    <stop
       offset=".549"
       stop-color="#97daf6"
       id="stop50" />
    <stop
       offset=".69"
       stop-color="#b7e5f9"
       id="stop52" />
    <stop
       offset=".727"
       stop-color="#aee0f5"
       id="stop54" />
    <stop
       offset=".786"
       stop-color="#95d1ea"
       id="stop56" />
    <stop
       offset=".862"
       stop-color="#6eb9d8"
       id="stop58" />
    <stop
       offset=".949"
       stop-color="#3798bf"
       id="stop60" />
    <stop
       offset="1"
       stop-color="#1482af"
       id="stop62" />
  </linearGradient>
  <linearGradient
     id="a">
    <stop
       offset="0"
       stop-color="#1482af"
       id="stop65" />
    <stop
       offset=".02"
       stop-color="#3798bf"
       id="stop67" />
    <stop
       offset=".054"
       stop-color="#6eb9d8"
       id="stop69" />
    <stop
       offset=".083"
       stop-color="#95d1ea"
       id="stop71" />
    <stop
       offset=".106"
       stop-color="#aee0f5"
       id="stop73" />
    <stop
       offset=".12"
       stop-color="#b7e5f9"
       id="stop75" />
    <stop
       offset=".2"
       stop-color="#97daf6"
       id="stop77" />
    <stop
       offset=".334"
       stop-color="#67caf2"
       id="stop79" />
    <stop
       offset=".4"
       stop-color="#55c3f0"
       id="stop81" />
    <stop
       offset=".6"
       stop-color="#55c3f0"
       id="stop83" />
    <stop
       offset=".666"
       stop-color="#67caf2"
       id="stop85" />
    <stop
       offset=".8"
       stop-color="#97daf6"
       id="stop87" />
    <stop
       offset=".88"
       stop-color="#b7e5f9"
       id="stop89" />
    <stop
       offset=".894"
       stop-color="#aee0f5"
       id="stop91" />
    <stop
       offset=".917"
       stop-color="#95d1ea"
       id="stop93" />
    <stop
       offset=".947"
       stop-color="#6eb9d8"
       id="stop95" />
    <stop
       offset=".98"
       stop-color="#3798bf"
       id="stop97" />
    <stop
       offset="1"
       stop-color="#1482af"
       id="stop99" />
  </linearGradient>
  <linearGradient
     id="d"
     gradientTransform="matrix(1 0 0 -1 0 102)"
     gradientUnits="userSpaceOnUse"
     x1="25.1"
     x2="25.1"
     xlink:href="#a"
     y1="49.1"
     y2="87.1" />
  <linearGradient
     id="c"
     gradientTransform="matrix(1 0 0 -1 0 102)"
     gradientUnits="userSpaceOnUse"
     x1="42.1"
     x2="42.1"
     xlink:href="#a"
     y1="49.3"
     y2="87.2" />
  <linearGradient
     id="b"
     gradientTransform="matrix(1 0 0 -1 0 102)"
     gradientUnits="userSpaceOnUse"
     x1="33.1"
     x2="33.1"
     xlink:href="#a"
     y1="49.2"
     y2="87.139" />
  <path
     d="M82.4 95.6c0 1.8-1.5 3.3-3.3 3.3H3.3c-1.8 0-3.3-1.5-3.3-3.3V3.3C0 1.5 1.5 0 3.3 0h75.8c1.8 0 3.3 1.5 3.3 3.3z"
     fill="#ffc800"
     id="path105" />
  <path
     d="M78.4 92.8c0 1.2-1 2.2-2.2 2.2h-70C5 95 4 94 4 92.8V6.1c0-1.2 1-2.2 2.2-2.2h70.1c1.2 0 2.2 1 2.2 2.2z"
     fill="#ff7800"
     id="path107" />
  <path
     d="M75.5 90.5c0 .9-.7 1.6-1.6 1.6H8.5c-.9 0-1.6-.7-1.6-1.6V8.3c0-.9.7-1.6 1.6-1.6h65.4c.9 0 1.6.7 1.6 1.6z"
     fill="#d70000"
     id="path109" />
  <path
     d="M73.2 88.6c0 .7-.6 1.2-1.2 1.2H10.5c-.7 0-1.2-.6-1.2-1.2V10.2c0-.7.6-1.2 1.2-1.2H72c.7 0 1.2.6 1.2 1.2z"
     fill="#00005f"
     id="path111" />
  <path
     d="M 26.2,72.4 C 26,71.6 25.7,70.2 25.5,69.6 H 20 c -0.2,0.6 -0.5,2 -0.7,2.8 h -4.9 c 2.1,-6.6 3,-9.3 5.4,-15.2 h 6 c 2.3,5.8 3.3,8.6 5.4,15.2 z m -5.5,-6 h 4.1 c -0.6,-2 -1.7,-5.4 -2,-6.4 -0.4,0.9 -1.5,4.3 -2.1,6.4 z"
     fill="#ffffff"
     id="path113"
     sodipodi:nodetypes="ccccccccccccc" />
  <path
     d="M39.4 14.4c-2.8 0-4 2-5.1 5.1l-9.6 28.6c-.8 2.5-1.9 3.9-3.7 4.1v.2h5c2.8 0 4-2 5.1-5.1l9.7-28.5c.8-2.5 2-3.9 3.8-4.1v-.2c-.9-.1-5-.1-5.2-.1z"
     fill="url(#b)"
     id="path115" />
  <path
     d="M48.5 14.4c-2.8 0-4 2-5.1 5.1L33.7 48c-.8 2.5-1.9 3.9-3.7 4.1v.2h5c2.8 0 4-2 5.1-5.1l9.7-28.5c.8-2.5 2-3.9 3.8-4.1v-.2z"
     fill="url(#c)"
     id="path117" />
  <path
     d="M30.3 14.5c-2.8 0-4 2-5.1 5.1L14.1 52.5h2.8c2.8 0 4-2 5.1-5.1l9.7-28.6c.8-2.5 2-3.9 3.8-4.1v-.2z"
     fill="url(#d)"
     id="path119" />
  <path
     d="M59.3 27.7c-1.1-2.2-2.2-2.4-4.2-2.4H50l-2 5.9h9.9c1.4 0 2.6.2 3.4 1.3h.2c0-.1-2-4.2-2.2-4.8z"
     fill="url(#e)"
     id="path121" />
  <path
     d="M62.9 36.2c-1-2.1-2.2-2.4-4.2-2.4H47.2l-2 5.9h16.3c1.5 0 2.6.2 3.4 1.3h.2s-2-4.3-2.2-4.8z"
     fill="url(#f)"
     id="path123" />
  <path
     d="M66.6 45c-1-2.3-2.3-2.7-4.3-2.7h-18l-1.7 4.9c-.1.4-.2.7-.4 1H65c1.3 0 2.4.2 3.3 1.3h.2c0 .1-1.8-4.2-1.9-4.5z"
     fill="url(#g)"
     id="path125" />
</svg>
