<?xml version="1.0" encoding="UTF-8"?>
<!DOCTYPE svg PUBLIC "-//W3C//DTD SVG 1.1//EN" "http://www.w3.org/Graphics/SVG/1.1/DTD/svg11.dtd">
<svg xmlns="http://www.w3.org/2000/svg" version="1.1" width="811px" height="1536px" style="shape-rendering:geometricPrecision; text-rendering:geometricPrecision; image-rendering:optimizeQuality; fill-rule:evenodd; clip-rule:evenodd" xmlns:xlink="http://www.w3.org/1999/xlink">
<g><path style="opacity:0.997" fill="#43b7f2" d="M 403.5,-0.5 C 404.167,-0.5 404.833,-0.5 405.5,-0.5C 539.799,134.299 674.299,268.965 809,403.5C 809.667,404.167 809.667,404.833 809,405.5C 772.473,442.027 735.973,478.527 699.5,515C 698.833,515.667 698.167,515.667 697.5,515C 599.986,417.32 502.32,319.82 404.5,222.5C 306.5,320.167 208.5,417.833 110.5,515.5C 73.2227,478.447 36.2227,441.447 -0.5,404.5C -0.5,404.167 -0.5,403.833 -0.5,403.5C 134.5,269.167 269.167,134.5 403.5,-0.5 Z"/></g>
<g><path style="opacity:0.997" fill="#1a3673" d="M 706.5,1535.5 C 508.5,1535.5 310.5,1535.5 112.5,1535.5C 112.5,1229.83 112.5,924.167 112.5,618.5C 310.5,618.5 508.5,618.5 706.5,618.5C 706.5,674.5 706.5,730.5 706.5,786.5C 568.5,786.5 430.5,786.5 292.5,786.5C 291.627,851.479 291.294,918.813 291.5,988.5C 410.833,988.5 530.167,988.5 649.5,988.5C 649.5,1045.17 649.5,1101.83 649.5,1158.5C 530.5,1158.5 411.5,1158.5 292.5,1158.5C 291.616,1225.19 291.282,1294.53 291.5,1366.5C 429.833,1366.5 568.167,1366.5 706.5,1366.5C 706.5,1422.83 706.5,1479.17 706.5,1535.5 Z"/></g>
</svg>
