<?xml version="1.0" encoding="UTF-8" standalone="no"?>
<svg
   width="2500"
   height="963"
   viewBox="6.91 5.894 450.912 173.635"
   version="1.1"
   id="svg8"
   sodipodi:docname="sk-group-1.svg"
   inkscape:version="1.2.2 (732a01da63, 2022-12-09)"
   xmlns:inkscape="http://www.inkscape.org/namespaces/inkscape"
   xmlns:sodipodi="http://sodipodi.sourceforge.net/DTD/sodipodi-0.dtd"
   xmlns="http://www.w3.org/2000/svg"
   xmlns:svg="http://www.w3.org/2000/svg">
  <defs
     id="defs12" />
  <sodipodi:namedview
     id="namedview10"
     pagecolor="#ffffff"
     bordercolor="#000000"
     borderopacity="0.25"
     inkscape:showpageshadow="2"
     inkscape:pageopacity="0.0"
     inkscape:pagecheckerboard="0"
     inkscape:deskcolor="#d1d1d1"
     showgrid="false"
     inkscape:zoom="0.5028"
     inkscape:cx="566.82578"
     inkscape:cy="481.30469"
     inkscape:window-width="1536"
     inkscape:window-height="841"
     inkscape:window-x="-8"
     inkscape:window-y="-8"
     inkscape:window-maximized="1"
     inkscape:current-layer="svg8" />
  <path
     fill="#F57F26"
     d="M444.321 136.979c-8.83 0-13.335 5.826-14.04 6.709-2.299-4.234-6.356-6.709-11.739-6.709-7.766 0-12.183 4.504-12.896 5.297-.344-1.235-1.938-4.502-6.972-4.502-1.409 0-3.529.443-3.706.443.177.969 1.147 5.559 1.147 11.914v27.896h10.242v-28.426c.171-.177 3.978-4.062 8.56-4.062 4.686 0 6.892 3.444 6.892 8.122v24.365h10.237V149.6c.267-.263 3.973-4.063 8.65-4.063 4.679 0 6.795 3.443 6.795 8.122v24.364h10.331V152.07c.001-9.175-5.206-15.091-13.501-15.091m-112.026 33.634c-6.976 0-11.914-5.475-11.914-12.625 0-7.945 5.645-12.709 11.914-12.709 3.354 0 4.767.972 6.978.972 2.379 0 3.703-1.153 4.853-3.446.704-1.229 1.063-2.031 1.063-2.031-.534-.267-5.65-3.797-14.48-3.797-12.892 0-20.567 9.273-20.567 21.012 0 12.89 8.831 20.918 20.567 20.918 8.566 0 13.683-3.438 14.651-4.145l-3.53-6.972c-.794.526-4.507 2.823-9.535 2.823zm-112.109-33.634c-9.799 0-18.01 7.946-18.01 21.012 0 13.332 8.036 20.918 19.954 20.918 9.531 0 14.472-4.145 15.092-4.502 0 0-.97-1.498-1.233-1.938-1.326-2.212-2.824-2.914-4.505-2.914-3.354 0-3.792 1.41-8.386 1.41-7.854 0-10.593-6.089-10.77-10.146h26.215v-3.092c0-12.448-7.144-20.748-18.357-20.748zm-7.858 16.505c0-4.584 3.177-8.825 7.767-8.825 5.031 0 7.771 4.411 7.856 8.825h-15.623zm43.696 13.246v-41.844c0-4.678-3.092-8.299-8.034-8.299h-2.116v54.202c0 5.032 3.087 8.116 8.478 8.116 6.619 0 8.562-4.676 8.562-9.174-.266.174-1.681.707-3.093.707-2.382.001-3.797-1.325-3.797-3.708zm-68.327-1.414v-19.858h8.564l3.001-7.685h-11.565v-12.002s-.88-.092-.969 0c-4.506 0-9.271 1.851-9.271 11.914v.088h-7.503v7.686h7.503v23.391c0 6.619 3.972 10.06 9.536 10.06 4.501 0 10.323-1.319 10.323-10.234-.35.177-2.559 1.583-4.938 1.583-3.357-.003-4.681-2.029-4.681-4.943zm96.663-28.337c-9.8 0-18.099 7.946-18.099 21.012 0 13.332 8.035 20.918 20.048 20.918 9.441 0 14.382-4.145 15.001-4.502 0 0-.884-1.498-1.148-1.938-1.408-2.212-2.909-2.914-4.586-2.914-3.356 0-3.798 1.41-8.388 1.41-7.771 0-10.508-6.089-10.684-10.146h26.221v-3.092c.001-12.448-7.238-20.748-18.365-20.748zm-7.946 16.505c0-4.584 3.269-8.825 7.771-8.825 5.033 0 7.855 4.411 7.94 8.825h-15.711zm92.337 25.422c-12.534 0-20.037-8.207-20.037-20.918 0-12.621 7.415-21.012 20.037-21.012 12.62 0 20.044 8.391 20.044 21.012 0 11.918-6.802 20.918-20.044 20.918zm0-7.851c6.267 0 9.893-5.386 9.893-13.064 0-7.68-3.541-13.153-9.893-13.153-6.178 0-9.889 5.384-9.889 13.153.001 7.497 3.534 13.064 9.889 13.064z"
     id="path2" />
  <path
     fill="#e71836"
     d="m 130.58,25.309 c -5.912,1.151 -14.654,6.531 -14.562,15.979 0,8.563 7.063,13.858 7.063,25.07 0,8.475 -4.682,14.213 -9.712,17.394 2.03,-0.176 4.237,-0.265 6.709,-0.265 5.21,-0.091 8.294,0.438 8.474,0.438 L 155.033,51.437 C 147.709,40.409 139.146,31.931 130.58,25.309 m 22.25,87.836 c 3.353,-5.213 3.793,-13.504 4.062,-21.891 0.354,-7.858 1.94,-13.772 12.445,-13.858 2.382,0 4.589,0.35 8.561,0.35 15.452,-0.08 25.517,-5.383 31.785,-8.916 -12.803,-8.117 -31.429,-16.416 -54.647,-17.391 -1.498,4.243 -13.241,36.904 -14.122,39.553 0.175,0.08 2.209,2.379 4.766,6.881 3.798,6.18 5.827,11.391 7.15,15.272"
     id="path4"
     sodipodi:nodetypes="ccscccccccccccccc" />
  <path
     fill="#F57F26"
     d="M96.95 86.485c-1.407 0-2.03-.879-2.208-2.47-.173-1.503-6.796-62.145-7.77-71.237-.175-1.415-.527-3.797-.527-4.684 0-1.407.975-2.2 2.032-2.2 3.089 0 20.213 3.968 38.4 16.769-5.21 1.41-14.744 6.886-14.657 18.187 0 9.888 7.153 15.447 7.239 25.425.001 16.237-18.71 20.21-22.509 20.21M154.413 117.473c.269.701.532 1.324.802 1.764.438.703.965 1.058 1.588 1.058.441 0 .969-.176 1.587-.438 1.322-.619 56.672-26.398 64.967-30.188 1.239-.622 3.533-1.594 4.333-2.037.791-.443 1.144-1.148 1.144-1.76 0-.446-.178-.798-.353-1.154-1.057-1.677-6.443-7.321-15.361-13.505-7.061 3.882-18.188 9.89-34.688 9.973-4.065 0-4.946-.259-7.684-.259-8.118.083-10.063 3.527-10.42 10.587 0 1.331-.082 3.092-.082 5.036-.266 6.35-1.061 15.091-5.833 20.923"
     id="path6" />
</svg>
