<?xml version="1.0" encoding="UTF-8" standalone="no"?>
<svg
   width="2500"
   height="2500"
   viewBox="0 0 192.756 192.756"
   version="1.1"
   id="svg18"
   sodipodi:docname="lidl.svg"
   inkscape:version="1.2.2 (732a01da63, 2022-12-09)"
   xmlns:inkscape="http://www.inkscape.org/namespaces/inkscape"
   xmlns:sodipodi="http://sodipodi.sourceforge.net/DTD/sodipodi-0.dtd"
   xmlns="http://www.w3.org/2000/svg"
   xmlns:svg="http://www.w3.org/2000/svg">
  <defs
     id="defs22" />
  <sodipodi:namedview
     id="namedview20"
     pagecolor="#ffffff"
     bordercolor="#000000"
     borderopacity="0.25"
     inkscape:showpageshadow="2"
     inkscape:pageopacity="0.0"
     inkscape:pagecheckerboard="0"
     inkscape:deskcolor="#d1d1d1"
     showgrid="false"
     inkscape:zoom="0.3316"
     inkscape:cx="1082.6297"
     inkscape:cy="1248.4922"
     inkscape:window-width="1536"
     inkscape:window-height="841"
     inkscape:window-x="-8"
     inkscape:window-y="-8"
     inkscape:window-maximized="1"
     inkscape:current-layer="g16" />
  <g
     fill-rule="evenodd"
     clip-rule="evenodd"
     id="g16">
    <path
       fill="#1e71b8"
       d="M0 0h192.756v192.756H0V0z"
       id="path2" />
    <path
       d="M7.25 96.377c0 49.146 39.982 89.129 89.129 89.129 49.144 0 89.128-39.982 89.128-89.129 0-49.146-39.984-89.13-89.128-89.13-49.146 0-89.129 39.984-89.129 89.13z"
       fill="#cc2229"
       id="path4" />
    <path
       d="M12.063 96.377c0-46.493 37.823-84.318 84.316-84.318 46.492 0 84.316 37.825 84.316 84.318 0 46.494-37.824 84.316-84.316 84.316-46.493 0-84.316-37.822-84.316-84.316z"
       fill="#fff22d"
       id="path6" />
    <path
       d="M76.677 80.778c5.339 0 9.73-4.402 9.73-9.781 0-5.375-4.391-9.75-9.73-9.75-5.393 0-9.759 4.375-9.759 9.75 0 5.379 4.367 9.781 9.759 9.781z"
       fill="#cc2229"
       id="path8" />
    <path
       fill="#cc2229"
       d="M102.184 97.221l-2.561-3.647-8.976 6.988-13.918-17.663-27.405 21.597 3.951 2.738 6.65-5.283 11.106 14.096-3.261 2.539 2.833 3.598 31.581-24.963z"
       id="path12" />
  </g>
</svg>
