<?xml version="1.0" encoding="UTF-8" standalone="no"?>
<svg
   width="2500"
   height="2500"
   viewBox="0 0 192.756 192.756"
   version="1.1"
   id="svg10"
   sodipodi:docname="l-oreal-3.svg"
   inkscape:version="1.2.2 (732a01da63, 2022-12-09)"
   xmlns:inkscape="http://www.inkscape.org/namespaces/inkscape"
   xmlns:sodipodi="http://sodipodi.sourceforge.net/DTD/sodipodi-0.dtd"
   xmlns="http://www.w3.org/2000/svg"
   xmlns:svg="http://www.w3.org/2000/svg">
  <defs
     id="defs14" />
  <sodipodi:namedview
     id="namedview12"
     pagecolor="#ffffff"
     bordercolor="#000000"
     borderopacity="0.25"
     inkscape:showpageshadow="2"
     inkscape:pageopacity="0.0"
     inkscape:pagecheckerboard="0"
     inkscape:deskcolor="#d1d1d1"
     showgrid="false"
     inkscape:zoom="0.3316"
     inkscape:cx="1082.6297"
     inkscape:cy="1248.4922"
     inkscape:window-width="1536"
     inkscape:window-height="841"
     inkscape:window-x="-8"
     inkscape:window-y="-8"
     inkscape:window-maximized="1"
     inkscape:current-layer="g8" />
  <g
     fill-rule="evenodd"
     clip-rule="evenodd"
     id="g8">
    <path
       fill="#fff"
       d="M0 0h192.756v192.756H0V0z"
       id="path2" />
    <path
       d="m 24.202,93.599 4.968,-9.44 h -4.72 l -3.727,9.44 z m 40.621,-5.451 c -1.611,-2.535 -3.964,-4.666 -6.735,-6.118 -2.771,-1.453 -5.96,-2.227 -9.148,-2.227 -3.188,0 -6.378,0.774 -9.148,2.227 -2.771,1.452 -5.125,3.583 -6.736,6.118 -1.611,2.534 -2.481,5.473 -2.481,8.412 0,2.938 0.87,5.877 2.481,8.411 1.611,2.535 3.964,4.666 6.736,6.118 2.771,1.453 5.96,2.227 9.148,2.227 3.188,0 6.377,-0.773 9.148,-2.227 2.771,-1.452 5.124,-3.583 6.735,-6.118 1.612,-2.534 2.481,-5.474 2.481,-8.411 0,-2.938 -0.869,-5.877 -2.481,-8.412 z m -3.866,15.103 c -1.202,1.988 -2.961,3.665 -5.037,4.81 -2.076,1.144 -4.468,1.754 -6.861,1.754 -2.393,0 -4.785,-0.61 -6.861,-1.754 -2.075,-1.145 -3.834,-2.821 -5.037,-4.81 -1.203,-1.989 -1.849,-4.289 -1.849,-6.589 0,-2.301 0.646,-4.601 1.849,-6.589 1.203,-1.988 2.961,-3.665 5.037,-4.809 2.076,-1.145 4.469,-1.755 6.861,-1.755 2.392,0 4.785,0.61 6.861,1.755 2.076,1.144 3.834,2.82 5.037,4.809 1.203277,1.987711 1.842805,4.265464 1.85,6.589 -0.0075,2.323487 -0.647049,4.60115 -1.85,6.589 z m 128.713,3.762 v 3.973 H 164.826 V 83.663 h 4.471 v 23.35 z m -1.936,-17.867 -0.039,-0.652 c -0.006,-0.12 0.004,-0.24 -0.045,-0.376 -0.0492,-0.139999 -0.12416,-0.26956 -0.221,-0.382 -0.0687,-0.08466 -0.167,-0.140066 -0.275,-0.155 0.19307,-0.06727 0.35629,-0.200391 0.461,-0.376 0.117,-0.187 0.189,-0.434 0.186,-0.699 -0.003,-0.265 -0.084,-0.549 -0.225,-0.759 -0.305,-0.447 -0.842,-0.523 -1.312,-0.501 h -1.979 v 4.565 h 0.768 v -1.875 h 1.148 c 0.125,0 0.334,-0.017 0.543,0.146 0.277,0.327 0.154,0.757 0.203,1.122 0.004,0.218 0.025,0.424 0.115,0.607 h 0.863 V 89.67 c -0.157,-0.065 -0.171,-0.293 -0.191,-0.524 z m -0.949,-2.011 c -0.238,0.152 -0.484,0.153 -0.654,0.15 h -1.084 v -1.39 c 0.473,0.006 0.949,-0.02 1.418,0.018 0.21984,0.02372 0.41152,0.160086 0.506,0.36 0.099,0.302 0.103,0.626 -0.186,0.862 z"
       id="path4"
       sodipodi:nodetypes="cccccccsccsccsccscccscssscscccccccccccccccccsccccccsccccccccccccc" />
    <path
       d="M189.404 85.587c-.336-.582-.828-1.074-1.41-1.41s-1.254-.516-1.926-.516-1.344.18-1.926.516-1.074.828-1.41 1.41c-.336.582-.518 1.254-.518 1.926s.182 1.344.518 1.925.828 1.074 1.41 1.41 1.254.516 1.926.516 1.344-.18 1.926-.516 1.074-.828 1.41-1.41.518-1.253.518-1.925-.182-1.344-.518-1.926zm-.461 3.601a3.305 3.305 0 0 1-1.199 1.196 3.298 3.298 0 0 1-1.637.438 3.282 3.282 0 0 1-2.836-1.634 3.27 3.27 0 0 1 0-3.268 3.275 3.275 0 0 1 4.473-1.196c.494.285.912.702 1.199 1.196a3.29 3.29 0 0 1 .438 1.634c0 .57-.152 1.14-.438 1.634z"
       id="path6" />
  </g>
</svg>
