<?xml version="1.0" encoding="UTF-8" standalone="no"?>
<svg
   width="1950"
   height="950"
   viewBox="0 0 150.34968 73.24728"
   version="1.1"
   id="svg10"
   sodipodi:docname="panasonic-3.svg"
   inkscape:version="1.2.2 (732a01da63, 2022-12-09)"
   xmlns:inkscape="http://www.inkscape.org/namespaces/inkscape"
   xmlns:sodipodi="http://sodipodi.sourceforge.net/DTD/sodipodi-0.dtd"
   xmlns="http://www.w3.org/2000/svg"
   xmlns:svg="http://www.w3.org/2000/svg">
  <defs
     id="defs14" />
  <sodipodi:namedview
     id="namedview12"
     pagecolor="#ffffff"
     bordercolor="#000000"
     borderopacity="0.25"
     inkscape:showpageshadow="2"
     inkscape:pageopacity="0.0"
     inkscape:pagecheckerboard="0"
     inkscape:deskcolor="#d1d1d1"
     showgrid="false"
     inkscape:zoom="0.23447661"
     inkscape:cx="1258.1212"
     inkscape:cy="1236.7971"
     inkscape:window-width="1536"
     inkscape:window-height="841"
     inkscape:window-x="-8"
     inkscape:window-y="-8"
     inkscape:window-maximized="1"
     inkscape:current-layer="g8" />
  <g
     fill-rule="evenodd"
     clip-rule="evenodd"
     id="g8">
    <path
       fill="#295ba7"
       d="M 1.9274463,1.61026 H 148.6672 V 69.80932 H 1.9274463 Z"
       id="path4"
       style="stroke-width:0.834944" />
    <path
       d="m 16.392017,21.45521 c -0.279707,0.0693 -0.698848,0.208736 -1.188126,0.208736 -0.977719,0 -1.537132,-0.419142 -1.537132,-1.746703 v -6.358934 h -1.257425 v -0.838283 h 1.257425 v -2.445552 h 0.97772 v 2.445552 h 1.677402 v 0.838283 h -1.677402 v 6.009093 c 0,0.838284 0.07014,1.18729 0.908419,1.18729 0.279706,0 0.558578,0 0.838284,-0.0693 v 0.769818 z m 8.175772,-8.735184 h 1.047855 v 8.734349 H 24.567789 V 20.26625 c -0.559413,0.559412 -1.258261,1.397696 -2.795393,1.397696 -2.306115,0 -3.075099,-1.397696 -3.075099,-3.214534 v -5.729386 h 0.978555 v 5.729386 c 0,1.467831 0.628713,2.306115 2.23598,2.306115 1.677402,0 2.655957,-1.397696 2.655957,-3.283835 z m 5.169973,8.735184 h -0.978554 v -8.735184 h 0.978554 v 1.607267 h 0.0693 c 0.559412,-1.397697 1.397696,-1.816838 2.865528,-1.816838 v 1.047854 c -2.306116,0 -2.934829,1.676568 -2.934829,3.633677 z m 6.568505,0 h -0.978554 v -8.735184 h 0.978554 v 1.188125 c 0.838284,-0.838284 1.607268,-1.397696 2.795393,-1.397696 1.047855,0 2.026409,0.279706 2.655122,1.188125 0.419142,0.628713 0.488442,1.327561 0.488442,2.026409 V 21.45521 H 41.19737 v -5.730221 c 0,-1.537132 -0.628713,-2.306115 -2.235981,-2.306115 -1.257425,0 -2.096544,0.768983 -2.445551,1.677402 -0.209571,0.558578 -0.209571,1.047855 -0.209571,1.676568 z m 14.3243,2.375416 c 0.279707,0.07014 0.559413,0.07014 0.838284,0.07014 1.11799,0 1.327561,-1.607267 1.677403,-2.37625 l -3.35397,-8.804485 h 1.11799 l 2.795392,7.476924 2.795393,-7.476924 h 1.11799 l -3.28467,8.594914 c -0.838284,2.23598 -1.327561,3.563541 -2.725257,3.563541 -0.349007,0 -0.698848,-0.0693 -0.978555,-0.139436 z m 8.594914,-6.778076 c 0,-2.515686 1.327562,-4.542095 4.052819,-4.542095 2.725257,0 4.052818,2.026409 4.052818,4.542095 0,2.794558 -1.607267,4.611396 -4.052818,4.611396 -2.23598,0 -4.052819,-1.537132 -4.052819,-4.611396 z M 63.2783,13.418874 c -2.165845,0 -3.004964,1.746703 -3.004964,3.633676 0,2.23598 1.047855,3.702977 3.004964,3.702977 2.096544,0 2.934828,-1.816838 2.934828,-3.702977 8.35e-4,-2.026409 -0.838284,-3.633676 -2.934828,-3.633676 z m 12.438161,-0.698848 h 1.04702 v 8.734349 h -1.04702 V 20.26625 c -0.489277,0.559412 -1.25826,1.397696 -2.795392,1.397696 -2.306116,0 -3.075099,-1.397696 -3.075099,-3.214534 v -5.729386 h 0.978554 v 5.729386 c 0,1.467831 0.698848,2.306115 2.23598,2.306115 1.677403,0 2.655957,-1.397696 2.655957,-3.283835 z m 5.240109,8.735184 h -1.04702 v -8.735184 h 1.04702 v 1.607267 c 0.559413,-1.397697 1.397697,-1.816838 2.865528,-1.816838 v 1.047854 c -2.306115,0 -2.865528,1.676568 -2.865528,3.633677 z M 91.648029,9.296755 h 1.04869 V 21.45521 h -1.04869 z m 4.402657,0 h 1.11716 v 1.537132 h -1.11716 z m 0,3.423271 h 1.04702 v 8.734349 h -1.04702 z m 3.42327,0.839118 V 12.72086 h 1.259104 v -1.398531 c 0,-1.397696 0.55774,-2.23598 1.88697,-2.23598 0.27887,0 0.55775,0 0.83829,0.07014 v 0.908419 c -0.21041,-0.0693 -0.41915,-0.0693 -0.62955,-0.0693 -1.04869,0 -1.04869,0.838284 -1.04869,1.676568 v 1.047855 h 1.67824 v 0.838283 h -1.67824 v 7.896066 h -1.04702 v -7.896066 h -1.259104 z m 6.849054,3.773112 c 0,1.886974 0.97688,3.424106 2.93399,3.424106 1.32756,0 2.30612,-0.698013 2.65679,-1.956274 h 1.11716 c -0.48928,1.607267 -1.53797,2.864693 -3.77395,2.864693 -2.79539,0 -3.98268,-1.956274 -3.98268,-4.541261 0,-2.515686 1.46783,-4.611396 3.98268,-4.611396 2.37625,0 3.84409,1.677403 3.84409,4.820967 h -6.77808 z m 5.72855,-0.838283 c 0,-1.746703 -0.97855,-3.075099 -2.79539,-3.075099 -1.81684,0 -2.72526,1.397696 -2.934,3.075099 z m 8.45548,0.558577 c 0,-2.515686 1.3977,-4.542095 4.05282,-4.542095 2.72525,0 4.05282,2.026409 4.05282,4.542095 0,2.794558 -1.60644,4.611396 -4.05282,4.611396 -2.23598,0 -4.05282,-1.537132 -4.05282,-4.611396 z m 4.05282,-3.633676 c -2.09571,0 -2.934,1.746703 -2.934,3.633676 0,2.23598 0.97689,3.702977 2.934,3.702977 2.16584,0 3.0058,-1.816838 3.0058,-3.702977 -0.0701,-2.026409 -0.83996,-3.633676 -3.0058,-3.633676 z m 7.61719,8.036336 h -1.04869 v -8.735184 h 1.04869 v 1.188125 c 0.76815,-0.838284 1.60643,-1.397696 2.79539,-1.397696 1.04702,0 2.02558,0.279706 2.65513,1.188125 0.41914,0.628713 0.41914,1.327561 0.41914,2.026409 v 5.730221 h -0.97856 v -5.730221 c 0,-1.537132 -0.62954,-2.306115 -2.30611,-2.306115 -1.18729,0 -2.09571,0.768983 -2.37625,1.677402 -0.20874,0.558578 -0.20874,1.047855 -0.20874,1.676568 z M 20.654406,48.98582 c 1.397696,0 2.445551,-0.62955 2.445551,-2.23598 0,-1.678237 -1.956274,-1.957109 -3.28467,-1.957109 h -1.746703 v 4.192259 h 2.585822 z M 11.989357,59.11787 V 40.460207 h 9.014056 c 5.310244,0 7.896066,2.446386 7.896066,6.289633 0,3.98268 -2.375416,6.56851 -7.686495,6.56851 h -3.1444 v 5.79868 H 11.989357 Z M 118.34203,45.980857 h 5.23927 V 59.188 h -5.23927 z m 0,-5.38038 h 5.23927 v 3.703812 h -5.23927 z m 15.09245,10.412583 c -0.0701,-0.55941 -0.21041,-1.04869 -0.55941,-1.32923 -0.34901,-0.349 -0.76815,-0.55774 -1.3977,-0.55774 -1.95711,0 -2.23598,2.02558 -2.23598,3.63368 0,1.95711 0.76815,3.28467 2.23598,3.28467 1.3977,0 1.88697,-0.97856 2.09738,-1.95711 h 5.23927 c -0.41914,3.98268 -3.63367,5.44968 -7.33665,5.44968 -4.19226,0 -7.47693,-2.37625 -7.47693,-6.84738 0,-4.47112 3.14607,-7.05778 7.47693,-7.05778 3.56521,0 6.84738,1.46783 7.26652,5.38121 z"
       fill="#ffffff"
       id="path6"
       sodipodi:nodetypes="cssccccccccccssccccccccssccssscccccccccsccccccscsccsscsccscccccccsccsssssssscscccccssccsssccccccccscccccccccccccccccccssccssccccccccccsccsssccccsccsssssssscscccccscsccsscsccssccccccsssccccccccccccccccsssccssscc"
       style="stroke-width:0.834944" />
  </g>
</svg>
