<?xml version="1.0" encoding="UTF-8" standalone="no"?>
<svg
   enable-background="new 0 0 346.8 346.8"
   viewBox="0 0 346.8 346.8"
   version="1.1"
   id="svg16"
   sodipodi:docname="sams-club-1.svg"
   inkscape:version="1.2.2 (732a01da63, 2022-12-09)"
   xmlns:inkscape="http://www.inkscape.org/namespaces/inkscape"
   xmlns:sodipodi="http://sodipodi.sourceforge.net/DTD/sodipodi-0.dtd"
   xmlns="http://www.w3.org/2000/svg"
   xmlns:svg="http://www.w3.org/2000/svg">
  <defs
     id="defs20" />
  <sodipodi:namedview
     id="namedview18"
     pagecolor="#ffffff"
     bordercolor="#000000"
     borderopacity="0.25"
     inkscape:showpageshadow="2"
     inkscape:pageopacity="0.0"
     inkscape:pagecheckerboard="0"
     inkscape:deskcolor="#d1d1d1"
     showgrid="false"
     inkscape:zoom="2.3904268"
     inkscape:cx="150.60072"
     inkscape:cy="173.60916"
     inkscape:window-width="1536"
     inkscape:window-height="841"
     inkscape:window-x="-8"
     inkscape:window-y="-8"
     inkscape:window-maximized="1"
     inkscape:current-layer="g14" />
  <path
     d="m173.4 346.8-173.4-173.4 173.4-173.4 173.4 173.4z"
     fill="#004b8d"
     id="path2" />
  <path
     d="m173.4 53.2-11.2-11.2-49.5 49.5 49.5 49.5 11.2-11.2-38.3-38.3z"
     fill="#0081c6"
     id="path4" />
  <path
     d="m234.1 91.5-49.5-49.5-11.2 11.2 38.3 38.3-38.3 38.3 11.2 11.2z"
     fill="#5d9732"
     id="path6" />
  <path
     d="m173.4 53.2-38.3 38.3 38.3 38.3 38.3-38.3z"
     fill="#0069aa"
     id="path8" />
  <g
     fill="#fff"
     transform="matrix(1.25 0 0 -1.25 -911.758 172.287)"
     id="g14">
    <path
       d="M 935.5,15.8 930,4.5 h -1.7 l 1.2,11.4 h 6 z M 779.1,-16 c 1.2,-11.7 6.7,-17.8 15.2,-17.8 8.1,0 13.8,5.5 13.8,13.1 0,3.2 -0.9,5.8 -2.7,7.8 -3.5,4.1 -9.2,5.6 -15.6,8.5 -8.6,4.2 -12.8,9.9 -12.8,17.9 0,10.6 7.7,18.2 18.6,18.2 7.2,0 11.5,-3.5 13.6,-3.5 1.2,0 2,0.4 2.7,1.4 h 2.3 c -0.3,-2.8 -0.5,-5.6 -0.5,-8.3 v -7.5 h -2.3 c -0.9,10 -6.2,15.6 -14,15.6 -7.6,0 -12.7,-4.9 -12.7,-12.2 0,-7.2 4.8,-9.5 13.4,-13.2 12,-5.1 18.3,-8.9 18.3,-20.7 0,-11.7 -8.3,-19.7 -21,-19.7 -7.5,0 -12.1,3 -14.6,3 -1.2,0 -1.9,-0.4 -2.5,-1.3 h -2.2 c 0.3,2.8 0.4,5.8 0.4,8.7 v 10 z"
       id="path10"
       sodipodi:nodetypes="cccccccssccsssccsccsscsssccscc" />
    <path
       d="m 776.9,13.5 c 0,-8.1 4.1,-13.8 12.9,-18 l 4.8,-2.1 c 4.4,-1.8 8.2,-3.4 10.7,-6.4 1.8,-2.1 2.6,-4.6 2.6,-7.7 0,-7.6 -5.6,-12.9 -13.6,-12.9 -8.5,0 -13.8,6.2 -15,17.6 v 0.2 h -3 V -26 c 0,-3.4 -0.1,-6.2 -0.4,-8.7 v -0.2 h 2.5 l 0.1,0.1 c 0.6,0.9 1.2,1.2 2.3,1.2 0.9,0 2.1,-0.4 3.6,-0.9 2.6,-0.9 6.3,-2.1 11,-2.1 12.7,0 21.1,8 21.1,19.9 0,12.2 -6.9,16 -18.4,20.8 -8.5,3.6 -13.3,6 -13.3,13 0,7.2 5,12 12.5,12 7.9,0 12.9,-5.6 13.8,-15.4 v -0.2 h 2.7 v 7.7 c 0,2.6 0.2,5.3 0.5,8.3 v 0.2 h -2.6 l -0.1,-0.1 c -0.6,-0.9 -1.4,-1.3 -2.5,-1.3 -0.7,0 -1.7,0.4 -2.9,1 -2.3,1 -5.9,2.5 -10.7,2.5 -10.8,0.1 -18.6,-7.6 -18.6,-18.3 M 934,-4.3 v 0 m -98.1,-57 c -1.4,-0.3 -3,-0.6 -4.5,-0.6 -6.4,0 -10.8,3.2 -10.8,9.8 0,6.7 4.1,10.5 10.8,10.5 1.3,0 3,-0.2 4.4,-0.8 l -0.3,-3.3 c -1.5,0.8 -2.8,1 -4.2,1 -4,0 -6.6,-3.1 -6.6,-7.1 0,-4 2.5,-7 6.7,-7 1.5,0 3.4,0.3 4.3,0.8 z"
       id="path12"
       sodipodi:nodetypes="ccccsscccsccccscsscsscccsccccsccccccsssccssscc" />
  </g>
</svg>
