<?xml version="1.0" encoding="UTF-8" standalone="no"?>
<svg
   width="2500"
   height="2500"
   viewBox="0 0 192.756 192.756"
   version="1.1"
   id="svg10"
   sodipodi:docname="goldman-sachs.svg"
   inkscape:version="1.2.2 (732a01da63, 2022-12-09)"
   xmlns:inkscape="http://www.inkscape.org/namespaces/inkscape"
   xmlns:sodipodi="http://sodipodi.sourceforge.net/DTD/sodipodi-0.dtd"
   xmlns="http://www.w3.org/2000/svg"
   xmlns:svg="http://www.w3.org/2000/svg">
  <defs
     id="defs14" />
  <sodipodi:namedview
     id="namedview12"
     pagecolor="#ffffff"
     bordercolor="#000000"
     borderopacity="0.25"
     inkscape:showpageshadow="2"
     inkscape:pageopacity="0.0"
     inkscape:pagecheckerboard="0"
     inkscape:deskcolor="#d1d1d1"
     showgrid="false"
     inkscape:zoom="0.3316"
     inkscape:cx="1082.6297"
     inkscape:cy="765.98311"
     inkscape:window-width="1536"
     inkscape:window-height="841"
     inkscape:window-x="-8"
     inkscape:window-y="-8"
     inkscape:window-maximized="1"
     inkscape:current-layer="g8" />
  <g
     fill-rule="evenodd"
     clip-rule="evenodd"
     id="g8">
    <path
       fill="#fff"
       d="M0 0h192.756v192.756H0V0z"
       id="path2" />
    <path
       fill="#7793c0"
       d="M13.837 178.92H178.92V13.837H13.837V178.92z"
       id="path4" />
    <path
       d="m 43.117,23.765 v 9.592 h -1.178 c -1.01,-4.712 -3.197,-8.246 -6.227,-8.414 -2.019,-0.168 -3.197,1.009 -4.207,2.693 -1.009,2.019 -1.514,6.226 -1.514,11.274 0,4.712 0.168,8.246 0.673,10.77 0.336,1.178 1.178,3.03 3.366,3.03 1.178,0 2.019,-0.337 2.524,-1.01 0.841,-1.01 1.009,-3.029 1.009,-4.375 v -4.543 c 0,-1.683 -0.504,-2.693 -1.346,-3.197 -0.673,-0.337 -1.683,-0.337 -2.188,-0.505 v -1.178 h 9.423 v 24.064 h -1.178 c -0.504,-1.851 -0.841,-3.197 -1.683,-4.712 -0.841,-1.514 -2.356,-3.197 -4.88,-3.197 -2.692,-0.168 -4.712,1.515 -4.712,4.038 0,3.366 2.02,4.207 5.722,6.227 3.534,2.019 8.078,3.702 8.078,9.592 0,5.722 -4.88,9.256 -10.433,9.256 H 25.447 V 71.557 h 1.178 c 1.515,8.75 5.217,10.265 7.742,10.265 3.196,0 4.711,-2.02 4.711,-4.88 -0.168,-3.702 -2.692,-5.048 -6.227,-6.899 -5.047,-2.861 -7.404,-4.208 -7.404,-8.918 0.168,-4.04 3.366,-6.563 6.899,-7.573 -7.404,-0.841 -9.592,-7.572 -9.423,-14.809 0,-7.236 4.207,-14.977 12.452,-14.977 z"
       fill="#ffffff"
       id="path6"
       sodipodi:nodetypes="cccccscscssccccccccscsscccsccccccc" />
  </g>
</svg>
