<?xml version="1.0" encoding="UTF-8" standalone="no"?>
<svg
   version="1.1"
   width="2800"
   height="2000"
   style="clip-rule:evenodd;fill-rule:evenodd;image-rendering:optimizeQuality;shape-rendering:geometricPrecision;text-rendering:geometricPrecision"
   id="svg1030"
   sodipodi:docname="Morgan-Stanley-Logo-3.svg"
   inkscape:version="1.2.2 (732a01da63, 2022-12-09)"
   xmlns:inkscape="http://www.inkscape.org/namespaces/inkscape"
   xmlns:sodipodi="http://sodipodi.sourceforge.net/DTD/sodipodi-0.dtd"
   xmlns="http://www.w3.org/2000/svg"
   xmlns:svg="http://www.w3.org/2000/svg">
  <defs
     id="defs1034" />
  <sodipodi:namedview
     id="namedview1032"
     pagecolor="#ffffff"
     bordercolor="#000000"
     borderopacity="0.25"
     inkscape:showpageshadow="2"
     inkscape:pageopacity="0.0"
     inkscape:pagecheckerboard="0"
     inkscape:deskcolor="#d1d1d1"
     showgrid="false"
     inkscape:zoom="0.23146699"
     inkscape:cx="1723.7879"
     inkscape:cy="1175.1136"
     inkscape:window-width="1536"
     inkscape:window-height="841"
     inkscape:window-x="-8"
     inkscape:window-y="-8"
     inkscape:window-maximized="1"
     inkscape:current-layer="svg1030" />
  <g
     id="g4"
     transform="translate(-522.75273)">
    <path
       style="opacity:0.192"
       fill="#7b848a"
       d="m 2901.5,23.5 c 0,0.6667 0,1.3333 0,2 -2.43,-0.2856 -2.43,-0.9523 0,-2 z"
       id="path2" />
  </g>
  <g
     id="g8"
     transform="translate(-522.75273)">
    <path
       style="opacity:0.192"
       fill="#5b646d"
       d="m 2901.5,23.5 c 118,-0.6648 235.67,0.0019 353,2 -0.33,0 -0.67,0 -1,0 -117.44,-0.454 -234.77,-0.454 -352,0 0,-0.6667 0,-1.3333 0,-2 z"
       id="path6" />
  </g>
  <g
     id="g12"
     transform="translate(-522.75273)">
    <path
       style="opacity:0.192"
       fill="#7b848a"
       d="m 3257.5,25.5 c -1.33,0.6667 -1.33,1.3333 0,2 0,0.3333 0,0.6667 0,1 -1.33,0.3333 -1.33,0.6667 0,1 0,0.3333 0,0.6667 0,1 -1.33,0.3333 -1.33,0.6667 0,1 0,0.3333 0,0.6667 0,1 -1.33,0.3333 -1.33,0.6667 0,1 0,0.3333 0,0.6667 0,1 -1.33,0.3333 -1.33,0.6667 0,1 0,0.3333 0,0.6667 0,1 -1.33,0.3333 -1.33,0.6667 0,1 0,0.3333 0,0.6667 0,1 -1.33,0.3333 -1.33,0.6667 0,1 0,0.3333 0,0.6667 0,1 -1.33,0.3333 -1.33,0.6667 0,1 0,0.3333 0,0.6667 0,1 -1.33,0.3333 -1.33,0.6667 0,1 0,0.3333 0,0.6667 0,1 -1.33,0.3333 -1.33,0.6667 0,1 0,0.3333 0,0.6667 0,1 -1.33,0.3333 -1.33,0.6667 0,1 0,0.3333 0,0.6667 0,1 -1.33,0.3333 -1.33,0.6667 0,1 0,0.3333 0,0.6667 0,1 -1.33,0.3333 -1.33,0.6667 0,1 0,0.3333 0,0.6667 0,1 -1.33,0.3333 -1.33,0.6667 0,1 0,0.3333 0,0.6667 0,1 -1.33,0.3333 -1.33,0.6667 0,1 0,0.3333 0,0.6667 0,1 -1.33,0.3333 -1.33,0.6667 0,1 0,0.3333 0,0.6667 0,1 -1.33,0.3333 -1.33,0.6667 0,1 0,0.3333 0,0.6667 0,1 -1.33,0.3333 -1.33,0.6667 0,1 0,0.3333 0,0.6667 0,1 -1.33,0.3333 -1.33,0.6667 0,1 0,0.3333 0,0.6667 0,1 -1.33,0.3333 -1.33,0.6667 0,1 0,0.3333 0,0.6667 0,1 -1.33,0.3333 -1.33,0.6667 0,1 0,0.3333 0,0.6667 0,1 -1.33,0.3333 -1.33,0.6667 0,1 0,0.3333 0,0.6667 0,1 -1.33,0.3333 -1.33,0.6667 0,1 0,0.3333 0,0.6667 0,1 -1.33,0.3333 -1.33,0.6667 0,1 0,0.3333 0,0.6667 0,1 -1.33,0.3333 -1.33,0.6667 0,1 0,0.3333 0,0.6667 0,1 -1.33,0.3333 -1.33,0.6667 0,1 0,0.3333 0,0.6667 0,1 -1.33,0.3333 -1.33,0.6667 0,1 0,0.3333 0,0.6667 0,1 -1.33,0.3333 -1.33,0.6667 0,1 0,0.3333 0,0.6667 0,1 -1.33,0.3333 -1.33,0.6667 0,1 0,0.3333 0,0.6667 0,1 -1.33,0.3333 -1.33,0.6667 0,1 0,0.3333 0,0.6667 0,1 -1.33,0.3333 -1.33,0.6667 0,1 0,0.3333 0,0.6667 0,1 -1.33,0.3333 -1.33,0.6667 0,1 0,0.3333 0,0.6667 0,1 -1.33,0.3333 -1.33,0.6667 0,1 0,0.3333 0,0.6667 0,1 -1.33,0.3333 -1.33,0.6667 0,1 0,0.3333 0,0.6667 0,1 -1.33,0.3333 -1.33,0.6667 0,1 0,0.3333 0,0.6667 0,1 -1.33,0.3333 -1.33,0.6667 0,1 0,0.3333 0,0.6667 0,1 -1.33,0.3333 -1.33,0.6667 0,1 0,0.3333 0,0.667 0,1 -1.33,0.333 -1.33,0.667 0,1 0,0.333 0,0.667 0,1 -1.33,0.333 -1.33,0.667 0,1 0,0.333 0,0.667 0,1 -1.33,0.333 -1.33,0.667 0,1 0,0.333 0,0.667 0,1 -1.33,0.333 -1.33,0.667 0,1 0,0.333 0,0.667 0,1 -1.33,0.333 -1.33,0.667 0,1 0,0.333 0,0.667 0,1 -1.33,0.333 -1.33,0.667 0,1 0,0.333 0,0.667 0,1 -1.33,0.333 -1.33,0.667 0,1 0,0.333 0,0.667 0,1 -1.33,0.333 -1.33,0.667 0,1 0,0.333 0,0.667 0,1 -1.33,0.333 -1.33,0.667 0,1 0,0.333 0,0.667 0,1 -1.33,0.333 -1.33,0.667 0,1 0,0.333 0,0.667 0,1 -1.33,0.333 -1.33,0.667 0,1 0,0.333 0,0.667 0,1 -1.33,0.333 -1.33,0.667 0,1 0,0.333 0,0.667 0,1 -1.33,0.333 -1.33,0.667 0,1 0,0.333 0,0.667 0,1 -1.33,0.333 -1.33,0.667 0,1 0,0.333 0,0.667 0,1 -1.33,0.333 -1.33,0.667 0,1 0,0.333 0,0.667 0,1 -1.33,0.333 -1.33,0.667 0,1 0,0.333 0,0.667 0,1 -1.33,0.333 -1.33,0.667 0,1 0,0.333 0,0.667 0,1 -1.33,0.333 -1.33,0.667 0,1 0,0.333 0,0.667 0,1 -1.33,0.333 -1.33,0.667 0,1 0,0.333 0,0.667 0,1 -1.33,0.333 -1.33,0.667 0,1 0,0.333 0,0.667 0,1 -1.33,0.333 -1.33,0.667 0,1 0,0.333 0,0.667 0,1 -1.33,0.333 -1.33,0.667 0,1 0,0.333 0,0.667 0,1 -1.33,0.333 -1.33,0.667 0,1 0,0.333 0,0.667 0,1 -1.33,0.333 -1.33,0.667 0,1 0,0.333 0,0.667 0,1 -1.33,0.333 -1.33,0.667 0,1 0,0.333 0,0.667 0,1 -1.33,0.333 -1.33,0.667 0,1 0,0.333 0,0.667 0,1 -1.33,0.333 -1.33,0.667 0,1 0,0.333 0,0.667 0,1 -1.33,0.333 -1.33,0.667 0,1 0,0.333 0,0.667 0,1 -1.33,0.333 -1.33,0.667 0,1 0,0.333 0,0.667 0,1 -1.33,0.333 -1.33,0.667 0,1 0,0.333 0,0.667 0,1 -1.33,0.333 -1.33,0.667 0,1 0,0.333 0,0.667 0,1 -1.33,0.333 -1.33,0.667 0,1 0,0.333 0,0.667 0,1 -1.33,0.333 -1.33,0.667 0,1 0,0.333 0,0.667 0,1 -1.33,0.333 -1.33,0.667 0,1 0,0.333 0,0.667 0,1 -1.33,0.333 -1.33,0.667 0,1 0,0.333 0,0.667 0,1 -1.33,0.333 -1.33,0.667 0,1 0,0.333 0,0.667 0,1 -1.33,0.333 -1.33,0.667 0,1 0,0.333 0,0.667 0,1 -1.33,0.333 -1.33,0.667 0,1 0,0.333 0,0.667 0,1 -1.33,0.333 -1.33,0.667 0,1 0,0.333 0,0.667 0,1 -1.33,0.333 -1.33,0.667 0,1 0,0.333 0,0.667 0,1 -1.33,0.333 -1.33,0.667 0,1 0,0.333 0,0.667 0,1 -1.33,0.333 -1.33,0.667 0,1 0,0.333 0,0.667 0,1 -1.33,0.333 -1.33,0.667 0,1 0,0.333 0,0.667 0,1 -1.33,0.333 -1.33,0.667 0,1 0,0.333 0,0.667 0,1 -1.33,0.333 -1.33,0.667 0,1 0,0.333 0,0.667 0,1 -1.33,0.333 -1.33,0.667 0,1 0,0.333 0,0.667 0,1 -1.33,0.333 -1.33,0.667 0,1 0,0.333 0,0.667 0,1 -1.33,0.333 -1.33,0.667 0,1 0,0.333 0,0.667 0,1 -1.33,0.333 -1.33,0.667 0,1 0,0.333 0,0.667 0,1 -1.33,0.333 -1.33,0.667 0,1 0,0.333 0,0.667 0,1 -1.33,0.333 -1.33,0.667 0,1 0,0.333 0,0.667 0,1 -1.33,0.333 -1.33,0.667 0,1 0,0.333 0,0.667 0,1 -1.33,0.333 -1.33,0.667 0,1 0,0.333 0,0.667 0,1 -1.33,0.333 -1.33,0.667 0,1 0,0.333 0,0.667 0,1 -1.33,0.333 -1.33,0.667 0,1 0,0.333 0,0.667 0,1 -1.33,0.333 -1.33,0.667 0,1 0,0.333 0,0.667 0,1 -1.33,0.333 -1.33,0.667 0,1 0,0.333 0,0.667 0,1 -1.33,0.333 -1.33,0.667 0,1 0,0.333 0,0.667 0,1 -1.33,0.333 -1.33,0.667 0,1 0,0.333 0,0.667 0,1 -1.33,0.333 -1.33,0.667 0,1 0,0.333 0,0.667 0,1 -1.33,0.333 -1.33,0.667 0,1 0,0.333 0,0.667 0,1 -1.33,0.333 -1.33,0.667 0,1 0,0.333 0,0.667 0,1 -1.33,0.333 -1.33,0.667 0,1 0,0.333 0,0.667 0,1 -1.33,0.333 -1.33,0.667 0,1 0,0.333 0,0.667 0,1 -1.33,0.333 -1.33,0.667 0,1 0,0.333 0,0.667 0,1 -1.33,0.333 -1.33,0.667 0,1 0,0.333 0,0.667 0,1 -1.33,0.333 -1.33,0.667 0,1 0,0.333 0,0.667 0,1 -1.33,0.333 -1.33,0.667 0,1 0,0.333 0,0.667 0,1 -1.33,0.333 -1.33,0.667 0,1 0,0.333 0,0.667 0,1 -1.33,0.333 -1.33,0.667 0,1 0,0.333 0,0.667 0,1 -1.33,0.333 -1.33,0.667 0,1 0,0.333 0,0.667 0,1 -1.33,0.333 -1.33,0.667 0,1 0,0.333 0,0.667 0,1 -1.33,0.333 -1.33,0.667 0,1 0,0.333 0,0.667 0,1 -1.33,0.333 -1.33,0.667 0,1 0,0.333 0,0.667 0,1 -1.33,0.333 -1.33,0.667 0,1 0,0.333 0,0.667 0,1 -1.33,0.333 -1.33,0.667 0,1 0,0.333 0,0.667 0,1 -1.33,0.333 -1.33,0.667 0,1 0,0.333 0,0.667 0,1 -1.33,0.333 -1.33,0.667 0,1 0,0.333 0,0.667 0,1 -1.33,0.333 -1.33,0.667 0,1 0,0.333 0,0.667 0,1 -1.33,0.333 -1.33,0.667 0,1 0,0.333 0,0.667 0,1 -1.33,0.333 -1.33,0.667 0,1 0,0.333 0,0.667 0,1 -1.33,0.333 -1.33,0.667 0,1 0,0.333 0,0.667 0,1 -1.33,0.333 -1.33,0.667 0,1 0,0.333 0,0.667 0,1 -1.33,0.333 -1.33,0.667 0,1 0,0.333 0,0.667 0,1 -1.33,0.333 -1.33,0.667 0,1 0,0.333 0,0.667 0,1 -1.33,0.333 -1.33,0.667 0,1 0,0.333 0,0.667 0,1 -1.33,0.333 -1.33,0.667 0,1 0,0.333 0,0.667 0,1 -1.33,0.333 -1.33,0.667 0,1 0,0.333 0,0.667 0,1 -1.33,0.333 -1.33,0.667 0,1 0,0.333 0,0.667 0,1 -1.33,0.333 -1.33,0.667 0,1 0,0.333 0,0.667 0,1 -1.33,0.333 -1.33,0.667 0,1 0,0.333 0,0.667 0,1 -1.33,0.333 -1.33,0.667 0,1 0,0.333 0,0.667 0,1 -1.33,0.333 -1.33,0.667 0,1 0,0.333 0,0.667 0,1 -1.33,0.333 -1.33,0.667 0,1 0,0.333 0,0.667 0,1 -1.33,0.333 -1.33,0.667 0,1 0,0.333 0,0.667 0,1 -1.33,0.333 -1.33,0.667 0,1 0,0.333 0,0.667 0,1 -1.33,0.333 -1.33,0.667 0,1 0,0.333 0,0.667 0,1 -1.33,0.333 -1.33,0.667 0,1 0,0.333 0,0.667 0,1 -1.33,0.333 -1.33,0.667 0,1 0,0.333 0,0.667 0,1 -1.33,0.333 -1.33,0.667 0,1 0,0.333 0,0.667 0,1 -1.33,0.333 -1.33,0.667 0,1 0,0.333 0,0.667 0,1 -1.33,0.333 -1.33,0.667 0,1 0,0.333 0,0.667 0,1 -1.33,0.333 -1.33,0.667 0,1 0,0.333 0,0.667 0,1 -1.33,0.333 -1.33,0.667 0,1 0,0.333 0,0.667 0,1 -1.33,0.333 -1.33,0.667 0,1 0,0.333 0,0.667 0,1 -1.33,0.333 -1.33,0.667 0,1 0,0.333 0,0.667 0,1 -1.33,0.333 -1.33,0.667 0,1 0,0.333 0,0.667 0,1 -1.33,0.333 -1.33,0.667 0,1 0,0.333 0,0.667 0,1 -1.33,0.333 -1.33,0.667 0,1 0,0.333 0,0.667 0,1 -1.33,0.333 -1.33,0.667 0,1 0,0.333 0,0.667 0,1 -1.33,0.333 -1.33,0.667 0,1 0,0.333 0,0.667 0,1 -1.33,0.333 -1.33,0.667 0,1 0,0.333 0,0.667 0,1 -1.33,0.333 -1.33,0.667 0,1 0,0.333 0,0.667 0,1 -1.33,0.333 -1.33,0.667 0,1 0,0.333 0,0.667 0,1 -1.33,0.333 -1.33,0.667 0,1 0,0.333 0,0.667 0,1 -1.33,0.333 -1.33,0.667 0,1 0,0.333 0,0.667 0,1 -1.33,0.333 -1.33,0.667 0,1 0,0.333 0,0.667 0,1 -1.33,0.333 -1.33,0.667 0,1 0,0.333 0,0.667 0,1 -1.33,0.333 -1.33,0.667 0,1 0,0.333 0,0.667 0,1 -1.33,0.333 -1.33,0.667 0,1 0,0.333 0,0.667 0,1 -1.33,0.333 -1.33,0.667 0,1 0,0.333 0,0.667 0,1 -1.33,0.333 -1.33,0.667 0,1 0,0.333 0,0.667 0,1 -1.33,0.333 -1.33,0.667 0,1 0,0.333 0,0.667 0,1 -1.33,0.333 -1.33,0.667 0,1 0,0.333 0,0.667 0,1 -1.33,0.333 -1.33,0.667 0,1 0,0.333 0,0.667 0,1 -1.33,0.333 -1.33,0.667 0,1 0,0.333 0,0.667 0,1 -1.33,0.333 -1.33,0.667 0,1 0,0.333 0,0.667 0,1 -1.33,0.333 -1.33,0.667 0,1 0,0.333 0,0.667 0,1 -1.33,0.333 -1.33,0.667 0,1 0,0.333 0,0.667 0,1 -1.33,0.333 -1.33,0.667 0,1 0,0.333 0,0.667 0,1 -1.33,0.333 -1.33,0.667 0,1 0,0.333 0,0.667 0,1 -1.33,0.333 -1.33,0.667 0,1 0,0.333 0,0.667 0,1 -1.33,0.333 -1.33,0.667 0,1 0,0.333 0,0.667 0,1 -1.33,0.333 -1.33,0.667 0,1 0,0.333 0,0.667 0,1 -1.33,0.333 -1.33,0.667 0,1 0,0.333 0,0.667 0,1 -1.33,0.333 -1.33,0.667 0,1 0,0.333 0,0.667 0,1 -1.33,0.333 -1.33,0.667 0,1 0,0.333 0,0.667 0,1 -1.33,0.333 -1.33,0.667 0,1 0,0.333 0,0.667 0,1 -0.67,0 -1,0.333 -1,1 -0.33,0 -0.67,0 -1,0 -0.17,-117.667 0,-235.334 0.5,-353 1.11,-1.2119 1.61,-0.8786 1.5,1 z"
       id="path10" />
  </g>
  <g
     id="g16"
     transform="translate(-522.75273)">
    <path
       style="opacity:0.997"
       fill="#047bc1"
       d="m 3253.5,25.5 c 0.33,117.501 0,234.835 -1,352 -1.33,0 -2,-0.667 -2,-2 -1,-1.667 -2.33,-3 -4,-4 -5.33,-4 -10,-8.667 -14,-14 -0.67,-1.333 -1.67,-2.333 -3,-3 -72.41,-71.078 -143.75,-142.412 -214,-214 -0.67,-1.333 -1.67,-2.333 -3,-3 -31.01,-30.673 -62.01,-61.3394 -93,-92 -6.41,-6.4082 -12.41,-13.0748 -18,-20 117.23,-0.454 234.56,-0.454 352,0 z m -56,214 c 0,-2 -1,-3 -3,-3 -2.33,-4.333 -5.67,-7.667 -10,-10 0,-2 -1,-3 -3,-3 0,-2 -1,-3 -3,-3 -35.28,-36.951 -71.28,-73.284 -108,-109 0,-0.667 -0.33,-1 -1,-1 -1.33,-2 -3,-3.667 -5,-5 0,-0.667 -0.33,-1 -1,-1 -1.67,-2.333 -3.67,-4.333 -6,-6 0,-0.6667 -0.33,-1 -1,-1 -0.33,-1 -1,-1.6667 -2,-2 -2,-2.6667 -4.33,-5 -7,-7 -0.33,-1 -1,-1.6667 -2,-2 0,-0.6667 -0.33,-1 -1,-1 -0.67,-1.3333 -1.67,-2.3333 -3,-3 0,-0.6667 -0.33,-1 -1,-1 -0.45,-0.9584 -1.12,-1.7917 -2,-2.5 54,-0.5 108,-0.6667 162,-0.5 0.17,54.001 0,108.001 -0.5,162 -0.67,-0.752 -1.5,-1.086 -2.5,-1 z"
       id="path14" />
  </g>
  <g
     id="g20"
     transform="translate(-522.75273)">
    <path
       style="opacity:0.192"
       fill="#7b848a"
       d="m 3257.5,25.5 c 1.33,0.6667 1.33,1.3333 0,2 0,-0.6667 0,-1.3333 0,-2 z"
       id="path18" />
  </g>
  <g
     id="g24"
     transform="translate(-522.75273)">
    <path
       style="opacity:0.192"
       fill="#3c4851"
       d="m 3253.5,25.5 c 0.33,0 0.67,0 1,0 -0.33,117.501 0,234.835 1,352 -1.24,2.485 -2.24,2.485 -3,0 1,-117.165 1.33,-234.499 1,-352 z"
       id="path22" />
  </g>
  <g
     id="g28"
     transform="translate(-522.75273)">
    <path
       style="opacity:0.192"
       fill="#7b848a"
       d="m 3257.5,28.5 c 1.33,0.6667 1.33,0.6667 0,0 z"
       id="path26" />
  </g>
  <g
     id="g32"
     transform="translate(-522.75273)">
    <path
       style="opacity:0.192"
       fill="#7b848a"
       d="m 3257.5,30.5 c 1.33,0.6667 1.33,0.6667 0,0 z"
       id="path30" />
  </g>
  <g
     id="g36"
     transform="translate(-522.75273)">
    <path
       style="opacity:0.192"
       fill="#7b848a"
       d="m 3257.5,32.5 c 1.33,0.6667 1.33,0.6667 0,0 z"
       id="path34" />
  </g>
  <g
     id="g40"
     transform="translate(-522.75273)">
    <path
       style="opacity:0.192"
       fill="#7b848a"
       d="m 3257.5,34.5 c 1.33,0.6667 1.33,0.6667 0,0 z"
       id="path38" />
  </g>
  <g
     id="g44"
     transform="translate(-522.75273)">
    <path
       style="opacity:0.192"
       fill="#7b848a"
       d="m 3257.5,36.5 c 1.33,0.6667 1.33,0.6667 0,0 z"
       id="path42" />
  </g>
  <g
     id="g48"
     transform="translate(-522.75273)">
    <path
       style="opacity:0.192"
       fill="#7b848a"
       d="m 3257.5,38.5 c 1.33,0.6667 1.33,0.6667 0,0 z"
       id="path46" />
  </g>
  <g
     id="g52"
     transform="translate(-522.75273)">
    <path
       style="opacity:0.192"
       fill="#7b848a"
       d="m 3257.5,40.5 c 1.33,0.6667 1.33,0.6667 0,0 z"
       id="path50" />
  </g>
  <g
     id="g56"
     transform="translate(-522.75273)">
    <path
       style="opacity:0.192"
       fill="#7b848a"
       d="m 3257.5,42.5 c 1.33,0.6667 1.33,0.6667 0,0 z"
       id="path54" />
  </g>
  <g
     id="g60"
     transform="translate(-522.75273)">
    <path
       style="opacity:0.192"
       fill="#7b848a"
       d="m 3257.5,44.5 c 1.33,0.6667 1.33,0.6667 0,0 z"
       id="path58" />
  </g>
  <g
     id="g64"
     transform="translate(-522.75273)">
    <path
       style="opacity:0.192"
       fill="#7b848a"
       d="m 3257.5,46.5 c 1.33,0.6667 1.33,0.6667 0,0 z"
       id="path62" />
  </g>
  <g
     id="g68"
     transform="translate(-522.75273)">
    <path
       style="opacity:0.192"
       fill="#7b848a"
       d="m 3257.5,48.5 c 1.33,0.6667 1.33,0.6667 0,0 z"
       id="path66" />
  </g>
  <g
     id="g72"
     transform="translate(-522.75273)">
    <path
       style="opacity:0.192"
       fill="#7b848a"
       d="m 3257.5,50.5 c 1.33,0.6667 1.33,0.6667 0,0 z"
       id="path70" />
  </g>
  <g
     id="g76"
     transform="translate(-522.75273)">
    <path
       style="opacity:0.192"
       fill="#7b848a"
       d="m 3257.5,52.5 c 1.33,0.6667 1.33,0.6667 0,0 z"
       id="path74" />
  </g>
  <g
     id="g80"
     transform="translate(-522.75273)">
    <path
       style="opacity:0.192"
       fill="#7b848a"
       d="m 3257.5,54.5 c 1.33,0.6667 1.33,0.6667 0,0 z"
       id="path78" />
  </g>
  <g
     id="g84"
     transform="translate(-522.75273)">
    <path
       style="opacity:0.192"
       fill="#7b848a"
       d="m 3257.5,56.5 c 1.33,0.6667 1.33,0.6667 0,0 z"
       id="path82" />
  </g>
  <g
     id="g88"
     transform="translate(-522.75273)">
    <path
       style="opacity:0.192"
       fill="#7b848a"
       d="m 3257.5,58.5 c 1.33,0.6667 1.33,0.6667 0,0 z"
       id="path86" />
  </g>
  <g
     id="g92"
     transform="translate(-522.75273)">
    <path
       style="opacity:0.192"
       fill="#7b848a"
       d="m 3257.5,60.5 c 1.33,0.6667 1.33,0.6667 0,0 z"
       id="path90" />
  </g>
  <g
     id="g96"
     transform="translate(-522.75273)">
    <path
       style="opacity:0.192"
       fill="#7b848a"
       d="m 3257.5,62.5 c 1.33,0.6667 1.33,0.6667 0,0 z"
       id="path94" />
  </g>
  <g
     id="g100"
     transform="translate(-522.75273)">
    <path
       style="opacity:0.192"
       fill="#7b848a"
       d="m 3257.5,64.5 c 1.33,0.6667 1.33,0.6667 0,0 z"
       id="path98" />
  </g>
  <g
     id="g104"
     transform="translate(-522.75273)">
    <path
       style="opacity:0.192"
       fill="#7b848a"
       d="m 3257.5,66.5 c 1.33,0.6667 1.33,0.6667 0,0 z"
       id="path102" />
  </g>
  <g
     id="g108"
     transform="translate(-522.75273)">
    <path
       style="opacity:0.192"
       fill="#7b848a"
       d="m 3257.5,68.5 c 1.33,0.6667 1.33,0.6667 0,0 z"
       id="path106" />
  </g>
  <g
     id="g112"
     transform="translate(-522.75273)">
    <path
       style="opacity:0.192"
       fill="#7b848a"
       d="m 3257.5,70.5 c 1.33,0.6667 1.33,0.6667 0,0 z"
       id="path110" />
  </g>
  <g
     id="g116"
     transform="translate(-522.75273)">
    <path
       style="opacity:0.192"
       fill="#7b848a"
       d="m 3257.5,72.5 c 1.33,0.6667 1.33,0.6667 0,0 z"
       id="path114" />
  </g>
  <g
     id="g120"
     transform="translate(-522.75273)">
    <path
       style="opacity:0.192"
       fill="#7b848a"
       d="m 3257.5,74.5 c 1.33,0.6667 1.33,0.6667 0,0 z"
       id="path118" />
  </g>
  <g
     id="g124"
     transform="translate(-522.75273)">
    <path
       style="opacity:0.192"
       fill="#7b848a"
       d="m 3257.5,76.5 c 1.33,0.6667 1.33,0.6667 0,0 z"
       id="path122" />
  </g>
  <g
     id="g128"
     transform="translate(-522.75273)">
    <path
       style="opacity:0.192"
       fill="#4b555e"
       d="m 3197.5,239.5 c 1,-0.086 1.83,0.248 2.5,1 0.5,-53.999 0.67,-107.999 0.5,-162 -54,-0.1667 -108,0 -162,0.5 0.88,0.7083 1.55,1.5416 2,2.5 -1.88,-0.2118 -3.22,-1.2118 -4,-3 55,-1 110,-1.3333 165,-1 0.33,55.004 0,110.004 -1,165 -1.35,-0.688 -2.35,-1.688 -3,-3 z"
       id="path126" />
  </g>
  <g
     id="g132"
     transform="translate(-522.75273)">
    <path
       style="opacity:0.192"
       fill="#7b848a"
       d="m 3257.5,78.5 c 1.33,0.6667 1.33,0.6667 0,0 z"
       id="path130" />
  </g>
  <g
     id="g136"
     transform="translate(-522.75273)">
    <path
       style="opacity:0.192"
       fill="#7b848a"
       d="m 3257.5,80.5 c 1.33,0.6667 1.33,0.6667 0,0 z"
       id="path134" />
  </g>
  <g
     id="g140"
     transform="translate(-522.75273)">
    <path
       style="opacity:0.192"
       fill="#566069"
       d="m 3041.5,82.5 c 1.33,0.6667 2.33,1.6667 3,3 -1.7,-0.1854 -3.03,-1.0187 -4,-2.5 0.23,-0.3988 0.56,-0.5654 1,-0.5 z"
       id="path138" />
  </g>
  <g
     id="g144"
     transform="translate(-522.75273)">
    <path
       style="opacity:0.192"
       fill="#7b848a"
       d="m 3257.5,82.5 c 1.33,0.6667 1.33,0.6667 0,0 z"
       id="path142" />
  </g>
  <g
     id="g148"
     transform="translate(-522.75273)">
    <path
       style="opacity:0.192"
       fill="#7b848a"
       d="m 3257.5,84.5 c 1.33,0.6667 1.33,0.6667 0,0 z"
       id="path146" />
  </g>
  <g
     id="g152"
     transform="translate(-522.75273)">
    <path
       style="opacity:0.192"
       fill="#62686d"
       d="m 3045.5,86.5 c 1,0.3333 1.67,1 2,2 -0.74,0.131 -1.41,-0.0357 -2,-0.5 -1.24,-0.69 -1.24,-1.19 0,-1.5 z"
       id="path150" />
  </g>
  <g
     id="g156"
     transform="translate(-522.75273)">
    <path
       style="opacity:0.192"
       fill="#7b848a"
       d="m 3257.5,86.5 c 1.33,0.6667 1.33,0.6667 0,0 z"
       id="path154" />
  </g>
  <g
     id="g160"
     transform="translate(-522.75273)">
    <path
       style="opacity:0.192"
       fill="#7b848a"
       d="m 3257.5,88.5 c 1.33,0.6667 1.33,0.6667 0,0 z"
       id="path158" />
  </g>
  <g
     id="g164"
     transform="translate(-522.75273)">
    <path
       style="opacity:0.192"
       fill="#7b848a"
       d="m 3257.5,90.5 c 1.33,0.6667 1.33,0.6667 0,0 z"
       id="path162" />
  </g>
  <g
     id="g168"
     transform="translate(-522.75273)">
    <path
       style="opacity:0.192"
       fill="#7b848a"
       d="m 3257.5,92.5 c 1.33,0.6667 1.33,0.6667 0,0 z"
       id="path166" />
  </g>
  <g
     id="g172"
     transform="translate(-522.75273)">
    <path
       style="opacity:0.192"
       fill="#7b848a"
       d="m 3257.5,94.5 c 1.33,0.6667 1.33,0.6667 0,0 z"
       id="path170" />
  </g>
  <g
     id="g176"
     transform="translate(-522.75273)">
    <path
       style="opacity:0.192"
       fill="#495056"
       d="m 3054.5,95.5 c 1,0.3333 1.67,1 2,2 -0.74,0.131 -1.41,-0.0357 -2,-0.5 -1.24,-0.69 -1.24,-1.19 0,-1.5 z"
       id="path174" />
  </g>
  <g
     id="g180"
     transform="translate(-522.75273)">
    <path
       style="opacity:0.192"
       fill="#7b848a"
       d="m 3257.5,96.5 c 1.33,0.6667 1.33,0.6667 0,0 z"
       id="path178" />
  </g>
  <g
     id="g184"
     transform="translate(-522.75273)">
    <path
       style="opacity:0.192"
       fill="#5a626a"
       d="m 3057.5,98.5 c 2.33,1.667 4.33,3.667 6,6 -2.73,-1.213 -5.06,-3.046 -7,-5.5 0.23,-0.3988 0.56,-0.5654 1,-0.5 z"
       id="path182" />
  </g>
  <g
     id="g188"
     transform="translate(-522.75273)">
    <path
       style="opacity:0.192"
       fill="#7b848a"
       d="m 3257.5,98.5 c 1.33,0.6667 1.33,0.6667 0,0 z"
       id="path186" />
  </g>
  <g
     id="g192"
     transform="translate(-522.75273)">
    <path
       style="opacity:0.192"
       fill="#7b848a"
       d="m 3257.5,100.5 c 1.33,0.667 1.33,0.667 0,0 z"
       id="path190" />
  </g>
  <g
     id="g196"
     transform="translate(-522.75273)">
    <path
       style="opacity:0.192"
       fill="#7b848a"
       d="m 3257.5,102.5 c 1.33,0.667 1.33,0.667 0,0 z"
       id="path194" />
  </g>
  <g
     id="g200"
     transform="translate(-522.75273)">
    <path
       style="opacity:0.192"
       fill="#7b848a"
       d="m 3257.5,104.5 c 1.33,0.667 1.33,0.667 0,0 z"
       id="path198" />
  </g>
  <g
     id="g204"
     transform="translate(-522.75273)">
    <path
       style="opacity:0.192"
       fill="#7b848a"
       d="m 3257.5,106.5 c 1.33,0.667 1.33,0.667 0,0 z"
       id="path202" />
  </g>
  <g
     id="g208"
     transform="translate(-522.75273)">
    <path
       style="opacity:0.192"
       fill="#575e65"
       d="m 3064.5,105.5 c 2,1.333 3.67,3 5,5 -2.39,-0.873 -4.39,-2.373 -6,-4.5 0.23,-0.399 0.56,-0.565 1,-0.5 z"
       id="path206" />
  </g>
  <g
     id="g212"
     transform="translate(-522.75273)">
    <path
       style="opacity:0.192"
       fill="#7b848a"
       d="m 3257.5,108.5 c 1.33,0.667 1.33,0.667 0,0 z"
       id="path210" />
  </g>
  <g
     id="g216"
     transform="translate(-522.75273)">
    <path
       style="opacity:0.192"
       fill="#7b848a"
       d="m 3257.5,110.5 c 1.33,0.667 1.33,0.667 0,0 z"
       id="path214" />
  </g>
  <g
     id="g220"
     transform="translate(-522.75273)">
    <path
       style="opacity:0.192"
       fill="#7b848a"
       d="m 3257.5,112.5 c 1.33,0.667 1.33,0.667 0,0 z"
       id="path218" />
  </g>
  <g
     id="g224"
     transform="translate(-522.75273)">
    <path
       style="opacity:0.192"
       fill="#7b848a"
       d="m 3257.5,114.5 c 1.33,0.667 1.33,0.667 0,0 z"
       id="path222" />
  </g>
  <g
     id="g228"
     transform="translate(-522.75273)">
    <path
       style="opacity:0.192"
       fill="#7b848a"
       d="m 3257.5,116.5 c 1.33,0.667 1.33,0.667 0,0 z"
       id="path226" />
  </g>
  <g
     id="g232"
     transform="translate(-522.75273)">
    <path
       style="opacity:0.192"
       fill="#7b848a"
       d="m 3257.5,118.5 c 1.33,0.667 1.33,0.667 0,0 z"
       id="path230" />
  </g>
  <g
     id="g236"
     transform="translate(-522.75273)">
    <path
       style="opacity:0.192"
       fill="#7b848a"
       d="m 3257.5,120.5 c 1.33,0.667 1.33,0.667 0,0 z"
       id="path234" />
  </g>
  <g
     id="g240"
     transform="translate(-522.75273)">
    <path
       style="opacity:0.192"
       fill="#7b848a"
       d="m 3257.5,122.5 c 1.33,0.667 1.33,0.667 0,0 z"
       id="path238" />
  </g>
  <g
     id="g244"
     transform="translate(-522.75273)">
    <path
       style="opacity:0.192"
       fill="#7b848a"
       d="m 3257.5,124.5 c 1.33,0.667 1.33,0.667 0,0 z"
       id="path242" />
  </g>
  <g
     id="g248"
     transform="translate(-522.75273)">
    <path
       style="opacity:0.192"
       fill="#4e555b"
       d="m 3070.5,111.5 c 36.72,35.716 72.72,72.049 108,109 -37,-36 -73,-72.333 -108,-109 z"
       id="path246" />
  </g>
  <g
     id="g252"
     transform="translate(-522.75273)">
    <path
       style="opacity:0.192"
       fill="#7b848a"
       d="m 3257.5,126.5 c 1.33,0.667 1.33,0.667 0,0 z"
       id="path250" />
  </g>
  <g
     id="g256"
     transform="translate(-522.75273)">
    <path
       style="opacity:0.192"
       fill="#7b848a"
       d="m 3257.5,128.5 c 1.33,0.667 1.33,0.667 0,0 z"
       id="path254" />
  </g>
  <g
     id="g260"
     transform="translate(-522.75273)">
    <path
       style="opacity:0.192"
       fill="#7b848a"
       d="m 3257.5,130.5 c 1.33,0.667 1.33,0.667 0,0 z"
       id="path258" />
  </g>
  <g
     id="g264"
     transform="translate(-522.75273)">
    <path
       style="opacity:0.192"
       fill="#7b848a"
       d="m 3257.5,132.5 c 1.33,0.667 1.33,0.667 0,0 z"
       id="path262" />
  </g>
  <g
     id="g268"
     transform="translate(-522.75273)">
    <path
       style="opacity:0.192"
       fill="#7b848a"
       d="m 3257.5,134.5 c 1.33,0.667 1.33,0.667 0,0 z"
       id="path266" />
  </g>
  <g
     id="g272"
     transform="translate(-522.75273)">
    <path
       style="opacity:0.192"
       fill="#7b848a"
       d="m 3257.5,136.5 c 1.33,0.667 1.33,0.667 0,0 z"
       id="path270" />
  </g>
  <g
     id="g276"
     transform="translate(-522.75273)">
    <path
       style="opacity:0.192"
       fill="#666f77"
       d="m 3012.5,137.5 c 1.33,0.667 2.33,1.667 3,3 -2,0 -3,-1 -3,-3 z"
       id="path274" />
  </g>
  <g
     id="g280"
     transform="translate(-522.75273)">
    <path
       style="opacity:0.192"
       fill="#7b848a"
       d="m 3257.5,138.5 c 1.33,0.667 1.33,0.667 0,0 z"
       id="path278" />
  </g>
  <g
     id="g284"
     transform="translate(-522.75273)">
    <path
       style="opacity:0.192"
       fill="#7b848a"
       d="m 3257.5,140.5 c 1.33,0.667 1.33,0.667 0,0 z"
       id="path282" />
  </g>
  <g
     id="g288"
     transform="translate(-522.75273)">
    <path
       style="opacity:0.192"
       fill="#7b848a"
       d="m 3257.5,142.5 c 1.33,0.667 1.33,0.667 0,0 z"
       id="path286" />
  </g>
  <g
     id="g292"
     transform="translate(-522.75273)">
    <path
       style="opacity:0.192"
       fill="#7b848a"
       d="m 3257.5,144.5 c 1.33,0.667 1.33,0.667 0,0 z"
       id="path290" />
  </g>
  <g
     id="g296"
     transform="translate(-522.75273)">
    <path
       style="opacity:0.192"
       fill="#7b848a"
       d="m 3257.5,146.5 c 1.33,0.667 1.33,0.667 0,0 z"
       id="path294" />
  </g>
  <g
     id="g300"
     transform="translate(-522.75273)">
    <path
       style="opacity:0.192"
       fill="#7b848a"
       d="m 3257.5,148.5 c 1.33,0.667 1.33,0.667 0,0 z"
       id="path298" />
  </g>
  <g
     id="g304"
     transform="translate(-522.75273)">
    <path
       style="opacity:0.192"
       fill="#7b848a"
       d="m 3257.5,150.5 c 1.33,0.667 1.33,0.667 0,0 z"
       id="path302" />
  </g>
  <g
     id="g308"
     transform="translate(-522.75273)">
    <path
       style="opacity:0.192"
       fill="#7b848a"
       d="m 3257.5,152.5 c 1.33,0.667 1.33,0.667 0,0 z"
       id="path306" />
  </g>
  <g
     id="g312"
     transform="translate(-522.75273)">
    <path
       style="opacity:0.192"
       fill="#7b848a"
       d="m 3257.5,154.5 c 1.33,0.667 1.33,0.667 0,0 z"
       id="path310" />
  </g>
  <g
     id="g316"
     transform="translate(-522.75273)">
    <path
       style="opacity:0.192"
       fill="#7b848a"
       d="m 3257.5,156.5 c 1.33,0.667 1.33,0.667 0,0 z"
       id="path314" />
  </g>
  <g
     id="g320"
     transform="translate(-522.75273)">
    <path
       style="opacity:0.192"
       fill="#7b848a"
       d="m 3257.5,158.5 c 1.33,0.667 1.33,0.667 0,0 z"
       id="path318" />
  </g>
  <g
     id="g324"
     transform="translate(-522.75273)">
    <path
       style="opacity:0.192"
       fill="#7b848a"
       d="m 3257.5,160.5 c 1.33,0.667 1.33,0.667 0,0 z"
       id="path322" />
  </g>
  <g
     id="g328"
     transform="translate(-522.75273)">
    <path
       style="opacity:0.192"
       fill="#7b848a"
       d="m 3257.5,162.5 c 1.33,0.667 1.33,0.667 0,0 z"
       id="path326" />
  </g>
  <g
     id="g332"
     transform="translate(-522.75273)">
    <path
       style="opacity:0.192"
       fill="#7b848a"
       d="m 3257.5,164.5 c 1.33,0.667 1.33,0.667 0,0 z"
       id="path330" />
  </g>
  <g
     id="g336"
     transform="translate(-522.75273)">
    <path
       style="opacity:0.192"
       fill="#7b848a"
       d="m 3257.5,166.5 c 1.33,0.667 1.33,0.667 0,0 z"
       id="path334" />
  </g>
  <g
     id="g340"
     transform="translate(-522.75273)">
    <path
       style="opacity:0.192"
       fill="#7b848a"
       d="m 3257.5,168.5 c 1.33,0.667 1.33,0.667 0,0 z"
       id="path338" />
  </g>
  <g
     id="g344"
     transform="translate(-522.75273)">
    <path
       style="opacity:0.192"
       fill="#7b848a"
       d="m 3257.5,170.5 c 1.33,0.667 1.33,0.667 0,0 z"
       id="path342" />
  </g>
  <g
     id="g348"
     transform="translate(-522.75273)">
    <path
       style="opacity:0.192"
       fill="#7b848a"
       d="m 3257.5,172.5 c 1.33,0.667 1.33,0.667 0,0 z"
       id="path346" />
  </g>
  <g
     id="g352"
     transform="translate(-522.75273)">
    <path
       style="opacity:0.192"
       fill="#7b848a"
       d="m 3257.5,174.5 c 1.33,0.667 1.33,0.667 0,0 z"
       id="path350" />
  </g>
  <g
     id="g356"
     transform="translate(-522.75273)">
    <path
       style="opacity:0.192"
       fill="#7b848a"
       d="m 3257.5,176.5 c 1.33,0.667 1.33,0.667 0,0 z"
       id="path354" />
  </g>
  <g
     id="g360"
     transform="translate(-522.75273)">
    <path
       style="opacity:0.192"
       fill="#7b848a"
       d="m 3257.5,178.5 c 1.33,0.667 1.33,0.667 0,0 z"
       id="path358" />
  </g>
  <g
     id="g364"
     transform="translate(-522.75273)">
    <path
       style="opacity:0.192"
       fill="#7b848a"
       d="m 3257.5,180.5 c 1.33,0.667 1.33,0.667 0,0 z"
       id="path362" />
  </g>
  <g
     id="g368"
     transform="translate(-522.75273)">
    <path
       style="opacity:0.192"
       fill="#7b848a"
       d="m 3257.5,182.5 c 1.33,0.667 1.33,0.667 0,0 z"
       id="path366" />
  </g>
  <g
     id="g372"
     transform="translate(-522.75273)">
    <path
       style="opacity:0.192"
       fill="#7b848a"
       d="m 3257.5,184.5 c 1.33,0.667 1.33,0.667 0,0 z"
       id="path370" />
  </g>
  <g
     id="g376"
     transform="translate(-522.75273)">
    <path
       style="opacity:0.192"
       fill="#7b848a"
       d="m 3257.5,186.5 c 1.33,0.667 1.33,0.667 0,0 z"
       id="path374" />
  </g>
  <g
     id="g380"
     transform="translate(-522.75273)">
    <path
       style="opacity:0.192"
       fill="#7b848a"
       d="m 3257.5,188.5 c 1.33,0.667 1.33,0.667 0,0 z"
       id="path378" />
  </g>
  <g
     id="g384"
     transform="translate(-522.75273)">
    <path
       style="opacity:0.192"
       fill="#7b848a"
       d="m 3257.5,190.5 c 1.33,0.667 1.33,0.667 0,0 z"
       id="path382" />
  </g>
  <g
     id="g388"
     transform="translate(-522.75273)">
    <path
       style="opacity:0.192"
       fill="#7b848a"
       d="m 3257.5,192.5 c 1.33,0.667 1.33,0.667 0,0 z"
       id="path386" />
  </g>
  <g
     id="g392"
     transform="translate(-522.75273)">
    <path
       style="opacity:0.192"
       fill="#7b848a"
       d="m 3257.5,194.5 c 1.33,0.667 1.33,0.667 0,0 z"
       id="path390" />
  </g>
  <g
     id="g396"
     transform="translate(-522.75273)">
    <path
       style="opacity:0.192"
       fill="#7b848a"
       d="m 3257.5,196.5 c 1.33,0.667 1.33,0.667 0,0 z"
       id="path394" />
  </g>
  <g
     id="g400"
     transform="translate(-522.75273)">
    <path
       style="opacity:0.192"
       fill="#7b848a"
       d="m 3257.5,198.5 c 1.33,0.667 1.33,0.667 0,0 z"
       id="path398" />
  </g>
  <g
     id="g404"
     transform="translate(-522.75273)">
    <path
       style="opacity:0.192"
       fill="#7b848a"
       d="m 3257.5,200.5 c 1.33,0.667 1.33,0.667 0,0 z"
       id="path402" />
  </g>
  <g
     id="g408"
     transform="translate(-522.75273)">
    <path
       style="opacity:0.192"
       fill="#7b848a"
       d="m 3257.5,202.5 c 1.33,0.667 1.33,0.667 0,0 z"
       id="path406" />
  </g>
  <g
     id="g412"
     transform="translate(-522.75273)">
    <path
       style="opacity:0.192"
       fill="#7b848a"
       d="m 3257.5,204.5 c 1.33,0.667 1.33,0.667 0,0 z"
       id="path410" />
  </g>
  <g
     id="g416"
     transform="translate(-522.75273)">
    <path
       style="opacity:0.192"
       fill="#7b848a"
       d="m 3257.5,206.5 c 1.33,0.667 1.33,0.667 0,0 z"
       id="path414" />
  </g>
  <g
     id="g420"
     transform="translate(-522.75273)">
    <path
       style="opacity:0.192"
       fill="#7b848a"
       d="m 3257.5,208.5 c 1.33,0.667 1.33,0.667 0,0 z"
       id="path418" />
  </g>
  <g
     id="g424"
     transform="translate(-522.75273)">
    <path
       style="opacity:0.192"
       fill="#7b848a"
       d="m 3257.5,210.5 c 1.33,0.667 1.33,0.667 0,0 z"
       id="path422" />
  </g>
  <g
     id="g428"
     transform="translate(-522.75273)">
    <path
       style="opacity:0.192"
       fill="#7b848a"
       d="m 3257.5,212.5 c 1.33,0.667 1.33,0.667 0,0 z"
       id="path426" />
  </g>
  <g
     id="g432"
     transform="translate(-522.75273)">
    <path
       style="opacity:0.192"
       fill="#7b848a"
       d="m 3257.5,214.5 c 1.33,0.667 1.33,0.667 0,0 z"
       id="path430" />
  </g>
  <g
     id="g436"
     transform="translate(-522.75273)">
    <path
       style="opacity:0.192"
       fill="#7b848a"
       d="m 3257.5,216.5 c 1.33,0.667 1.33,0.667 0,0 z"
       id="path434" />
  </g>
  <g
     id="g440"
     transform="translate(-522.75273)">
    <path
       style="opacity:0.192"
       fill="#7b848a"
       d="m 3257.5,218.5 c 1.33,0.667 1.33,0.667 0,0 z"
       id="path438" />
  </g>
  <g
     id="g444"
     transform="translate(-522.75273)">
    <path
       style="opacity:0.192"
       fill="#51585f"
       d="m 3178.5,220.5 c 2,0 3,1 3,3 -1.33,-0.667 -2.33,-1.667 -3,-3 z"
       id="path442" />
  </g>
  <g
     id="g448"
     transform="translate(-522.75273)">
    <path
       style="opacity:0.192"
       fill="#7b848a"
       d="m 3257.5,220.5 c 1.33,0.667 1.33,0.667 0,0 z"
       id="path446" />
  </g>
  <g
     id="g452"
     transform="translate(-522.75273)">
    <path
       style="opacity:0.192"
       fill="#7b848a"
       d="m 3257.5,222.5 c 1.33,0.667 1.33,0.667 0,0 z"
       id="path450" />
  </g>
  <g
     id="g456"
     transform="translate(-522.75273)">
    <path
       style="opacity:0.192"
       fill="#3d454c"
       d="m 3181.5,223.5 c 2,0 3,1 3,3 -1.33,-0.667 -2.33,-1.667 -3,-3 z"
       id="path454" />
  </g>
  <g
     id="g460"
     transform="translate(-522.75273)">
    <path
       style="opacity:0.192"
       fill="#7b848a"
       d="m 3257.5,224.5 c 1.33,0.667 1.33,0.667 0,0 z"
       id="path458" />
  </g>
  <g
     id="g464"
     transform="translate(-522.75273)">
    <path
       style="opacity:0.192"
       fill="#454e56"
       d="m 3184.5,226.5 c 4.33,2.333 7.67,5.667 10,10 -3.67,-3 -7,-6.333 -10,-10 z"
       id="path462" />
  </g>
  <g
     id="g468"
     transform="translate(-522.75273)">
    <path
       style="opacity:0.192"
       fill="#7b848a"
       d="m 3257.5,226.5 c 1.33,0.667 1.33,0.667 0,0 z"
       id="path466" />
  </g>
  <g
     id="g472"
     transform="translate(-522.75273)">
    <path
       style="opacity:0.192"
       fill="#7b848a"
       d="m 3257.5,228.5 c 1.33,0.667 1.33,0.667 0,0 z"
       id="path470" />
  </g>
  <g
     id="g476"
     transform="translate(-522.75273)">
    <path
       style="opacity:0.192"
       fill="#7b848a"
       d="m 3257.5,230.5 c 1.33,0.667 1.33,0.667 0,0 z"
       id="path474" />
  </g>
  <g
     id="g480"
     transform="translate(-522.75273)">
    <path
       style="opacity:0.192"
       fill="#7b848a"
       d="m 3257.5,232.5 c 1.33,0.667 1.33,0.667 0,0 z"
       id="path478" />
  </g>
  <g
     id="g484"
     transform="translate(-522.75273)">
    <path
       style="opacity:0.192"
       fill="#7b848a"
       d="m 3257.5,234.5 c 1.33,0.667 1.33,0.667 0,0 z"
       id="path482" />
  </g>
  <g
     id="g488"
     transform="translate(-522.75273)">
    <path
       style="opacity:0.192"
       fill="#515b63"
       d="m 3194.5,236.5 c 2,0 3,1 3,3 -1.33,-0.667 -2.33,-1.667 -3,-3 z"
       id="path486" />
  </g>
  <g
     id="g492"
     transform="translate(-522.75273)">
    <path
       style="opacity:0.192"
       fill="#7b848a"
       d="m 3257.5,236.5 c 1.33,0.667 1.33,0.667 0,0 z"
       id="path490" />
  </g>
  <g
     id="g496"
     transform="translate(-522.75273)">
    <path
       style="opacity:0.192"
       fill="#7b848a"
       d="m 3257.5,238.5 c 1.33,0.667 1.33,0.667 0,0 z"
       id="path494" />
  </g>
  <g
     id="g500"
     transform="translate(-522.75273)">
    <path
       style="opacity:0.991"
       fill="#010102"
       d="m 822.5,705.5 c -0.597,0.235 -0.93,0.735 -1,1.5 0.372,3.404 1.706,6.237 4,8.5 6.871,26.352 13.871,52.685 21,79 48.014,-184.98 96.18,-369.647 144.5,-554 41.76,-1.163 83.6,-1.33 125.5,-0.5 1.33,227.765 1.33,455.598 0,683.5 -24.95,0.475 -49.95,0.475 -75,0 0.17,-201.667 0,-403.334 -0.5,-605 -0.65,-1.196 -1.15,-1.196 -1.5,0 -0.35,1.593 -0.35,3.26 0,5 0,0.667 0,1.333 0,2 -53.664,198.755 -107.164,397.755 -160.5,597 -0.667,0.667 -1.333,1.333 -2,2 -19.902,-0.824 -40.069,-0.824 -60.5,0 -1.299,-0.59 -2.132,-1.59 -2.5,-3 -53.622,-199.526 -107.122,-398.859 -160.5,-598 0.348,-1.74 0.348,-3.407 0,-5 -0.346,-1.196 -0.846,-1.196 -1.5,0 -0.167,201.834 -0.667,403.5 -1.5,605 -23.545,0.105 -47.045,0.438 -70.5,1 -1.116,-3.061 -1.949,-6.228 -2.5,-9.5 0.506,-224.937 0.84,-450.104 1,-675.5 40.333,0 80.667,0 121,0 40.731,155.284 81.731,310.617 123,466 z"
       id="path498" />
  </g>
  <g
     id="g504"
     transform="translate(-522.75273)">
    <path
       style="opacity:0.192"
       fill="#7b848a"
       d="m 3257.5,240.5 c 1.33,0.667 1.33,0.667 0,0 z"
       id="path502" />
  </g>
  <g
     id="g508"
     transform="translate(-522.75273)">
    <path
       style="opacity:0.192"
       fill="#7b848a"
       d="m 3257.5,242.5 c 1.33,0.667 1.33,0.667 0,0 z"
       id="path506" />
  </g>
  <g
     id="g512"
     transform="translate(-522.75273)">
    <path
       style="opacity:0.192"
       fill="#7b848a"
       d="m 3257.5,244.5 c 1.33,0.667 1.33,0.667 0,0 z"
       id="path510" />
  </g>
  <g
     id="g516"
     transform="translate(-522.75273)">
    <path
       style="opacity:0.192"
       fill="#7b848a"
       d="m 3257.5,246.5 c 1.33,0.667 1.33,0.667 0,0 z"
       id="path514" />
  </g>
  <g
     id="g520"
     transform="translate(-522.75273)">
    <path
       style="opacity:0.192"
       fill="#7b848a"
       d="m 3257.5,248.5 c 1.33,0.667 1.33,0.667 0,0 z"
       id="path518" />
  </g>
  <g
     id="g524"
     transform="translate(-522.75273)">
    <path
       style="opacity:0.192"
       fill="#7b848a"
       d="m 3257.5,250.5 c 1.33,0.667 1.33,0.667 0,0 z"
       id="path522" />
  </g>
  <g
     id="g528"
     transform="translate(-522.75273)">
    <path
       style="opacity:0.192"
       fill="#7b848a"
       d="m 3257.5,252.5 c 1.33,0.667 1.33,0.667 0,0 z"
       id="path526" />
  </g>
  <g
     id="g532"
     transform="translate(-522.75273)">
    <path
       style="opacity:0.192"
       fill="#7b848a"
       d="m 3257.5,254.5 c 1.33,0.667 1.33,0.667 0,0 z"
       id="path530" />
  </g>
  <g
     id="g536"
     transform="translate(-522.75273)">
    <path
       style="opacity:0.192"
       fill="#7b848a"
       d="m 3257.5,256.5 c 1.33,0.667 1.33,0.667 0,0 z"
       id="path534" />
  </g>
  <g
     id="g540"
     transform="translate(-522.75273)">
    <path
       style="opacity:0.192"
       fill="#7b848a"
       d="m 3257.5,258.5 c 1.33,0.667 1.33,0.667 0,0 z"
       id="path538" />
  </g>
  <g
     id="g544"
     transform="translate(-522.75273)">
    <path
       style="opacity:0.192"
       fill="#7b848a"
       d="m 3257.5,260.5 c 1.33,0.667 1.33,0.667 0,0 z"
       id="path542" />
  </g>
  <g
     id="g548"
     transform="translate(-522.75273)">
    <path
       style="opacity:0.192"
       fill="#7b848a"
       d="m 3257.5,262.5 c 1.33,0.667 1.33,0.667 0,0 z"
       id="path546" />
  </g>
  <g
     id="g552"
     transform="translate(-522.75273)">
    <path
       style="opacity:0.192"
       fill="#7b848a"
       d="m 3257.5,264.5 c 1.33,0.667 1.33,0.667 0,0 z"
       id="path550" />
  </g>
  <g
     id="g556"
     transform="translate(-522.75273)">
    <path
       style="opacity:0.192"
       fill="#7b848a"
       d="m 3257.5,266.5 c 1.33,0.667 1.33,0.667 0,0 z"
       id="path554" />
  </g>
  <g
     id="g560"
     transform="translate(-522.75273)">
    <path
       style="opacity:0.192"
       fill="#7b848a"
       d="m 3257.5,268.5 c 1.33,0.667 1.33,0.667 0,0 z"
       id="path558" />
  </g>
  <g
     id="g564"
     transform="translate(-522.75273)">
    <path
       style="opacity:0.192"
       fill="#7b848a"
       d="m 3257.5,270.5 c 1.33,0.667 1.33,0.667 0,0 z"
       id="path562" />
  </g>
  <g
     id="g568"
     transform="translate(-522.75273)">
    <path
       style="opacity:0.192"
       fill="#7b848a"
       d="m 3257.5,272.5 c 1.33,0.667 1.33,0.667 0,0 z"
       id="path566" />
  </g>
  <g
     id="g572"
     transform="translate(-522.75273)">
    <path
       style="opacity:0.192"
       fill="#7b848a"
       d="m 3257.5,274.5 c 1.33,0.667 1.33,0.667 0,0 z"
       id="path570" />
  </g>
  <g
     id="g576"
     transform="translate(-522.75273)">
    <path
       style="opacity:0.192"
       fill="#7b848a"
       d="m 3257.5,276.5 c 1.33,0.667 1.33,0.667 0,0 z"
       id="path574" />
  </g>
  <g
     id="g580"
     transform="translate(-522.75273)">
    <path
       style="opacity:0.192"
       fill="#7b848a"
       d="m 3257.5,278.5 c 1.33,0.667 1.33,0.667 0,0 z"
       id="path578" />
  </g>
  <g
     id="g584"
     transform="translate(-522.75273)">
    <path
       style="opacity:0.192"
       fill="#7b848a"
       d="m 3257.5,280.5 c 1.33,0.667 1.33,0.667 0,0 z"
       id="path582" />
  </g>
  <g
     id="g588"
     transform="translate(-522.75273)">
    <path
       style="opacity:0.192"
       fill="#7b848a"
       d="m 3257.5,282.5 c 1.33,0.667 1.33,0.667 0,0 z"
       id="path586" />
  </g>
  <g
     id="g592"
     transform="translate(-522.75273)">
    <path
       style="opacity:0.192"
       fill="#7b848a"
       d="m 3257.5,284.5 c 1.33,0.667 1.33,0.667 0,0 z"
       id="path590" />
  </g>
  <g
     id="g596"
     transform="translate(-522.75273)">
    <path
       style="opacity:0.192"
       fill="#7b848a"
       d="m 3257.5,286.5 c 1.33,0.667 1.33,0.667 0,0 z"
       id="path594" />
  </g>
  <g
     id="g600"
     transform="translate(-522.75273)">
    <path
       style="opacity:0.192"
       fill="#7b848a"
       d="m 3257.5,288.5 c 1.33,0.667 1.33,0.667 0,0 z"
       id="path598" />
  </g>
  <g
     id="g604"
     transform="translate(-522.75273)">
    <path
       style="opacity:0.192"
       fill="#7b848a"
       d="m 3257.5,290.5 c 1.33,0.667 1.33,0.667 0,0 z"
       id="path602" />
  </g>
  <g
     id="g608"
     transform="translate(-522.75273)">
    <path
       style="opacity:0.192"
       fill="#7b848a"
       d="m 3257.5,292.5 c 1.33,0.667 1.33,0.667 0,0 z"
       id="path606" />
  </g>
  <g
     id="g612"
     transform="translate(-522.75273)">
    <path
       style="opacity:0.192"
       fill="#7b848a"
       d="m 3257.5,294.5 c 1.33,0.667 1.33,0.667 0,0 z"
       id="path610" />
  </g>
  <g
     id="g616"
     transform="translate(-522.75273)">
    <path
       style="opacity:0.192"
       fill="#7b848a"
       d="m 3257.5,296.5 c 1.33,0.667 1.33,0.667 0,0 z"
       id="path614" />
  </g>
  <g
     id="g620"
     transform="translate(-522.75273)">
    <path
       style="opacity:0.192"
       fill="#7b848a"
       d="m 3257.5,298.5 c 1.33,0.667 1.33,0.667 0,0 z"
       id="path618" />
  </g>
  <g
     id="g624"
     transform="translate(-522.75273)">
    <path
       style="opacity:0.192"
       fill="#7b848a"
       d="m 3257.5,300.5 c 1.33,0.667 1.33,0.667 0,0 z"
       id="path622" />
  </g>
  <g
     id="g628"
     transform="translate(-522.75273)">
    <path
       style="opacity:0.192"
       fill="#7b848a"
       d="m 3257.5,302.5 c 1.33,0.667 1.33,0.667 0,0 z"
       id="path626" />
  </g>
  <g
     id="g632"
     transform="translate(-522.75273)">
    <path
       style="opacity:0.192"
       fill="#7b848a"
       d="m 3257.5,304.5 c 1.33,0.667 1.33,0.667 0,0 z"
       id="path630" />
  </g>
  <g
     id="g636"
     transform="translate(-522.75273)">
    <path
       style="opacity:0.192"
       fill="#7b848a"
       d="m 3257.5,306.5 c 1.33,0.667 1.33,0.667 0,0 z"
       id="path634" />
  </g>
  <g
     id="g640"
     transform="translate(-522.75273)">
    <path
       style="opacity:0.192"
       fill="#7b848a"
       d="m 3257.5,308.5 c 1.33,0.667 1.33,0.667 0,0 z"
       id="path638" />
  </g>
  <g
     id="g644"
     transform="translate(-522.75273)">
    <path
       style="opacity:0.192"
       fill="#7b848a"
       d="m 3257.5,310.5 c 1.33,0.667 1.33,0.667 0,0 z"
       id="path642" />
  </g>
  <g
     id="g648"
     transform="translate(-522.75273)">
    <path
       style="opacity:0.192"
       fill="#7b848a"
       d="m 3257.5,312.5 c 1.33,0.667 1.33,0.667 0,0 z"
       id="path646" />
  </g>
  <g
     id="g652"
     transform="translate(-522.75273)">
    <path
       style="opacity:0.192"
       fill="#7b848a"
       d="m 3257.5,314.5 c 1.33,0.667 1.33,0.667 0,0 z"
       id="path650" />
  </g>
  <g
     id="g656"
     transform="translate(-522.75273)">
    <path
       style="opacity:0.192"
       fill="#7b848a"
       d="m 3257.5,316.5 c 1.33,0.667 1.33,0.667 0,0 z"
       id="path654" />
  </g>
  <g
     id="g660"
     transform="translate(-522.75273)">
    <path
       style="opacity:0.518"
       fill="#00131e"
       d="m 653.5,323.5 c -0.669,198.961 -1.336,399.294 -2,601 -0.607,-0.124 -0.94,-0.457 -1,-1 0.833,-201.5 1.333,-403.166 1.5,-605 0.654,-1.196 1.154,-1.196 1.5,0 0.348,1.593 0.348,3.26 0,5 z"
       id="path658" />
  </g>
  <g
     id="g664"
     transform="translate(-522.75273)">
    <path
       style="opacity:0.518"
       fill="#35414b"
       d="m 1041.5,923.5 c 0.07,0.438 -0.1,0.772 -0.5,1 -0.5,-1 -1,-2 -1.5,-3 0.21,-195.518 0.21,-394.185 0,-596 1.13,-2.855 1.13,-3.521 0,-2 -0.35,-1.74 -0.35,-3.407 0,-5 0.35,-1.196 0.85,-1.196 1.5,0 0.5,201.666 0.67,403.333 0.5,605 z"
       id="path662" />
  </g>
  <g
     id="g668"
     transform="translate(-522.75273)">
    <path
       style="opacity:0.192"
       fill="#7b848a"
       d="m 3257.5,318.5 c 1.33,0.667 1.33,0.667 0,0 z"
       id="path666" />
  </g>
  <g
     id="g672"
     transform="translate(-522.75273)">
    <path
       style="opacity:0.192"
       fill="#7b848a"
       d="m 3257.5,320.5 c 1.33,0.667 1.33,0.667 0,0 z"
       id="path670" />
  </g>
  <g
     id="g676"
     transform="translate(-522.75273)">
    <path
       style="opacity:0.192"
       fill="#7b848a"
       d="m 3257.5,322.5 c 1.33,0.667 1.33,0.667 0,0 z"
       id="path674" />
  </g>
  <g
     id="g680"
     transform="translate(-522.75273)">
    <path
       style="opacity:0.192"
       fill="#7b848a"
       d="m 3257.5,324.5 c 1.33,0.667 1.33,0.667 0,0 z"
       id="path678" />
  </g>
  <g
     id="g684"
     transform="translate(-522.75273)">
    <path
       style="opacity:0.192"
       fill="#7b848a"
       d="m 3257.5,326.5 c 1.33,0.667 1.33,0.667 0,0 z"
       id="path682" />
  </g>
  <g
     id="g688"
     transform="translate(-522.75273)">
    <path
       style="opacity:0.192"
       fill="#7b848a"
       d="m 3257.5,328.5 c 1.33,0.667 1.33,0.667 0,0 z"
       id="path686" />
  </g>
  <g
     id="g692"
     transform="translate(-522.75273)">
    <path
       style="opacity:0.192"
       fill="#7b848a"
       d="m 3257.5,330.5 c 1.33,0.667 1.33,0.667 0,0 z"
       id="path690" />
  </g>
  <g
     id="g696"
     transform="translate(-522.75273)">
    <path
       style="opacity:0.192"
       fill="#7b848a"
       d="m 3257.5,332.5 c 1.33,0.667 1.33,0.667 0,0 z"
       id="path694" />
  </g>
  <g
     id="g700"
     transform="translate(-522.75273)">
    <path
       style="opacity:0.192"
       fill="#7b848a"
       d="m 3257.5,334.5 c 1.33,0.667 1.33,0.667 0,0 z"
       id="path698" />
  </g>
  <g
     id="g704"
     transform="translate(-522.75273)">
    <path
       style="opacity:0.192"
       fill="#7b848a"
       d="m 3257.5,336.5 c 1.33,0.667 1.33,0.667 0,0 z"
       id="path702" />
  </g>
  <g
     id="g708"
     transform="translate(-522.75273)">
    <path
       style="opacity:0.192"
       fill="#7b848a"
       d="m 3257.5,338.5 c 1.33,0.667 1.33,0.667 0,0 z"
       id="path706" />
  </g>
  <g
     id="g712"
     transform="translate(-522.75273)">
    <path
       style="opacity:0.192"
       fill="#7b848a"
       d="m 3257.5,340.5 c 1.33,0.667 1.33,0.667 0,0 z"
       id="path710" />
  </g>
  <g
     id="g716"
     transform="translate(-522.75273)">
    <path
       style="opacity:0.192"
       fill="#7b848a"
       d="m 3257.5,342.5 c 1.33,0.667 1.33,0.667 0,0 z"
       id="path714" />
  </g>
  <g
     id="g720"
     transform="translate(-522.75273)">
    <path
       style="opacity:0.192"
       fill="#7b848a"
       d="m 3257.5,344.5 c 1.33,0.667 1.33,0.667 0,0 z"
       id="path718" />
  </g>
  <g
     id="g724"
     transform="translate(-522.75273)">
    <path
       style="opacity:0.192"
       fill="#7b848a"
       d="m 3257.5,346.5 c 1.33,0.667 1.33,0.667 0,0 z"
       id="path722" />
  </g>
  <g
     id="g728"
     transform="translate(-522.75273)">
    <path
       style="opacity:0.192"
       fill="#7b848a"
       d="m 3257.5,348.5 c 1.33,0.667 1.33,0.667 0,0 z"
       id="path726" />
  </g>
  <g
     id="g732"
     transform="translate(-522.75273)">
    <path
       style="opacity:0.192"
       fill="#7b848a"
       d="m 3257.5,350.5 c 1.33,0.667 1.33,0.667 0,0 z"
       id="path730" />
  </g>
  <g
     id="g736"
     transform="translate(-522.75273)">
    <path
       style="opacity:0.192"
       fill="#7b848a"
       d="m 3257.5,352.5 c 1.33,0.667 1.33,0.667 0,0 z"
       id="path734" />
  </g>
  <g
     id="g740"
     transform="translate(-522.75273)">
    <path
       style="opacity:0.192"
       fill="#7b848a"
       d="m 3257.5,354.5 c 1.33,0.667 1.33,0.667 0,0 z"
       id="path738" />
  </g>
  <g
     id="g744"
     transform="translate(-522.75273)">
    <path
       style="opacity:0.192"
       fill="#566069"
       d="m 3229.5,354.5 c 1.33,0.667 2.33,1.667 3,3 -2.7,-0.063 -3.7,-1.063 -3,-3 z"
       id="path742" />
  </g>
  <g
     id="g748"
     transform="translate(-522.75273)">
    <path
       style="opacity:0.192"
       fill="#7b848a"
       d="m 3257.5,356.5 c 1.33,0.667 1.33,0.667 0,0 z"
       id="path746" />
  </g>
  <g
     id="g752"
     transform="translate(-522.75273)">
    <path
       style="opacity:0.192"
       fill="#7b848a"
       d="m 3257.5,358.5 c 1.33,0.667 1.33,0.667 0,0 z"
       id="path750" />
  </g>
  <g
     id="g756"
     transform="translate(-522.75273)">
    <path
       style="opacity:0.192"
       fill="#7b848a"
       d="m 3257.5,360.5 c 1.33,0.667 1.33,0.667 0,0 z"
       id="path754" />
  </g>
  <g
     id="g760"
     transform="translate(-522.75273)">
    <path
       style="opacity:0.192"
       fill="#7b848a"
       d="m 3257.5,362.5 c 1.33,0.667 1.33,0.667 0,0 z"
       id="path758" />
  </g>
  <g
     id="g764"
     transform="translate(-522.75273)">
    <path
       style="opacity:0.192"
       fill="#7b848a"
       d="m 3257.5,364.5 c 1.33,0.667 1.33,0.667 0,0 z"
       id="path762" />
  </g>
  <g
     id="g768"
     transform="translate(-522.75273)">
    <path
       style="opacity:0.192"
       fill="#7b848a"
       d="m 3257.5,366.5 c 1.33,0.667 1.33,0.667 0,0 z"
       id="path766" />
  </g>
  <g
     id="g772"
     transform="translate(-522.75273)">
    <path
       style="opacity:0.192"
       fill="#7b848a"
       d="m 3257.5,368.5 c 1.33,0.667 1.33,0.667 0,0 z"
       id="path770" />
  </g>
  <g
     id="g776"
     transform="translate(-522.75273)">
    <path
       style="opacity:0.192"
       fill="#7b848a"
       d="m 3257.5,370.5 c 1.33,0.667 1.33,0.667 0,0 z"
       id="path774" />
  </g>
  <g
     id="g780"
     transform="translate(-522.75273)">
    <path
       style="opacity:0.192"
       fill="#3c4751"
       d="m 3246.5,371.5 c 1.67,1 3,2.333 4,4 -2.33,-0.333 -3.67,-1.667 -4,-4 z"
       id="path778" />
  </g>
  <g
     id="g784"
     transform="translate(-522.75273)">
    <path
       style="opacity:0.192"
       fill="#7b848a"
       d="m 3257.5,372.5 c 1.33,0.667 1.33,0.667 0,0 z"
       id="path782" />
  </g>
  <g
     id="g788"
     transform="translate(-522.75273)">
    <path
       style="opacity:0.192"
       fill="#7b848a"
       d="m 3257.5,374.5 c 1.33,0.667 1.33,0.667 0,0 z"
       id="path786" />
  </g>
  <g
     id="g792"
     transform="translate(-522.75273)">
    <path
       style="opacity:0.192"
       fill="#7b848a"
       d="m 3257.5,376.5 c 1.21,0.997 1.05,1.997 -0.5,3 -0.46,-0.594 -0.63,-1.261 -0.5,-2 0.67,0 1,-0.333 1,-1 z"
       id="path790" />
  </g>
  <g
     id="g892"
     transform="translate(-522.75273)">
    <path
       style="opacity:0.518"
       fill="#202b35"
       d="m 822.5,705.5 c 0.752,3.447 1.752,6.78 3,10 -2.294,-2.263 -3.628,-5.096 -4,-8.5 0.07,-0.765 0.403,-1.265 1,-1.5 z"
       id="path890" />
  </g>
  <g
     id="g968"
     transform="translate(-522.75273)">
    <path
       style="opacity:0.993"
       fill="#989a9d"
       d="m 788.5,1269.5 c 79.977,2.25 139.81,38.91 179.5,110 9.318,17.97 16.985,36.64 23,56 1.695,5.58 2.862,11.24 3.5,17 -20.64,5.94 -40.973,12.11 -61,18.5 -2.626,0.99 -5.293,1.33 -8,1 -8.154,-29.48 -19.987,-57.31 -35.5,-83.5 -22.843,-34.37 -54.176,-52.71 -94,-55 -5.268,1.21 -10.935,1.21 -17,0 -57.498,8.49 -91.164,41.83 -101,100 -3.749,35.56 7.085,65.73 32.5,90.5 13.174,10.84 27.174,20.5 42,29 34.083,15.92 68.416,31.25 103,46 27.246,12.62 52.579,28.29 76,47 41.433,37.39 61.767,84.23 61,140.5 0.915,51.75 -15.251,97.08 -48.5,136 -29.474,30.33 -64.641,48.83 -105.5,55.5 -1.851,0.84 -3.684,1.67 -5.5,2.5 -6.233,0.62 -12.233,0.62 -18,0 -0.333,0.67 -0.667,1.33 -1,2 -2.953,0.08 -5.953,-0.26 -9,-1 -6.435,2.2 -12.769,2.2 -19,0 -7.176,0.06 -14.843,0.06 -23,0 -99.482,-15.03 -164.982,-71.53 -196.5,-169.5 0.333,-0.33 0.667,-0.67 1,-1 -3.383,-8.47 -4.716,-17.3 -4,-26.5 23.944,-5.97 47.61,-11.47 71,-16.5 8.654,38.81 26.154,72.98 52.5,102.5 36.341,35.91 78.341,51.57 126,47 48.773,-9.11 81.106,-37.11 97,-84 15.85,-66.74 -5.984,-117.24 -65.5,-151.5 -9.667,-5 -19.333,-10 -29,-15 -34.998,-14.07 -69.665,-28.74 -104,-44 -28.605,-13.73 -53.771,-32.23 -75.5,-55.5 -20.089,-25.92 -31.756,-55.26 -35,-88 -5.955,-56.76 9.045,-106.76 45,-150 38.973,-39.94 86.473,-59.94 142.5,-60 z"
       id="path966" />
  </g>
  <g
     id="g996"
     transform="translate(-522.75273)">
    <path
       style="opacity:0.192"
       fill="#7b848a"
       d="m 1103.5,1480.5 c -23.84,0.67 -47.84,1.33 -72,2 -0.03,20.15 -0.03,40.49 0,61 24.33,0 48.67,0 73,0 0,107.33 0,214.67 0,322 -0.68,-6.4 -1.35,-12.9 -2,-19.5 0.33,-99.67 0.67,-199.33 1,-299 -0.5,-1.16 -1.33,-1.99 -2.5,-2.5 -22.06,0.15 -44.06,0.48 -66,1 -1.4,-0.73 -2.9,-1.23 -4.5,-1.5 -0.66,-10.26 -0.99,-20.59 -1,-31 0.01,-10.54 0.34,-21.04 1,-31.5 24.32,-1 48.66,-1.33 73,-1 z"
       id="path994" />
  </g>
</svg>
