<?xml version="1.0" encoding="UTF-8" standalone="no"?>
<svg
   height="525"
   viewBox="17.51 16.658 984.506 179.357"
   width="2500"
   version="1.1"
   id="svg8"
   sodipodi:docname="johnson-johnson-4.svg"
   inkscape:version="1.2.2 (732a01da63, 2022-12-09)"
   xmlns:inkscape="http://www.inkscape.org/namespaces/inkscape"
   xmlns:sodipodi="http://sodipodi.sourceforge.net/DTD/sodipodi-0.dtd"
   xmlns="http://www.w3.org/2000/svg"
   xmlns:svg="http://www.w3.org/2000/svg">
  <defs
     id="defs12" />
  <sodipodi:namedview
     id="namedview10"
     pagecolor="#ffffff"
     bordercolor="#000000"
     borderopacity="0.25"
     inkscape:showpageshadow="2"
     inkscape:pageopacity="0.0"
     inkscape:pagecheckerboard="0"
     inkscape:deskcolor="#d1d1d1"
     showgrid="false"
     inkscape:zoom="0.2514"
     inkscape:cx="1634.8449"
     inkscape:cy="-190.93079"
     inkscape:window-width="1536"
     inkscape:window-height="841"
     inkscape:window-x="-8"
     inkscape:window-y="-8"
     inkscape:window-maximized="1"
     inkscape:current-layer="g6" />
  <g
     fill="#ec1b24"
     id="g6">
    <path
       d="M 409.763,86.559 C 339.24589,53.468316 86.265162,137.0001 84.258,106.103 84.11,101.968 84.025,96.445 84.96,94.377 c 2.145,-4.723 -0.467,-2.988 -1.877,-2.074 -10.238,6.684 -17.624,15.641 -24.676,23.685 -20.272,23.147 -23.742,44.616 -24.443,52.433 -0.708,7.817 0.7,15.861 6.578,16.095 9.864,0.382 15.514,-18.63 15.981,-34.264 0.588,-19.543 -8.228,-49.205 -8.929,-72.203 -0.708,-22.991 9.637,-45.53 11.514,-49.665 1.883,-4.142 0.942,-5.29 -3.994,-3.222 -11.556,4.843 -24.209,26.906 -23.734,49.898 0.468,22.991 6.345,34.95 16.916,47.137 l -3.993,6.21 -1.877,-1.841 C 27.38,111.852 17.947,102.654 17.75,75.06 17.51,42.637 45.577,21.267 62.401,17.804 c 4.461,-0.92 4.702,2.302 3.293,7.124 -1.416,4.829 -4.468,22.538 -3.059,41.62 1.41,19.09 4.284,37.947 5.176,61.398 1.608,42.62 -20.102,68.068 -31.262,68.068 -9.87,0 -11.513,-10.579 -11.513,-20.47 0,-9.885 6.812,-38.626 30.08,-66.22 145.76341,-34.162565 219.11239,-40.816059 360.292,-36.798 5.877,0.234 9.162,6.677 9.162,16.328 v 12.88 c 0,1.841 1.884,3.682 4.235,-1.38 1.133,-2.443 7.987,-17.936 14.097,-24.373 6.111,-6.443 8.228,-5.523 10.58,-5.523 2.35,0 8.482,1.841 8.482,14.261 v 28.975 c 0,3.448 1.841,3.675 3.753,1.38 1.84,-2.3 3.965,-4.602 6.302,-7.364 2.407,-2.754 8.284,-2.294 3.823,4.143 -4.531,6.436 -9.913,20.237 -19.068,20.003 -9.17,-0.227 -10.813,-10.119 -11.046,-13.793 -0.234,-3.683 -0.942,-26.214 -0.708,-28.975 0.234,-2.761 -1.664,-2.195 -3.052,0.226 -2.117,3.682 -13.66,26.893 -17.157,32.884 -2.825,4.829 -5.169,8.737 -8.702,8.737 -3.52,0 -6.104,-2.988 -6.104,-10.345 0,-7.357 0.234,-27.594 -0.24,-34.03 m 521.726,-0.001 c -0.354,-4.822 -3.257,-4.83 -7.01,-1.841 -101.99988,-7.989553 -300.36318,-19.208815 -344.339,31.27 -20.252,23.147 -23.721,44.616 -24.43,52.433 -0.707,7.817 0.709,15.861 6.586,16.095 9.842,0.382 15.507,-18.63 16.003,-34.264 0.566,-19.543 -8.214,-49.205 -8.922,-72.203 -0.708,-22.991 9.63,-45.53 11.47,-49.665 1.912,-4.142 0.921,-5.29 -3.965,-3.222 -11.541,4.844 -24.216,26.907 -23.72,49.899 0.425,22.991 6.302,34.95 16.923,47.137 l -4.036,6.21 -1.841,-1.841 c -15.082,-14.714 -24.5,-23.912 -24.712,-51.506 -0.213,-32.423 27.827,-53.793 44.68,-57.256 4.46,-0.92 4.673,2.302 3.257,7.124 -1.416,4.829 -4.461,22.538 -3.045,41.62 1.416,19.09 4.32,37.947 5.169,61.398 1.629,42.62 -20.11,68.068 -31.226,68.068 -9.913,0 -11.542,-10.579 -11.542,-20.47 0,-9.885 6.798,-38.626 30.093,-66.22 138.97823,-103.1938217 230.06498,60.46764 346.393,-30.582 6.373,-5.063 8.002,-6.444 13.879,-6.217 5.877,0.234 9.205,6.677 9.205,16.328 v 12.88 c 0,1.841 1.84,3.682 4.177,-1.38 1.133,-2.443 8.002,-17.936 14.091,-24.373 6.16,-6.443 8.285,-5.523 10.621,-5.523 2.336,0 8.427,1.841 8.427,14.261 v 28.975 c 0,3.448 1.911,3.675 3.752,1.38 1.912,-2.3 4.036,-4.602 6.373,-7.364 2.337,-2.754 8.214,-2.294 3.753,4.143 -4.461,6.436 -9.842,20.237 -19.047,20.003 -9.135,-0.227 -10.763,-10.119 -11.047,-13.793 -0.212,-3.683 -0.92,-26.214 -0.708,-28.975 0.284,-2.762 -1.628,-2.195 -3.044,0.226 -2.125,3.682 -13.666,26.893 -17.136,32.884 -2.832,4.829 -5.169,8.737 -8.71,8.737 -3.541,0 -6.089,-2.988 -6.089,-10.345 0,-7.357 0.213,-27.594 -0.283,-34.03"
       id="path2"
       sodipodi:nodetypes="ccccccccccccccccccccssccssccssscccccsccsscccccccccccccccccccsscccssccsssccccccccssc" />
    <path
       d="m514.573 87.02c2.195-.723 4.461-1.842 6.373-2.536 1.841-.686 3.54-.686 4.886 3.449 1.416 4.142 4.602 19.231 1.912 32.196-1.912 9.198-7.081 11.747-8.002-.694-.708-9.65-12.179-17.702-16.427-17.702-4.249 0-6.373 1.147-6.16 3.449.283 2.294 5.027 6.266 9.913 6.896 8.922 1.154 31.51-5.516 42.343-3.908l7.506 8.05c-13.666-8.277-30.377 2.755-45.388 2.755-13.17 0-27.828-3.448-28.182-14.254-.283-6.67 6.798-9.184 13.808-9.424 6.656-.234 13.807.8 19.755 6.663 1.416 1.38 2.124 1.614 1.912-.914-.213-2.535-3.328-8.284-4.957-10.352-1.628-2.067-.708-3.222.708-3.675"
       id="path4" />
  </g>
</svg>
