<?xml version="1.0" encoding="UTF-8" standalone="no"?>
<svg
   width="2500"
   height="1595"
   viewBox="0 0 46.986 29.979"
   version="1.1"
   id="svg10"
   sodipodi:docname="dhl-1.svg"
   inkscape:version="1.2.2 (732a01da63, 2022-12-09)"
   xmlns:inkscape="http://www.inkscape.org/namespaces/inkscape"
   xmlns:sodipodi="http://sodipodi.sourceforge.net/DTD/sodipodi-0.dtd"
   xmlns="http://www.w3.org/2000/svg"
   xmlns:svg="http://www.w3.org/2000/svg">
  <defs
     id="defs14" />
  <sodipodi:namedview
     id="namedview12"
     pagecolor="#ffffff"
     bordercolor="#000000"
     borderopacity="0.25"
     inkscape:showpageshadow="2"
     inkscape:pageopacity="0.0"
     inkscape:pagecheckerboard="0"
     inkscape:deskcolor="#d1d1d1"
     showgrid="false"
     inkscape:zoom="0.35553329"
     inkscape:cx="1240.3902"
     inkscape:cy="821.30143"
     inkscape:window-width="1536"
     inkscape:window-height="841"
     inkscape:window-x="-8"
     inkscape:window-y="-8"
     inkscape:window-maximized="1"
     inkscape:current-layer="g8" />
  <path
     fill="#ffcb01"
     d="M0 0h46.986v29.979H0z"
     id="path2" />
  <g
     fill="#d80613"
     id="g8">
    <path
       d="M8.731 11.413L7.276 13.39h7.93c.401 0 .396.151.2.418-.199.27-.532.737-.735 1.012-.103.139-.289.392.327.392h3.243l.961-1.306c.596-.809.052-2.492-2.079-2.492l-8.392-.001z"
       id="path4" />
    <path
       d="M 6.687,17.854 9.61,13.882 h 3.627 c 0.401,0 0.396,0.152 0.2,0.418 l -0.74,1.008 c -0.103,0.139 -0.289,0.392 0.327,0.392 h 4.858 c -0.403,0.554 -1.715,2.154 -4.067,2.154 z m 12.917,-2.643 c -13.0703427,-10.1406667 -6.535171,-5.070333 0,0 z M 0.722,16.549 H 6.88 L 6.544,17.006 H 0.722 Z m 0,-0.85 H 7.506 L 7.169,16.156 H 0.722 Z m 0,1.7 H 6.255 L 5.92,17.854 H 0.722 Z m 45.543,-0.393 h -6.136 l 0.337,-0.457 h 5.799 z m 0,0.848 h -6.759 l 0.334,-0.455 h 6.425 z m -5.174,-2.155 h 5.174 v 0.458 h -5.51 z"
       id="path6"
       sodipodi:nodetypes="ccsccscsccccccccccccccccccccccccccccccccc" />
  </g>
</svg>
