<?xml version="1.0" encoding="UTF-8" standalone="no"?>
<svg
   width="2000"
   height="535"
   viewBox="5.531 5.203 808.28 216.038"
   version="1.1"
   id="svg8"
   sodipodi:docname="bnp-paribas-1.svg"
   inkscape:version="1.2.2 (732a01da63, 2022-12-09)"
   xmlns:inkscape="http://www.inkscape.org/namespaces/inkscape"
   xmlns:sodipodi="http://sodipodi.sourceforge.net/DTD/sodipodi-0.dtd"
   xmlns="http://www.w3.org/2000/svg"
   xmlns:svg="http://www.w3.org/2000/svg">
  <defs
     id="defs12" />
  <sodipodi:namedview
     id="namedview10"
     pagecolor="#ffffff"
     bordercolor="#000000"
     borderopacity="0.25"
     inkscape:showpageshadow="2"
     inkscape:pageopacity="0.0"
     inkscape:pagecheckerboard="0"
     inkscape:deskcolor="#d1d1d1"
     showgrid="false"
     inkscape:zoom="0.5028"
     inkscape:cx="1008.3532"
     inkscape:cy="266.50756"
     inkscape:window-width="1536"
     inkscape:window-height="841"
     inkscape:window-x="-8"
     inkscape:window-y="-8"
     inkscape:window-maximized="1"
     inkscape:current-layer="svg8" />
  <path
     fill="#010000"
     d="m 263.624,146.211 v 0.793 c 0.57,7.693 0.95,26.99 0.95,34.063 0,6.452 -0.095,28.005 -1.109,37.392 v 0.791 h 33.906 c 16.604,0 34.222,-5.171 34.222,-19.963 0,-9.277 -6.623,-16.18 -19.171,-19.963 9.189,-2.445 15.527,-8.796 15.527,-16.16 0,-12.041 -13.943,-16.68 -26.935,-16.953 z m 270.292,0 v 0.635 c 0.57,7.719 1.109,26.965 1.109,34.063 0,6.445 -0.254,28.171 -1.268,37.551 v 0.791 h 20.28 v -0.791 c -0.697,-6.687 -0.982,-19.425 -1.109,-29.312 0.888,0.044 3.803,0.159 3.803,0.159 l 2.852,0.158 c 26.808,0 39.768,-7.193 39.768,-22.023 0,-16.901 -18.315,-20.888 -33.589,-21.23 h -31.846 z m -247.794,8.239 c 1.172,-0.085 2.566,-0.01 3.802,0 14.133,0.05 19.329,2.877 19.329,10.615 0,2.072 -0.538,3.859 -1.742,5.387 -2.726,3.238 -8.239,4.925 -14.894,4.595 h -0.316 l -3.961,10.299 h 3.961 c 7.795,-0.223 14.576,2.242 18.062,6.496 1.647,1.971 2.377,4.238 2.377,6.654 0,8.124 -7.13,12.199 -21.072,12.199 -2.345,0 -6.147,-0.014 -8.556,-0.158 -0.507,-10.691 -0.476,-25.166 -0.476,-29.47 0,-5.102 0.159,-16.439 0.476,-26.142 0.792,-0.136 1.837,-0.39 3.01,-0.475 z m 272.669,0.634 c 9.506,-0.172 16.256,1.749 19.487,5.703 1.458,1.819 2.218,4.057 2.218,6.654 0,10.578 -11.756,12.834 -21.705,12.834 l -4.119,-0.158 c 0,0 -1.015,-0.234 -1.585,-0.317 -0.063,-2.434 -0.158,-5.552 -0.158,-9.188 0,-4.658 0.127,-9.957 0.316,-15.053 1.268,-0.235 3.391,-0.424 5.546,-0.475 z"
     id="path2"
     sodipodi:nodetypes="ccsccsscsccccscccccccscccccsccccccsscsccccscccscc" />
  <path
     fill="#00925c"
     d="M 5.531,221.24 H 221.575 V 5.203 H 5.531 Z"
     id="path4" />
  <path
     fill="#ffffff"
     d="m 128.16,29.127 c 5.895,2.446 29.66,15.438 32.639,19.487 -12.612,1.673 -36.631,8.803 -48.799,15.21 13.942,-3.055 33.367,-4.683 46.738,-5.387 -5.196,7.681 -8.048,11.61 -16.477,20.755 14.449,-8.676 18.474,-9.278 31.846,-17.111 5.006,7.453 6.306,24.685 6.495,38.342 4.373,-8.676 9.665,-41.289 7.447,-47.214 8.048,-5.272 8.048,-7.364 10.14,-10.932 C 190.077,43 185.514,43.132 181.078,44.495 169.925,37.638 146.919,30.584 128.16,29.127 Z M 96.474,70.479 c -3.612,0.533 -13.816,5.108 -20.597,10.457 0,0 -4.5,-0.551 -12.042,-0.317 -7.541,0.33 -17.428,2.231 -21.23,3.802 7.352,0.342 17.365,2.18 21.23,6.021 0,0 -11.217,10.108 -22.181,32.163 0,0 20.153,-18.772 28.835,-23.449 0,0 4.437,15.261 7.605,22.815 0,0 2.82,-17.599 7.446,-27.727 0,0 1.299,-0.805 7.764,-1.426 6.4,-0.57 15.432,-0.982 32.796,2.06 0,0 -15.938,-10.121 -35.648,-12.833 0.761,-2.7 3.55,-8.493 6.022,-11.566 z m -56.721,59.888 c -1.268,10.844 -1.68,18.746 -0.158,27.41 -4.943,1.344 -8.461,2.472 -12.517,4.277 5.703,3.505 10.394,6.262 16.794,9.189 3.359,7.301 6.813,12.148 12.517,17.745 -1.331,-4.772 -1.616,-8.601 -1.109,-13.626 7.162,2.086 13.119,3.227 21.23,3.486 -7.731,-2.852 -13.245,-6.198 -19.329,-11.883 1.838,-4.981 3.93,-8.968 7.288,-13.943 -6.21,0.889 -10.773,1.643 -16.16,2.693 -4.373,-7.672 -6.338,-15.106 -8.556,-25.348 z m 94.745,33.748 c -5.45,3.834 -10.203,6.824 -16.478,9.822 -0.316,-2.94 -0.507,-5.418 -0.634,-8.714 -3.549,4.716 -6.527,8.334 -10.457,12.675 -6.654,1.813 -11.914,2.51 -18.378,2.535 3.929,2.047 7.922,3.289 12.041,4.119 -4.119,3.771 -7.731,6.471 -11.725,9.031 6.781,-1.609 15.59,-4.525 22.182,-8.396 3.422,0.113 6.844,-0.039 9.188,-0.477 -0.57,-2.04 -1.014,-3.567 -1.584,-6.179 6.276,-4.834 10.712,-9.176 15.845,-14.416 z"
     id="path6" />
</svg>
