<?xml version="1.0" encoding="UTF-8" standalone="no"?>
<svg
   width="2500"
   height="2141"
   viewBox="5 4.87 200 171.261"
   version="1.1"
   id="svg117"
   sodipodi:docname="nissan-6.svg"
   inkscape:version="1.2.2 (732a01da63, 2022-12-09)"
   xmlns:inkscape="http://www.inkscape.org/namespaces/inkscape"
   xmlns:sodipodi="http://sodipodi.sourceforge.net/DTD/sodipodi-0.dtd"
   xmlns="http://www.w3.org/2000/svg"
   xmlns:svg="http://www.w3.org/2000/svg">
  <defs
     id="defs121" />
  <sodipodi:namedview
     id="namedview119"
     pagecolor="#ffffff"
     bordercolor="#000000"
     borderopacity="0.25"
     inkscape:showpageshadow="2"
     inkscape:pageopacity="0.0"
     inkscape:pagecheckerboard="0"
     inkscape:deskcolor="#d1d1d1"
     showgrid="false"
     inkscape:zoom="0.38720224"
     inkscape:cx="1107.9481"
     inkscape:cy="1071.7913"
     inkscape:window-width="1536"
     inkscape:window-height="841"
     inkscape:window-x="-8"
     inkscape:window-y="-8"
     inkscape:window-maximized="1"
     inkscape:current-layer="svg117" />
  <title
     id="title2">Nissan Logo</title>
  <desc
     id="desc4">Für mehr Informationen siehe: http://de.wikipedia.org/wiki/Datei:Nissan_Logo.svg</desc>
  <linearGradient
     id="a"
     gradientUnits="userSpaceOnUse"
     x1="-1926.795"
     y1="1110.028"
     x2="-1926.795"
     y2="1249.429"
     gradientTransform="translate(2031.795 -1102.63)">
    <stop
       offset=".194"
       stop-color="#fff"
       id="stop6" />
    <stop
       offset=".208"
       stop-color="#f8f8f8"
       id="stop8" />
    <stop
       offset=".366"
       stop-color="#aeaeae"
       id="stop10" />
    <stop
       offset=".513"
       stop-color="#707070"
       id="stop12" />
    <stop
       offset=".647"
       stop-color="#404040"
       id="stop14" />
    <stop
       offset=".764"
       stop-color="#1d1d1d"
       id="stop16" />
    <stop
       offset=".86"
       stop-color="#080808"
       id="stop18" />
    <stop
       offset=".922"
       id="stop20" />
  </linearGradient>
  <path
     d="M198.119 69.765c-1.848-.516-3.906-.76-8.241-1.295-17.942-.736-62.282-2.46-84.877-2.46-22.594 0-66.935 1.723-84.875 2.46-4.337.535-6.397.779-8.244 1.295C6.241 71.095 5 73.12 5 77.16v27.689c0 4.041 4.329 6.764 7.313 7.313 2.986.553 4.875.774 8.016 1.073 16.047.994 53.277 3.066 84.671 3.099 31.395-.03 68.623-2.104 84.671-3.099 3.14-.299 5.03-.521 8.017-1.073 2.983-.55 7.312-3.272 7.312-7.313V77.16c0-4.04-1.24-6.065-6.881-7.395z"
     fill="url(#a)"
     id="path23" />
  <radialGradient
     id="b"
     cx="-1982.938"
     cy="1073.071"
     r="139.463"
     gradientTransform="translate(2031.795 -1102.63)"
     gradientUnits="userSpaceOnUse">
    <stop
       offset=".202"
       stop-color="#fff"
       id="stop25" />
    <stop
       offset=".382"
       stop-color="#fdfdfd"
       id="stop27" />
    <stop
       offset=".487"
       stop-color="#f4f4f4"
       id="stop29" />
    <stop
       offset=".573"
       stop-color="#e6e6e6"
       id="stop31" />
    <stop
       offset=".648"
       stop-color="#d2d2d2"
       id="stop33" />
    <stop
       offset=".689"
       stop-color="#c4c4c4"
       id="stop35" />
    <stop
       offset="1"
       stop-color="#333"
       id="stop37" />
  </radialGradient>
  <path
     d="M33.05 70.854c8.828-30.71 37.835-53.243 72.268-53.243 34.334 0 63.282 22.409 72.196 52.996.028.108.047.164.078.268 5.118-.575 9.703-1.463 12.943-2.328-.059-.197-.074-.237-.125-.431C180.279 31.681 146.021 4.87 105.318 4.87c-40.84 0-75.188 26.985-85.194 63.6 4.501 1.233 7.798 1.75 12.926 2.384z"
     fill="url(#b)"
     id="path40" />
  <radialGradient
     id="c"
     cx="-1645.429"
     cy="1296.455"
     r="290.45"
     gradientTransform="translate(2031.795 -1102.63)"
     gradientUnits="userSpaceOnUse">
    <stop
       offset=".202"
       stop-color="#fff"
       id="stop42" />
    <stop
       offset=".368"
       stop-color="#e4e4e4"
       id="stop44" />
    <stop
       offset=".594"
       stop-color="#c4c4c4"
       id="stop46" />
    <stop
       offset="1"
       stop-color="#333"
       id="stop48" />
  </radialGradient>
  <path
     d="M177.303 111.104c-.089.273-.188.574-.234.723-9.387 29.852-37.957 51.564-71.75 51.564-34.06 0-62.81-22.047-71.969-52.258-5.598.991-7.489 1.368-13.021 2.104 10.25 36.257 44.414 62.895 84.99 62.895 40.593 0 74.769-26.666 85-62.953-4.874-.602-7.745-1.057-13.016-2.075z"
     fill="url(#c)"
     id="path51" />
  <radialGradient
     id="d"
     cx="-1949.44"
     cy="1232.36"
     r="89.169"
     gradientTransform="translate(2031.795 -1102.63)"
     gradientUnits="userSpaceOnUse">
    <stop
       offset=".202"
       stop-color="#fff"
       id="stop53" />
    <stop
       offset=".368"
       stop-color="#e4e4e4"
       id="stop55" />
    <stop
       offset=".594"
       stop-color="#c4c4c4"
       id="stop57" />
    <stop
       offset="1"
       stop-color="#333"
       id="stop59" />
  </radialGradient>
  <path
     d="M34.852 70.788c2.125-.878 4.181-2.278 7.386-3.179 9.555-24.825 34.189-42.503 63.079-42.503 28.8 0 53.373 17.569 62.988 42.274.034.084.069.186.096.249 1.654.573 6.527 2.549 8.043 3.21.215.005.674.021 1.148.034a7.05 7.05 0 0 1-.078-.268c-8.918-30.577-37.865-52.979-72.197-52.979-34.424 0-63.431 22.523-72.262 53.227.51.001 1.481-.043 1.797-.065z"
     fill="url(#d)"
     id="path62" />
  <path
     d="M104.769 19.703c32.213 0 60.768 19.208 71.584 50.869l.088.269c.168 0 .781.022 1.148.034-.029-.115-.059-.182-.078-.268-8.918-30.577-37.865-52.979-72.197-52.979-34.424 0-63.431 22.523-72.262 53.227.688-.011 1.019-.011 1.799-.066 9.67-30.058 37.942-51.086 69.918-51.086z"
     fill="#fff"
     id="path64" />
  <radialGradient
     id="e"
     cx="-1877.483"
     cy="1323.538"
     r="169.194"
     gradientTransform="translate(2031.795 -1102.63)"
     gradientUnits="userSpaceOnUse">
    <stop
       offset=".202"
       stop-color="#fff"
       id="stop66" />
    <stop
       offset=".368"
       stop-color="#e4e4e4"
       id="stop68" />
    <stop
       offset=".594"
       stop-color="#c4c4c4"
       id="stop70" />
    <stop
       offset="1"
       stop-color="#333"
       id="stop72" />
  </radialGradient>
  <path
     d="M175.477 111.191c-2.314 1.293-5.195 2.537-7.498 3.264-.031.074-.162.402-.19.479-9.962 24.022-34.179 40.979-62.471 40.979-28.47 0-52.811-17.163-62.657-41.423-2.649-.735-6.609-2.541-8.108-3.295-.561-.027-.863-.043-1.208-.061 9.159 30.207 37.914 52.258 71.974 52.258 33.906 0 62.55-21.849 71.843-51.843.02-.058.123-.388.145-.444-.537.021-1.358.086-1.83.086z"
     fill="url(#e)"
     id="path75" />
  <radialGradient
     id="f"
     cx="-1928.135"
     cy="1125.143"
     r="134.452"
     gradientTransform="translate(2031.795 -1102.63)"
     gradientUnits="userSpaceOnUse">
    <stop
       offset=".202"
       stop-color="#fff"
       id="stop77" />
    <stop
       offset=".397"
       stop-color="#fdfdfd"
       id="stop79" />
    <stop
       offset=".51"
       stop-color="#f4f4f4"
       id="stop81" />
    <stop
       offset=".603"
       stop-color="#e6e6e6"
       id="stop83" />
    <stop
       offset=".684"
       stop-color="#d2d2d2"
       id="stop85" />
    <stop
       offset=".728"
       stop-color="#c4c4c4"
       id="stop87" />
    <stop
       offset="1"
       stop-color="#4d4d4d"
       id="stop89" />
  </radialGradient>
  <path
     d="M196.516 71.77c-4.752-.578-7.992-.516-19.568-.915-.526-.019-1.061-.035-1.604-.054-20.99-.72-52.52-1.682-70.344-1.682-17.823 0-49.352.962-70.345 1.682-.542.019-1.075.035-1.6.054-11.578.399-14.817.337-19.57.915C8.733 72.353 5 74.434 5 77.973v25.677c0 3.541 4.497 6.408 8.484 6.408 0 0 50.746 3.133 91.516 3.17 40.771-.037 91.516-3.17 91.516-3.17 3.987 0 8.484-2.867 8.484-6.408V77.973c0-3.539-3.732-5.62-8.484-6.203z"
     fill="url(#f)"
     id="path92" />
  <path
     d="M175.477 111.191c-9.959 29.543-37.967 50.123-69.604 50.123-31.959 0-60.317-18.906-71.323-50.123-.404-.021-.804-.037-1.199-.06 9.157 30.208 37.917 52.259 71.978 52.259 34.072 0 62.835-22.065 71.984-52.289-.602.028-1.213.061-1.836.09z"
     fill="#fff"
     id="path94" />
  <path
     d="M175.535 111.189l-.061.002c-2.314 1.293-5.193 2.537-7.498 3.264-.031.074-.162.402-.189.479-3.152 7.602-7.732 14.496-13.422 20.371 8.906-6.511 16.17-14.737 21.17-24.116z"
     fill="#8c8c8c"
     id="path96" />
  <path
     d="M58.19 137.216c-6.698-6.38-12.03-14.103-15.53-22.728-2.649-.736-6.608-2.543-8.108-3.297a63.415 63.415 0 0 0 5.648 9.494c4.409 5.742 9.753 10.86 15.836 15.191.708.464 1.426.91 2.154 1.34z"
     fill="#4d4d4d"
     id="path98" />
  <path
     d="M33.348 111.135v-.002l-.023.004c-5.58.989-7.473 1.368-12.997 2.1.445 1.58.938 3.137 1.475 4.678l11.545-6.78z"
     fill="#252525"
     id="path100" />
  <radialGradient
     id="g"
     cx="-1925.021"
     cy="1138.607"
     r="90.561"
     gradientTransform="translate(2031.795 -1102.63)"
     gradientUnits="userSpaceOnUse">
    <stop
       offset=".111"
       stop-color="#4d4d4d"
       id="stop102" />
    <stop
       offset=".248"
       stop-color="#494949"
       id="stop104" />
    <stop
       offset=".355"
       stop-color="#404040"
       id="stop106" />
    <stop
       offset=".451"
       stop-color="#2f2f2f"
       id="stop108" />
    <stop
       offset=".541"
       stop-color="#181818"
       id="stop110" />
    <stop
       offset=".611"
       id="stop112" />
  </radialGradient>
  <path
     d="m 52.833,79.608 c 0.587,0 0.688,0.195 0.688,0.688 v 20.896 c 0,0.59 -0.101,0.688 -0.688,0.688 h -5.985 c -3.53,0 -3.825,0 -5.001,-1.96 -2.453,-3.825 -9.812,-15.107 -9.812,-15.107 v 16.381 c 0,0.591 -0.098,0.687 -0.685,0.687 h -4.416 c -0.588,0 -0.687,-0.096 -0.687,-0.687 V 80.296 c 0,-0.491 0.099,-0.688 0.687,-0.688 h 5.101 c 3.826,0 4.316,-0.097 5.692,1.865 1.078,1.767 10.005,15.5 10.005,15.5 V 80.296 c 0,-0.491 0.098,-0.688 0.688,-0.688 z"
     fill="url(#g)"
     id="path115"
     sodipodi:nodetypes="sssssccsssssssccsss" />
</svg>
