<?xml version="1.0" encoding="UTF-8" standalone="no"?>
<svg
   width="2500"
   height="2500"
   viewBox="0 0 192.756 192.756"
   version="1.1"
   id="svg12"
   sodipodi:docname="kia.svg"
   inkscape:version="1.2.2 (732a01da63, 2022-12-09)"
   xmlns:inkscape="http://www.inkscape.org/namespaces/inkscape"
   xmlns:sodipodi="http://sodipodi.sourceforge.net/DTD/sodipodi-0.dtd"
   xmlns="http://www.w3.org/2000/svg"
   xmlns:svg="http://www.w3.org/2000/svg">
  <defs
     id="defs16" />
  <sodipodi:namedview
     id="namedview14"
     pagecolor="#ffffff"
     bordercolor="#000000"
     borderopacity="0.25"
     inkscape:showpageshadow="2"
     inkscape:pageopacity="0.0"
     inkscape:pagecheckerboard="0"
     inkscape:deskcolor="#d1d1d1"
     showgrid="false"
     inkscape:zoom="0.1658"
     inkscape:cx="1133.8963"
     inkscape:cy="934.86128"
     inkscape:window-width="1536"
     inkscape:window-height="841"
     inkscape:window-x="-8"
     inkscape:window-y="-8"
     inkscape:window-maximized="1"
     inkscape:current-layer="g10" />
  <g
     fill-rule="evenodd"
     clip-rule="evenodd"
     id="g10">
    <path
       fill="#fff"
       d="M0 0h192.756v192.756H0V0z"
       id="path2" />
    <path
       d="M137.691 53.884c-12.467-3.155-26.498-4.925-41.326-4.925-.103 0-.206.025-.333.025-13.442 0-26.269 1.488-37.864 4.13-32.554 7.44-55.334 24.063-55.334 43.277 0 19.215 22.78 35.837 55.333 43.276 11.595 2.643 24.421 4.13 37.864 4.13h.333c14.828 0 28.859-1.744 41.326-4.899 30.912-7.747 52.23-23.908 52.23-42.507.002-18.598-21.316-34.76-52.229-42.507zm0 74.676c-12.287 2.848-26.371 4.464-41.326 4.464-.103 0-.206-.025-.333-.025-13.545 0-26.397-1.36-37.864-3.746-28.706-5.977-48.51-18.47-48.51-32.861 0-14.391 19.804-26.884 48.51-32.861 11.467-2.386 24.319-3.746 37.864-3.771h.333c14.955 0 29.039 1.616 41.326 4.463 27.012 6.208 45.406 18.316 45.406 32.168s-18.394 25.961-45.406 32.169z"
       fill="#cc2229"
       id="path6" />
    <path
       d="M145.771 75.792c-.383-.873-1.051-1.693-1.924-1.693H127.994c-.564 0-1.334.462-1.334 1.231-.025 2.257 2.336 2.181 2.207 2.514l-13.365 39.428c-.23.667.359 1.898 1.18 1.898l9.312-.077c.82 0 1.975-.692 2.309-1.693l4.412-13.236c1.488-4.413 2.977-8.825 4.438-13.237.078-.179.309-.282.539-.282.359 0 .744.128.82.385l8.646 26.525c.18.59 1.385 1.539 2.025 1.539l9.697.077c.564 0 1.232-1.129 1.053-1.642l-14.162-41.737z"
       fill="#cc2229"
       id="path8" />
  </g>
</svg>
