<?xml version="1.0" encoding="UTF-8" standalone="no"?>
<svg
   width="2500"
   height="1389"
   viewBox="7.612 11.736 285.426 158.566"
   version="1.1"
   id="svg47"
   sodipodi:docname="verizon.svg"
   inkscape:version="1.2.2 (732a01da63, 2022-12-09)"
   xmlns:inkscape="http://www.inkscape.org/namespaces/inkscape"
   xmlns:sodipodi="http://sodipodi.sourceforge.net/DTD/sodipodi-0.dtd"
   xmlns:xlink="http://www.w3.org/1999/xlink"
   xmlns="http://www.w3.org/2000/svg"
   xmlns:svg="http://www.w3.org/2000/svg">
  <sodipodi:namedview
     id="namedview49"
     pagecolor="#ffffff"
     bordercolor="#000000"
     borderopacity="0.25"
     inkscape:showpageshadow="2"
     inkscape:pageopacity="0.0"
     inkscape:pagecheckerboard="0"
     inkscape:deskcolor="#d1d1d1"
     showgrid="false"
     inkscape:zoom="0.5468"
     inkscape:cx="1137.5274"
     inkscape:cy="695.86686"
     inkscape:window-width="1920"
     inkscape:window-height="991"
     inkscape:window-x="-9"
     inkscape:window-y="-9"
     inkscape:window-maximized="1"
     inkscape:current-layer="svg47" />
  <path
     d="m 99.281,156.536 c -61.112667,-96.538895 -30.556333,-48.26945 0,0 z m -71.171,0 -6.187,-36.188 h 14.38 l 2.331,22.857 10.301,-22.857 H 62.75 l -18.609,36.188 z"
     id="path2"
     sodipodi:nodetypes="cccccccccc" />
  <defs
     id="defs5">
    <path
       id="a"
       d="M46.789 100.455l3.832-1.402 2.504 6.885-10.698 3.912L7.612 14.245l6.906-2.483 32.271 88.693" />
  </defs>
  <clipPath
     id="b">
    <use
       xlink:href="#a"
       overflow="visible"
       id="use7" />
  </clipPath>
  <linearGradient
     id="c"
     gradientUnits="userSpaceOnUse"
     x1="-1318.447"
     y1="1237.196"
     x2="-1316.162"
     y2="1237.196"
     gradientTransform="matrix(-7.0595 -19.3951 2.6758 -.9741 -12589.731 -24311.037)">
    <stop
       offset="0"
       stop-color="#ed1b34"
       id="stop10" />
    <stop
       offset="1"
       stop-color="#fff"
       id="stop12" />
  </linearGradient>
  <path
     clip-path="url(#b)"
     fill="url(#c)"
     d="M12.936 124.482L-23.916 23.237 47.8-2.872 84.652 98.373z"
     id="path15" />
  <g
     id="g30">
    <defs
       id="defs18">
      <path
         id="d"
         d="M46.789 100.455l243.746-88.719 2.503 6.881L42.427 109.85l-3.579-9.851 6.87-2.513 1.071 2.969" />
    </defs>
    <clipPath
       id="e">
      <use
         xlink:href="#d"
         overflow="visible"
         id="use20" />
    </clipPath>
    <linearGradient
       id="f"
       gradientUnits="userSpaceOnUse"
       x1="-1318.423"
       y1="1363.228"
       x2="-1316.393"
       y2="1363.228"
       gradientTransform="matrix(49.9357 -18.1751 .9107 2.5024 64786.719 -27322.441)">
      <stop
         offset="0"
         stop-color="#ed1b34"
         id="stop23" />
      <stop
         offset="1"
         stop-color="#fff"
         id="stop25" />
    </linearGradient>
    <path
       clip-path="url(#e)"
       fill="url(#f)"
       d="M7.315 23.212l255.99-93.17L324.57 98.373 68.581 191.549z"
       id="path28" />
  </g>
  <g
     id="g45">
    <defs
       id="defs33">
      <path
         id="g"
         d="M145.19 170.302l1.645-9.255 22.936-30.204h-17.964l1.899-10.493h34.314l-1.681 9.254-23.047 30.199h102.372l-1.824 10.499H145.19" />
    </defs>
    <clipPath
       id="h">
      <use
         xlink:href="#g"
         overflow="visible"
         id="use35" />
    </clipPath>
    <linearGradient
       id="i"
       gradientUnits="userSpaceOnUse"
       x1="-1317.809"
       y1="1346.639"
       x2="-1315.271"
       y2="1346.639"
       gradientTransform="matrix(23.3227 4.1124 -2.0414 11.578 33692.59 -10026.127)">
      <stop
         offset="0"
         stop-color="#ed1b34"
         id="stop38" />
      <stop
         offset="1"
         stop-color="#fff"
         id="stop40" />
    </linearGradient>
    <path
       clip-path="url(#h)"
       fill="url(#i)"
       d="M148.823 99.746l125.382 22.109-12.174 69.049-125.383-22.108z"
       id="path43" />
  </g>
</svg>
